<svg version="1.1" xmlns="http://www.w3.org/2000/svg" viewBox="0 0 1200.2980826241628 621.7857142857134" width="1200.2980826241628" height="621.7857142857134">
  <!-- svg-source:excalidraw -->
  
  <defs>
    <style class="style-fonts">
      @font-face {
        font-family: "Virgil";
        src: url("https://excalidraw.com/Virgil.woff2");
      }
      @font-face {
        font-family: "Cascadia";
        src: url("https://excalidraw.com/Cascadia.woff2");
      }
    </style>
  </defs>
  <rect x="0" y="0" width="1200.2980826241628" height="621.7857142857134" fill="#ffffff"></rect><g stroke-opacity="0.5" fill-opacity="0.5" stroke-linecap="round" transform="translate(10 159.28571428571365) rotate(0 151.16071428571433 67.05357142857139)"><path d="M32 0 M32 0 C89.32 0, 146.65 0, 270.32 0 M270.32 0 C291.65 0, 302.32 10.67, 302.32 32 M302.32 32 C302.32 48.69, 302.32 65.38, 302.32 102.11 M302.32 102.11 C302.32 123.44, 291.65 134.11, 270.32 134.11 M270.32 134.11 C199.64 134.11, 128.96 134.11, 32 134.11 M32 134.11 C10.67 134.11, 0 123.44, 0 102.11 M0 102.11 C0 79.23, 0 56.35, 0 32 M0 32 C0 10.67, 10.67 0, 32 0" stroke="#2b8a3e" stroke-width="2.5" fill="none" stroke-dasharray="8 10"></path></g><g stroke-linecap="round"><g stroke-opacity="0.5" fill-opacity="0.5" transform="translate(241.96428571428578 194.1071428571422) rotate(0 0 0)"><path d="M0 0 C0 0, 0 0, 0 0" stroke="#d9480f" stroke-width="2.5" fill="none" stroke-dasharray="8 10"></path></g></g><mask></mask><g stroke-opacity="0.5" fill-opacity="0.5" transform="translate(107.92825434472695 171.6071428571421) rotate(0 51.643836975097656 58.19063952807045)"><text x="51.643836975097656" y="0" font-family="Virgil, Segoe UI Emoji" font-size="46.55251162245634px" fill="#d9480f" text-anchor="middle" style="white-space: pre;" direction="ltr" dominant-baseline="text-before-edge">路径</text><text x="51.643836975097656" y="58.19063952807043" font-family="Virgil, Segoe UI Emoji" font-size="46.55251162245634px" fill="#d9480f" text-anchor="middle" style="white-space: pre;" direction="ltr" dominant-baseline="text-before-edge">path</text></g><g stroke-opacity="0.5" fill-opacity="0.5" stroke-linecap="round" transform="translate(19.811218888420285 430.26785714285654) rotate(0 149.37936151126632 69.97204029525682)"><path d="M32 0 M32 0 C112.24 0, 192.48 0, 266.76 0 M266.76 0 C288.09 0, 298.76 10.67, 298.76 32 M298.76 32 C298.76 52.21, 298.76 72.42, 298.76 107.94 M298.76 107.94 C298.76 129.28, 288.09 139.94, 266.76 139.94 M266.76 139.94 C216.86 139.94, 166.95 139.94, 32 139.94 M32 139.94 C10.67 139.94, 0 129.28, 0 107.94 M0 107.94 C0 81.42, 0 54.91, 0 32 M0 32 C0 10.67, 10.67 0, 32 0" stroke="#2b8a3e" stroke-width="2.5" fill="none" stroke-dasharray="8 10"></path></g><g stroke-opacity="0.5" fill-opacity="0.5" transform="translate(50.680771586009996 445.1806512017639) rotate(0 110.74014282226562 54.76023754122309)"><text x="110.74014282226562" y="0" font-family="Virgil, Segoe UI Emoji" font-size="43.808190032978466px" fill="#d9480f" text-anchor="middle" style="white-space: pre;" direction="ltr" dominant-baseline="text-before-edge">轨迹</text><text x="110.74014282226562" y="54.760237541223084" font-family="Virgil, Segoe UI Emoji" font-size="43.808190032978466px" fill="#d9480f" text-anchor="middle" style="white-space: pre;" direction="ltr" dominant-baseline="text-before-edge">trajectory</text></g><g stroke-opacity="0.5" fill-opacity="0.5" stroke-linecap="round" transform="translate(519.0178571428573 161.6249999999992) rotate(0 150.44642857142856 64.19642857142856)"><path d="M32 0 M32 0 C103.88 0, 175.77 0, 268.89 0 M268.89 0 C290.23 0, 300.89 10.67, 300.89 32 M300.89 32 C300.89 47.9, 300.89 63.79, 300.89 96.39 M300.89 96.39 C300.89 117.73, 290.23 128.39, 268.89 128.39 M268.89 128.39 C211.31 128.39, 153.72 128.39, 32 128.39 M32 128.39 C10.67 128.39, 0 117.73, 0 96.39 M0 96.39 C0 76.63, 0 56.87, 0 32 M0 32 C0 10.67, 10.67 0, 32 0" stroke="#2b8a3e" stroke-width="2.5" fill="none" stroke-dasharray="8 10"></path></g><g stroke-opacity="0.5" fill-opacity="0.5" transform="translate(584.0293339701257 165.8332516645355) rotate(0 84.50231170654297 59.61921095664172)"><text x="84.50231170654297" y="0" font-family="Virgil, Segoe UI Emoji" font-size="47.695368765313354px" fill="#d9480f" text-anchor="middle" style="white-space: pre;" direction="ltr" dominant-baseline="text-before-edge">规划</text><text x="84.50231170654297" y="59.619210956641695" font-family="Virgil, Segoe UI Emoji" font-size="47.695368765313354px" fill="#d9480f" text-anchor="middle" style="white-space: pre;" direction="ltr" dominant-baseline="text-before-edge">planning</text></g><g stroke-opacity="0.5" fill-opacity="0.5" stroke-linecap="round" transform="translate(531.875 431.2678571428564) rotate(0 155.44642857142867 64.91071428571422)"><path d="M32 0 M32 0 C101.82 0, 171.64 0, 278.89 0 M278.89 0 C300.23 0, 310.89 10.67, 310.89 32 M310.89 32 C310.89 54.39, 310.89 76.78, 310.89 97.82 M310.89 97.82 C310.89 119.15, 300.23 129.82, 278.89 129.82 M278.89 129.82 C206.89 129.82, 134.89 129.82, 32 129.82 M32 129.82 C10.67 129.82, 0 119.15, 0 97.82 M0 97.82 C0 76.28, 0 54.74, 0 32 M0 32 C0 10.67, 10.67 0, 32 0" stroke="#2b8a3e" stroke-width="2.5" fill="none" stroke-dasharray="8 10"></path></g><g stroke-opacity="0.5" fill-opacity="0.5" transform="translate(578.6015397506578 445.90468023596407) rotate(0 123.44381713867188 53.904925242356114)"><text x="123.44381713867188" y="0" font-family="Virgil, Segoe UI Emoji" font-size="43.12394019388487px" fill="#d9480f" text-anchor="middle" style="white-space: pre;" direction="ltr" dominant-baseline="text-before-edge">优化</text><text x="123.44381713867188" y="53.904925242356086" font-family="Virgil, Segoe UI Emoji" font-size="43.12394019388487px" fill="#d9480f" text-anchor="middle" style="white-space: pre;" direction="ltr" dominant-baseline="text-before-edge">optimization</text></g><g stroke-linecap="round"><g stroke-opacity="0.5" fill-opacity="0.5" transform="translate(317.6149240632992 418.2181071767104) rotate(0 99.05831881712277 -69.85285933363309)"><path d="M0 0 C33.02 -23.28, 165.1 -116.42, 198.12 -139.71" stroke="#d9480f" stroke-width="2.5" fill="none" stroke-dasharray="8 10"></path></g><g stroke-opacity="0.5" fill-opacity="0.5" transform="translate(317.6149240632992 418.2181071767104) rotate(0 99.05831881712277 -69.85285933363309)"><path d="M180.99 -115.07 C187.64 -124.63, 194.28 -134.19, 198.12 -139.71" stroke="#d9480f" stroke-width="2.5" fill="none"></path></g><g stroke-opacity="0.5" fill-opacity="0.5" transform="translate(317.6149240632992 418.2181071767104) rotate(0 99.05831881712277 -69.85285933363309)"><path d="M169.16 -131.84 C180.4 -134.9, 191.63 -137.95, 198.12 -139.71" stroke="#d9480f" stroke-width="2.5" fill="none"></path></g></g><mask></mask><g stroke-linecap="round"><g stroke-opacity="0.5" fill-opacity="0.5" transform="translate(312.1056591404315 295.0911329781105) rotate(0 123.4837485240273 65.43480608978848)"><path d="M0 0 C41.16 21.81, 205.81 109.06, 246.97 130.87" stroke="#d9480f" stroke-width="2.5" fill="none" stroke-dasharray="8 10"></path></g><g stroke-opacity="0.5" fill-opacity="0.5" transform="translate(312.1056591404315 295.0911329781105) rotate(0 123.4837485240273 65.43480608978848)"><path d="M217.25 126.74 C225.72 127.91, 234.19 129.09, 246.97 130.87" stroke="#d9480f" stroke-width="2.5" fill="none"></path></g><g stroke-opacity="0.5" fill-opacity="0.5" transform="translate(312.1056591404315 295.0911329781105) rotate(0 123.4837485240273 65.43480608978848)"><path d="M226.86 108.6 C232.59 114.95, 238.33 121.3, 246.97 130.87" stroke="#d9480f" stroke-width="2.5" fill="none"></path></g></g><mask></mask><g stroke-linecap="round"><g stroke-opacity="0.5" fill-opacity="0.5" transform="translate(320.3421342438169 501.39695797408785) rotate(0 99.67452173387176 0.3136528853501659)"><path d="M0 0 C33.22 0.1, 166.12 0.52, 199.35 0.63" stroke="#d9480f" stroke-width="2.5" fill="none" stroke-dasharray="8 10"></path></g><g stroke-opacity="0.5" fill-opacity="0.5" transform="translate(320.3421342438169 501.39695797408785) rotate(0 99.67452173387176 0.3136528853501659)"><path d="M171.13 10.8 C179.87 7.65, 188.6 4.5, 199.35 0.63" stroke="#d9480f" stroke-width="2.5" fill="none"></path></g><g stroke-opacity="0.5" fill-opacity="0.5" transform="translate(320.3421342438169 501.39695797408785) rotate(0 99.67452173387176 0.3136528853501659)"><path d="M171.19 -9.72 C179.91 -6.52, 188.63 -3.31, 199.35 0.63" stroke="#d9480f" stroke-width="2.5" fill="none"></path></g></g><mask></mask><g stroke-linecap="round"><g stroke-opacity="0.5" fill-opacity="0.5" transform="translate(314.00101636447926 223.85779999516615) rotate(0 100.93380683320424 -0.3499178417100097)"><path d="M0 0 C33.64 -0.12, 168.22 -0.58, 201.87 -0.7" stroke="#d9480f" stroke-width="2.5" fill="none" stroke-dasharray="8 10"></path></g><g stroke-opacity="0.5" fill-opacity="0.5" transform="translate(314.00101636447926 223.85779999516615) rotate(0 100.93380683320424 -0.3499178417100097)"><path d="M173.71 9.66 C184.88 5.55, 196.06 1.44, 201.87 -0.7" stroke="#d9480f" stroke-width="2.5" fill="none"></path></g><g stroke-opacity="0.5" fill-opacity="0.5" transform="translate(314.00101636447926 223.85779999516615) rotate(0 100.93380683320424 -0.3499178417100097)"><path d="M173.64 -10.86 C184.84 -6.83, 196.04 -2.8, 201.87 -0.7" stroke="#d9480f" stroke-width="2.5" fill="none"></path></g></g><mask></mask><g stroke-opacity="0.9" fill-opacity="0.9" transform="translate(212.32142857142856 10) rotate(0 323.2682495117187 34.64285714285711)"><text x="0" y="0" font-family="Virgil, Segoe UI Emoji" font-size="55.428571428571466px" fill="#495057" text-anchor="start" style="white-space: pre;" direction="ltr" dominant-baseline="text-before-edge">运动规划 Motion planning</text></g><g stroke-linecap="round"><g stroke-opacity="0.5" fill-opacity="0.5" transform="translate(824.2447645953673 179.2528664585061) rotate(0 56.824046273744784 -4.2222022156371395)"><path d="M0 0 C18.94 -1.41, 94.71 -7.04, 113.65 -8.44" stroke="#d9480f" stroke-width="2.5" fill="none" stroke-dasharray="8 10"></path></g><g stroke-opacity="0.5" fill-opacity="0.5" transform="translate(824.2447645953673 179.2528664585061) rotate(0 56.824046273744784 -4.2222022156371395)"><path d="M86.3 3.88 C92.23 1.2, 98.17 -1.47, 113.65 -8.44" stroke="#d9480f" stroke-width="2.5" fill="none"></path></g><g stroke-opacity="0.5" fill-opacity="0.5" transform="translate(824.2447645953673 179.2528664585061) rotate(0 56.824046273744784 -4.2222022156371395)"><path d="M84.77 -16.59 C91.04 -14.82, 97.31 -13.05, 113.65 -8.44" stroke="#d9480f" stroke-width="2.5" fill="none"></path></g></g><mask></mask><g stroke-linecap="round"><g stroke-opacity="0.9" fill-opacity="0.9" transform="translate(823.75 281.1637519383537) rotate(0 57.06860251410728 8.884266363744757)"><path d="M0.47 0.51 C19.49 3.38, 94.84 14.29, 113.67 17.26" stroke="#e67700" stroke-width="2.5" fill="none" stroke-dasharray="8 10"></path></g><g stroke-opacity="0.9" fill-opacity="0.9" transform="translate(823.75 281.1637519383537) rotate(0 57.06860251410728 8.884266363744757)"><path d="M85.12 24.57 C90.18 22.59, 99.62 18.17, 113.43 19.01" stroke="#e67700" stroke-width="2.5" fill="none"></path></g><g stroke-opacity="0.9" fill-opacity="0.9" transform="translate(823.75 281.1637519383537) rotate(0 57.06860251410728 8.884266363744757)"><path d="M88.17 4.28 C92.45 7.58, 101.09 8.43, 113.43 19.01" stroke="#e67700" stroke-width="2.5" fill="none"></path></g></g><mask></mask><g stroke-linecap="round"><g stroke-opacity="0.9" fill-opacity="0.9" transform="translate(848.0357142857144 448.2952112013178) rotate(0 48.89009589057946 -3.1796822100329223)"><path d="M-0.55 -0.23 C15.76 -1.41, 81.79 -5.25, 98.33 -6.13" stroke="#e67700" stroke-width="2.5" fill="none" stroke-dasharray="8 10"></path></g><g stroke-opacity="0.9" fill-opacity="0.9" transform="translate(848.0357142857144 448.2952112013178) rotate(0 48.89009589057946 -3.1796822100329223)"><path d="M70.38 6.96 C79.8 3.63, 90.18 -3.14, 99.43 -6.54" stroke="#e67700" stroke-width="2.5" fill="none"></path></g><g stroke-opacity="0.9" fill-opacity="0.9" transform="translate(848.0357142857144 448.2952112013178) rotate(0 48.89009589057946 -3.1796822100329223)"><path d="M69.22 -13.53 C79.2 -9.86, 89.98 -9.64, 99.43 -6.54" stroke="#e67700" stroke-width="2.5" fill="none"></path></g></g><mask></mask><g stroke-linecap="round"><g stroke-opacity="0.9" fill-opacity="0.9" transform="translate(848.0357142857144 539.0974938348502) rotate(0 52.29186167647788 5.825747345915374)"><path d="M0.35 0.54 C17.76 2.36, 86.98 9.33, 104.24 11.11" stroke="#e67700" stroke-width="2.5" fill="none" stroke-dasharray="8 10"></path></g><g stroke-opacity="0.9" fill-opacity="0.9" transform="translate(848.0357142857144 539.0974938348502) rotate(0 52.29186167647788 5.825747345915374)"><path d="M76.05 19.33 C82.1 16.57, 90.45 12.6, 104.32 10.31" stroke="#e67700" stroke-width="2.5" fill="none"></path></g><g stroke-opacity="0.9" fill-opacity="0.9" transform="translate(848.0357142857144 539.0974938348502) rotate(0 52.29186167647788 5.825747345915374)"><path d="M78.13 -1.08 C83.63 1.89, 91.39 3.64, 104.32 10.31" stroke="#e67700" stroke-width="2.5" fill="none"></path></g></g><mask></mask><g transform="translate(938.8928571428571 144.821428571428) rotate(0 61.99995269775388 19.375)"><text x="0" y="0" font-family="Virgil, Segoe UI Emoji" font-size="31.000000000000007px" fill="#d9480f" text-anchor="start" style="white-space: pre;" direction="ltr" dominant-baseline="text-before-edge">路径规划</text></g><g transform="translate(920.353356497628 180.71428571428498) rotate(0 87.68235778808594 17.5)"><text x="87.68235778808594" y="0" font-family="Virgil, Segoe UI Emoji" font-size="28px" fill="#e67700" text-anchor="middle" style="white-space: pre;" direction="ltr" dominant-baseline="text-before-edge">path planning</text></g><g stroke-opacity="0.5" fill-opacity="0.5" transform="translate(945.500047302246 291.696428571428) rotate(0 61.999786376953125 19.375)"><text x="0" y="0" font-family="Virgil, Segoe UI Emoji" font-size="31.000000000000007px" fill="#495057" text-anchor="start" style="white-space: pre;" direction="ltr" dominant-baseline="text-before-edge">轨迹规划</text></g><g stroke-opacity="0.5" fill-opacity="0.5" transform="translate(890.6211863926478 329.6428571428563) rotate(0 127.4145278930664 17.5)"><text x="127.4145278930664" y="0" font-family="Virgil, Segoe UI Emoji" font-size="28px" fill="#495057" text-anchor="middle" style="white-space: pre;" direction="ltr" dominant-baseline="text-before-edge">trajectory planning</text></g><g stroke-opacity="0.4" fill-opacity="0.4" transform="translate(953.250047302246 413.8392857142852) rotate(0 61.999786376953125 19.375)"><text x="0" y="0" font-family="Virgil, Segoe UI Emoji" font-size="31.000000000000007px" fill="#495057" text-anchor="start" style="white-space: pre;" direction="ltr" dominant-baseline="text-before-edge">路径优化</text></g><g stroke-opacity="0.5" fill-opacity="0.5" transform="translate(898.3626512799945 458.21428571428487) rotate(0 118.24449157714844 17.5)"><text x="118.24449157714844" y="0" font-family="Virgil, Segoe UI Emoji" font-size="28px" fill="#495057" text-anchor="middle" style="white-space: pre;" direction="ltr" dominant-baseline="text-before-edge">path optimization</text></g><g stroke-opacity="0.9" fill-opacity="0.9" transform="translate(958.2143330165316 538.4821428571422) rotate(0 61.999786376953125 19.375)"><text x="0" y="0" font-family="Virgil, Segoe UI Emoji" font-size="31.000000000000007px" fill="#d9480f" text-anchor="start" style="white-space: pre;" direction="ltr" dominant-baseline="text-before-edge">轨迹优化</text></g><g stroke-opacity="0.8" fill-opacity="0.8" transform="translate(874.3447745186941 576.7857142857134) rotate(0 157.97665405273438 17.5)"><text x="157.97665405273438" y="0" font-family="Virgil, Segoe UI Emoji" font-size="28px" fill="#e67700" text-anchor="middle" style="white-space: pre;" direction="ltr" dominant-baseline="text-before-edge">trajectory optimization</text></g></svg>