<?xml version="1.0" encoding="utf-8"?><!DOCTYPE svg PUBLIC "-//W3C//DTD SVG 1.1//EN" "http://www.w3.org/Graphics/SVG/1.1/DTD/svg11.dtd"><svg xmlns="http://www.w3.org/2000/svg" xmlns:xlink="http://www.w3.org/1999/xlink" id="preview" width="598" height="600" viewBox="0 0 598 600" xunitlength="78" yunitlength="47" xmin="0" xmax="6" ymin="-5" ymax="5" ox="40" oy="275"><defs><style type="text/css">@import url("http://cdnjs.cloudflare.com/ajax/libs/KaTeX/0.2.0/katex.min.css")</style></defs><path d=" M40,90 40,560 M118,90 118,560 M196,90 196,560 M274,90 274,560 M352,90 352,560 M430,90 430,560 M508,90 508,560 M40,325 508,325 M40,372 508,372 M40,419 508,419 M40,466 508,466 M40,513 508,513 M40,560 508,560 M40,278 508,278 M40,231 508,231 M40,184 508,184 M40,137 508,137 M40,90 508,90" stroke-width="1" stroke="grey" fill="none"></path><path d="M 522.352 317.824 L 543.880 325 L 522.352 332.176 L 525.94 325 z" stroke-width="1" stroke="black" fill="black"></path><path d="M 32.824 75.648 L 40 54.120 L 47.176 75.648 L 40 72.06 z" stroke-width="1" stroke="black" fill="black"></path><path d="M22.060,325 525.94,325 M40,72.06 40,577.94 M40,330 40,320 M118,330 118,320 M196,330 196,320 M274,330 274,320 M352,330 352,320 M430,330 430,320 M508,330 508,320 M45,325 35,325 M45,372 35,372 M45,419 35,419 M45,466 35,466 M45,513 35,513 M45,560 35,560 M45,278 35,278 M45,231 35,231 M45,184 35,184 M45,137 35,137 M45,90 35,90" stroke-width="2" stroke="black" fill="none"></path><text id="null" x="118" y="347" font-style="" font-family="KaTeX_Main, serif" font-size="20" font-weight="normal" text-anchor="middle" fill="black" stroke-width="0px">1</text><text id="null" x="196" y="347" font-style="" font-family="KaTeX_Main, serif" font-size="20" font-weight="normal" text-anchor="middle" fill="black" stroke-width="0px">2</text><text id="null" x="274" y="347" font-style="" font-family="KaTeX_Main, serif" font-size="20" font-weight="normal" text-anchor="middle" fill="black" stroke-width="0px">3</text><text id="null" x="352" y="347" font-style="" font-family="KaTeX_Main, serif" font-size="20" font-weight="normal" text-anchor="middle" fill="black" stroke-width="0px">4</text><text id="null" x="430" y="347" font-style="" font-family="KaTeX_Main, serif" font-size="20" font-weight="normal" text-anchor="middle" fill="black" stroke-width="0px">5</text><text id="null" x="508" y="347" font-style="" font-family="KaTeX_Main, serif" font-size="20" font-weight="normal" text-anchor="middle" fill="black" stroke-width="0px">6</text><text id="null" x="31.333" y="284.666" font-style="" font-family="KaTeX_Main, serif" font-size="20" font-weight="normal" text-anchor="end" fill="black" stroke-width="0px">1</text><text id="null" x="31.333" y="237.666" font-style="" font-family="KaTeX_Main, serif" font-size="20" font-weight="normal" text-anchor="end" fill="black" stroke-width="0px">2</text><text id="null" x="31.333" y="190.666" font-style="" font-family="KaTeX_Main, serif" font-size="20" font-weight="normal" text-anchor="end" fill="black" stroke-width="0px">3</text><text id="null" x="31.333" y="143.666" font-style="" font-family="KaTeX_Main, serif" font-size="20" font-weight="normal" text-anchor="end" fill="black" stroke-width="0px">4</text><text id="null" x="31.333" y="96.666" font-style="" font-family="KaTeX_Main, serif" font-size="20" font-weight="normal" text-anchor="end" fill="black" stroke-width="0px">5</text><text id="null" x="31.333" y="378.666" font-style="" font-family="KaTeX_Main, serif" font-size="20" font-weight="normal" text-anchor="end" fill="black" stroke-width="0px">-1</text><text id="null" x="31.333" y="425.666" font-style="" font-family="KaTeX_Main, serif" font-size="20" font-weight="normal" text-anchor="end" fill="black" stroke-width="0px">-2</text><text id="null" x="31.333" y="472.666" font-style="" font-family="KaTeX_Main, serif" font-size="20" font-weight="normal" text-anchor="end" fill="black" stroke-width="0px">-3</text><text id="null" x="31.333" y="519.666" font-style="" font-family="KaTeX_Main, serif" font-size="20" font-weight="normal" text-anchor="end" fill="black" stroke-width="0px">-4</text><text id="null" x="31.333" y="566.666" font-style="" font-family="KaTeX_Main, serif" font-size="20" font-weight="normal" text-anchor="end" fill="black" stroke-width="0px">-5</text><text id="null" x="40" y="45.453" font-style="italic" font-family="KaTeX_Main, serif" font-size="20" font-weight="normal" text-anchor="middle" fill="black" stroke-width="0px">y</text><text id="null" x="552.546" y="331.666" font-style="italic" font-family="KaTeX_Main, serif" font-size="20" font-weight="normal" text-anchor="start" fill="black" stroke-width="0px">x</text><path id="null" d="M25.96,333.414 26.739,332.951 27.519,332.487 28.299,332.023 29.079,331.558 29.859,331.092 30.639,330.626 31.419,330.159 32.199,329.692 32.979,329.224 33.759,328.755 34.539,328.287 35.319,327.818 36.099,327.349 36.879,326.879 37.659,326.409 38.439,325.939 39.219,325.470 39.999,325.000 40.779,324.530 41.559,324.060 42.339,323.590 43.119,323.120 43.899,322.650 44.679,322.181 45.459,321.712 46.239,321.244 47.019,320.775 47.799,320.307 48.579,319.840 49.359,319.373 50.139,318.907 50.919,318.441 51.699,317.976 52.479,317.512 53.259,317.048 54.039,316.585 54.819,316.123 55.599,315.662 56.379,315.202 57.159,314.743 57.939,314.285 58.719,313.827 59.499,313.372 60.279,312.917 61.059,312.463 61.839,312.011 62.619,311.560 63.399,311.110 64.179,310.662 64.959,310.215 65.739,309.770 66.519,309.326 67.299,308.883 68.079,308.443 68.859,308.004 69.639,307.566 70.419,307.131 71.199,306.697 71.979,306.265 72.759,305.835 73.539,305.407 74.319,304.980 75.099,304.556 75.879,304.134 76.659,303.714 77.439,303.296 78.219,302.880 78.999,302.467 79.779,302.055 80.559,301.646 81.339,301.239 82.119,300.835 82.899,300.433 83.679,300.034 84.459,299.637 85.239,299.242 86.019,298.851 86.799,298.461 87.579,298.075 88.359,297.691 89.139,297.310 89.919,296.931 90.699,296.556 91.479,296.183 92.259,295.813 93.039,295.446 93.819,295.082 94.599,294.721 95.379,294.363 96.159,294.008 96.939,293.657 97.719,293.308 98.499,292.963 99.279,292.620 100.059,292.281 100.839,291.945 101.619,291.613 102.399,291.284 103.179,290.958 103.959,290.636 104.739,290.317 105.519,290.001 106.299,289.689 107.079,289.381 107.859,289.076 108.639,288.775 109.419,288.477 110.199,288.183 110.979,287.893 111.759,287.606 112.539,287.323 113.319,287.044 114.099,286.769 114.879,286.498 115.659,286.230 116.439,285.966 117.219,285.706 117.999,285.450 118.779,285.198 119.559,284.950 120.339,284.706 121.119,284.467 121.899,284.231 122.679,283.999 123.459,283.771 124.239,283.548 125.019,283.328 125.799,283.113 126.579,282.902 127.359,282.695 128.139,282.492 128.919,282.294 129.699,282.100 130.479,281.910 131.259,281.724 132.039,281.543 132.819,281.366 133.599,281.194 134.379,281.026 135.159,280.862 135.939,280.703 136.719,280.548 137.499,280.397 138.279,280.251 139.059,280.110 139.839,279.973 140.619,279.840 141.399,279.712 142.179,279.589 142.959,279.470 143.739,279.356 144.519,279.246 145.299,279.141 146.079,279.040 146.859,278.944 147.639,278.852 148.419,278.766 149.199,278.683 149.979,278.606 150.759,278.533 151.539,278.465 152.319,278.401 153.099,278.342 153.879,278.288 154.659,278.238 155.439,278.193 156.219,278.153 156.999,278.117 157.779,278.086 158.559,278.060 159.339,278.039 160.119,278.022 160.899,278.010 161.679,278.002 162.459,278.000 163.239,278.001 164.019,278.008 164.799,278.020 165.579,278.036 166.359,278.056 167.139,278.082 167.919,278.112 168.699,278.147 169.479,278.186 170.259,278.231 171.039,278.279 171.819,278.333 172.599,278.391 173.379,278.454 174.159,278.522 174.939,278.594 175.719,278.671 176.499,278.752 177.279,278.838 178.059,278.929 178.839,279.024 179.619,279.124 180.399,279.229 181.179,279.338 181.959,279.451 182.739,279.570 183.519,279.692 184.299,279.820 185.079,279.951 185.859,280.088 186.639,280.228 187.419,280.374 188.199,280.523 188.979,280.678 189.759,280.836 190.539,280.999 191.319,281.167 192.099,281.338 192.879,281.515 193.659,281.695 194.439,281.880 195.219,282.069 195.999,282.262 196.779,282.460 197.559,282.662 198.339,282.868 199.119,283.079 199.899,283.293 200.679,283.512 201.459,283.735 202.239,283.962 203.019,284.193 203.799,284.429 204.579,284.668 205.359,284.911 206.139,285.159 206.919,285.410 207.699,285.665 208.479,285.924 209.259,286.188 210.039,286.455 210.819,286.725 211.599,287.000 212.379,287.279 213.159,287.561 213.939,287.847 214.719,288.137 215.499,288.430 216.279,288.727 217.059,289.028 217.839,289.332 218.619,289.640 219.399,289.951 220.179,290.266 220.959,290.585 221.739,290.906 222.519,291.232 223.299,291.560 224.079,291.892 224.859,292.227 225.639,292.566 226.419,292.908 227.199,293.253 227.979,293.601 228.759,293.952 229.539,294.306 230.319,294.664 231.099,295.024 231.879,295.388 232.659,295.754 233.439,296.124 234.219,296.496 234.999,296.871 235.779,297.249 236.559,297.630 237.339,298.013 238.119,298.399 238.899,298.788 239.679,299.180 240.459,299.574 241.239,299.970 242.019,300.369 242.799,300.771 243.579,301.175 244.359,301.581 245.139,301.990 245.919,302.401 246.699,302.814 247.479,303.229 248.259,303.647 249.039,304.067 249.819,304.489 250.599,304.913 251.379,305.338 252.159,305.766 252.939,306.196 253.719,306.628 254.499,307.061 255.279,307.497 256.059,307.934 256.839,308.372 257.619,308.813 258.399,309.255 259.179,309.699 259.959,310.144 260.739,310.590 261.519,311.038 262.299,311.488 263.079,311.939 263.859,312.391 264.639,312.844 265.419,313.299 266.199,313.755 266.979,314.212 267.759,314.670 268.539,315.129 269.319,315.589 270.099,316.049 270.879,316.511 271.659,316.974 272.439,317.438 273.219,317.902 273.999,318.367 274.779,318.832 275.559,319.299 276.339,319.765 277.119,320.233 277.899,320.701 278.679,321.169 279.459,321.637 280.239,322.106 281.019,322.576 281.799,323.045 282.579,323.515 283.359,323.985 284.139,324.455 284.919,324.924 285.699,325.394 286.479,325.864 287.259,326.334 288.039,326.804 288.819,327.274 289.599,327.743 290.379,328.212 291.159,328.681 291.939,329.149 292.719,329.617 293.499,330.085 294.279,330.551 295.059,331.018 295.839,331.484 296.619,331.949 297.399,332.413 298.179,332.877 298.959,333.340 299.739,333.802 300.519,334.263 301.299,334.724 302.079,335.183 302.859,335.641 303.639,336.099 304.419,336.555 305.199,337.010 305.979,337.464 306.759,337.916 307.539,338.367 308.319,338.817 309.099,339.266 309.879,339.713 310.659,340.159 311.439,340.603 312.219,341.045 312.999,341.486 313.779,341.925 314.559,342.363 315.339,342.799 316.119,343.233 316.899,343.665 317.679,344.096 318.459,344.524 319.239,344.951 320.019,345.375 320.799,345.798 321.579,346.218 322.359,346.637 323.139,347.053 323.919,347.467 324.699,347.878 325.479,348.288 326.259,348.695 327.039,349.100 327.819,349.502 328.599,349.902 329.379,350.299 330.159,350.694 330.939,351.086 331.719,351.476 332.499,351.863 333.279,352.247 334.059,352.629 334.839,353.007 335.619,353.383 336.399,353.757 337.179,354.127 337.959,354.494 338.739,354.859 339.519,355.220 340.299,355.579 341.079,355.934 341.859,356.286 342.639,356.636 343.419,356.982 344.199,357.324 344.979,357.664 345.759,358.000 346.539,358.333 347.319,358.663 348.099,358.989 348.879,359.312 349.659,359.632 350.439,359.948 351.219,360.260 351.999,360.569 352.779,360.875 353.559,361.176 354.339,361.475 355.119,361.769 355.899,362.060 356.679,362.347 357.459,362.631 358.239,362.910 359.019,363.186 359.799,363.458 360.579,363.727 361.359,363.991 362.139,364.251 362.919,364.508 363.699,364.761 364.479,365.009 365.259,365.254 366.039,365.494 366.819,365.731 367.599,365.963 368.379,366.192 369.159,366.416 369.939,366.636 370.719,366.852 371.499,367.064 372.279,367.271 373.059,367.475 373.839,367.674 374.619,367.869 375.399,368.059 376.179,368.245 376.959,368.427 377.739,368.605 378.519,368.778 379.299,368.947 380.079,369.111 380.859,369.271 381.639,369.427 382.419,369.578 383.199,369.725 383.979,369.867 384.759,370.005 385.539,370.138 386.319,370.267 387.099,370.391 387.879,370.510 388.659,370.626 389.439,370.736 390.219,370.842 390.999,370.943 391.779,371.040 392.559,371.132 393.339,371.220 394.119,371.303 394.899,371.381 395.679,371.455 396.459,371.524 397.239,371.588 398.019,371.648 398.799,371.703 399.579,371.753 400.359,371.799 401.139,371.840 401.919,371.876 402.699,371.908 403.479,371.935 404.259,371.957 405.039,371.975 405.819,371.988 406.599,371.996 407.379,371.999 408.159,371.998 408.939,371.992 409.719,371.982 410.499,371.966 411.279,371.946 412.059,371.922 412.839,371.892 413.619,371.858 414.399,371.819 415.179,371.776 415.959,371.728 416.739,371.675 417.519,371.617 418.299,371.555 419.079,371.488 419.859,371.417 420.639,371.341 421.419,371.260 422.199,371.175 422.979,371.085 423.759,370.990 424.539,370.891 425.319,370.787 426.099,370.679 426.879,370.566 427.659,370.449 428.439,370.327 429.219,370.200 429.999,370.069 430.779,369.933 431.559,369.793 432.339,369.649 433.119,369.500 433.899,369.346 434.679,369.188 435.459,369.026 436.239,368.859 437.019,368.688 437.799,368.513 438.579,368.333 439.359,368.149 440.139,367.960 440.919,367.768 441.699,367.571 442.479,367.369 443.259,367.164 444.039,366.954 444.819,366.740 445.599,366.522 446.379,366.300 447.159,366.073 447.939,365.843 448.719,365.608 449.499,365.370 450.279,365.127 451.059,364.880 451.839,364.629 452.619,364.375 453.399,364.116 454.179,363.854 454.959,363.587 455.739,363.317 456.519,363.043 457.299,362.765 458.079,362.483 458.859,362.198 459.639,361.909 460.419,361.616 461.199,361.320 461.979,361.019 462.759,360.716 463.539,360.408 464.319,360.098 465.099,359.783 465.879,359.465 466.659,359.144 467.439,358.820 468.219,358.491 468.999,358.160 469.779,357.825 470.559,357.487 471.339,357.146 472.119,356.802 472.899,356.454 473.679,356.103 474.459,355.749 475.239,355.392 476.019,355.032 476.799,354.669 477.579,354.303 478.359,353.934 479.139,353.563 479.919,353.188 480.699,352.810 481.479,352.430 482.259,352.047 483.039,351.661 483.819,351.273 484.599,350.882 485.379,350.488 486.159,350.092 486.939,349.694 487.719,349.292 488.499,348.889 489.279,348.483 490.059,348.075 490.839,347.664 491.619,347.251 492.399,346.836 493.179,346.419 493.959,345.999 494.739,345.578 495.519,345.154 496.299,344.729 497.079,344.301 497.859,343.872 498.639,343.440 499.419,343.007 500.199,342.572 500.979,342.135 501.759,341.697 502.539,341.257 503.319,340.815 504.099,340.371 504.879,339.926 505.659,339.480 506.439,339.032 507.219,338.583 507.999,338.132 508.779,337.680 509.559,337.227 510.339,336.773 511.119,336.317 511.899,335.860 512.679,335.403 513.459,334.944 514.239,334.484 515.019,334.023 515.799,333.561 516.579,333.099 517.359,332.636 518.139,332.171 518.919,331.707 519.699,331.241 520.479,330.775 521.259,330.308 522.039,329.841 " stroke-width="5" stroke-dasharray="15" stroke="purple" fill="none"></path></svg>