<?xml version="1.0" encoding="UTF-8" standalone="no"?>
<svg xmlns="http://www.w3.org/2000/svg" version="1.1" width="347" height="150">
	<path d="m 8.770547,12.454032 c 2.376289,-5.5012667 3.629543,-9.1470964 3.759765,-10.9375008 0.06509,-0.55334327 0.358059,-0.66727537 0.878906,-0.3417969 1.236963,0.7487392 2.099593,1.285848 2.587891,1.6113282 0.390607,0.2930088 0.569643,0.5045971 0.537109,0.6347656 -1.8e-5,0.1628 -0.211606,0.2604561 -0.634765,0.2929688 -0.390642,0.097695 -0.651059,0.2116277 -0.78125,0.3417968 -0.423193,0.3906637 -1.123063,1.6764697 -2.09961,3.8574219 -0.878919,1.9206062 -1.855481,3.9225574 -2.929686,6.0058594 1.399726,0.455758 2.392563,0.846383 2.978515,1.171875 0.358058,0.260445 0.374334,0.455757 0.04883,0.585938 -1.009128,0.553412 -1.529961,0.895209 -1.5625,1.02539 -0.06512,0.130235 -0.09767,1.416041 -0.09766,3.857422 l 0,15.38086 c -1.3e-5,4.069013 0.06509,7.486979 0.195313,10.253906 -1.3e-5,0.292965 -0.113945,0.455726 -0.341797,0.488281 L 9.161171,47.561453 C 8.8681919,47.626553 8.7379837,47.398689 8.770546,46.87786 8.9658481,42.548433 9.0797803,38.902604 9.1123429,35.94036 l 0,-15.38086 C 9.0472289,18.704056 8.9984012,17.17411 8.9658595,15.969657 8.5426724,16.685829 8.1194958,17.434526 7.6963282,18.21575 c -1.5950596,2.734398 -3.6783908,5.71291 -6.25,8.935547 C 1.120805,27.476834 0.84411249,27.541938 0.61625018,27.34661 0.35583173,27.118761 0.37210775,26.842069 0.66507828,26.516532 3.6924169,22.74051 6.3942371,18.053015 8.770547,12.454032 z m 22.802734,30.71289 c -0.06514,1.074218 -0.406934,1.969399 -1.025391,2.685547 -0.651073,0.716143 -1.383494,1.188147 -2.197265,1.416016 -0.423207,0.130204 -0.699899,0.08138 -0.830079,-0.146485 -0.325549,-0.520836 -1.074246,-1.041669 -2.246093,-1.5625 -0.944036,-0.488283 -2.457707,-0.895183 -4.541016,-1.220703 -0.390647,-0.03255 -0.569683,-0.211589 -0.537109,-0.537109 -2.2e-5,-0.325521 0.211566,-0.472006 0.634765,-0.439453 1.367164,0.0651 2.994767,0.16276 4.882813,0.292968 1.85544,0.09766 2.978485,0.03255 3.36914,-0.195312 0.09763,-0.130209 0.146454,-0.406901 0.146485,-0.830078 l 0,-29.003906 -6.494141,0 c -0.423201,0.846382 -0.846377,1.725288 -1.269531,2.636718 -1.237001,2.376327 -2.848327,4.947939 -4.833984,7.714844 -0.292987,0.358092 -0.553403,0.439472 -0.78125,0.244141 -0.227882,-0.227846 -0.227882,-0.504538 0,-0.830078 2.246074,-3.352842 4.215473,-7.421848 5.908203,-12.207032 1.627579,-4.7200155 2.44138,-7.8287363 2.441406,-9.3261719 -2.6e-5,-0.5858957 0.292943,-0.7323799 0.878906,-0.4394531 1.269504,0.6510827 2.164685,1.1393635 2.685547,1.4648437 0.390596,0.2279046 0.585908,0.4394929 0.585938,0.6347657 -0.03258,0.1302478 -0.244171,0.2441799 -0.634766,0.3417968 -0.390654,0.097695 -0.65107,0.2116276 -0.78125,0.3417969 -0.325549,0.3581115 -0.830106,1.4648812 -1.513672,3.3203125 -0.585964,1.4648779 -1.237005,2.9948244 -1.953125,4.5898444 l 16.748047,0 c 0.292927,-0.03252 0.504515,-0.113901 0.634766,-0.244141 l 1.513671,-1.513672 c 0.09761,-0.130175 0.195269,-0.195279 0.292969,-0.195312 0.130164,0.03259 0.260373,0.113965 0.390625,0.24414 1.464798,1.139355 2.555292,2.09964 3.271485,2.88086 0.162712,0.260446 0.0325,0.40693 -0.390625,0.439453 -0.911505,0.09769 -1.757858,0.439482 -2.539063,1.025391 -1.139366,0.813829 -2.506553,2.441432 -4.101562,4.882812 -0.260458,0.358096 -0.53715,0.472028 -0.830079,0.341797 -0.260456,-0.162737 -0.276732,-0.455706 -0.04883,-0.878906 1.171834,-2.083308 2.067016,-3.906222 2.685547,-5.46875 l -9.521484,0 z M 22.49125,23.342703 c 0.06508,-0.553365 0.358048,-0.667297 0.878906,-0.341796 1.236953,0.781269 2.099582,1.334654 2.58789,1.660156 0.358046,0.260435 0.537082,0.488299 0.53711,0.683594 -0.03258,0.162778 -0.244168,0.260434 -0.634766,0.292968 -0.3581,0.06512 -0.634792,0.162778 -0.830078,0.292969 -0.292995,0.260434 -0.781276,1.123063 -1.464844,2.587891 -1.04169,2.14845 -2.31122,4.410817 -3.808593,6.787109 -1.171895,1.855475 -2.653014,3.824874 -4.44336,5.908203 -0.325537,0.358075 -0.602229,0.423179 -0.830078,0.195313 -0.260432,-0.227863 -0.22788,-0.504555 0.09766,-0.830078 2.018212,-2.604162 3.82485,-5.826815 5.419922,-9.667969 1.562477,-3.776026 2.392555,-6.29881 2.490235,-7.56836 z m 13.134765,1.220704 c -0.162797,-0.260398 -0.130245,-0.504539 0.09766,-0.732422 0.227828,-0.162741 0.50452,-0.08136 0.830079,0.24414 2.604126,2.539079 4.654905,4.850275 6.152343,6.933594 1.464799,1.920583 2.311152,3.434254 2.539063,4.541016 0.325474,1.074225 0.292922,1.969406 -0.09766,2.685547 -0.35812,0.683598 -0.699916,1.171878 -1.025391,1.464843 -0.293014,0.26042 -0.55343,0.3418 -0.78125,0.244141 -0.227909,-0.09765 -0.358117,-0.358069 -0.390625,-0.78125 -0.162805,-1.660151 -0.79757,-3.678378 -1.904297,-6.054688 -1.23702,-2.571602 -3.043659,-5.419906 -5.419922,-8.544921 z" />
	<path d="m 68.877968,34.768485 c -0.06512,2.343756 -2e-5,5.240888 0.195313,8.691406 0.03253,0.260416 -0.06512,0.4069 -0.292969,0.439453 -0.651061,0.32552 -1.285826,0.602212 -1.904297,0.830078 -0.227882,0.09765 -0.341815,-0.09766 -0.341797,-0.585937 l 0,-3.369141 -10.986328,0 c -7e-6,1.367189 0.01627,2.652995 0.04883,3.857422 -0.03256,0.325519 -0.162767,0.537107 -0.390625,0.634766 -1.204432,0.553382 -1.920577,0.830075 -2.148437,0.830078 -0.130213,-0.03256 -0.179041,-0.358076 -0.146485,-0.976563 0.130204,-3.255207 0.244137,-6.608068 0.341797,-10.058594 l 0,-20.703124 c -0.03256,-1.041637 -0.146489,-2.311167 -0.341797,-3.808594 -0.06511,-0.325488 -0.04883,-0.504525 0.04883,-0.53711 0.130203,-0.06507 0.358068,0.06514 0.683593,0.390625 0.423172,0.390658 0.944005,0.83011 1.5625,1.31836 l 2.490235,0 c 0.06509,-0.130177 0.113923,-0.244109 0.146484,-0.341797 0.716136,-1.7903312 1.220693,-3.3853821 1.513672,-4.7851568 0.358062,-1.6926701 0.585926,-3.3853767 0.683594,-5.078125 0.03254,-0.2278227 0.09764,-0.3580309 0.195312,-0.390625 0.06509,-0.097614 0.211577,-0.097614 0.439453,0 0.97655,0.2930105 2.067043,0.6999111 3.271485,1.2207032 0.09764,0.032593 0.146469,0.097697 0.146484,0.1953125 -1.5e-5,0.097697 -0.04884,0.1953528 -0.146484,0.2929687 -1.106788,1.0417059 -1.774105,1.7741271 -2.001956,2.1972656 -0.09767,0.1627984 -0.26043,0.6022511 -0.488282,1.3183594 -0.488293,1.399775 -1.285819,3.1901377 -2.392578,5.3710944 l 6.152344,0 c 0.390608,3.1e-5 0.699852,-0.113901 0.927734,-0.341797 l 1.220703,-1.269531 c 0.162742,-0.2278322 0.390606,-0.2441082 0.683594,-0.04883 1.009094,0.748731 1.871724,1.432324 2.587891,2.050781 0.227842,0.227895 0.244118,0.390656 0.04883,0.488282 -0.944032,0.683624 -1.464864,1.074248 -1.5625,1.171875 -0.162781,0.09769 -0.244161,0.195342 -0.244141,0.292968 z m -2.34375,-8.642578 -10.9375,0 0,8.935546 c -0.03256,1.497403 -0.04884,2.897141 -0.04883,4.199219 l 10.986328,0 z m -10.9375,-12.890625 0,11.376953 10.9375,0 0,-11.376953 z m 35.839844,0 -13.867187,0 c -1.790392,3.645859 -3.776067,6.99872 -5.957032,10.058593 -0.195335,0.292989 -0.406923,0.374369 -0.634765,0.244141 -0.227887,-0.09764 -0.276715,-0.309225 -0.146485,-0.634766 2.441382,-4.557267 4.296849,-8.707653 5.566407,-12.451171 1.041637,-3.1575172 1.774059,-6.0709257 2.197265,-8.7402353 0.03252,-0.3580311 0.113902,-0.5533434 0.244141,-0.5859375 0.130178,-0.03251 0.390594,0.016318 0.78125,0.1464844 1.497363,0.6185308 2.701789,1.1881917 3.613281,1.7089844 0.162726,0.1302483 0.22783,0.2441805 0.195313,0.3417969 -0.06514,0.1628 -0.162795,0.2604562 -0.292969,0.2929687 C 82.061529,3.9742527 81.459316,4.218393 81.32914,4.3485625 81.264,4.4788094 81.215175,4.5927416 81.182656,4.6903593 80.433926,6.7086249 79.457365,9.0523726 78.252968,11.72161 l 11.71875,0 c 0.358032,-0.03252 0.602172,-0.113901 0.732422,-0.244141 l 1.123047,-1.5625002 c 0.195269,-0.325487 0.43941,-0.325487 0.732422,0 1.204382,0.9765952 2.164667,1.8229482 2.880859,2.5390632 0.195266,0.195343 0.17899,0.358103 -0.04883,0.488281 -0.911504,0.520863 -1.383509,0.797555 -1.416015,0.830078 -0.162806,0.16279 -0.244186,0.358102 -0.244141,0.585938 -0.06515,3.059921 -0.146529,7.340516 -0.244141,12.841796 -0.0977,5.078136 -0.341841,9.147143 -0.732422,12.207032 -0.293012,2.115887 -0.895225,3.727213 -1.80664,4.833984 -1.041708,1.204425 -2.26241,2.099606 -3.66211,2.685547 -0.325559,0.22786 -0.553423,0.22786 -0.683593,0 -0.260455,-0.390629 -0.683631,-0.797529 -1.269532,-1.220703 -0.84639,-0.58594 -2.490268,-1.139325 -4.93164,-1.660157 -0.488313,-0.162761 -0.716177,-0.358073 -0.683594,-0.585937 0.06507,-0.260417 0.292937,-0.374349 0.683594,-0.341797 3.157517,0.358073 5.419884,0.472005 6.787109,0.341797 0.748659,-0.09766 1.285768,-0.309245 1.611328,-0.634766 0.651001,-0.65104 1.123006,-1.578774 1.416016,-2.783203 0.488239,-2.050776 0.781208,-5.859366 0.878906,-11.425781 0.09761,-6.542948 0.211546,-11.669896 0.341797,-15.380859 z m -15.234375,9.228515 c -0.130236,-0.227843 -0.130236,-0.439432 0,-0.634765 0.195285,-0.130187 0.455701,-0.08136 0.78125,0.146484 2.473928,1.790384 4.296842,3.483091 5.46875,5.078125 0.748663,0.944026 1.123012,1.822931 1.123047,2.636719 -3.5e-5,0.651054 -0.260451,1.432303 -0.78125,2.34375 -0.488315,0.716156 -0.895216,1.057952 -1.220703,1.02539 -0.325554,-0.06509 -0.50459,-0.40689 -0.53711,-1.02539 -0.325552,-1.953112 -0.895213,-3.678371 -1.708984,-5.175782 -0.716176,-1.334617 -1.757841,-2.79946 -3.125,-4.394531 z" />
	<path d="m 129.22954,5.6669218 0,-1.0742187 c -0.0326,-0.976523 -0.0977,-1.8717044 -0.19532,-2.6855469 -0.0977,-0.4882395 -0.0977,-0.781208 0,-0.8789062 0.13018,-0.13016617 0.34177,-0.13016617 0.63477,0 1.2695,0.5534269 2.29489,1.0417077 3.07617,1.4648437 0.19528,0.097697 0.29294,0.195353 0.29297,0.2929688 -0.0326,0.1628006 -0.0977,0.2604567 -0.19531,0.2929687 -0.58597,0.2930085 -0.94405,0.5371489 -1.07422,0.7324219 -0.13024,0.1953516 -0.19535,0.455768 -0.19531,0.78125 l 0,1.0742187 6.44531,0 c 0.39058,3.75e-5 0.651,-0.065067 0.78125,-0.1953125 0.16272,-0.1627226 0.39058,-0.4068629 0.68359,-0.7324218 l 1.26953,-1.8066406 c 0.22783,-0.2929283 0.48824,-0.2929283 0.78125,0 1.00907,0.9114976 2.00191,1.8717831 2.97852,2.8808593 0.32547,0.3255578 0.47196,0.6348023 0.43945,0.9277344 -0.0651,0.2604528 -0.30929,0.406937 -0.73242,0.4394531 l -12.64648,0 0,4.2480473 c 0.0325,0.585969 0.0651,1.31839 0.0976,2.197266 0.0325,0.292998 -0.0651,0.504586 -0.29297,0.634765 -1.43232,0.683622 -2.21357,1.009143 -2.34375,0.976563 -0.0977,-0.09763 -0.0977,-0.309217 0,-0.634766 0.0325,-0.488252 0.0651,-1.074189 0.0977,-1.757812 l -11.42578,0 c 0.0325,0.227894 0.0651,0.488311 0.0977,0.78125 0.0325,0.292998 -0.0651,0.504586 -0.29297,0.634765 -1.43231,0.683622 -2.21356,1.009143 -2.34375,0.976563 -0.0977,-0.09763 -0.0977,-0.309217 0,-0.634766 0.0976,-0.813773 0.16274,-1.871714 0.19531,-3.173828 l 0,-4.2480473 -8.30078,0 c -0.87892,3.6e-5 -1.87175,0.1139681 -2.97852,0.3417969 -0.16276,0.032588 -0.26042,3.56e-5 -0.29297,-0.097656 -0.42318,-0.6510053 -0.79753,-1.2369422 -1.12304,-1.7578125 -0.19532,-0.325483 -0.0814,-0.4394152 0.34179,-0.3417968 1.98567,0.1953501 3.09244,0.3092823 3.32032,0.3417968 l 9.0332,0 0,-1.0742187 c -0.0326,-0.976523 -0.0977,-1.8717044 -0.19531,-2.6855469 -0.0977,-0.4882395 -0.0977,-0.781208 0,-0.8789062 0.13019,-0.13016617 0.34178,-0.13016617 0.63476,0 1.26952,0.5534269 2.2949,1.0417077 3.07617,1.4648437 0.1953,0.097697 0.29295,0.195353 0.29297,0.2929688 -0.0326,0.1628006 -0.0977,0.2604567 -0.19531,0.2929687 -0.58596,0.2930085 -0.94403,0.5371489 -1.07422,0.7324219 -0.13023,0.1953516 -0.19533,0.455768 -0.19531,0.78125 l 0,1.0742187 z m 0,1.5136719 -11.52344,0 0,4.1503913 11.52344,0 z m -17.57813,29.2968753 0,2.294922 c -1e-5,0.260421 -0.0977,0.406905 -0.29297,0.439453 -0.65105,0.26042 -1.28582,0.537113 -1.90429,0.830078 -0.29298,0.09766 -0.42319,-0.09765 -0.39063,-0.585937 0.1302,-2.050776 0.21158,-5.468741 0.24414,-10.253907 l 0,-3.90625 c -0.0326,-1.171856 -0.11394,-2.50649 -0.24414,-4.003906 -0.0651,-0.390603 -0.0326,-0.602191 0.0977,-0.634765 0.0976,-0.03253 0.2604,0.06513 0.48828,0.292968 0.39061,0.423199 0.97655,0.927756 1.75781,1.513672 l 11.18164,0 0,-4.345703 -17.08984,0 c -0.87891,2.5e-5 -1.87175,0.113957 -2.97852,0.341797 -0.16276,0.03258 -0.26042,2.5e-5 -0.29297,-0.09766 -0.42318,-0.651017 -0.79753,-1.236953 -1.12304,-1.757813 -0.19532,-0.325494 -0.0814,-0.439426 0.34179,-0.341797 1.98568,0.19534 3.09245,0.309272 3.32032,0.341797 l 34.42382,0 c 0.39059,2.7e-5 0.651,-0.06508 0.78125,-0.195312 0.16272,-0.162734 0.39059,-0.406874 0.6836,-0.732422 l 1.26953,-1.806641 c 0.22782,-0.292939 0.48824,-0.292939 0.78125,0 1.00907,0.911487 2.00191,1.871772 2.97851,2.88086 0.32548,0.325546 0.47196,0.634791 0.43946,0.927734 -0.0652,0.260442 -0.30929,0.406926 -0.73242,0.439453 l -20.45899,0 0,4.345703 9.375,0 c 0.19528,2.1e-5 0.34176,-0.06508 0.43945,-0.195312 l 0.87891,-1.367188 c 0.22783,-0.260394 0.45569,-0.27667 0.68359,-0.04883 0.94398,0.618511 1.87171,1.285828 2.78321,2.001953 0.29293,0.260437 0.42313,0.455749 0.39062,0.585938 -0.0651,0.16278 -0.21163,0.309264 -0.43945,0.439453 -0.84639,0.390644 -1.28585,0.699888 -1.31836,0.927734 -0.0651,0.195331 -0.0977,0.406919 -0.0977,0.634766 l 0,8.398437 c -3e-5,1.171883 0.0976,2.750658 0.29297,4.736328 0.0325,0.358078 -0.0489,0.55339 -0.24414,0.585938 -1.39977,0.488285 -2.16475,0.716149 -2.29492,0.683594 -0.0651,-0.03255 -0.0977,-0.211585 -0.0977,-0.53711 l 0,-2.832031 z m 10.9375,-1.513672 0,-4.93164 -10.9375,0 0,4.93164 z m 2.34375,-4.93164 0,4.93164 10.35156,0 0,-4.93164 z m -2.34375,-1.513672 0,-4.541016 -10.9375,0 0,4.541016 z m 2.34375,-4.541016 0,4.541016 10.35156,0 0,-4.541016 z m -7.76367,14.746094 c 0.3255,-0.22786 0.55337,-0.276688 0.68359,-0.146485 1.23696,0.813806 2.1647,1.464847 2.78321,1.953125 0.19529,0.227867 0.27667,0.406904 0.24414,0.53711 -0.0977,0.13021 -0.30927,0.179038 -0.63477,0.146484 -0.4883,-0.0651 -1.09051,-0.03255 -1.80664,0.09766 -0.65106,0.09766 -2.0508,0.699871 -4.19922,1.806641 -3.15756,1.497394 -6.73829,2.897133 -10.74218,4.199219 -0.39063,0.09765 -0.65105,-0.01628 -0.78125,-0.341797 -0.13022,-0.358076 0.0163,-0.602217 0.43945,-0.732422 4.65494,-1.953126 9.32616,-4.459634 14.01367,-7.519531 z m 11.03516,1.318359 c -0.293,-0.0651 -0.42321,-0.260413 -0.39063,-0.585937 0.13018,-0.325517 0.40687,-0.423173 0.83008,-0.292969 3.15752,0.390629 5.81051,0.895185 7.95898,1.513672 2.01819,0.618491 3.41793,1.220704 4.19922,1.80664 0.87887,0.716146 1.38342,1.481119 1.51367,2.294922 0.13017,0.748696 0.14644,1.334633 0.0488,1.757813 -0.0977,0.358069 -0.26046,0.585933 -0.48828,0.683594 -0.19535,0.09765 -0.45577,-0.04883 -0.78125,-0.439454 -0.9766,-1.106773 -2.49027,-2.213543 -4.54101,-3.320312 -2.24613,-1.26953 -5.02933,-2.408852 -8.34961,-3.417969 z" />
	<path d="m 165.75297,7.8153593 0,-3.2226562 c -0.0326,-0.976523 -0.0977,-1.8717044 -0.19531,-2.6855469 -0.0977,-0.4882395 -0.0977,-0.781208 0,-0.8789062 0.13019,-0.13016617 0.34178,-0.13016617 0.63477,0 1.26951,0.5534269 2.2949,1.0417077 3.07617,1.4648437 0.19529,0.097697 0.29295,0.195353 0.29297,0.2929688 -0.0326,0.1628006 -0.0977,0.2604567 -0.19531,0.2929687 -0.58596,0.2930085 -0.94403,0.5371489 -1.07422,0.7324219 -0.13023,0.1953516 -0.19534,0.455768 -0.19532,0.78125 l 0,3.2226562 10.15625,0 0,-3.2226562 c -0.0326,-0.976523 -0.0977,-1.8717044 -0.19531,-2.6855469 -0.0977,-0.4882395 -0.0977,-0.781208 0,-0.8789062 0.13018,-0.13016617 0.34177,-0.13016617 0.63477,0 1.2695,0.5534269 2.29489,1.0417077 3.07617,1.4648437 0.19528,0.097697 0.29293,0.195353 0.29297,0.2929688 -0.0326,0.1628006 -0.0977,0.2604567 -0.19531,0.2929687 -0.58597,0.2930085 -0.94405,0.5371489 -1.07422,0.7324219 -0.13024,0.1953516 -0.19535,0.455768 -0.19532,0.78125 l 0,3.2226562 8.39844,0 c 0.39059,3.54e-5 0.651,-0.065069 0.78125,-0.1953125 0.16272,-0.1627247 0.39059,-0.4068651 0.6836,-0.7324218 l 1.26953,-1.8066407 c 0.22782,-0.2929304 0.48823,-0.2929304 0.78125,0 1.00907,0.9114955 2.0019,1.871781 2.97851,2.8808594 0.32548,0.3255557 0.47196,0.6348002 0.43946,0.9277344 -0.0652,0.2604506 -0.3093,0.4069349 -0.73243,0.4394531 l -14.59961,0 0,2.8808598 c 0.0325,0.585968 0.0651,1.318389 0.0977,2.197266 0.0325,0.292997 -0.0651,0.504585 -0.29297,0.634765 -1.43232,0.683621 -2.21357,1.009142 -2.34375,0.976563 -0.0977,-0.09763 -0.0977,-0.309218 0,-0.634766 0.0976,-0.813773 0.16273,-1.871715 0.19531,-3.173828 l 0,-2.8808598 -10.15625,0 0,2.0996098 c 0.0325,0.585969 0.0651,1.31839 0.0977,2.197266 0.0325,0.292998 -0.0651,0.504586 -0.29297,0.634765 -1.43231,0.683622 -2.21356,1.009143 -2.34375,0.976563 -0.0977,-0.09763 -0.0977,-0.309217 0,-0.634766 0.0976,-0.813773 0.16275,-1.871714 0.19531,-3.173828 l 0,-2.0996098 -10.44921,0 c -0.87892,3.38e-5 -1.87175,0.113966 -2.97852,0.3417966 -0.16276,0.03258 -0.26042,3.4e-5 -0.29297,-0.09766 -0.42318,-0.6510072 -0.79753,-1.2369441 -1.12305,-1.7578123 -0.19531,-0.3254852 -0.0814,-0.4394173 0.3418,-0.3417968 1.98567,0.1953479 3.09244,0.3092801 3.32031,0.3417968 z m -2.00195,7.9589847 c 0.0976,-0.292941 0.29295,-0.374321 0.58594,-0.24414 1.17186,0.553412 2.16469,1.074245 2.97851,1.562499 0.39061,0.195339 0.53709,0.390651 0.43946,0.585938 -0.0977,0.162786 -0.21161,0.244166 -0.3418,0.244141 -0.68361,0.09768 -1.17189,0.260441 -1.46484,0.488281 -0.22788,0.195337 -0.65106,0.79755 -1.26953,1.80664 -0.71617,1.074241 -1.38348,2.099631 -2.00196,3.076172 0.91145,0.390645 1.67642,0.748717 2.29492,1.074219 0.1953,0.09767 0.29296,0.195331 0.29297,0.292969 -0.0326,0.162779 -0.0977,0.260435 -0.19531,0.292969 -0.58595,0.292986 -0.94403,0.537127 -1.07422,0.732421 -0.13022,0.19533 -0.19533,0.455747 -0.19531,0.78125 l 0,16.992188 c 0.0325,0.585937 0.0651,1.318358 0.0977,2.197266 0.0325,0.292966 -0.0651,0.504554 -0.29297,0.634765 -1.43231,0.68359 -2.21356,1.009111 -2.34375,0.976563 -0.0977,-0.09766 -0.0977,-0.309249 0,-0.634766 0.0976,-0.813805 0.16274,-1.871746 0.19531,-3.173828 l 0,-16.992188 c -0.0326,-0.455712 -0.0651,-0.878888 -0.0977,-1.269531 -1.04168,1.367204 -1.96941,2.539078 -2.7832,3.515625 -1.88803,2.115898 -4.26433,4.199229 -7.12891,6.25 -0.45573,0.325529 -0.78125,0.341805 -0.97656,0.04883 -0.19531,-0.325512 -0.13021,-0.634757 0.19531,-0.927734 3.28776,-2.766915 6.02213,-5.680324 8.20313,-8.740234 1.95311,-2.734355 3.58071,-5.924456 4.88281,-9.570313 z m 15.82031,30.273438 c -0.19534,-3e-6 -0.50458,-3e-6 -0.92773,0 -0.65107,-3e-6 -1.23701,-0.26042 -1.75781,-0.78125 -0.52086,-0.488283 -0.78128,-1.432293 -0.78125,-2.832032 l 0,-10.644531 c -2.76695,1.334646 -5.63154,2.506519 -8.59375,3.515625 -0.4232,0.162768 -0.68362,0.08139 -0.78125,-0.244141 -0.0977,-0.325512 0.0162,-0.5371 0.34179,-0.634765 2.79946,-1.139313 5.81053,-2.604155 9.03321,-4.394531 l 0,-9.277344 c -0.0326,-1.269508 -0.0977,-2.40883 -0.19532,-3.417969 -0.0326,-0.520807 0.11391,-0.732395 0.43946,-0.634766 1.75778,0.553412 2.99476,1.025417 3.71093,1.416016 0.29294,0.162785 0.29294,0.341822 0,0.537109 -0.71617,0.520858 -1.13935,0.846378 -1.26953,0.976563 -0.22789,0.227888 -0.34182,0.602236 -0.34179,1.123047 l 0,7.861328 c 0.0325,-0.06509 0.0976,-0.113918 0.19531,-0.146484 3.45049,-2.115869 7.09632,-5.289694 10.9375,-9.521485 0.22782,-0.325496 0.45569,-0.3906 0.68359,-0.195312 0.81376,0.618513 1.77405,1.481142 2.88086,2.58789 0.26037,0.260439 0.34175,0.455751 0.24414,0.585938 -0.13025,0.162781 -0.43949,0.179057 -0.92773,0.04883 -0.52088,-0.162739 -0.92778,-0.195291 -1.2207,-0.09766 -0.35812,0.09768 -0.99288,0.53713 -1.9043,1.318359 -3.61332,2.766944 -6.8848,5.029312 -9.81445,6.787109 -0.39066,0.195326 -0.74873,0.390638 -1.07422,0.585938 l 0,11.328125 c 0.0325,0.683594 0.16273,1.139323 0.39062,1.367187 0.26039,0.292969 0.60218,0.439453 1.02539,0.439454 0.35804,-1e-6 0.60218,-1e-6 0.73242,0 l 8.93555,0 c 0.55335,-1e-6 0.97652,-0.09766 1.26953,-0.292969 0.32548,-0.195313 0.60217,-0.651041 0.83008,-1.367188 0.48824,-1.432289 0.97652,-3.710932 1.46484,-6.835937 0.0325,-0.423169 0.21155,-0.618481 0.53711,-0.585938 0.32548,0.09766 0.47196,0.309253 0.43946,0.634766 -0.22791,2.799484 -0.19536,4.850263 0.0976,6.152344 0.19527,0.683595 0.45569,1.123047 0.78125,1.318359 0.13016,0.130209 0.17899,0.260417 0.14649,0.390625 -0.35812,0.976562 -0.83013,1.676431 -1.41602,2.099609 -0.71619,0.553383 -1.62765,0.830076 -2.73437,0.830079 z" />
	<path d="m 241.72954,20.657157 -11.52344,0 0,13.916015 c -3e-5,4.069015 0.0651,7.48698 0.19531,10.253906 -3e-5,0.292967 -0.11396,0.455728 -0.3418,0.488282 l -2.14843,0.878906 c -0.293,0.0651 -0.42321,-0.162763 -0.39063,-0.683594 0.19529,-4.329425 0.30922,-7.975255 0.3418,-10.9375 l 0,-13.916015 -10.74219,0 0,15.771484 c -0.0326,3.743493 -0.0326,6.933594 0,9.570312 -0.0326,0.325518 -0.16278,0.537106 -0.39062,0.634766 -1.20445,0.553381 -1.92059,0.830074 -2.14844,0.830078 -0.13022,-0.03256 -0.17905,-0.358077 -0.14649,-0.976562 0.1302,-3.255209 0.24413,-6.60807 0.3418,-10.058594 l 0,-14.453125 c -0.0326,-1.041644 -0.1465,-2.311174 -0.3418,-3.808594 -0.0651,-0.325495 -0.0488,-0.504532 0.0488,-0.537109 0.1302,-0.06508 0.35806,0.06513 0.6836,0.390625 0.3255,0.358098 0.78123,0.748722 1.36718,1.171875 l 0,-0.04883 11.32813,0 0,-4.931641 -4.10156,0 0.0976,0.976563 c 0.0325,0.292996 -0.0651,0.504584 -0.29297,0.634765 -1.43231,0.683621 -2.21356,1.009141 -2.34375,0.976563 -0.0977,-0.09763 -0.0977,-0.309218 0,-0.634766 0.0976,-0.813774 0.16274,-1.871716 0.19532,-3.173828 l 0,-5.2246098 -4.00391,0 c -0.87892,3.54e-5 -1.87176,0.1139676 -2.97852,0.3417969 -0.16277,0.032587 -0.26043,3.5e-5 -0.29296,-0.097656 -0.4232,-0.6184538 -0.79754,-1.1881147 -1.12305,-1.7089843 -0.19533,-0.3254837 -0.0814,-0.4394159 0.3418,-0.3417969 1.98566,0.1627974 3.09243,0.2604536 3.32031,0.2929687 l 4.73633,0 0,-1.6601562 c -0.0326,-0.976523 -0.0977,-1.8717044 -0.19532,-2.6855469 -0.0977,-0.4882395 -0.0977,-0.781208 0,-0.8789062 0.13019,-0.13016617 0.34178,-0.13016617 0.63477,0 1.26951,0.5534269 2.2949,1.0417077 3.07617,1.4648437 0.19529,0.097697 0.29294,0.195353 0.29297,0.2929688 -0.0326,0.1628006 -0.0977,0.2604567 -0.19531,0.2929687 -0.58597,0.2930085 -0.94404,0.5371489 -1.07422,0.7324219 -0.13023,0.1953516 -0.19534,0.455768 -0.19531,0.78125 l 0,1.6601562 10.54687,0 0,-1.6601562 c -0.0326,-0.976523 -0.0977,-1.8717044 -0.19531,-2.6855469 -0.0977,-0.4882395 -0.0977,-0.781208 0,-0.8789062 0.13017,-0.13016617 0.34176,-0.13016617 0.63476,0 1.2695,0.5534269 2.29489,1.0417077 3.07618,1.4648437 0.19527,0.097697 0.29293,0.195353 0.29297,0.2929688 -0.0326,0.1628006 -0.0977,0.2604567 -0.19532,0.2929687 -0.58597,0.2930085 -0.94405,0.5371489 -1.07422,0.7324219 -0.13024,0.1953516 -0.19535,0.455768 -0.19531,0.78125 l 0,1.6601562 4.29688,0 c 0.19527,3.69e-5 0.39058,-0.1138953 0.58593,-0.3417968 l 1.75782,-2.0019531 c 0.22782,-0.2278252 0.45568,-0.2278252 0.68359,0 0.84631,0.8463925 1.56245,1.6276417 2.14844,2.3437499 0.35802,0.4557656 0.42313,0.8463902 0.19531,1.171875 -0.16281,0.195348 -0.45578,0.3092802 -0.87891,0.3417969 l -8.78906,0 0,5.4199225 c 0.0325,0.585966 0.0651,1.318387 0.0977,2.197265 0.0325,0.292996 -0.0651,0.504585 -0.29297,0.634766 -1.43233,0.68362 -2.21358,1.00914 -2.34375,0.976562 -0.0977,-0.09763 -0.0977,-0.309218 0,-0.634765 0.0651,-0.618463 0.1139,-1.334608 0.14648,-2.148438 l -4.05273,0 0,4.931641 10.69336,0 c 0.29292,2.4e-5 0.45569,-0.01625 0.48828,-0.04883 l 1.2207,-1.611329 c 0.0651,-0.130182 0.16272,-0.195286 0.29297,-0.195312 0.13017,2.6e-5 0.26037,0.06513 0.39063,0.195312 1.00907,0.813827 1.90425,1.627629 2.68554,2.441407 0.22782,0.292991 0.22782,0.488304 0,0.585937 -1.07426,0.520856 -1.6602,0.846376 -1.75781,0.976563 -0.0977,0.162782 -0.14653,0.309266 -0.14648,0.439453 l 0,21.044922 c -5e-5,1.139322 -0.30929,2.067055 -0.92774,2.783203 -0.65108,0.781246 -1.3835,1.318355 -2.19726,1.611328 -0.35812,0.09765 -0.55343,0.08138 -0.58594,-0.04883 -0.32556,-0.651045 -0.92778,-1.269534 -1.80664,-1.855469 -0.68363,-0.488283 -1.82296,-0.944012 -3.41797,-1.367187 -0.32556,-0.13021 -0.47204,-0.341798 -0.43945,-0.634766 0.0325,-0.292969 0.26038,-0.423177 0.68359,-0.390625 0.97653,0.0651 2.1484,0.16276 3.51563,0.292969 1.36714,0.09766 2.16467,0.08138 2.39257,-0.04883 0.29293,-0.09766 0.43941,-0.439453 0.43946,-1.025391 z m -7.42188,-12.8906258 -10.54687,0 0,4.9316408 10.54687,0 z M 204.37602,2.5419219 c -0.19532,-0.2278238 -0.22787,-0.4394122 -0.0977,-0.6347657 0.16276,-0.1952711 0.43945,-0.1952711 0.83008,0 2.01822,0.9440507 3.56445,1.9043362 4.63867,2.8808594 0.68359,0.5859752 1.09049,1.1719122 1.22071,1.7578125 0.13019,0.6185255 -0.0163,1.4323268 -0.43946,2.4414063 -0.32553,0.7812834 -0.6836,1.1719086 -1.07421,1.1718756 -0.32554,0.03259 -0.53712,-0.2603842 -0.63477,-0.8789069 -0.42315,-1.4973605 -0.99281,-2.7506145 -1.70894,-3.7597656 -0.65105,-0.976524 -1.56251,-1.9693615 -2.73438,-2.9785156 z M 200.8604,13.870047 c -0.16277,-0.227835 -0.17904,-0.439423 -0.0488,-0.634765 0.1302,-0.162731 0.39062,-0.130179 0.78125,0.09766 1.98567,1.074247 3.48306,2.115913 4.49219,3.125 0.65103,0.618515 1.02538,1.237004 1.12304,1.855469 0.0976,0.618513 -0.0977,1.416039 -0.58594,2.392578 -0.35808,0.781271 -0.73242,1.15562 -1.12304,1.123047 -0.32553,2.1e-5 -0.53712,-0.309224 -0.63477,-0.927735 -0.29297,-1.497372 -0.78125,-2.783178 -1.46484,-3.857422 -0.6185,-1.009087 -1.46485,-2.067029 -2.53906,-3.173828 z m 12.93945,-2.929687 c 0.13019,-0.455697 0.39061,-0.618457 0.78125,-0.488281 0.3255,0.13024 0.42316,0.406933 0.29297,0.830078 -1.43231,4.296902 -3.22267,9.667991 -5.3711,16.113281 -0.91146,2.897148 -1.48112,5.338552 -1.70898,7.324219 -0.16277,3.613286 -0.0326,6.787111 0.39062,9.521484 0.1302,0.944008 0.0325,1.627601 -0.29296,2.050781 -0.29298,0.292966 -0.74871,0.390622 -1.36719,0.292969 -0.71615,-0.130212 -1.28582,-0.50456 -1.70899,-1.123047 -0.39063,-0.618491 -0.47201,-1.383464 -0.24414,-2.294922 0.45573,-1.627602 0.69987,-3.320309 0.73243,-5.078125 0.0325,-1.367181 -0.0488,-2.31119 -0.24415,-2.832031 -0.35807,-0.553377 -0.87891,-1.025382 -1.5625,-1.416016 -0.7487,-0.455719 -1.57877,-0.699859 -2.49023,-0.732422 -0.39063,0.03256 -0.58594,-0.211578 -0.58594,-0.732421 0,-0.520822 0.26042,-0.764963 0.78125,-0.732422 2.14844,0.423188 3.48307,0.520844 4.00391,0.292968 0.48827,-0.195301 1.09049,-1.334622 1.80664,-3.417968 1.49739,-4.1992 3.75975,-10.058569 6.78711,-17.578125 z m 20.16601,21.142578 c 0.61846,-1.367175 1.12302,-2.799465 1.51368,-4.296875 -0.58598,-1.139307 -1.23702,-2.294904 -1.95313,-3.466797 -0.16279,-0.325502 -0.13024,-0.602194 0.0977,-0.830078 0.32548,-0.227845 0.60218,-0.130189 0.83008,0.292969 1.30204,1.595069 2.44136,3.125016 3.41796,4.589843 0.91142,1.302097 1.62757,2.539075 2.14844,3.710938 0.61845,1.497405 0.86259,2.604175 0.73242,3.320312 -0.0977,0.651049 -0.35811,1.236986 -0.78125,1.757813 -0.32556,0.455735 -0.60225,0.667323 -0.83007,0.634765 -0.22791,-0.0651 -0.39067,-0.651035 -0.48829,-1.757812 -0.2279,-1.334627 -0.6348,-2.701813 -1.2207,-4.101563 -0.29301,-0.651029 -0.55342,-1.236966 -0.78125,-1.757812 -0.0651,0.292981 -0.14652,0.553398 -0.24414,0.78125 -0.26045,0.520845 -0.60225,1.220714 -1.02539,2.099609 -1.00915,1.692717 -2.1973,3.222663 -3.56445,4.589844 -0.32556,0.325526 -0.60225,0.374354 -0.83008,0.146484 -0.19535,-0.227859 -0.17907,-0.488275 0.0488,-0.78125 1.13929,-1.595044 2.11585,-3.238922 2.92968,-4.93164 z m -13.67187,0 c 0.61847,-1.367175 1.12302,-2.799465 1.51367,-4.296875 -0.58596,-1.139307 -1.237,-2.294904 -1.95312,-3.466797 -0.16278,-0.325502 -0.13023,-0.602194 0.0976,-0.830078 0.3255,-0.227845 0.60219,-0.130189 0.83008,0.292969 1.30206,1.595069 2.44138,3.125016 3.41797,4.589843 0.91143,1.302097 1.62758,2.539075 2.14844,3.710938 0.61846,1.497405 0.8626,2.604175 0.73242,3.320312 -0.0977,0.651049 -0.3581,1.236986 -0.78125,1.757813 -0.32555,0.455735 -0.60224,0.667323 -0.83008,0.634765 -0.22789,-0.0651 -0.39065,-0.651035 -0.48828,-1.757812 -0.22789,-1.334627 -0.63479,-2.701813 -1.2207,-4.101563 -0.293,-0.651029 -0.55341,-1.236966 -0.78125,-1.757812 -0.0651,0.292981 -0.14651,0.553398 -0.24414,0.78125 -0.26044,0.520845 -0.60224,1.220714 -1.02539,2.099609 -1.00914,1.692717 -2.19729,3.222663 -3.56446,4.589844 -0.32554,0.325526 -0.60223,0.374354 -0.83008,0.146484 -0.19533,-0.227859 -0.17905,-0.488275 0.0488,-0.78125 1.13931,-1.595044 2.11587,-3.238922 2.92969,-4.93164 z" />
	<path d="m 258.3311,18.899344 -3.61328,0 c -0.87891,2.4e-5 -1.87175,0.113957 -2.97852,0.341797 -0.16276,0.03258 -0.26042,2.4e-5 -0.29297,-0.09766 -0.42318,-0.618465 -0.79752,-1.188126 -1.12304,-1.708985 -0.19532,-0.325494 -0.0814,-0.439427 0.34179,-0.341797 1.98568,0.162787 3.09245,0.260443 3.32032,0.292969 l 4.3457,0 0,-11.279297 c -0.0326,-1.269493 -0.0977,-2.4088148 -0.19531,-3.4179688 -0.0326,-0.5207924 0.11392,-0.7323807 0.43945,-0.6347656 1.7578,0.5534259 2.99478,1.0254307 3.71094,1.4160156 0.29295,0.1627999 0.29295,0.3418362 0,0.5371094 -0.71616,0.5208719 -1.13934,0.8463924 -1.26953,0.9765625 -0.22788,0.2279025 -0.34181,0.6022511 -0.3418,1.1230469 l 0,11.279297 2.34375,0 c 0.1953,2.6e-5 0.39061,-0.113906 0.58594,-0.341797 l 1.75781,-2.001953 c 0.22785,-0.227836 0.45571,-0.227836 0.68359,0 0.84634,0.846382 1.56248,1.627631 2.14844,2.34375 0.35805,0.455755 0.42316,0.846379 0.19531,1.171875 -0.16278,0.195337 -0.45575,0.309269 -0.8789,0.341797 l -6.83594,0 0,17.578125 c 2.5716,-1.009107 4.9479,-1.920564 7.12891,-2.734375 0.42315,-0.195303 0.68357,-0.146475 0.78125,0.146484 0.13018,0.358082 -0.0489,0.651051 -0.53711,0.878907 -4.94793,2.604172 -9.04949,4.606123 -12.30469,6.005859 -0.65105,0.325523 -1.48113,0.99284 -2.49024,2.001953 -0.16276,0.130209 -0.30924,0.211589 -0.43945,0.244141 -0.16276,0.0651 -0.30925,-0.04883 -0.43945,-0.341797 -0.42318,-0.813801 -1.0254,-1.481118 -1.80664,-2.001953 -0.42318,-0.292966 -0.61849,-0.488278 -0.58594,-0.585938 0.0325,-0.162757 0.21159,-0.260413 0.53711,-0.292968 2.24609,-0.553382 4.63866,-1.285803 7.17773,-2.197266 0.19531,-0.09765 0.4069,-0.162755 0.63477,-0.195313 z m 14.0625,22.802734 c 0.0325,0.683595 0.16274,1.139324 0.39062,1.367188 0.2604,0.292969 0.60219,0.439453 1.02539,0.439453 0.35805,0 0.60219,0 0.73243,0 l 16.35742,0 c 0.55334,0 0.97652,-0.09766 1.26953,-0.292969 0.32548,-0.195312 0.63472,-0.683593 0.92773,-1.464843 0.52079,-1.529945 1.04163,-3.971349 1.5625,-7.324219 0.0325,-0.423168 0.21155,-0.61848 0.53711,-0.585938 0.32548,0.09767 0.47196,0.309254 0.43946,0.634766 -0.32557,2.994797 -0.3744,5.192061 -0.14649,6.591797 0.16272,0.748699 0.45568,1.23698 0.87891,1.464844 0.0976,0.0651 0.13016,0.195313 0.0976,0.390625 -0.35812,0.976561 -0.83012,1.67643 -1.41601,2.099609 -0.71619,0.553383 -1.62765,0.830075 -2.73438,0.830078 l -18.79882,0 c -0.19534,-3e-6 -0.50459,-3e-6 -0.92774,0 -0.65106,-3e-6 -1.237,-0.260419 -1.75781,-0.78125 -0.52086,-0.488283 -0.78127,-1.432292 -0.78125,-2.832031 l 0,-18.994141 c -1.43231,0.520853 -2.97853,1.383482 -4.63867,2.587891 -0.13023,0.06512 -0.24416,0.0814 -0.3418,0.04883 -0.6185,-0.455711 -1.18817,-0.878888 -1.70898,-1.269531 -0.26043,-0.227846 -0.19533,-0.358054 0.19531,-0.390625 0.48826,-0.13019 2.50649,-0.895163 6.05469,-2.294922 l 0.43945,-0.195313 0,-9.960937 c -0.0326,-1.269499 -0.0977,-2.4088209 -0.19531,-3.4179693 -0.0326,-0.520798 0.11391,-0.7323864 0.43945,-0.6347656 1.75779,0.5534203 2.99477,1.025425 3.71094,1.4160156 0.29294,0.1627943 0.29294,0.3418305 0,0.5371091 -0.71617,0.5208672 -1.13935,0.8463872 -1.26953,0.9765632 -0.22789,0.227897 -0.34182,0.602245 -0.3418,1.123047 l 0,8.83789 6.64062,-3.173828 0,-9.375 c -0.0326,-2.604129 -0.11396,-4.6874603 -0.24414,-6.25 -0.0326,-0.5858956 0.11391,-0.81375997 0.43946,-0.6835938 1.82288,0.5859789 3.07614,1.0742597 3.75976,1.4648438 0.35804,0.2604569 0.37432,0.4557692 0.0488,0.5859375 -1.00915,0.5534248 -1.52998,0.8952213 -1.5625,1.0253906 -0.0651,0.1302471 -0.0977,1.4160531 -0.0977,3.8574219 l 0,8.251953 6.73829,-3.173828 1.2207,-2.148437 c 0.0651,-0.162728 0.16272,-0.244108 0.29297,-0.244141 0.0976,-0.03252 0.19527,3.3e-5 0.29297,0.09766 1.00907,0.553417 1.96935,1.23701 2.88086,2.050781 0.29292,0.227894 0.27664,0.406931 -0.0488,0.537109 -0.7813,0.358102 -1.23702,0.634795 -1.36719,0.830078 -0.13025,0.162789 -0.19536,0.40693 -0.19531,0.732422 -0.0652,2.539088 -0.16281,6.852235 -0.29297,12.939453 -0.0652,2.213555 -0.4395,4.003918 -1.12305,5.371094 -0.48832,0.911467 -1.13936,1.611336 -1.95312,2.099609 -0.32556,0.260424 -0.53715,0.292977 -0.63477,0.09766 -0.26045,-0.488274 -0.58597,-0.944002 -0.97656,-1.367188 -0.42322,-0.423168 -1.46488,-0.927724 -3.125,-1.513672 -0.26045,-0.16275 -0.37438,-0.358062 -0.3418,-0.585937 0.0651,-0.260406 0.26038,-0.374338 0.58594,-0.341797 1.75778,0.195324 2.79944,0.276704 3.125,0.24414 0.29293,-0.06509 0.5859,-0.162749 0.87891,-0.292968 0.74865,-0.48827 1.17183,-2.262356 1.26953,-5.322266 0.19527,-5.110655 0.3092,-9.049453 0.34179,-11.816406 l -7.56836,3.515625 0,9.130859 c -3e-5,4.069023 0.0651,7.486988 0.19532,10.253906 -4e-5,0.292975 -0.11397,0.455735 -0.3418,0.488282 l -2.14844,0.878906 c -0.293,0.06511 -0.4232,-0.162756 -0.39062,-0.683594 0.19528,-4.329417 0.30921,-7.975247 0.34179,-10.9375 l 0,-8.007812 -6.64062,3.076172 z" />
	<path d="m 321.75883,6.2040312 c -1.00913,1.6927436 -2.21356,3.4831066 -3.61328,5.3710938 -1.17189,1.56253 -2.63673,3.190133 -4.39453,4.882813 -0.32553,0.325547 -0.60223,0.374375 -0.83008,0.146484 -0.22788,-0.227838 -0.17905,-0.50453 0.14649,-0.830078 1.95311,-2.213512 3.75974,-4.980436 5.41992,-8.3007815 1.66013,-3.2551695 2.55532,-5.4361569 2.68555,-6.54296877 0.0976,-0.55334267 0.40687,-0.6347228 0.92773,-0.2441406 1.1393,0.81384367 1.9531,1.41605657 2.44141,1.80664057 0.32549,0.3581132 0.47198,0.6022536 0.43945,0.7324219 -0.0326,0.1302481 -0.24417,0.2116282 -0.63477,0.2441406 -0.35809,0.032592 -0.63479,0.1139719 -0.83007,0.2441407 -0.22789,0.1302476 -0.50459,0.4557681 -0.83008,0.9765624 l 15.72265,0 0.6836,-0.097656 c 0.16272,-0.1627217 0.35803,-0.358034 0.58594,-0.5859375 l 1.46484,-2.0507813 c 0.22782,-0.2929272 0.48824,-0.2929272 0.78125,0 1.07417,0.9114986 2.06701,1.8717841 2.97851,2.8808594 0.32548,0.3255588 0.47196,0.6348033 0.43946,0.9277344 -0.0652,0.2604538 -0.30929,0.406938 -0.73242,0.4394531 z m 13.72071,3.9550788 c 0.19527,3.3e-5 0.34176,-0.06507 0.43945,-0.1953132 l 0.87891,-1.3671874 c 0.22782,-0.2603819 0.45569,-0.276658 0.68359,-0.048828 0.94397,0.6185236 1.8717,1.2858404 2.7832,2.0019536 0.29293,0.260449 0.42314,0.455761 0.39063,0.585937 -0.0652,0.162792 -0.21163,0.309277 -0.43946,0.439453 -0.84639,0.390657 -1.28584,0.699901 -1.31835,0.927735 -0.0652,0.195343 -0.0977,0.406931 -0.0977,0.634765 l 0,5.078125 c -4e-5,1.171899 0.0976,2.750674 0.29297,4.736328 0.0325,0.358093 -0.0489,0.553406 -0.24414,0.585938 -1.39978,0.4883 -2.16475,0.716165 -2.29492,0.683594 -0.0652,-0.03253 -0.0977,-0.21157 -0.0977,-0.53711 l 0,-1.464843 -12.89063,0 0,0.732421 c -2e-5,0.260437 -0.0977,0.406921 -0.29296,0.439454 -0.65107,0.260436 -1.28584,0.537128 -1.9043,0.830078 -0.29299,0.09768 -0.4232,-0.09764 -0.39063,-0.585938 0.13019,-2.050759 0.21157,-5.468725 0.24414,-10.253906 l 0,-0.195312 c -0.0326,-1.171844 -0.11395,-2.506478 -0.24414,-4.0039069 -0.0651,-0.3905907 -0.0326,-0.6021791 0.0977,-0.6347657 0.0976,-0.032517 0.26039,0.065139 0.48828,0.2929688 0.3255,0.3906589 0.83006,0.8301116 1.51367,1.3183598 z m 0.97656,6.591797 -12.89063,0 0,3.955078 12.89063,0 z m 0,-5.078125 -12.89063,0 0,3.564453 12.89063,0 z m 3.51562,13.52539 c 0.39059,1.8e-5 0.651,-0.04881 0.78125,-0.146484 0.19527,-0.13019 0.40686,-0.341779 0.63477,-0.634766 l 1.17187,-1.708984 c 0.26038,-0.292948 0.50452,-0.292948 0.73243,0 0.94396,0.846374 1.8717,1.725279 2.7832,2.636719 0.35803,0.390642 0.52079,0.699886 0.48828,0.927734 -0.0651,0.260433 -0.30929,0.406917 -0.73242,0.439453 l -21.14258,0 c -0.71617,1.17189 -1.46487,2.294936 -2.24609,3.369141 l 16.94336,0 c 0.35803,-0.03254 0.60217,-0.113919 0.73242,-0.244141 l 1.12305,-1.5625 c 0.19527,-0.325506 0.43941,-0.325506 0.73242,0 1.20438,1.041681 2.16467,1.969414 2.88086,2.783203 0.16271,0.227877 0.13016,0.390637 -0.0977,0.488281 -0.97661,0.423189 -1.48116,0.651053 -1.51367,0.683594 -0.0652,0.06511 -0.0977,0.146495 -0.0977,0.244141 -0.1628,1.26954 -0.39067,3.043627 -0.68359,5.322265 -0.26046,2.083337 -0.53715,3.759768 -0.83008,5.029297 -0.19535,0.846354 -0.5046,1.481119 -0.92773,1.904297 -1.04171,1.171872 -2.26241,2.018226 -3.66211,2.539063 -0.29301,0.09765 -0.48832,0.08138 -0.58594,-0.04883 -0.1628,-0.325525 -0.45577,-0.683598 -0.87891,-1.074219 -0.65107,-0.553388 -1.9206,-1.123049 -3.80859,-1.708985 -0.48831,-0.162761 -0.71618,-0.358073 -0.68359,-0.585937 0.0651,-0.260417 0.29293,-0.374349 0.68359,-0.341797 2.63668,0.227864 4.50843,0.292968 5.61523,0.195313 0.5859,-0.0651 1.02535,-0.260417 1.31836,-0.585938 0.29293,-0.260416 0.50452,-0.602213 0.63477,-1.025391 0.29293,-0.781248 0.55334,-2.262366 0.78125,-4.443359 0.29293,-2.636711 0.53707,-4.654938 0.73242,-6.054687 l -3.95508,0 c -1.20446,2.148446 -2.55537,4.26433 -4.05273,6.347656 -1.23701,1.692712 -2.70186,3.238934 -4.39453,4.638672 -1.69274,1.432291 -4.00394,2.848305 -6.9336,4.248047 -0.32554,0.162756 -0.5534,0.09765 -0.68359,-0.195313 -0.19534,-0.358076 -0.0977,-0.634768 0.29297,-0.830078 2.40883,-1.334637 4.24802,-2.587891 5.51758,-3.759766 1.59502,-1.432289 2.8971,-2.978511 3.90625,-4.638672 1.3346,-2.083325 2.4902,-4.020172 3.46679,-5.810546 l -4.98047,0 c -1.79039,2.766935 -3.87372,5.126959 -6.25,7.080078 -2.08335,1.692711 -4.70379,3.41797 -7.86132,5.175781 -0.4883,0.195312 -0.79755,0.179036 -0.92774,-0.04883 -0.26043,-0.423177 -0.19533,-0.748698 0.19531,-0.976563 2.83202,-1.725258 5.04556,-3.320309 6.64063,-4.785156 2.21352,-2.115878 4.00388,-4.264313 5.37109,-6.445312 l -5.02929,0 c -0.4232,0.423188 -0.8301,0.846364 -1.22071,1.269531 -1.66017,1.562509 -3.77606,3.173835 -6.34765,4.833984 -0.45575,0.260422 -0.78127,0.276698 -0.97657,0.04883 -0.29298,-0.423171 -0.24415,-0.748691 0.14649,-0.976562 2.24608,-1.660148 3.97133,-3.173819 5.17578,-4.541016 1.62758,-1.822904 2.92967,-3.662095 3.90625,-5.517578 l -5.41992,0 c -0.87893,1.7e-5 -1.87176,0.113949 -2.97852,0.341797 -0.16277,0.03257 -0.26043,1.6e-5 -0.29297,-0.09766 -0.42319,-0.651025 -0.79754,-1.236962 -1.12304,-1.757813 -0.19533,-0.325502 -0.0814,-0.439435 0.34179,-0.341797 1.98567,0.195331 3.09243,0.309263 3.32032,0.341797 z M 307.79399,11.623954 c 2.05077,-4.9804332 3.09244,-8.2681903 3.125,-9.8632822 0.0325,-0.5858955 0.34178,-0.7161037 0.92773,-0.390625 1.23697,0.7161869 2.11587,1.2370197 2.63672,1.5625001 0.35806,0.2604565 0.5371,0.4883209 0.53711,0.6835937 -0.0326,0.1627998 -0.24415,0.2604559 -0.63476,0.2929688 -0.39064,0.097695 -0.65106,0.2116275 -0.78125,0.3417968 -0.42319,0.3581115 -1.04168,1.5137093 -1.85547,3.4667969 -0.81382,1.8229502 -1.72527,3.7272459 -2.73438,5.7128909 0.84635,0.292998 1.61132,0.634795 2.29492,1.025391 0.42317,0.227893 0.42317,0.439481 0,0.634765 -0.97657,0.488309 -1.51368,0.846382 -1.61132,1.074219 -0.13022,0.292996 -0.19533,1.432317 -0.19532,3.417969 l 0,16.357422 c -1e-5,4.069013 0.0651,7.486979 0.19532,10.253906 -10e-6,0.292965 -0.11395,0.455726 -0.3418,0.488281 l -2.14844,0.878906 c -0.29297,0.0651 -0.42318,-0.162764 -0.39062,-0.683593 0.1953,-4.329427 0.30923,-7.975256 0.34179,-10.9375 l 0,-16.357422 c -0.0326,-1.00909 -0.0651,-1.87172 -0.0976,-2.587891 -1.4323,2.408878 -3.23894,5.078146 -5.41992,8.007813 -0.32553,0.325538 -0.60222,0.390642 -0.83008,0.195312 -0.26042,-0.227846 -0.24414,-0.504539 0.0488,-0.830078 2.63671,-3.483051 4.94791,-7.731093 6.93359,-12.74414 z" />
	<path d="m 12.90873,53.420828 2.709961,0.805665 c -1.367203,3.548212 -2.970392,7.031281 -4.80957,10.449218 l -0.07324,0.146485 0,32.15332 -2.6855468,0 0,-27.587891 -1.0986329,1.464844 C 5.5845049,72.675406 4.1684907,74.392527 2.7036525,76.003836 L 1.3364651,73.269461 C 6.7075507,66.954383 10.564968,60.338179 12.90873,53.420828 z m 10.009766,0.02441 2.539062,0.805664 c -0.488307,1.969438 -1.082382,3.84118 -1.782226,5.615234 l -0.341797,0.830078 21.582031,0 0,2.978516 c -1.057988,2.327501 -2.27869,4.557316 -3.662109,6.689453 l -2.124024,-1.464844 c 1.041625,-1.66013 1.928669,-3.279595 2.661133,-4.858398 l 0.390625,-0.854493 -19.750977,0 -0.146484,0.41504 c -1.074241,3.011094 -2.55536,5.97333 -4.443359,8.886718 l -2.34375,-1.80664 c 3.401672,-5.338514 5.875628,-11.083951 7.421875,-17.236328 z m 7.006836,14.477539 2.685547,0 0,24.975586 c -3.4e-5,1.660154 -0.268589,2.787269 -0.805665,3.381347 -0.537142,0.594072 -1.627635,0.891109 -3.271484,0.891113 -2.132189,-4e-6 -4.044622,-0.105798 -5.737305,-0.317382 L 22.28373,94.216722 c 2.229792,0.325519 4.313123,0.480142 6.25,0.463867 0.358043,-10e-7 0.651011,-0.13021 0.878906,-0.390625 0.341766,-0.37435 0.512664,-1.033529 0.512696,-1.977539 z m 10.375976,6.567382 c 2.132118,4.964207 3.580684,10.042327 4.345703,15.234375 l -2.905273,0.830079 C 40.976722,85.037047 39.650226,79.901961 37.762246,75.149344 z m -18.505859,0.02441 2.539062,0.683594 c -0.781275,5.631523 -2.701846,10.872403 -5.761718,15.722656 l -2.465821,-1.367187 c 2.962219,-5.013012 4.858376,-10.026028 5.688477,-15.039063 z" />
	<path d="m 78.558144,53.567313 2.734375,0.537109 c -0.618521,2.229855 -1.399771,4.402704 -2.34375,6.518555 l -0.366211,0.854492 15.551758,0 c -0.01632,16.71551 -0.59412,27.067062 -1.733398,31.054688 -0.846397,2.962237 -2.799521,4.443355 -5.859375,4.443359 -1.562537,-4e-6 -3.409866,-0.227868 -5.541993,-0.683594 l -0.683593,-2.856445 c 2.81572,0.439452 4.890914,0.659179 6.225586,0.65918 0.21155,-10e-7 0.415,-0.01221 0.610351,-0.03662 0.195274,-0.02442 0.451621,-0.09766 0.769043,-0.219727 0.317343,-0.122071 0.602174,-0.2889 0.854492,-0.500488 0.252239,-0.211589 0.500448,-0.528971 0.744629,-0.952149 0.2441,-0.423176 0.423136,-0.927732 0.53711,-1.513672 0.797483,-3.613275 1.196246,-12.377915 1.196289,-26.293945 l 0,-0.610352 -14.0625,0 -0.170899,0.317383 c -1.416042,2.473985 -2.937851,4.565454 -4.565429,6.274414 L 70.403847,68.63079 c 3.645808,-4.150362 6.363904,-9.171515 8.154297,-15.063476 z m 0.927735,19.384765 c 1.708951,2.571633 3.14938,5.403661 4.321289,8.496094 l -2.587891,1.245117 c -1.188182,-3.19009 -2.620473,-6.079085 -4.296875,-8.666992 z m -11.328125,-13.232421 0,34.130859 -2.294922,0 0,-1.5625 -10.205078,0 0,2.929687 -2.294922,0 0,-35.498046 4.125976,0 0.146485,-0.439454 c 0.602204,-1.904261 1.033518,-3.865522 1.293945,-5.883789 l 2.832031,0.53711 c -0.472018,1.806678 -0.992851,3.458694 -1.5625,4.956054 l -0.317383,0.830079 z m -12.5,15.039062 10.205078,0 0,-12.548828 -10.205078,0 z m 10.205078,2.490234 -10.205078,0 0,12.548829 10.205078,0 z" />
	<path d="m 102.7769,56.594657 10.15625,0 0,-3.320313 2.68555,0 0,3.320313 15.86914,0 0,-3.320313 2.68554,0 0,3.320313 10.35157,0 0,2.294921 -10.35157,0 0,6.054688 -21.24023,0 0,-6.054688 -10.15625,0 z m 12.8418,6.445312 15.86914,0 0,-4.150391 -15.86914,0 z m -13.42774,5.078125 42.72461,0 0,2.294922 -42.72461,0 z m 5.27344,5.859375 32.56836,0 0,15.185547 -32.56836,0 z m 2.68555,2.099609 0,4.541016 12.35351,0 0,-4.541016 z m 27.19726,0 -12.35351,0 0,4.541016 12.35351,0 z m -27.19726,6.445313 0,4.541016 12.35351,0 0,-4.541016 z m 27.19726,0 -12.35351,0 0,4.541016 12.35351,0 z m -21.48437,8.374023 1.7334,2.001954 c -3.33661,1.59505 -7.97528,2.929684 -13.91602,4.003906 l -1.19629,-2.539063 c 5.5664,-0.878906 10.02603,-2.034504 13.37891,-3.466797 z m 14.40429,-0.04883 c 5.01299,0.846356 9.74931,1.855469 14.20899,3.027344 l -1.2207,2.587891 c -4.67127,-1.416018 -9.35063,-2.563478 -14.03809,-3.442383 z" />
	<path d="m 152.38628,57.375907 11.52343,0 0,-4.101563 2.88086,0 0,4.101563 13.91602,0 0,-4.101563 2.68554,0 0,4.101563 11.71875,0 0,2.490234 -11.71875,0 0,3.515625 -2.68554,0 0,-3.515625 -13.91602,0 0,3.515625 -2.88086,0 0,-3.515625 -11.52343,0 z m 12.79296,8.129882 2.70996,0.805664 c -1.35092,2.604191 -3.03549,5.151389 -5.05371,7.641602 l -0.14648,0.170898 0,23.046875 -2.49023,0 0,-20.068359 -1.04981,1.123047 c -1.64389,1.757826 -3.39356,3.352876 -5.24902,4.785156 l -1.53809,-2.661133 c 5.81054,-4.638654 10.083,-9.586566 12.81738,-14.84375 z m 9.66797,0.268555 2.88086,0 0,11.767578 0.90332,-0.512695 c 5.04554,-2.897117 9.12268,-5.737283 12.23145,-8.520508 l 2.19726,1.782227 c -4.1667,4.036477 -9.16344,7.486994 -14.99023,10.351562 l -0.3418,0.146485 0,10.742187 c -3e-5,0.797527 0.34584,1.326498 1.0376,1.586914 0.6917,0.260417 2.11178,0.390625 4.26025,0.390625 4.5247,0 7.25908,-0.349935 8.20313,-1.049805 0.0976,-0.0651 0.33361,-0.305174 0.70801,-0.720214 0.3743,-0.415038 0.59403,-1.704913 0.65918,-3.869629 l 2.88086,0.976562 c -0.27674,3.173829 -0.92778,5.159504 -1.95313,5.957031 -1.02543,0.797524 -4.52478,1.196287 -10.49805,1.196289 -3.5482,-2e-6 -5.79836,-0.223798 -6.75048,-0.671386 -0.95218,-0.447593 -1.42825,-1.32243 -1.42823,-2.624512 l 0,-10.27832 -4.63867,1.904297 -1.51367,-2.612305 c 1.79034,-0.634754 3.72719,-1.481107 5.81055,-2.539063 l 0.34179,-0.170898 z" />
	<path d="m 234.61284,64.797782 0,-4.736329 -12.15821,0 0,4.736329 z m -14.64844,-11.523438 2.49023,0 0,4.492188 12.15821,0 0,-4.492188 2.68554,0 0,4.492188 7.03125,0 0,2.294921 -7.03125,0 0,6.640625 -7.61718,0 0,4.541016 13.86718,0 0,21.850586 c -4e-5,1.253254 -0.39066,2.21354 -1.17187,2.880859 -0.78129,0.667315 -2.07524,1.000973 -3.88184,1.000977 -0.78129,-4e-6 -1.66019,-0.04883 -2.63672,-0.146484 l -0.65917,-2.34375 1.73339,0 c 1.57874,-0.01628 2.62041,-0.13021 3.125,-0.341797 0.11389,-0.06511 0.24003,-0.154624 0.37842,-0.268555 0.13831,-0.113933 0.26445,-0.284831 0.37842,-0.512695 0.16272,-0.341797 0.2441,-0.756836 0.24414,-1.245117 l 0,-3.808594 0,-1.123047 -0.43945,0.317383 0.43945,0.805664 0,-1.123047 0,-13.842774 -11.37695,0 0,22.460938 -2.29492,0 0,-8.081055 0,-0.415039 -0.14649,0.122071 0.14649,0.292968 0,-0.415039 0,-13.964844 -10.59571,0 0,23.632813 -2.49023,0 0,-25.732422 13.08594,0 0,-4.541016 -7.42188,0 0,-6.640625 -6.83594,0 0,-2.294921 6.83594,0 z m 7.27539,34.155274 -1.44043,1.196289 c -0.71617,-1.367182 -1.52183,-2.72623 -2.41699,-4.077149 l -0.65918,-0.976562 -0.41504,1.098632 c -0.65106,1.725268 -1.39162,3.173834 -2.22168,4.345704 l -1.12305,-1.245118 c 1.20441,-1.627597 2.17283,-3.426098 2.90528,-5.395507 l 0.12207,-0.268555 -0.14649,-0.268555 c -0.8301,-1.416003 -1.76597,-2.823879 -2.80761,-4.223633 l 1.73339,-1.245117 c 1.8229,2.718113 3.64581,5.786144 5.46875,9.204102 z m 13.37891,0.07324 -1.51367,1.147461 c -0.69991,-1.350906 -1.44047,-2.709954 -2.22168,-4.077149 l -0.65918,-1.123047 -0.46387,1.245118 c -0.53715,1.529954 -1.26957,2.962245 -2.19727,4.296875 l -1.12304,-1.220702 c 1.09046,-1.513665 2.05888,-3.304027 2.90527,-5.371093 l 0.12207,-0.317383 -2.97852,-4.467774 1.5625,-1.220703 c 1.95309,2.848321 3.90621,6.103527 5.85938,9.765625 z m -35.74219,-33.30078 c 2.00194,1.578814 3.80858,3.214554 5.41992,4.907227 l -2.02637,2.001953 c -1.57878,-1.969367 -3.35287,-3.80042 -5.32226,-5.493164 z m -1.46484,11.743165 c 2.13215,1.367213 4.10969,2.937849 5.93261,4.711914 l -1.90429,2.172851 c -1.80665,-1.969379 -3.71095,-3.702775 -5.71289,-5.200195 z m 4.19921,13.305664 2.0752,1.416015 c -1.3672,5.566413 -3.29591,10.961916 -5.78613,16.186524 l -2.31934,-1.782227 c 2.50651,-4.996742 4.5166,-10.270174 6.03027,-15.820312 z" />
	<path d="m 251.99565,64.797782 5.66406,0 0,-10.742188 2.49024,0 0,10.742188 5.66406,0 0,2.490234 -5.66406,0 0,16.943359 5.00488,-2.001953 0.39062,2.294922 c -4.10157,1.904304 -8.60189,3.531906 -13.50097,4.882813 l -0.53711,-2.685547 c 2.01822,-0.488275 3.93066,-1.033521 5.7373,-1.635742 l 0.41504,-0.146485 0,-17.651367 -5.66406,0 z m 41.16211,-2.88086 c -0.0163,10.481792 -0.44357,16.79689 -1.28174,18.945313 -0.83826,2.148447 -2.03048,3.222665 -3.57666,3.222656 -0.53715,9e-6 -1.32653,-0.09765 -2.36816,-0.292969 l -0.26856,-2.709961 c 0.86259,0.09767 1.48108,0.138359 1.85547,0.122071 0.47197,-0.01627 0.87073,-0.227853 1.19629,-0.634766 0.37431,-0.471992 0.69576,-1.387519 0.96436,-2.746582 0.26851,-1.359033 0.46789,-5.17983 0.59814,-11.462402 l 0.0244,-0.903321 -7.49511,2.807617 0,18.359375 -2.68555,0 0,-17.43164 -5.71289,1.977539 0,20.166016 c 0.0163,0.29297 0.0407,0.512696 0.0732,0.659179 0.14646,0.569662 0.36212,0.915528 0.64697,1.037598 0.28481,0.12207 0.45978,0.191243 0.52491,0.207519 0.0163,0 0.0407,0 0.0732,0 0.73239,0.179037 2.90524,0.268555 6.51855,0.268555 5.06181,0 8.1624,-0.358073 9.30176,-1.074219 l 0.0732,-0.02441 0.0488,-0.04883 0.0488,-0.07324 c 0.0325,-0.03255 0.0488,-0.04883 0.0488,-0.04883 0.42313,-0.56966 0.80562,-2.457679 1.14746,-5.664063 l 2.73437,1.220703 c -0.48832,3.417971 -0.98474,5.489095 -1.48925,6.213379 -0.50461,0.724283 -1.48931,1.236977 -2.95411,1.538086 -1.46488,0.301104 -4.45153,0.451658 -8.95996,0.45166 -4.362,-2e-6 -6.81155,-0.04069 -7.34863,-0.12207 l -0.0977,-0.04883 -0.0976,-0.02441 c -1.02542,-0.113935 -1.77818,-0.439455 -2.2583,-0.976563 -0.48017,-0.53711 -0.72024,-1.375325 -0.72022,-2.514648 l 0,-19.970703 -2.80761,0.878906 -1.07422,-2.416992 3.88183,-1.293945 0,-12.915039 2.68555,0 0,12.011718 5.71289,-2.246093 0,-13.085938 2.68555,0 0,12.158203 z" />
	<path d="m 313.32378,76.907157 32.17773,0 0,1.708984 -21.85059,0 -0.17089,0.366211 c -0.37438,0.862643 -0.86266,1.660169 -1.46485,2.392578 l -0.83008,1.000977 22.5586,0 c -0.0163,7.080081 -0.40288,11.283365 -1.15967,12.609863 -0.75688,1.326494 -2.1851,1.989742 -4.28467,1.989746 -1.05798,-4e-6 -2.38448,-0.105798 -3.97949,-0.317383 l -0.5127,-2.294922 c 2.05075,0.211587 3.54814,0.317382 4.49219,0.317383 1.17184,-10e-7 1.98971,-0.504558 2.45361,-1.513672 0.46383,-1.009113 0.69576,-3.898108 0.69581,-8.666992 l 0,-0.610352 -4.93165,0 -0.14648,0.390625 c -1.96944,5.159509 -5.42809,9.13086 -10.37598,11.914063 l -1.44043,-2.075195 c 4.23174,-2.148437 7.30791,-5.265296 9.22852,-9.350586 l 0.39062,-0.878907 -5.63964,0 -0.1709,0.366211 c -1.95316,4.29688 -5.66409,7.698569 -11.13281,10.205079 l -1.41602,-2.197266 c 4.31313,-1.51367 7.61716,-3.987625 9.91211,-7.421875 l 0.63476,-0.952149 -6.32324,0 -0.19531,0.244141 c -1.43231,1.904304 -3.08433,3.531907 -4.95605,4.882813 l -1.92872,-1.538086 c 3.25519,-2.294914 5.81867,-4.939768 7.69043,-7.934571 l 0.58594,-0.927734 -7.91015,0 z m 6.98242,-8.837891 0,3.564453 18.79883,0 0,-3.564453 z m 0,-5.078125 0,3.759766 18.79883,0 0,-3.759766 z m -0.31739,-5.273438 -2.31933,3.759766 0.0244,0 -2.31933,2.294922 -1.9043,-1.416016 c 2.76691,-2.783169 4.78514,-5.89189 6.05469,-9.326172 l 2.51465,0.805665 c -0.19534,0.406939 -0.41507,0.821978 -0.65918,1.245117 l -0.56153,0.927734 23.12012,0 0,1.708984 z m -2.29492,3.759766 0.31739,0 0,-0.317383 z m 0.31739,0 23.38867,0 0,11.865234 -23.38867,0 z m -7.22657,-8.056641 2.70996,0.830079 c -1.12306,3.418004 -2.417,6.779003 -3.88183,10.083007 l -0.0488,0.122071 0,32.519531 -2.68555,0 0,-27.050781 -1.12304,1.733398 c -0.97657,1.529968 -2.00196,2.962258 -3.07618,4.296875 l -1.36718,-2.734375 c 4.23176,-6.298802 7.38931,-12.89873 9.47265,-19.799805 z" />
	<path d="m 10.845742,119.87591 c -1.2e-5,0.0326 0.03254,0.0977 0.09766,0.19531 0.520821,1.1068 0.797513,2.21357 0.830078,3.32032 -0.03256,1.39976 -0.08139,2.76694 -0.146484,4.10156 -0.130221,3.80861 -0.732434,7.63347 -1.8066403,11.47461 -0.1953231,0.6836 -0.146495,1.57878 0.1464848,2.68554 0.3906135,1.17188 0.7812375,1.95313 1.1718745,2.34375 0.618476,0.52084 1.123033,0.32553 1.513671,-0.58593 0.488268,-1.36719 0.732408,-2.83203 0.732422,-4.39453 0.292954,-9.30988 0.618475,-15.02277 0.976563,-17.13868 0.227849,-0.91143 0.179021,-1.54619 -0.146485,-1.90429 -0.585952,-0.71612 -1.106784,-1.30206 -1.5625,-1.75782 -0.09767,-0.13018 -0.195325,-0.22783 -0.292968,-0.29296 1.074204,-1.49737 2.19725,-3.15753 3.36914,-4.98047 0.911441,-1.59502 1.77407,-2.78317 2.587891,-3.56446 0.325501,-0.39058 0.423157,-0.83004 0.292969,-1.31836 -0.130228,-0.42313 -0.716165,-1.07418 -1.757813,-1.95312 -0.976579,-0.61845 -1.79038,-0.94397 -2.441406,-0.97656 -0.683609,0.0326 -0.878921,0.45577 -0.585938,1.26953 0.488266,1.07425 0.520818,2.06709 0.09766,2.97851 -1.302097,3.05993 -2.897148,5.98962 -4.7851561,8.78907 -1.888029,2.7344 -4.0852924,5.5827 -6.5917968,8.54492 -0.3906282,0.39064 -0.6184925,0.68361 -0.6835938,0.8789 -0.130211,0.4232 0.065101,0.58596 0.5859375,0.48829 1.3671827,-0.29296 3.7109304,-2.49022 7.03125,-6.5918 0.4231662,-0.52081 0.8788952,-1.05792 1.3671872,-1.61133 z m 13.28125,-0.92773 c 0.03253,0.0326 0.08136,0.0814 0.146484,0.14648 0.813776,0.81383 1.692682,1.02542 2.636719,0.63477 5.175748,-2.05076 8.317021,-2.91339 9.423828,-2.58789 0.716108,0.32554 1.009076,0.73245 0.878906,1.2207 -3.8e-5,0.0977 -0.520871,1.39976 -1.5625,3.90625 -0.227901,0.32554 -0.244177,0.58596 -0.04883,0.78125 0.130172,0.19533 0.390588,0.0651 0.78125,-0.39063 2.962199,-2.47393 5.126911,-4.03643 6.494141,-4.6875 0.325476,-0.0976 0.488237,-0.29294 0.488281,-0.58593 0.03251,-0.42315 -0.472049,-0.89516 -1.513672,-1.41602 -0.813844,-0.42315 -1.611369,-0.87888 -2.392578,-1.36719 -0.976602,-0.5208 -1.725299,-0.63473 -2.246094,-0.34179 -3.059931,1.36721 -7.194041,2.58792 -12.402343,3.66211 1.302056,-1.9531 2.604138,-4.31312 3.90625,-7.08008 0.585907,-1.39971 1.171844,-2.45765 1.757812,-3.17383 0.292937,-0.42314 0.325489,-0.87887 0.09766,-1.36719 -0.227896,-0.42314 -0.895213,-0.97652 -2.001953,-1.66015 -1.009143,-0.5208 -1.855496,-0.74866 -2.539062,-0.6836 -0.68362,0.13025 -0.830105,0.58598 -0.439453,1.36719 0.520806,0.81384 0.683566,1.62764 0.488281,2.44141 -0.68362,2.6693 -1.62763,5.28974 -2.832031,7.86132 -1.204451,2.47399 -2.653017,5.11071 -4.345704,7.91016 -0.32554,0.4232 -0.504576,0.74872 -0.537109,0.97656 -0.03257,0.4232 0.179017,0.55341 0.634766,0.39063 0.976541,-0.39061 2.685524,-2.37628 5.126953,-5.95703 z m 4.296875,8.93554 c 0.292939,8.62631 0.09763,13.19988 -0.585938,13.72071 -0.227893,0.19531 -0.553413,0.22786 -0.976562,0.0977 -1.204454,-0.42317 -2.425156,-0.86262 -3.66211,-1.31836 -0.4232,-0.1302 -0.618513,-0.0651 -0.585937,0.19532 -2.4e-5,0.22786 0.162737,0.48828 0.488281,0.78125 2.44138,2.47396 4.020154,4.4108 4.736328,5.81054 0.488252,0.61849 1.009085,0.69987 1.5625,0.24414 1.2695,-1.26953 1.953093,-3.04362 2.050782,-5.32226 -0.227897,-1.88802 -0.358105,-6.26627 -0.390625,-13.13477 0.03252,-1.26951 0.227832,-2.32745 0.585937,-3.17383 0.325488,-0.61847 0.19528,-1.15557 -0.390625,-1.61132 -0.878938,-0.71613 -1.822947,-1.25324 -2.832031,-1.61133 -0.618519,-0.22784 -1.074247,-0.21157 -1.367188,0.0488 -0.19534,0.22788 -0.11396,0.60223 0.244141,1.12304 0.781221,1.30211 1.155569,2.68557 1.123047,4.15039 z m -8.154297,1.75782 c -0.716166,1.95313 -1.611348,3.82488 -2.685547,5.61523 -0.585955,0.97657 -0.585955,2.06707 0,3.27148 0.29295,0.52084 0.764955,0.58595 1.416016,0.19532 1.59503,-1.30208 2.473936,-3.40169 2.636718,-6.29883 0.130186,-1.10676 0.06508,-2.05077 -0.195312,-2.83203 -0.195335,-0.29295 -0.374371,-0.43944 -0.537109,-0.43946 -0.292991,0.0326 -0.504579,0.19533 -0.634766,0.48829 z m 14.794922,0.92773 c 1.660118,1.88803 3.434205,4.1504 5.322265,6.78711 0.423136,0.71615 0.89514,1.18816 1.416016,1.41601 0.292926,0.0326 0.569618,-0.0814 0.830078,-0.34179 0.488237,-0.42317 0.60217,-1.36718 0.341797,-2.83203 -0.293012,-1.95312 -2.848348,-4.1341 -7.666016,-6.54297 -0.293004,-0.22785 -0.488317,-0.13019 -0.585937,0.29297 -0.09769,0.42319 0.01624,0.83009 0.341797,1.2207 z" />
	<path d="m 59.234414,137.16107 c 0.130198,1e-5 0.309234,-0.0163 0.537109,-0.0488 1.106759,-0.22786 2.750638,-0.42317 4.931641,-0.58594 0.390609,0.6836 0.911441,1.57878 1.5625,2.68555 0.292951,0.52084 0.585919,0.73243 0.878906,0.63476 0.423158,-0.0977 0.748679,-0.5371 0.976562,-1.31836 0.976543,-2.37629 1.415996,-5.14321 1.31836,-8.30078 0.03253,-1.98566 0.06508,-4.10154 0.09766,-6.34765 0.09764,-1.36717 0.439432,-2.47394 1.025391,-3.32032 0.423155,-0.58591 0.471983,-1.05791 0.146484,-1.41601 -0.618511,-0.58591 -1.595072,-1.12302 -2.929687,-1.61133 -0.520852,-0.29294 -1.236997,-0.24411 -2.148438,0.14649 -1.106786,0.52086 -2.343764,1.00914 -3.710937,1.46484 -0.781263,0.19534 -1.660168,0.40693 -2.636719,0.63476 4.687485,-6.67314 7.193993,-10.13993 7.519531,-10.40039 0.585919,-0.5859 0.602195,-1.09045 0.04883,-1.51367 -0.618507,-0.42314 -1.432308,-0.73238 -2.441406,-0.92773 -0.911473,-0.19528 -1.562514,-0.16272 -1.953125,0.0977 -0.390638,0.19535 -0.439466,0.47205 -0.146484,0.83008 0.488267,1.07426 -0.01629,3.22269 -1.513672,6.44531 -0.781261,1.69274 -1.611339,3.49938 -2.490235,5.41993 -0.618498,-0.42315 -1.269539,-0.71612 -1.953125,-0.87891 -0.292975,-0.0325 -0.52084,0.0814 -0.683593,0.3418 -0.09766,0.13023 -0.03256,0.37437 0.195312,0.73242 1.367179,2.63674 1.757804,6.93361 1.171875,12.89062 -0.488289,1.95314 -0.618497,3.25522 -0.390625,3.90625 0.325513,1.00913 0.667309,1.69272 1.025391,2.05078 0.390616,0.39064 0.716136,0.37436 0.976562,-0.0488 0.227855,-0.39062 0.423167,-0.91145 0.585938,-1.5625 z m 5.615234,-2.44141 c -0.03257,-0.0325 -0.179052,-0.0814 -0.439453,-0.14648 -0.130224,-0.0976 -0.195328,-0.11392 -0.195313,-0.0488 -0.292983,-0.0977 -1.871758,0.22787 -4.736328,0.97656 -1e-5,-0.97655 -0.03256,-3.3854 -0.09766,-7.22656 -0.03256,-0.0325 -0.03256,-0.0488 0,-0.0488 1.888009,-0.29295 3.824856,-0.58592 5.810547,-0.87891 l 0.04883,0 c 0.227848,-0.22784 0.276676,-0.45571 0.146484,-0.68359 -0.22788,-0.29295 -0.716161,-0.52081 -1.464843,-0.68359 -0.683608,-0.0976 -1.888034,0.13022 -3.613282,0.68359 -0.390635,2e-5 -0.732432,0.0651 -1.02539,0.19531 -0.09767,-2.63669 -0.09767,-4.42706 0,-5.37109 0.03254,-0.0976 2.067045,-0.66729 6.103515,-1.70899 0.423161,-0.0325 0.732405,3e-5 0.927735,0.0977 0.390607,0.19534 0.602195,0.73245 0.634765,1.61133 0.227847,4.13413 0.06509,8.26824 -0.488281,12.40234 -0.03257,0.71616 -0.179054,1.10678 -0.439453,1.17188 -0.130225,0.0326 -0.423194,-0.0163 -0.878906,-0.14649 -0.130225,-0.0976 -0.227881,-0.16275 -0.292969,-0.19531 z m 12.011719,-15.33203 c 0.878877,0.58596 2.246063,0.63479 4.101562,0.14648 1.399707,-0.13018 2.652961,-0.30921 3.759766,-0.53711 1.595015,-0.29294 2.490196,-0.14645 2.685547,0.43946 0.09762,0.4232 0.178998,1.15562 0.24414,2.19726 0.227826,8.20314 -0.553423,14.25783 -2.34375,18.16407 -0.423213,1.00911 -0.992873,1.6276 -1.708984,1.85546 -0.520867,0.0977 -2.115918,-0.39062 -4.785156,-1.46484 -0.32555,-0.1302 -0.504587,-0.0814 -0.53711,0.14648 -0.03258,0.13022 0.146455,0.35808 0.53711,0.6836 1.660125,1.69271 2.848274,3.17383 3.564453,4.44336 0.390591,0.78125 0.830044,1.1556 1.318359,1.12304 1.562464,-0.0977 3.108686,-1.66015 4.638672,-4.6875 1.367147,-3.05988 2.359985,-9.40753 2.978516,-19.04296 -4.2e-5,-1.10675 0.341754,-2.05076 1.02539,-2.83203 0.423134,-0.48826 0.618446,-0.87888 0.585938,-1.17188 -0.0326,-0.29294 -0.390669,-0.65101 -1.074219,-1.07422 -0.9115,-0.71612 -2.001994,-1.23695 -3.271484,-1.5625 -0.781289,-0.22783 -2.262407,0.0326 -4.44336,0.78125 -0.09769,3e-5 -0.179071,0.0163 -0.24414,0.0488 -1.009149,0.293 -3.17386,0.83011 -6.494141,1.61133 2.246063,-3.41794 3.85739,-6.03838 4.833985,-7.86133 0.618455,-1.3997 1.236944,-2.44137 1.855468,-3.125 0.292934,-0.39059 0.341762,-0.83004 0.146485,-1.31836 -0.2279,-0.42314 -0.878941,-0.9928 -1.953125,-1.70898 -1.009147,-0.5859 -1.8555,-0.84632 -2.539063,-0.78125 -0.683624,0.13025 -0.830108,0.5697 -0.439453,1.31836 0.911427,1.56253 0.01625,4.94795 -2.685547,10.15625 -1.204453,2.37632 -2.718124,4.93166 -4.541015,7.66601 -0.325544,0.39065 -0.50458,0.69989 -0.53711,0.92774 -0.09768,0.42319 0.09763,0.5534 0.585938,0.39062 0.878882,-0.19529 2.457656,-1.83917 4.736328,-4.93164 z m -1.708985,9.61914 c 0.813776,0.91147 1.660129,1.92059 2.539063,3.02734 0.423148,0.52085 0.927705,0.79754 1.513672,0.83008 0.390594,0.0326 0.699839,-0.17902 0.927734,-0.63476 0.227833,-0.52082 0.244109,-1.31835 0.04883,-2.39258 -0.227895,-1.17186 -1.88805,-2.29491 -4.980468,-3.36914 -0.520859,-0.22785 -0.911484,-0.29295 -1.171875,-0.19531 -0.195338,0.13022 -0.292994,0.42319 -0.292969,0.8789 0.09763,0.4232 0.569636,1.04169 1.416015,1.85547 z" />
	<path d="m 120.51372,118.21575 c 0.22784,0.0326 0.55336,0.0163 0.97656,-0.0488 1.56248,-0.3255 4.05271,-0.63474 7.4707,-0.92774 0.32549,-0.0325 0.50453,-0.17901 0.53711,-0.43945 -3e-5,-0.22784 -0.45576,-0.65101 -1.36719,-1.26953 -0.0326,-0.0325 -0.0814,-0.0488 -0.14648,-0.0488 0.32549,-1.39971 0.66729,-2.76689 1.02539,-4.10156 2.47393,-0.29294 4.73629,-0.50453 6.78711,-0.63477 0.32548,0.0326 0.63473,-0.13017 0.92773,-0.48828 0.0325,-0.32549 -0.293,-0.68356 -0.97656,-1.07422 -1.07425,-0.78121 -2.91344,-0.79749 -5.51758,-0.0488 -0.22789,4e-5 -0.45576,0.0489 -0.68359,0.14649 0.29294,-1.46481 0.73239,-2.68551 1.31836,-3.66211 0.13018,-0.32548 -0.0651,-0.74866 -0.58594,-1.26953 -0.91149,-0.71611 -1.72529,-1.18811 -2.4414,-1.41602 -0.42321,-0.13016 -0.78128,-0.0976 -1.07422,0.0977 -0.293,0.19535 -0.34183,0.52087 -0.14649,0.97656 0.3906,0.71619 0.56964,1.33468 0.53711,1.85547 -0.0977,1.26957 -0.21161,2.58793 -0.3418,3.95508 -0.4232,0.0326 -0.81382,0.0977 -1.17187,0.19531 -1.9857,0.32556 -3.85744,0.61852 -5.61523,0.87891 l 0,-0.39063 c -0.0326,-1.10673 -0.0489,-1.90426 -0.0488,-2.39258 0.13018,-0.5859 -2e-5,-0.9928 -0.39063,-1.2207 -0.4883,-0.32548 -1.13934,-0.60217 -1.95312,-0.83008 -0.61851,-0.13017 -1.237,-0.0162 -1.85547,0.3418 -0.29299,0.29301 -0.19533,0.61853 0.29297,0.97656 0.58592,0.87894 1.12303,2.14847 1.61133,3.80859 -0.29299,-0.0976 -2.4577,0.0489 -6.49415,0.43946 -0.87891,0.0326 -0.99285,0.34183 -0.34179,0.92773 0.32551,0.32556 0.71613,0.6348 1.17187,0.92774 0.42317,0.22789 0.96028,0.26044 1.61133,0.0977 1.39972,-0.22783 2.86457,-0.47197 4.39453,-0.73242 0.0325,0.32555 0.11392,0.66735 0.24414,1.02539 0.52082,2.96227 0.96027,4.73636 1.31836,5.32227 0.22785,0.29299 0.43943,0.32554 0.63477,0.0976 0.0976,-0.19528 0.19529,-0.55336 0.29297,-1.07422 z m 5.46875,-2.73437 c -1.98571,0.52086 -3.79234,0.94404 -5.41993,1.26953 -0.0326,-0.5208 -0.0814,-1.02536 -0.14648,-1.51367 -0.0977,-0.91143 -0.17906,-1.80661 -0.24414,-2.68555 1.98565,-0.39059 4.13409,-0.69983 6.44531,-0.92773 -0.19534,1.20446 -0.39065,2.49026 -0.58594,3.85742 z m -8.78907,23.33984 c 0.32551,0.0326 0.69985,0.0326 1.12305,0 4.39451,-0.58593 8.23565,-0.99283 11.52344,-1.2207 -3e-5,0.13022 0.0488,0.30925 0.14648,0.53711 0.13018,0.52084 0.42315,0.76498 0.87891,0.73242 0.42314,-0.0325 0.76494,-0.30924 1.02539,-0.83008 0.48825,-0.61848 1.10674,-2.40884 1.85547,-5.37109 0.5208,-1.69269 1.41598,-3.05988 2.68555,-4.10156 0.61845,-0.52082 0.651,-1.04165 0.0977,-1.5625 -0.58597,-0.58592 -1.72529,-1.31834 -3.41797,-2.19727 -0.39066,-0.22784 -1.75784,-0.13019 -4.10156,0.29297 -2.14847,0.19533 -3.49938,0.35809 -4.05273,0.48828 -3e-5,-1.0742 -0.0163,-1.64386 -0.0488,-1.70898 -0.52086,-0.52081 -1.05797,-0.96027 -1.61133,-1.31836 3.41794,-0.3255 10.27015,-0.48826 20.55664,-0.48828 0.7161,2e-5 1.18811,-0.14646 1.41602,-0.43946 0.22781,-0.42315 0.0325,-0.91143 -0.58594,-1.46484 -1.95317,-1.39971 -3.6296,-1.98565 -5.0293,-1.75781 -6.77087,1.26955 -19.02671,2.81578 -36.76758,4.63867 -0.8138,0.0326 -0.92773,0.39065 -0.34179,1.07422 1.07421,1.07424 2.36002,1.46486 3.85742,1.17187 4.52473,-1.17185 9.55402,-2.0182 15.08789,-2.53906 0.0325,0.0326 0.0651,0.0977 0.0977,0.19531 0.48825,1.07424 0.73239,2.08336 0.73242,3.02735 -0.91148,0.0977 -1.79039,0.24416 -2.63672,0.43945 -1.79039,0.29299 -3.35288,0.53713 -4.6875,0.73242 -0.32554,-0.19529 -1.09051,-0.37433 -2.29492,-0.53711 -0.39064,-0.0976 -0.63478,-0.0488 -0.73243,0.14649 -0.19532,0.19533 -0.14649,0.5534 0.14649,1.07422 1.10676,2.14845 2.00194,4.98048 2.68555,8.49609 0.13019,1.07423 0.52081,1.95313 1.17187,2.63672 0.61847,0.71615 1.0091,0.79753 1.17188,0.24414 0.0325,-0.1302 0.0488,-0.26041 0.0488,-0.39063 z m 12.30469,-2.83203 c -0.78128,-0.1953 -2.45771,-0.0325 -5.0293,0.48828 0.0325,-1.39973 0.0814,-2.76691 0.14649,-4.10156 1.49737,-0.22785 2.89711,-0.40689 4.19922,-0.53711 0.71611,-0.13019 0.96025,-0.39061 0.73242,-0.78125 -0.32555,-0.42316 -0.87894,-0.73241 -1.66016,-0.92773 -0.71617,-0.1302 -1.70901,-0.0325 -2.97851,0.29297 -0.0977,1e-5 -0.16279,0.0163 -0.19531,0.0488 0.0325,-1.10675 0.0814,-2.14842 0.14648,-3.125 3.80856,-0.58591 6.00583,-0.6673 6.5918,-0.24414 0.32548,0.22789 0.40686,0.87893 0.24414,1.95313 -0.71618,3.7435 -1.25329,6.13608 -1.61133,7.17773 -0.13024,-0.1302 -0.32555,-0.21158 -0.58594,-0.24414 z m -12.25586,1.5625 c -0.0326,-0.52082 -0.11395,-1.12304 -0.24414,-1.80664 -0.71616,-3.25519 -1.20444,-5.51756 -1.46484,-6.78711 1.30206,-0.42316 3.58071,-0.84633 6.83594,-1.26953 -3e-5,0.81382 -3e-5,1.93687 0,3.36914 -1.30211,0.29298 -2.52281,0.56968 -3.66211,0.83008 -0.52086,0.0977 -0.47203,0.39064 0.14648,0.87891 0.3255,0.22787 0.83006,0.29298 1.51367,0.19531 0.68357,-0.1302 1.36717,-0.22785 2.05078,-0.29297 -2e-5,1.20444 -2e-5,2.5879 0,4.15039 -1.85549,0.19532 -3.58075,0.43946 -5.17578,0.73242 z m -0.0488,2.92969 c -0.78126,2.05078 -3.98764,4.60612 -9.61914,7.66601 -0.78125,0.32552 -0.71615,0.53711 0.19532,0.63477 2.6367,0.13021 6.02212,-1.26953 10.15625,-4.19922 1.10675,-0.8138 1.93682,-1.38346 2.49023,-1.70898 0.42316,-0.32552 0.61847,-0.65104 0.58594,-0.97657 -0.0326,-0.42317 -0.43948,-0.86262 -1.22071,-1.31835 -0.87892,-0.52083 -1.51369,-0.76497 -1.90429,-0.73243 -0.29299,1e-5 -0.52085,0.2116 -0.6836,0.63477 z m 11.08399,1.12305 c 1.88799,1.49739 3.97132,3.40169 6.25,5.71289 0.5859,0.61848 1.13928,0.99283 1.66015,1.12304 0.29294,0.0325 0.55335,-0.13021 0.78125,-0.48828 0.39059,-0.42318 0.32549,-1.36719 -0.19531,-2.83203 -0.48832,-1.75781 -3.33662,-3.45052 -8.54492,-5.07812 -0.32555,-0.13021 -0.50459,0 -0.53711,0.39062 -3e-5,0.42318 0.19528,0.81381 0.58594,1.17188 z" />
	<path d="m 169.78129,112.60052 c 0.0325,-0.0325 0.16274,-0.0814 0.39063,-0.14648 1.36716,-0.22784 2.00193,-0.65101 1.9043,-1.26954 -0.0326,-0.19527 -0.29299,-0.32548 -0.78125,-0.39062 -0.52086,0.0326 -1.07424,0.13024 -1.66016,0.29297 -0.0326,-1.20439 -0.0814,-2.31116 -0.14648,-3.32031 0.0325,-0.61846 -0.27672,-1.04163 -0.92774,-1.26954 -1.26955,-0.68355 -2.29494,-0.91141 -3.07617,-0.68359 -0.61851,0.29301 -0.68361,0.76501 -0.19531,1.41602 1.00909,1.30212 1.67641,2.71813 2.00195,4.24804 -2.08335,0.29301 -4.54103,0.69991 -7.37305,1.22071 -1.30209,-0.0325 -2.3112,3e-5 -3.02734,0.0977 -0.42318,-0.0325 -0.65105,0.0326 -0.68359,0.19532 -0.0977,0.293 -0.0163,0.58596 0.24414,0.8789 0.52082,0.52087 1.25324,0.96032 2.19726,1.31836 0.61848,0.32555 1.22069,0.39066 1.80664,0.19531 2.27863,-0.68356 4.67121,-1.38343 7.17774,-2.09961 0.3906,2.24613 0.81378,3.62959 1.26953,4.15039 0.42316,0.32555 0.7324,0.30928 0.92773,-0.0488 0.0976,-0.3255 0.0814,-1.92055 -0.0488,-4.78516 z m 10.30274,-0.24414 c 2.37627,-0.87887 5.64775,-1.17184 9.81445,-0.87891 0.48824,0.0326 0.79749,-0.0976 0.92774,-0.39062 0.13016,-0.32549 -5e-5,-0.71611 -0.39063,-1.17188 -1.66019,-1.20439 -3.79235,-1.41598 -6.39648,-0.63476 -0.9766,0.19535 -1.98571,0.42321 -3.02735,0.68359 0.0325,-0.0976 0.0651,-0.179 0.0977,-0.24414 0.32549,-1.00908 0.87887,-2.1484 1.66016,-3.41797 0.48824,-0.52079 0.55335,-0.96024 0.19531,-1.31836 -0.42321,-0.61845 -1.23701,-1.22066 -2.44141,-1.80664 -0.58597,-0.32548 -1.18818,-0.34175 -1.80664,-0.0488 -0.32555,0.22791 -0.3581,0.53716 -0.0977,0.92774 0.42314,1.17191 0.26038,3.30407 -0.48829,6.39648 -0.58596,0.0326 -1.15562,0.13025 -1.70898,0.29297 -0.91149,0.13024 -1.04169,0.42321 -0.39063,0.87891 0.58591,0.32555 1.12302,0.56969 1.61133,0.73242 -0.97659,3.22269 -1.44859,5.07815 -1.41601,5.56641 0.0325,0.4232 0.30921,0.50458 0.83008,0.24414 0.5859,-0.52081 1.59502,-2.45766 3.02734,-5.81055 z m -17.23633,18.11523 c 0.78124,2.0508 0.61848,5.37111 -0.48828,9.96094 -0.68361,1.66016 -0.43947,3.38542 0.73242,5.17578 0.0325,0.0977 0.1302,0.21159 0.29297,0.3418 0.52082,0.52083 0.97655,0.35807 1.36719,-0.48828 0.48826,-1.30208 0.71613,-2.68555 0.68359,-4.15039 0.29295,-4.68749 0.55337,-7.55207 0.78125,-8.59375 0.22785,-0.8789 0.1953,-1.48111 -0.0977,-1.80664 -1.1719,-1.26952 -1.79038,-1.90428 -1.85547,-1.9043 2.05076,-2.6367 3.56443,-4.2643 4.54101,-4.88281 0.39061,-0.29295 0.53709,-0.68357 0.43946,-1.17188 -0.0977,-0.42315 -0.56969,-1.10674 -1.41602,-2.05078 -0.81382,-0.71612 -1.52997,-1.1393 -2.14844,-1.26953 -0.6185,-0.0325 -0.86264,0.34182 -0.73242,1.12305 0.29295,0.97658 0.21157,1.82294 -0.24414,2.53906 -1.39975,2.47398 -3.07618,4.80145 -5.0293,6.98242 -1.88803,2.08335 -4.06901,4.26434 -6.54297,6.54297 -0.42318,0.32553 -0.68359,0.56967 -0.78125,0.73242 -0.13021,0.39063 0.0326,0.56967 0.48829,0.53711 1.85546,-0.29296 5.19204,-2.83202 10.00976,-7.61719 z m 13.67188,0.97657 c 0.13018,-2.5716 0.4557,-5.32225 0.97656,-8.25196 0.13018,-0.68357 -0.0163,-1.22068 -0.43945,-1.61132 -0.52087,-0.48826 -1.20446,-0.89516 -2.05079,-1.22071 -0.52085,-0.13018 -0.92776,-0.11391 -1.2207,0.0488 -0.22789,0.13023 -0.24416,0.55341 -0.0488,1.26953 0.52081,1.46487 0.71612,2.89716 0.58594,4.29688 -0.39065,7.94272 -0.24417,12.98828 0.43945,15.13671 0.19529,0.91147 0.69985,1.74154 1.51368,2.49024 3.02731,2.44141 7.56832,3.07617 13.62304,1.9043 0.29293,-0.0977 0.63473,-0.17904 1.02539,-0.24414 1.3997,-0.42318 2.81571,-1.17188 4.24805,-2.2461 0.7161,-0.61848 0.7812,-1.43229 0.19531,-2.4414 -0.52088,-0.8789 -1.2533,-2.65299 -2.19726,-5.32227 -0.0326,-0.61848 -0.21164,-0.99283 -0.53711,-1.12305 -0.22791,-0.13019 -0.39067,0.1465 -0.48828,0.83008 -0.71619,3.02735 -1.36723,5.01303 -1.95313,5.95703 -1.00915,1.30209 -3.33663,1.87175 -6.98242,1.70899 -1.39977,-0.0977 -2.6693,-0.39062 -3.80859,-0.87891 -1.00915,-0.52083 -1.66019,-1.10677 -1.95313,-1.75781 -0.87893,-1.6927 -1.20445,-4.10155 -0.97656,-7.22656 0.13018,-0.0325 0.24411,-0.0651 0.34179,-0.0977 5.27341,-3.25519 9.16338,-5.46873 11.66993,-6.64063 0.7161,-0.0976 1.02535,-0.37432 0.92773,-0.83007 -0.13025,-0.61847 -0.53715,-1.35089 -1.2207,-2.19727 -0.68363,-0.81378 -1.44861,-1.31833 -2.29492,-1.51367 -0.58598,-0.0325 -0.9115,0.32554 -0.97657,1.07422 0.0325,0.52085 -0.16279,1.09051 -0.58593,1.70898 -1.85551,1.88804 -4.45967,4.28062 -7.8125,7.17774 z" />
	<path d="m 210.45512,110.6474 c 0.71614,0.71618 1.48111,1.48115 2.29492,2.29492 0.48827,0.52086 1.02538,0.765 1.61133,0.73242 0.42316,-0.0325 0.71613,-0.29294 0.87891,-0.78125 0.1953,-0.5208 0.13019,-1.35088 -0.19531,-2.49024 -0.19533,-0.61845 -0.78127,-1.13928 -1.75782,-1.5625 -2.44141,-0.87886 -3.8737,-1.18811 -4.29687,-0.92773 -0.19532,0.13025 -0.26043,0.43949 -0.19531,0.92773 0.1302,0.42322 0.68358,1.02543 1.66015,1.80665 z m -6.10351,8.88671 c 1.49739,1.79039 2.8483,2.89716 4.05273,3.32032 0.52083,0.13023 0.944,-0.0651 1.26953,-0.58594 0.22786,-0.42315 0.29296,-0.96026 0.19532,-1.61133 -0.22788,-0.87888 -0.68361,-1.52992 -1.36719,-1.95312 -1.95313,-1.17185 -3.45053,-1.64386 -4.49219,-1.41602 -0.19532,-0.0325 -0.3418,3e-5 -0.43945,0.0977 -0.22787,0.0326 -0.29298,0.27672 -0.19532,0.73242 0.0977,0.4232 0.42318,0.89521 0.97657,1.41601 z m 0.78125,18.40821 c -0.39063,0.19532 -0.50457,0.56967 -0.3418,1.12304 0.8138,2.37631 1.85546,3.82488 3.125,4.34571 0.22786,0.19531 0.52082,0.21159 0.87891,0.0488 0.22785,-0.0977 0.30923,-0.55338 0.24414,-1.36718 -1e-5,-1.17187 0.91144,-6.11978 2.73437,-14.84375 0.1302,-0.58592 0.17903,-0.96027 0.14649,-1.12305 -0.0326,-0.3255 -0.2116,-0.35805 -0.53711,-0.0977 -0.22788,0.19534 -1.7741,3.43427 -4.63867,9.7168 -0.32553,0.71616 -0.86264,1.44858 -1.61133,2.19727 z m 20.60547,-10.40039 c -3e-5,4.88282 -0.2279,8.12175 -0.6836,9.71679 -0.29299,1.10678 0.0976,2.50652 1.17188,4.19922 0.32549,0.61849 0.63473,0.97657 0.92773,1.07422 0.32549,0.0326 0.58591,-0.14648 0.78125,-0.53711 0.3906,-1.00911 0.52081,-2.00195 0.39063,-2.97851 -0.0326,-2.53906 -0.0651,-6.49413 -0.0977,-11.86524 0.61846,-0.19529 3.74346,-0.48826 9.375,-0.8789 0.42314,-0.0325 0.71611,0.0651 0.87891,0.29296 0.29293,0.19534 0.47196,0.91148 0.53711,2.14844 0.42313,5.306 0.39058,9.47266 -0.0977,12.5 -0.2279,1.20443 -0.86267,1.75782 -1.9043,1.66016 -0.91149,-0.0977 -1.77412,-0.17904 -2.58789,-0.24414 -0.48831,-0.13021 -0.74873,-0.0814 -0.78125,0.14648 -3e-5,0.22787 0.19528,0.55339 0.58594,0.97656 2.1484,1.85547 3.49931,3.27149 4.05273,4.24805 0.32549,0.48828 0.65101,0.68359 0.97657,0.58594 0.42313,-0.0977 0.84631,-0.56967 1.26953,-1.41602 1.10673,-2.14843 1.75777,-7.08007 1.95312,-14.79492 -4e-5,-2.92967 0.19527,-4.76886 0.58594,-5.51758 0.58589,-0.78123 0.63472,-1.25323 0.14648,-1.41601 -0.58598,-0.52082 -1.52999,-1.05792 -2.83203,-1.61133 -0.81384,-0.52081 -1.66019,-0.58592 -2.53906,-0.19531 -0.9115,0.29299 -2.50655,0.56968 -4.78516,0.83007 -1.75784,0.19534 -3.35289,0.40693 -4.78515,0.63477 0.0325,-0.71612 0.0976,-1.26951 0.19531,-1.66016 0.0325,-0.42315 -0.0489,-0.71612 -0.24414,-0.8789 -0.61852,-0.52081 -1.20445,-0.94399 -1.75781,-1.26953 1.39971,-0.22784 3.40166,-0.47198 6.00586,-0.73243 0.32548,-0.0325 0.50452,-0.17901 0.53711,-0.43945 -4e-5,-0.22784 -0.39066,-0.60219 -1.17188,-1.12305 0.48825,-1.66012 0.96025,-3.27145 1.41602,-4.83398 1.88798,-0.22783 4.05269,-0.37432 6.49414,-0.43945 1.85542,-0.13018 2.88081,-0.30922 3.07617,-0.53711 0.13016,-0.39059 -0.0651,-0.78122 -0.58594,-1.17188 -1.69275,-1.17184 -3.49939,-1.44853 -5.41992,-0.83008 -0.91149,0.19535 -1.88806,0.43949 -2.92969,0.73243 0.39059,-1.69268 0.99281,-3.32028 1.80664,-4.88282 0.19528,-0.32548 0.0162,-0.78121 -0.53711,-1.36718 -0.97659,-0.81377 -1.82295,-1.35087 -2.53906,-1.61133 -0.48831,-0.22782 -0.87894,-0.22782 -1.17187,0 -0.293,0.19535 -0.35811,0.55342 -0.19532,1.07422 0.42315,0.87894 0.58591,1.59509 0.48829,2.14843 -0.19535,1.69275 -0.43949,3.45056 -0.73243,5.27344 -1.07425,0.19535 -3.17385,0.60225 -6.29882,1.22071 -3e-5,-1.56247 0.0325,-2.68552 0.0977,-3.36915 0.22784,-0.61845 0.13018,-1.09045 -0.29297,-1.41601 -0.52086,-0.32549 -1.22072,-0.65101 -2.09961,-0.97656 -0.68361,-0.19528 -1.33465,-0.13017 -1.95312,0.19531 -0.32554,0.293 -0.26044,0.65108 0.19531,1.07422 0.61847,1.07425 1.15558,2.73441 1.61133,4.98047 -1.88804,0.22789 -3.79234,0.55341 -5.71289,0.97656 -0.61851,0.0977 -0.69989,0.39065 -0.24414,0.87891 0.91144,0.81383 2.11586,1.00914 3.61328,0.58593 0.78123,-0.29294 1.64386,-0.5208 2.58789,-0.68359 -2e-5,0.22789 0.0325,0.50459 0.0977,0.83008 0.42315,3.51565 0.76495,5.5176 1.02539,6.00586 0.22784,0.32554 0.4557,0.37437 0.68359,0.14648 0.19529,-0.19529 0.3255,-0.55336 0.39063,-1.07422 -3e-5,-0.13018 0.0163,-0.26039 0.0488,-0.39062 0.0325,2e-5 0.13019,2e-5 0.29297,0 -2e-5,0.0977 0.0651,0.24416 0.19531,0.43945 0.29295,0.4232 0.45571,1.61135 0.48829,3.56445 -1.26956,0.13023 -2.40888,0.34182 -3.41797,0.63477 -2.05081,0.42319 -4.05276,0.81382 -6.00586,1.17187 -0.81382,-0.3906 -1.48114,-0.56964 -2.00196,-0.53711 -0.42319,0.13023 -0.53712,0.37437 -0.34179,0.73243 1.26951,2.63673 1.39972,6.03842 0.39062,10.20507 -0.58595,2.05079 -0.42319,3.61329 0.48828,4.6875 0.22785,0.42318 0.48827,0.53712 0.78125,0.3418 0.97655,-0.71614 1.46483,-3.05989 1.46485,-7.03125 -2e-5,-3.45051 0.0488,-5.63149 0.14648,-6.54297 0.39061,-0.52081 3.22264,-1.0742 8.4961,-1.66015 z m 3.75976,-8.69141 c -1.69274,0.4232 -3.23896,0.78128 -4.63867,1.07422 -0.0326,-0.42315 -0.0488,-0.8626 -0.0488,-1.31836 -2e-5,-1.10674 -0.0163,-2.14841 -0.0488,-3.125 1.2044,-0.32549 3.1738,-0.66729 5.90821,-1.02539 -0.2279,1.39977 -0.52087,2.84833 -0.87891,4.3457 -0.13024,3e-5 -0.22789,0.0163 -0.29297,0.0488 z m -7.27539,16.01562 c 1.0742,1.07423 1.70896,1.64389 1.9043,1.70899 0.19529,0.0326 0.35805,-0.0651 0.48828,-0.29297 0.22784,-0.22785 0.21156,-0.79752 -0.0488,-1.70898 -0.22789,-1.07421 -2.18101,-2.39257 -5.85937,-3.95508 -0.0326,-0.0325 -0.0814,-0.0488 -0.14649,-0.0488 -0.13023,-0.0976 -0.22788,-0.0163 -0.29297,0.24414 -2e-5,0.22788 0.65102,0.9603 1.95313,2.19727 -2e-5,0.0326 0.0162,0.0814 0.0488,0.14648 0.0325,1.10678 -0.69989,2.63673 -2.19727,4.58984 -0.13023,0.0977 -0.21161,0.2116 -0.24414,0.3418 -2e-5,0.0977 0.0651,0.14649 0.19531,0.14649 1.46483,-0.58593 2.7018,-1.52994 3.71094,-2.83204 0.22784,-0.22785 0.3906,-0.40689 0.48828,-0.53711 z m 11.76758,-1.07421 c 2.0833,2.34376 3.27145,3.59701 3.56445,3.75976 0.19528,0.0326 0.39059,-0.0651 0.58594,-0.29297 0.29293,-0.29296 0.30921,-0.92772 0.0488,-1.90429 -0.29301,-1.56249 -2.83207,-3.61327 -7.61719,-6.15235 -0.2279,-0.13019 -0.3581,-0.0488 -0.39062,0.24414 -0.0326,0.32554 0.0651,0.60223 0.29296,0.83008 0.61846,0.61851 1.30205,1.28582 2.05079,2.00195 -0.52087,1.3021 -1.54626,2.62046 -3.07618,3.95508 -0.13024,0.0326 -0.21162,0.13022 -0.24414,0.29297 -0.0326,0.0977 0.0162,0.14649 0.14649,0.14649 1.36715,0 2.832,-0.8789 4.39453,-2.63672 0.0325,-0.0977 0.1139,-0.17903 0.24414,-0.24414 z" />
	<path d="m 261.627,134.622 c -1.95314,0.81382 -3.93881,1.709 -5.95703,2.68555 -0.52084,0.29298 -1.26954,0.48829 -2.2461,0.58594 -0.42318,0.13021 -0.63477,0.35808 -0.63476,0.68359 -1e-5,0.48829 0.17903,0.83009 0.53711,1.02539 0.81379,0.42319 1.82291,0.86264 3.02734,1.31836 0.39062,0.0326 0.74869,-0.1302 1.07422,-0.48828 0.68358,-0.68359 3.53189,-2.76692 8.54492,-6.25 0.68358,-0.42316 1.25324,-0.89517 1.70899,-1.41601 0.3906,-0.32551 0.56964,-0.63476 0.5371,-0.92774 -0.29298,-0.13019 -1.7741,0.43947 -4.44335,1.70899 0.0976,-3.22265 0.17902,-6.31509 0.24414,-9.27735 2.73435,-1.00909 4.15037,-1.56248 4.24804,-1.66015 0.22785,-0.29295 0.2604,-0.55337 0.0977,-0.78125 -0.22788,-0.3255 -0.79755,-0.53709 -1.70899,-0.63477 -0.91147,-0.0325 -1.7741,0.16278 -2.58789,0.58594 0.0976,-4.49216 0.40689,-7.76364 0.92774,-9.81446 0.0976,-0.39059 -0.21161,-0.83004 -0.92774,-1.31835 -1.20444,-0.61846 -2.2461,-0.99281 -3.125,-1.12305 -0.58594,-0.0976 -0.99285,3e-5 -1.2207,0.29297 -0.29298,0.293 -0.2767,0.68363 0.0488,1.17187 0.97655,1.36722 1.46483,2.50654 1.46484,3.41797 0.1953,2.7344 0.32551,5.56643 0.39063,8.49609 -3.05991,0.97659 -5.04558,1.5788 -5.95703,1.80665 -1.07423,0.32554 -1.18816,0.68361 -0.3418,1.07421 1.26952,0.4232 2.99478,0.29299 5.17578,-0.39062 0.32551,-0.13019 0.71613,-0.24412 1.17188,-0.3418 0.0325,3.02736 0.0163,6.21746 -0.0488,9.57031 z m 9.47265,-6.25 c -0.0326,4.81773 0.24412,8.05665 0.83008,9.7168 0.29295,1.17188 0.96026,2.2461 2.00196,3.22266 3.41794,2.76693 8.72392,3.66211 15.91796,2.68554 0.81376,-0.19531 1.67639,-0.40689 2.58789,-0.63476 1.79032,-0.58594 3.56441,-1.54622 5.32227,-2.88086 0.68354,-0.58593 0.76492,-1.31835 0.24414,-2.19727 -0.52088,-1.20441 -1.12309,-3.61327 -1.80664,-7.22656 -0.0326,-0.52082 -0.17908,-0.86261 -0.43945,-1.02539 -0.22791,-0.0976 -0.39067,0.1465 -0.48828,0.73242 -0.7162,3.84116 -1.38351,6.38022 -2.00196,7.61719 -1.36723,2.05079 -4.78519,2.91342 -10.2539,2.58789 -2.08337,-0.1302 -3.95511,-0.58593 -5.61524,-1.36719 -1.49742,-0.78124 -2.49026,-1.66015 -2.97851,-2.63672 -1.00914,-1.85545 -1.33466,-5.17576 -0.97657,-9.96093 1.20441,-0.71613 2.71808,-1.54621 4.54102,-2.49024 -0.13024,2.57164 -0.30927,4.86656 -0.53711,6.88477 -3e-5,1.00913 0.13018,1.88803 0.39063,2.63672 0.19528,0.42319 0.4557,0.52084 0.78125,0.29297 0.5859,-0.61848 1.04163,-3.14127 1.36718,-7.56836 0.0325,-1.20441 0.1139,-2.36001 0.24414,-3.4668 1.56247,-0.91144 3.38539,-1.90427 5.46875,-2.97852 0.61846,-0.22784 1.02536,-0.16273 1.22071,0.19532 0.29293,0.4883 -0.1628,3.32033 -1.36719,8.49609 -0.2279,1.49741 -0.84639,2.03452 -1.85547,1.61133 -0.61852,-0.1302 -1.22074,-0.2604 -1.80664,-0.39063 -0.42321,-0.0325 -0.58597,0.0814 -0.48828,0.3418 0.19528,0.32554 1.28577,1.3672 3.27148,3.125 0.71611,0.81381 1.35088,0.87892 1.9043,0.19531 1.17184,-1.49738 1.90426,-3.28774 2.19727,-5.37109 l 0.97656,-5.85938 c 0.29293,-1.2044 0.89514,-2.32744 1.80664,-3.36914 0.42313,-0.5208 0.34175,-0.97653 -0.24414,-1.36718 -0.61853,-0.3255 -1.75786,-0.61847 -3.41797,-0.87891 -0.61853,-0.13018 -1.15564,0.0326 -1.61133,0.48828 -0.81384,0.78128 -2.78324,2.09964 -5.9082,3.95508 0.48825,-8.00778 0.89515,-12.63017 1.2207,-13.86719 0.32549,-0.71611 0.27666,-1.28577 -0.14648,-1.70898 -0.52087,-0.5208 -1.28584,-1.02535 -2.29493,-1.51367 -0.78127,-0.32548 -1.5788,-0.32548 -2.39257,0 -0.42321,0.293 -0.39066,0.71618 0.0976,1.26953 0.22784,0.52087 0.47198,0.96032 0.73242,1.31836 0.3255,0.61852 0.55336,1.82295 0.6836,3.61328 0.19528,3.418 0.14645,7.43818 -0.14649,12.06054 -1.30211,0.68362 -2.70185,1.36721 -4.19921,2.05079 -0.13024,0.0326 -0.24417,0.0814 -0.3418,0.14648 0.13018,-1.39972 0.29294,-2.81573 0.48828,-4.24805 0.13018,-0.61846 -0.0163,-1.09047 -0.43945,-1.41601 -0.4232,-0.48826 -1.05797,-0.86261 -1.9043,-1.12305 -0.4883,-0.13018 -0.86265,-0.0976 -1.12305,0.0977 -0.22788,0.13023 -0.24416,0.50458 -0.0488,1.12304 0.52082,1.36722 0.71613,3.59703 0.58594,6.68946 -2.0508,0.81382 -3.6784,1.48113 -4.88281,2.00195 -0.42319,0.0326 -0.65106,0.22788 -0.68359,0.58594 -0.0326,0.22788 0.65102,0.52085 2.05078,0.8789 0.87888,0.22788 1.66013,0.0977 2.34375,-0.39062 0.22784,-0.1953 0.60219,-0.42316 1.12304,-0.6836 z" />
	<path d="m 310.16215,122.41497 c 0.0325,0.19534 0.1302,0.39065 0.29297,0.58594 0.97655,1.9857 1.07421,5.9896 0.29297,12.01172 -0.22787,1.75782 -0.58595,3.53191 -1.07422,5.32226 -0.32553,1.46485 0.0651,3.02735 1.17188,4.6875 0.0325,1e-5 0.0814,0.0488 0.14648,0.14649 0.58593,0.52083 1.07421,0.3418 1.46485,-0.53711 0.48826,-1.30208 0.71613,-2.7181 0.68359,-4.24805 0.0976,-8.43097 0.29295,-13.60675 0.58594,-15.52734 0.22785,-0.87889 0.19529,-1.49737 -0.0977,-1.85547 -1.3672,-1.46482 -2.09962,-2.22979 -2.19726,-2.29492 1.26951,-1.888 2.62042,-3.9876 4.05273,-6.29883 0.87889,-1.69267 1.72524,-2.9622 2.53906,-3.80859 0.3255,-0.32549 0.39061,-0.74867 0.19531,-1.26953 -0.13022,-0.42314 -0.71616,-1.02536 -1.75781,-1.80664 -0.91147,-0.61846 -1.709,-0.9277 -2.39258,-0.92774 -0.6836,0.0977 -0.86264,0.52087 -0.53711,1.26953 0.52082,1.10681 0.56965,2.1322 0.14649,3.07617 -2.05079,5.27347 -5.778,11.32815 -11.18164,18.16407 -0.32553,0.32553 -0.53711,0.6185 -0.63477,0.8789 -0.13021,0.39064 0.0488,0.53713 0.53711,0.43946 1.36718,-0.29296 3.67838,-2.62043 6.9336,-6.98243 0.22785,-0.32549 0.50454,-0.66729 0.83007,-1.02539 z m 14.50196,-13.3789 c 0.29294,0.293 0.94398,0.52087 1.95312,0.68359 0.61846,0.0326 2.65297,-0.35804 6.10352,-1.17187 3.0273,-0.78122 4.62236,-1.23695 4.78515,-1.36719 0.22783,-0.22783 0.27666,-0.47197 0.14649,-0.73242 -0.2279,-0.32549 -0.78129,-0.5859 -1.66016,-0.78125 -0.91149,-0.13017 -1.7904,4e-5 -2.63672,0.39062 -1.1068,0.42322 -2.29495,0.83012 -3.56445,1.2207 -1.36722,0.32556 -2.84833,0.61853 -4.44336,0.87891 -0.0977,4e-5 -0.14651,0.0163 -0.14648,0.0488 0.48825,-0.78121 0.96026,-1.48108 1.41601,-2.09961 0.29294,-0.32548 0.22784,-0.71611 -0.19531,-1.17188 -1.20445,-0.87886 -2.19729,-1.28576 -2.97852,-1.2207 -0.32554,0.0326 -0.45575,0.27674 -0.39062,0.73242 0.42315,2.18103 -0.55341,4.76892 -2.92969,7.76368 -0.61851,0.61852 -1.05796,1.13935 -1.31836,1.5625 -0.22788,0.4232 -0.13023,0.56969 0.29297,0.43945 0.42316,-0.0325 0.91144,-0.27666 1.46484,-0.73242 1.75779,-1.30205 3.12498,-2.78317 4.10157,-4.44336 z m 1.07422,14.45312 c 0.0976,-0.0976 1.85544,-0.3906 5.27343,-0.8789 0.42315,0.58596 0.84632,0.97658 1.26953,1.17187 0.32549,0.22789 0.68356,0.0326 1.07422,-0.58594 0.42315,-0.68357 1.00908,-2.88083 1.75782,-6.59179 0.22782,-0.87888 0.651,-1.66013 1.26953,-2.34375 0.32548,-0.32549 0.34176,-0.69984 0.0488,-1.12305 -0.42322,-0.42314 -1.2533,-0.99281 -2.49024,-1.70898 -0.42321,-0.19528 -1.48115,-0.0488 -3.17383,0.43945 -0.22789,3e-5 -2.19729,0.56969 -5.9082,1.70898 -0.32555,-0.19528 -0.79755,-0.37431 -1.41602,-0.53711 -0.32554,-0.13017 -0.53713,-0.13017 -0.63476,0 -0.19534,0.13024 -0.21161,0.43949 -0.0488,0.92774 0.68357,1.9857 1.07419,4.55732 1.17188,7.71484 -3e-5,0.91148 0.22783,1.72528 0.68359,2.44141 0.3906,0.61851 0.68357,0.73244 0.87891,0.34179 0.13018,-0.29294 0.21156,-0.61846 0.24414,-0.97656 z m 4.88281,-2.39258 c -0.97659,-0.0976 -2.57165,0.293 -4.78516,1.17188 -2e-5,-0.78123 -0.0489,-1.79034 -0.14648,-3.02734 1.66013,-0.42316 3.10869,-0.78123 4.3457,-1.07422 0.61846,-0.19529 0.7975,-0.47198 0.53711,-0.83008 -0.39066,-0.32549 -0.94404,-0.52081 -1.66016,-0.58594 -1.46487,3e-5 -2.57164,0.37438 -3.32031,1.12305 -0.0326,-1.39971 -0.0651,-2.37627 -0.0976,-2.92969 -3e-5,-0.0325 0.0325,-0.0488 0.0976,-0.0488 3.74346,-1.46481 6.00583,-1.98564 6.78711,-1.5625 0.42314,0.293 0.5859,0.71618 0.48828,1.26953 -0.68362,4.19925 -1.26956,6.41279 -1.75781,6.64063 -0.0977,-0.0325 -0.26045,-0.0814 -0.48828,-0.14649 z m -0.14649,10.83985 c -3e-5,4.19923 -3.90627,9.29362 -11.71875,15.2832 -0.19533,0.13021 -0.30926,0.29297 -0.34179,0.48828 -0.0326,0.13021 0.0488,0.21159 0.24414,0.24414 1.49737,0 4.23174,-1.79036 8.20312,-5.37109 0.0325,-0.0976 0.11391,-0.17903 0.24414,-0.24414 1.85544,-1.79036 3.36911,-3.48307 4.54102,-5.07813 0.71611,-1.0091 1.3346,-1.7578 1.85547,-2.24609 0.22783,-0.29296 0.26038,-0.66731 0.0976,-1.12305 -0.58597,-1.36717 -1.12308,-2.11587 -1.61132,-2.24609 1.59501,-0.32551 3.14124,-0.5371 4.63867,-0.63477 0.78121,-0.0325 1.23694,0.0489 1.36719,0.24414 0.32548,0.68361 0.2441,1.80666 -0.24415,3.36914 -1.07425,4.39454 -2.27868,7.48699 -3.61328,9.27735 -0.71618,1.00911 -1.52998,1.38346 -2.4414,1.12304 -0.61852,-0.19531 -1.23701,-0.4069 -1.85547,-0.63476 -0.78128,-0.32552 -0.91149,-0.0651 -0.39063,0.78125 1.10674,1.39974 1.88799,2.60416 2.34375,3.61328 0.68356,0.8789 1.39971,1.00911 2.14844,0.39063 1.20439,-0.71615 2.26233,-1.77409 3.17383,-3.17383 1.10673,-1.59505 2.2135,-5.01302 3.32031,-10.25391 0.39058,-1.85546 0.96025,-3.20637 1.70899,-4.05273 0.42313,-0.39061 0.55334,-0.76496 0.39062,-1.12305 -0.29301,-0.39061 -1.23702,-1.0091 -2.83203,-1.85547 -0.61853,-0.3255 -1.25329,-0.29295 -1.9043,0.0977 -0.87894,0.42319 -2.96227,0.91147 -6.25,1.46484 -2.83206,0.52085 -5.4525,0.86265 -7.86133,1.02539 0.42316,-0.52082 0.87889,-0.99282 1.36719,-1.41601 0.29294,-0.29296 0.29294,-0.65103 0,-1.07422 -0.19534,-0.1953 -0.39065,-0.37433 -0.58594,-0.53711 5.40362,-1.46483 11.8001,-2.21352 19.18946,-2.2461 0.68355,2e-5 1.123,-0.16274 1.31836,-0.48828 0.13016,-0.3906 -0.0651,-0.78123 -0.58594,-1.17187 -1.5951,-1.0742 -3.02739,-1.4811 -4.29688,-1.2207 -3.54821,0.97658 -11.39325,2.55535 -23.53515,4.73632 -0.61851,0.0977 -0.68361,0.40692 -0.19531,0.92774 0.42316,0.42319 0.92771,0.69988 1.51367,0.83008 0.68357,0.13022 1.26951,0.11394 1.75781,-0.0488 0.78123,-0.29295 1.61131,-0.5371 2.49023,-0.73242 -0.4232,2.08334 -1.83921,4.06902 -4.24804,5.95703 -0.68361,0.52084 -1.20445,0.96029 -1.5625,1.31836 -0.22788,0.32553 -0.16278,0.47201 0.19531,0.43945 1.56248,1e-5 3.56443,-1.30207 6.00586,-3.90625 0.68357,0.48829 1.38344,0.65105 2.09961,0.48828 0.13018,1.07423 -0.96031,2.81577 -3.27149,5.22461 -1.00913,1.00912 -2.13218,2.00196 -3.36914,2.97852 -0.13022,0.0977 -0.22788,0.22786 -0.29296,0.39062 -0.0326,0.0977 0.0163,0.16276 0.14648,0.19531 1.888,1e-5 4.49216,-1.85546 7.8125,-5.5664 0.42315,-0.52083 0.7975,-0.91145 1.12305,-1.17188 0.19528,-0.22785 0.22783,-0.52082 0.0976,-0.8789 -0.22789,-0.68359 -0.52086,-1.17187 -0.8789,-1.46485 1.49736,-0.32551 2.99476,-0.63475 4.49218,-0.92773 z" />
</svg>