<?xml version="1.0" encoding="UTF-8" standalone="no"?>
<!DOCTYPE svg PUBLIC "-//W3C//DTD SVG 1.1//EN"
 "http://www.w3.org/Graphics/SVG/1.1/DTD/svg11.dtd">
<!-- Generated by graphviz version 2.29.20121209.0545 (20121209.0545)
 -->
<!-- Title: models_diagram Pages: 1 -->
<svg width="2226pt" height="504pt"
 viewBox="0.00 0.00 2225.82 504.00" xmlns="http://www.w3.org/2000/svg" xmlns:xlink="http://www.w3.org/1999/xlink">
<g id="graph0" class="graph" transform="scale(1 1) rotate(0) translate(4 500)">
<title>models_diagram</title>
<polygon fill="white" stroke="white" points="-4,5 -4,-500 2222.82,-500 2222.82,5 -4,5"/>
<!-- _diagram_info -->
<g id="node1" class="node"><title>_diagram_info</title>
<text text-anchor="start" x="339.822" y="-481.6" font-family="Times,serif" font-size="13.00">Models diagram</text>
<text text-anchor="start" x="339.822" y="-467.6" font-family="Times,serif" font-size="13.00">Date: Dec 24 2012 &#45; 21:07</text>
<text text-anchor="start" x="339.822" y="-453.6" font-family="Times,serif" font-size="13.00">Migration version: 20121225020158</text>
<text text-anchor="start" x="339.822" y="-439.6" font-family="Times,serif" font-size="13.00">Generated by RailRoady 1.1.0</text>
<text text-anchor="start" x="339.822" y="-425.6" font-family="Times,serif" font-size="13.00">http://railroady.prestonlee.com</text>
</g>
<!-- Addendum -->
<g id="node2" class="node"><title>Addendum</title>
<ellipse fill="none" stroke="black" cx="139.822" cy="-308" rx="51.0191" ry="18"/>
<text text-anchor="middle" x="139.822" y="-304.3" font-family="Times,serif" font-size="14.00">Addendum</text>
</g>
<!-- Note -->
<g id="node17" class="node"><title>Note</title>
<ellipse fill="none" stroke="black" cx="534.822" cy="-18" rx="28.3955" ry="18"/>
<text text-anchor="middle" x="534.822" y="-14.3" font-family="Times,serif" font-size="14.00">Note</text>
</g>
<!-- Addendum&#45;&gt;Note -->
<g id="edge1" class="edge"><title>Addendum&#45;&gt;Note</title>
<path fill="none" stroke="#540ab7" d="M170.936,-287.623C204.635,-265.541 258.561,-226.911 295.822,-184 342.399,-130.36 323.942,-82.9361 388.822,-54 423.852,-38.3771 466.849,-29.1504 497.081,-24.1286"/>
<ellipse fill="none" stroke="#540ab7" cx="167.421" cy="-289.903" rx="4.00002" ry="4.00002"/>
<polygon fill="#540ab7" stroke="#540ab7" points="497.332,-24.089 507.913,-26.9687 502.27,-23.3066 507.208,-22.5241 507.208,-22.5241 507.208,-22.5241 502.27,-23.3066 506.504,-18.0795 497.332,-24.089 497.332,-24.089"/>
</g>
<!-- Business -->
<g id="node3" class="node"><title>Business</title>
<ellipse fill="none" stroke="black" cx="621.822" cy="-362" rx="42.3456" ry="18"/>
<text text-anchor="middle" x="621.822" y="-358.3" font-family="Times,serif" font-size="14.00">Business</text>
</g>
<!-- Business&#45;&gt;Note -->
<g id="edge2" class="edge"><title>Business&#45;&gt;Note</title>
<path fill="none" stroke="#eb3ad3" d="M584.7,-345.4C553.609,-330.625 510.064,-305.686 482.822,-272 456.556,-239.521 458.413,-224.878 449.822,-184 439.767,-136.154 426.416,-117.455 448.822,-74 459.383,-53.5173 481.404,-39.6525 500.517,-30.9671"/>
<ellipse fill="none" stroke="#eb3ad3" cx="588.691" cy="-347.252" rx="4.00002" ry="4.00002"/>
<polygon fill="#eb3ad3" stroke="#eb3ad3" points="500.678,-30.8993 511.641,-31.1457 505.282,-28.9504 509.887,-27.0015 509.887,-27.0015 509.887,-27.0015 505.282,-28.9504 508.133,-22.8574 500.678,-30.8993 500.678,-30.8993"/>
</g>
<!-- Psa -->
<g id="node21" class="node"><title>Psa</title>
<ellipse fill="none" stroke="black" cx="259.822" cy="-166" rx="27" ry="18"/>
<text text-anchor="middle" x="259.822" y="-162.3" font-family="Times,serif" font-size="14.00">Psa</text>
</g>
<!-- Business&#45;&gt;Psa -->
<g id="edge3" class="edge"><title>Business&#45;&gt;Psa</title>
<path fill="none" stroke="#9046a7" d="M582.731,-347.455C578.404,-346.185 574.038,-345.001 569.822,-344 517.778,-331.647 494.087,-357.455 450.822,-326 414.65,-299.702 437.793,-267.271 405.822,-236 374.444,-205.31 326.842,-186.351 294.594,-176.253"/>
<ellipse fill="none" stroke="#9046a7" cx="586.613" cy="-348.643" rx="4.00001" ry="4.00001"/>
<polygon fill="#9046a7" stroke="#9046a7" points="294.281,-176.159 285.998,-168.973 289.492,-174.721 284.704,-173.282 284.704,-173.282 284.704,-173.282 289.492,-174.721 283.409,-177.592 294.281,-176.159 294.281,-176.159"/>
</g>
<!-- Employee -->
<g id="node9" class="node"><title>Employee</title>
<ellipse fill="none" stroke="black" cx="1120.82" cy="-254" rx="47.169" ry="18"/>
<text text-anchor="middle" x="1120.82" y="-250.3" font-family="Times,serif" font-size="14.00">Employee</text>
</g>
<!-- Business&#45;&gt;Employee -->
<g id="edge4" class="edge"><title>Business&#45;&gt;Employee</title>
<path fill="none" stroke="#b3cea5" d="M667.033,-351.396C760.336,-331.576 973.602,-286.273 1070.84,-265.617"/>
<ellipse fill="none" stroke="#b3cea5" cx="662.833" cy="-352.288" rx="4.00001" ry="4.00001"/>
<polygon fill="#b3cea5" stroke="#b3cea5" points="1070.94,-265.597 1081.65,-267.921 1075.83,-264.558 1080.72,-263.519 1080.72,-263.519 1080.72,-263.519 1075.83,-264.558 1079.78,-259.117 1070.94,-265.597 1070.94,-265.597"/>
</g>
<!-- Vehicle -->
<g id="node31" class="node"><title>Vehicle</title>
<ellipse fill="none" stroke="black" cx="358.822" cy="-254" rx="38.4949" ry="18"/>
<text text-anchor="middle" x="358.822" y="-250.3" font-family="Times,serif" font-size="14.00">Vehicle</text>
</g>
<!-- Business&#45;&gt;Vehicle -->
<g id="edge5" class="edge"><title>Business&#45;&gt;Vehicle</title>
<path fill="none" stroke="#a82ff5" d="M582.951,-347.317C578.558,-346.063 574.118,-344.92 569.822,-344 532.892,-336.088 432.591,-346.424 400.822,-326 392.233,-320.478 380.182,-299.08 371.19,-281.204"/>
<ellipse fill="none" stroke="#a82ff5" cx="586.936" cy="-348.518" rx="4.00001" ry="4.00001"/>
<polygon fill="#a82ff5" stroke="#a82ff5" points="370.959,-280.735 370.589,-269.775 368.755,-276.247 366.55,-271.759 366.55,-271.759 366.55,-271.759 368.755,-276.247 362.511,-273.743 370.959,-280.735 370.959,-280.735"/>
</g>
<!-- DailyDataDeliveryException -->
<g id="node4" class="node"><title>DailyDataDeliveryException</title>
<ellipse fill="none" stroke="black" cx="2072.82" cy="-166" rx="116.484" ry="18"/>
<text text-anchor="middle" x="2072.82" y="-162.3" font-family="Times,serif" font-size="14.00">DailyDataDeliveryException</text>
</g>
<!-- DailyDataDeliveryException&#45;&gt;Note -->
<g id="edge6" class="edge"><title>DailyDataDeliveryException&#45;&gt;Note</title>
<path fill="none" stroke="#1c75d3" d="M2054.2,-141.666C2031.12,-114.773 1989.02,-71.9753 1941.82,-54 1876.18,-28.9981 792.926,-20.6707 573.429,-19.2363"/>
<ellipse fill="none" stroke="#1c75d3" cx="2056.8" cy="-144.748" rx="4.00002" ry="4.00002"/>
<polygon fill="#1c75d3" stroke="#1c75d3" points="573.348,-19.2359 563.377,-14.6714 568.348,-19.2036 563.348,-19.1713 563.348,-19.1713 563.348,-19.1713 568.348,-19.2036 563.319,-23.6712 573.348,-19.2359 573.348,-19.2359"/>
</g>
<!-- DailyDataEmployee -->
<g id="node5" class="node"><title>DailyDataEmployee</title>
<ellipse fill="none" stroke="black" cx="1314.82" cy="-166" rx="85.2138" ry="18"/>
<text text-anchor="middle" x="1314.82" y="-162.3" font-family="Times,serif" font-size="14.00">DailyDataEmployee</text>
</g>
<!-- DailyDataEmployee&#45;&gt;Note -->
<g id="edge7" class="edge"><title>DailyDataEmployee&#45;&gt;Note</title>
<path fill="none" stroke="#0ed1be" d="M1256.73,-149.364C1182,-129.676 1048,-95.7968 931.822,-74 801.073,-49.4684 644.194,-30.9025 573.137,-23.0739"/>
<ellipse fill="none" stroke="#0ed1be" cx="1260.79" cy="-150.436" rx="4.00001" ry="4.00001"/>
<polygon fill="#0ed1be" stroke="#0ed1be" points="572.828,-23.0403 563.376,-17.4805 567.858,-22.4971 562.888,-21.9538 562.888,-21.9538 562.888,-21.9538 567.858,-22.4971 562.399,-26.4272 572.828,-23.0403 572.828,-23.0403"/>
</g>
<!-- DailyDataVehicle -->
<g id="node6" class="node"><title>DailyDataVehicle</title>
<ellipse fill="none" stroke="black" cx="551.822" cy="-166" rx="76.5394" ry="18"/>
<text text-anchor="middle" x="551.822" y="-162.3" font-family="Times,serif" font-size="14.00">DailyDataVehicle</text>
</g>
<!-- DailyDataVehicle&#45;&gt;Note -->
<g id="edge8" class="edge"><title>DailyDataVehicle&#45;&gt;Note</title>
<path fill="none" stroke="#fc6b2c" d="M580.107,-142.9C589.507,-133.834 598.841,-122.52 603.822,-110 609.737,-95.1336 610.766,-88.4147 603.822,-74 595.784,-57.3133 579.947,-44.1204 565.472,-34.8431"/>
<ellipse fill="none" stroke="#fc6b2c" cx="576.916" cy="-145.822" rx="4.00002" ry="4.00002"/>
<polygon fill="#fc6b2c" stroke="#fc6b2c" points="565.286,-34.7311 559.036,-25.7204 561.001,-32.1538 556.716,-29.5765 556.716,-29.5765 556.716,-29.5765 561.001,-32.1538 554.397,-33.4327 565.286,-34.7311 565.286,-34.7311"/>
</g>
<!-- DailyDatum -->
<g id="node7" class="node"><title>DailyDatum</title>
<ellipse fill="none" stroke="black" cx="1524.82" cy="-362" rx="55.3436" ry="18"/>
<text text-anchor="middle" x="1524.82" y="-358.3" font-family="Times,serif" font-size="14.00">DailyDatum</text>
</g>
<!-- DailyDatum&#45;&gt;Note -->
<g id="edge9" class="edge"><title>DailyDatum&#45;&gt;Note</title>
<path fill="none" stroke="#9f5528" d="M1587.45,-357.484C1700.68,-349.4 1927.82,-324.52 1927.82,-255 1927.82,-255 1927.82,-255 1927.82,-91 1927.82,-21.2342 798.753,-18.7298 573.605,-18.9239"/>
<ellipse fill="none" stroke="#9f5528" cx="1583.16" cy="-357.782" rx="4" ry="4"/>
<polygon fill="#9f5528" stroke="#9f5528" points="573.279,-18.9242 563.274,-14.4353 568.279,-18.9297 563.279,-18.9353 563.279,-18.9353 563.279,-18.9353 568.279,-18.9297 563.284,-23.4353 573.279,-18.9242 573.279,-18.9242"/>
</g>
<!-- DailyDatum&#45;&gt;DailyDataVehicle -->
<g id="edge10" class="edge"><title>DailyDatum&#45;&gt;DailyDataVehicle</title>
<path fill="none" stroke="#38b822" d="M1465.64,-354.031C1411.66,-347.48 1329.74,-337.052 1258.82,-326 991.534,-284.343 917.461,-300.467 659.822,-218 635.333,-210.161 609.227,-197.95 588.817,-187.441"/>
<ellipse fill="none" stroke="#38b822" cx="1469.75" cy="-354.528" rx="4.00001" ry="4.00001"/>
<polygon fill="#38b822" stroke="#38b822" points="588.725,-187.393 581.954,-178.768 584.296,-185.074 579.866,-182.754 579.866,-182.754 579.866,-182.754 584.296,-185.074 577.779,-186.741 588.725,-187.393 588.725,-187.393"/>
</g>
<!-- DailyDatum&#45;&gt;Vehicle -->
<g id="edge11" class="edge"><title>DailyDatum&#45;&gt;Vehicle</title>
<path fill="none" stroke="#152212" d="M1459.23,-360.646C1276.57,-359.323 764.661,-353.223 598.822,-326 525.967,-314.04 444.096,-286.679 397.272,-269.629"/>
<polygon fill="#152212" stroke="#152212" points="1459.23,-360.646 1469.2,-365.216 1464.23,-360.681 1469.23,-360.716 1469.23,-360.716 1469.23,-360.716 1464.23,-360.681 1469.26,-356.216 1459.23,-360.646 1459.23,-360.646"/>
<polygon fill="#152212" stroke="#152212" points="397.214,-269.608 389.381,-261.933 392.521,-267.882 387.828,-266.157 387.828,-266.157 387.828,-266.157 392.521,-267.882 386.275,-270.38 397.214,-269.608 397.214,-269.608"/>
</g>
<!-- DailyDatum&#45;&gt;DailyDataEmployee -->
<g id="edge12" class="edge"><title>DailyDatum&#45;&gt;DailyDataEmployee</title>
<path fill="none" stroke="#426561" d="M1501.39,-339.356C1461.73,-302.711 1381.65,-228.739 1340.51,-190.73"/>
<ellipse fill="none" stroke="#426561" cx="1504.34" cy="-342.079" rx="4.00002" ry="4.00002"/>
<polygon fill="#426561" stroke="#426561" points="1340.41,-190.634 1336.11,-180.543 1336.73,-187.241 1333.06,-183.848 1333.06,-183.848 1333.06,-183.848 1336.73,-187.241 1330.01,-187.154 1340.41,-190.634 1340.41,-190.634"/>
</g>
<!-- DailyDatum&#45;&gt;Employee -->
<g id="edge13" class="edge"><title>DailyDatum&#45;&gt;Employee</title>
<path fill="none" stroke="#022882" d="M1473.2,-347.456C1394.26,-326.743 1244.68,-287.497 1168.3,-267.456"/>
<polygon fill="#022882" stroke="#022882" points="1473.44,-347.517 1481.97,-354.408 1478.27,-348.786 1483.11,-350.055 1483.11,-350.055 1483.11,-350.055 1478.27,-348.786 1484.25,-345.703 1473.44,-347.517 1473.44,-347.517"/>
<polygon fill="#022882" stroke="#022882" points="1168.14,-267.414 1159.6,-260.523 1163.3,-266.145 1158.46,-264.876 1158.46,-264.876 1158.46,-264.876 1163.3,-266.145 1157.32,-269.229 1168.14,-267.414 1168.14,-267.414"/>
</g>
<!-- DailyDatum&#45;&gt;DailyDataDeliveryException -->
<g id="edge14" class="edge"><title>DailyDatum&#45;&gt;DailyDataDeliveryException</title>
<path fill="none" stroke="#db67da" d="M1587.84,-358.487C1695.48,-353.812 1910.24,-342.711 1983.82,-326 2048.45,-311.322 2085.39,-326.695 2122.82,-272 2140.47,-246.214 2118.51,-213.234 2098.38,-191.18"/>
<ellipse fill="none" stroke="#db67da" cx="1583.65" cy="-358.668" rx="4" ry="4"/>
<polygon fill="#db67da" stroke="#db67da" points="2098.3,-191.102 2094.66,-180.759 2094.85,-187.483 2091.4,-183.865 2091.4,-183.865 2091.4,-183.865 2094.85,-187.483 2088.15,-186.97 2098.3,-191.102 2098.3,-191.102"/>
</g>
<!-- DeliveryException -->
<g id="node8" class="node"><title>DeliveryException</title>
<ellipse fill="none" stroke="black" cx="2034.82" cy="-254" rx="78.9404" ry="18"/>
<text text-anchor="middle" x="2034.82" y="-250.3" font-family="Times,serif" font-size="14.00">DeliveryException</text>
</g>
<!-- DailyDatum&#45;&gt;DeliveryException -->
<g id="edge15" class="edge"><title>DailyDatum&#45;&gt;DeliveryException</title>
<path fill="none" stroke="#927ed6" d="M1590.14,-359.963C1690.96,-357.617 1879.4,-350.061 1941.82,-326 1968.45,-315.737 1993.86,-295.356 2011.37,-279.054"/>
<polygon fill="#927ed6" stroke="#927ed6" points="1590.07,-359.964 1579.97,-355.688 1585.07,-360.075 1580.07,-360.186 1580.07,-360.186 1580.07,-360.186 1585.07,-360.075 1580.17,-364.685 1590.07,-359.964 1590.07,-359.964"/>
<polygon fill="#927ed6" stroke="#927ed6" points="2011.61,-278.819 2021.95,-275.15 2015.22,-275.36 2018.83,-271.901 2018.83,-271.901 2018.83,-271.901 2015.22,-275.36 2015.72,-268.652 2011.61,-278.819 2011.61,-278.819"/>
</g>
<!-- DeliveryException&#45;&gt;DailyDataDeliveryException -->
<g id="edge16" class="edge"><title>DeliveryException&#45;&gt;DailyDataDeliveryException</title>
<path fill="none" stroke="#569ee0" d="M2045.63,-228.545C2050.46,-217.608 2056.17,-204.691 2061.1,-193.522"/>
<ellipse fill="none" stroke="#569ee0" cx="2043.95" cy="-232.35" rx="4.00002" ry="4.00002"/>
<polygon fill="#569ee0" stroke="#569ee0" points="2061.16,-193.397 2069.32,-186.069 2063.18,-188.823 2065.2,-184.25 2065.2,-184.25 2065.2,-184.25 2063.18,-188.823 2061.08,-182.431 2061.16,-193.397 2061.16,-193.397"/>
</g>
<!-- Employee&#45;&gt;Note -->
<g id="edge17" class="edge"><title>Employee&#45;&gt;Note</title>
<path fill="none" stroke="#0bae01" d="M1065.67,-251.838C1000.33,-249.372 888.624,-241.713 795.822,-218 757.597,-208.233 745.683,-207.269 713.822,-184 652.701,-139.361 663.194,-100.94 603.822,-54 593.014,-45.4548 579.789,-38.1381 567.819,-32.4374"/>
<ellipse fill="none" stroke="#0bae01" cx="1069.8" cy="-251.984" rx="4" ry="4"/>
<polygon fill="#0bae01" stroke="#0bae01" points="567.659,-32.3647 560.424,-24.1243 563.109,-30.2921 558.559,-28.2195 558.559,-28.2195 558.559,-28.2195 563.109,-30.2921 556.693,-32.3147 567.659,-32.3647 567.659,-32.3647"/>
</g>
<!-- User -->
<g id="node29" class="node"><title>User</title>
<ellipse fill="none" stroke="black" cx="1555.82" cy="-166" rx="27.4223" ry="18"/>
<text text-anchor="middle" x="1555.82" y="-162.3" font-family="Times,serif" font-size="14.00">User</text>
</g>
<!-- Employee&#45;&gt;User -->
<g id="edge18" class="edge"><title>Employee&#45;&gt;User</title>
<path fill="none" stroke="#92f6ee" d="M1176.38,-253.265C1270.52,-252.862 1456.7,-248.128 1513.82,-218 1525.69,-211.739 1535.49,-200.549 1542.62,-190.242"/>
<ellipse fill="none" stroke="#92f6ee" cx="1172.12" cy="-253.278" rx="4" ry="4"/>
<ellipse fill="#92f6ee" stroke="#92f6ee" cx="1544.95" cy="-186.671" rx="4.00002" ry="4.00002"/>
</g>
<!-- Employee&#45;&gt;DailyDataEmployee -->
<g id="edge19" class="edge"><title>Employee&#45;&gt;DailyDataEmployee</title>
<path fill="none" stroke="#ab48ad" d="M1172.42,-245.144C1198.18,-239.848 1229.23,-231.325 1254.82,-218 1268.16,-211.058 1281.11,-200.669 1291.54,-191.076"/>
<ellipse fill="none" stroke="#ab48ad" cx="1168.18" cy="-245.979" rx="4.00001" ry="4.00001"/>
<polygon fill="#ab48ad" stroke="#ab48ad" points="1291.76,-190.867 1302.1,-187.221 1295.38,-187.416 1299,-183.965 1299,-183.965 1299,-183.965 1295.38,-187.416 1295.89,-180.709 1291.76,-190.867 1291.76,-190.867"/>
</g>
<!-- EmployeePsa -->
<g id="node12" class="node"><title>EmployeePsa</title>
<ellipse fill="none" stroke="black" cx="534.822" cy="-92" rx="60.1672" ry="18"/>
<text text-anchor="middle" x="534.822" y="-88.3" font-family="Times,serif" font-size="14.00">EmployeePsa</text>
</g>
<!-- Employee&#45;&gt;EmployeePsa -->
<g id="edge20" class="edge"><title>Employee&#45;&gt;EmployeePsa</title>
<path fill="none" stroke="#2fc1d7" d="M1065.92,-251.371C955.226,-247.694 713.036,-237.508 680.822,-218 649.39,-198.965 663.657,-173.104 636.822,-148 620.282,-132.527 598.564,-120.026 579.42,-110.876"/>
<ellipse fill="none" stroke="#2fc1d7" cx="1069.98" cy="-251.504" rx="4" ry="4"/>
<polygon fill="#2fc1d7" stroke="#2fc1d7" points="579.345,-110.842 572.147,-102.569 574.804,-108.748 570.263,-106.655 570.263,-106.655 570.263,-106.655 574.804,-108.748 568.379,-110.742 579.345,-110.842 579.345,-110.842"/>
</g>
<!-- Employee&#45;&gt;Psa -->
<g id="edge21" class="edge"><title>Employee&#45;&gt;Psa</title>
<path fill="none" stroke="#c65094" d="M1064.05,-249.935C974.415,-244.85 794.692,-233.658 642.822,-218 514.88,-204.809 363.734,-182.768 295.918,-172.533"/>
<polygon fill="#c65094" stroke="#c65094" points="1064.28,-249.948 1074.01,-255.003 1069.27,-250.229 1074.26,-250.51 1074.26,-250.51 1074.26,-250.51 1069.27,-250.229 1074.52,-246.017 1064.28,-249.948 1064.28,-249.948"/>
<polygon fill="#c65094" stroke="#c65094" points="295.652,-172.493 286.439,-166.546 290.709,-171.744 285.765,-170.995 285.765,-170.995 285.765,-170.995 290.709,-171.744 285.091,-175.445 295.652,-172.493 295.652,-172.493"/>
</g>
<!-- EmployeeTerminal -->
<g id="node13" class="node"><title>EmployeeTerminal</title>
<ellipse fill="none" stroke="black" cx="841.822" cy="-92" rx="81.3646" ry="18"/>
<text text-anchor="middle" x="841.822" y="-88.3" font-family="Times,serif" font-size="14.00">EmployeeTerminal</text>
</g>
<!-- Employee&#45;&gt;EmployeeTerminal -->
<g id="edge22" class="edge"><title>Employee&#45;&gt;EmployeeTerminal</title>
<path fill="none" stroke="#121460" d="M1068.73,-246.049C1000.46,-235.851 886.05,-214.66 857.822,-184 842.165,-166.995 839.065,-140.3 839.347,-120.213"/>
<ellipse fill="none" stroke="#121460" cx="1072.86" cy="-246.657" rx="4.00001" ry="4.00001"/>
<polygon fill="#121460" stroke="#121460" points="839.351,-120.108 844.269,-110.307 839.562,-115.113 839.773,-110.117 839.773,-110.117 839.773,-110.117 839.562,-115.113 835.277,-109.927 839.351,-120.108 839.351,-120.108"/>
</g>
<!-- Terminal -->
<g id="node28" class="node"><title>Terminal</title>
<ellipse fill="none" stroke="black" cx="766.822" cy="-166" rx="44.2946" ry="18"/>
<text text-anchor="middle" x="766.822" y="-162.3" font-family="Times,serif" font-size="14.00">Terminal</text>
</g>
<!-- Employee&#45;&gt;Terminal -->
<g id="edge23" class="edge"><title>Employee&#45;&gt;Terminal</title>
<path fill="none" stroke="#cba9e0" d="M1064.02,-250.297C990.347,-246.106 866.349,-236.519 824.822,-218 810.77,-211.733 797.662,-200.838 787.475,-190.722"/>
<polygon fill="#cba9e0" stroke="#cba9e0" points="1064.08,-250.3 1073.82,-255.346 1069.08,-250.577 1074.07,-250.853 1074.07,-250.853 1074.07,-250.853 1069.08,-250.577 1074.32,-246.36 1064.08,-250.3 1064.08,-250.3"/>
<polygon fill="#cba9e0" stroke="#cba9e0" points="787.209,-190.445 783.535,-180.113 783.748,-186.836 780.287,-183.228 780.287,-183.228 780.287,-183.228 783.748,-186.836 777.039,-186.343 787.209,-190.445 787.209,-190.445"/>
</g>
<!-- EmployeeManagerAssignment -->
<g id="node10" class="node"><title>EmployeeManagerAssignment</title>
<ellipse fill="none" stroke="black" cx="1087.82" cy="-166" rx="123.234" ry="18"/>
<text text-anchor="middle" x="1087.82" y="-162.3" font-family="Times,serif" font-size="14.00">EmployeeManagerAssignment</text>
</g>
<!-- Employee&#45;&gt;EmployeeManagerAssignment -->
<g id="edge24" class="edge"><title>Employee&#45;&gt;EmployeeManagerAssignment</title>
<path fill="none" stroke="#121f48" d="M1106.9,-229.06C1105.05,-225.419 1103.29,-221.656 1101.82,-218 1098.77,-210.419 1096.15,-201.945 1094.03,-194.116"/>
<ellipse fill="none" stroke="#121f48" cx="1108.86" cy="-232.758" rx="4.00002" ry="4.00002"/>
<polygon fill="#121f48" stroke="#121f48" points="1094,-194.013 1095.89,-183.211 1092.77,-189.168 1091.53,-184.323 1091.53,-184.323 1091.53,-184.323 1092.77,-189.168 1087.17,-185.434 1094,-194.013 1094,-194.013"/>
</g>
<!-- Employee&#45;&gt;Employee -->
<g id="edge25" class="edge"><title>Employee&#45;&gt;Employee</title>
<path fill="none" stroke="#d41dae" d="M1173,-261.461C1180.65,-260.286 1185.82,-257.799 1185.82,-254 1185.82,-250.201 1180.65,-247.714 1173,-246.539"/>
<polygon fill="#d41dae" stroke="#d41dae" points="1172.99,-261.461 1162.67,-257.751 1168.01,-261.849 1163.02,-262.237 1163.02,-262.237 1163.02,-262.237 1168.01,-261.849 1163.37,-266.724 1172.99,-261.461 1172.99,-261.461"/>
<polygon fill="#d41dae" stroke="#d41dae" points="1172.99,-246.539 1163.37,-241.276 1168.01,-246.151 1163.02,-245.763 1163.02,-245.763 1163.02,-245.763 1168.01,-246.151 1162.67,-250.249 1172.99,-246.539 1172.99,-246.539"/>
<text text-anchor="middle" x="1212.82" y="-250.3" font-family="Times,serif" font-size="14.00">managers</text>
</g>
<!-- Employee&#45;&gt;EmployeeManagerAssignment -->
<g id="edge26" class="edge"><title>Employee&#45;&gt;EmployeeManagerAssignment</title>
<path fill="none" stroke="#5cdb4c" d="M1111.29,-228.151C1107.15,-217.379 1102.31,-204.745 1098.09,-193.766"/>
<ellipse fill="none" stroke="#5cdb4c" cx="1112.87" cy="-232.275" rx="4.00001" ry="4.00001"/>
<polygon fill="#5cdb4c" stroke="#5cdb4c" points="1098.02,-193.586 1098.64,-182.638 1096.23,-188.918 1094.44,-184.25 1094.44,-184.25 1094.44,-184.25 1096.23,-188.918 1090.24,-185.862 1098.02,-193.586 1098.02,-193.586"/>
<text text-anchor="middle" x="1178.82" y="-206.3" font-family="Times,serif" font-size="14.00">subordinate_relationships</text>
</g>
<!-- Employee&#45;&gt;Employee -->
<g id="edge27" class="edge"><title>Employee&#45;&gt;Employee</title>
<path fill="none" stroke="#84fcfa" d="M1173,-261.461C1180.65,-260.286 1185.82,-257.799 1185.82,-254 1185.82,-250.201 1180.65,-247.714 1173,-246.539"/>
<polygon fill="#84fcfa" stroke="#84fcfa" points="1172.99,-261.461 1162.67,-257.751 1168.01,-261.849 1163.02,-262.237 1163.02,-262.237 1163.02,-262.237 1168.01,-261.849 1163.37,-266.724 1172.99,-261.461 1172.99,-261.461"/>
<polygon fill="#84fcfa" stroke="#84fcfa" points="1172.99,-246.539 1163.37,-241.276 1168.01,-246.151 1163.02,-245.763 1163.02,-245.763 1163.02,-245.763 1168.01,-246.151 1162.67,-250.249 1172.99,-246.539 1172.99,-246.539"/>
<text text-anchor="middle" x="1221.32" y="-250.3" font-family="Times,serif" font-size="14.00">subordinates</text>
</g>
<!-- EmployeePay -->
<g id="node11" class="node"><title>EmployeePay</title>
<ellipse fill="none" stroke="black" cx="1485.82" cy="-92" rx="61.1419" ry="18"/>
<text text-anchor="middle" x="1485.82" y="-88.3" font-family="Times,serif" font-size="14.00">EmployeePay</text>
</g>
<!-- Employee&#45;&gt;EmployeePay -->
<g id="edge28" class="edge"><title>Employee&#45;&gt;EmployeePay</title>
<path fill="none" stroke="#f9de47" d="M1175.65,-250.677C1266.59,-245.553 1442.46,-229.83 1480.82,-184 1495.37,-166.619 1495.2,-140.195 1492.23,-120.291"/>
<ellipse fill="none" stroke="#f9de47" cx="1171.65" cy="-250.895" rx="4" ry="4"/>
<polygon fill="#f9de47" stroke="#f9de47" points="1492.2,-120.123 1494.86,-109.484 1491.32,-115.203 1490.43,-110.282 1490.43,-110.282 1490.43,-110.282 1491.32,-115.203 1486,-111.08 1492.2,-120.123 1492.2,-120.123"/>
</g>
<!-- Pay -->
<g id="node18" class="node"><title>Pay</title>
<ellipse fill="none" stroke="black" cx="1444.82" cy="-166" rx="27" ry="18"/>
<text text-anchor="middle" x="1444.82" y="-162.3" font-family="Times,serif" font-size="14.00">Pay</text>
</g>
<!-- Employee&#45;&gt;Pay -->
<g id="edge29" class="edge"><title>Employee&#45;&gt;Pay</title>
<path fill="none" stroke="#2dd165" d="M1173.31,-244.162C1231.86,-233.451 1328.84,-213.144 1408.82,-184 1410.67,-183.326 1412.56,-182.591 1414.45,-181.817"/>
<polygon fill="#2dd165" stroke="#2dd165" points="1173.04,-244.211 1162.4,-241.558 1168.12,-245.099 1163.2,-245.987 1163.2,-245.987 1163.2,-245.987 1168.12,-245.099 1164,-250.415 1173.04,-244.211 1173.04,-244.211"/>
<polygon fill="#2dd165" stroke="#2dd165" points="1414.62,-181.742 1425.58,-181.849 1419.2,-179.735 1423.78,-177.727 1423.78,-177.727 1423.78,-177.727 1419.2,-179.735 1421.97,-173.606 1414.62,-181.742 1414.62,-181.742"/>
</g>
<!-- PayProfile -->
<g id="node19" class="node"><title>PayProfile</title>
<ellipse fill="none" stroke="black" cx="1795.82" cy="-92" rx="48.6179" ry="18"/>
<text text-anchor="middle" x="1795.82" y="-88.3" font-family="Times,serif" font-size="14.00">PayProfile</text>
</g>
<!-- Employee&#45;&gt;PayProfile -->
<g id="edge30" class="edge"><title>Employee&#45;&gt;PayProfile</title>
<path fill="none" stroke="#40f6e4" d="M1175.91,-251.054C1261.73,-247.507 1432.4,-238.388 1575.82,-218 1612.46,-212.792 1708.46,-205.149 1738.82,-184 1761.54,-168.179 1777.08,-140.096 1786.12,-119.299"/>
<ellipse fill="none" stroke="#40f6e4" cx="1171.87" cy="-251.218" rx="4" ry="4"/>
<polygon fill="#40f6e4" stroke="#40f6e4" points="1786.13,-119.29 1794.1,-111.758 1788.03,-114.667 1789.94,-110.044 1789.94,-110.044 1789.94,-110.044 1788.03,-114.667 1785.78,-108.329 1786.13,-119.29 1786.13,-119.29"/>
</g>
<!-- FlatPay -->
<g id="node15" class="node"><title>FlatPay</title>
<ellipse fill="none" stroke="black" cx="1861.82" cy="-166" rx="38.0212" ry="18"/>
<text text-anchor="middle" x="1861.82" y="-162.3" font-family="Times,serif" font-size="14.00">FlatPay</text>
</g>
<!-- Employee&#45;&gt;FlatPay -->
<g id="edge31" class="edge"><title>Employee&#45;&gt;FlatPay</title>
<path fill="none" stroke="#5bb19e" d="M1178.61,-253.884C1282.97,-254.51 1509.45,-251.414 1696.82,-218 1741.36,-210.057 1790.72,-193.76 1823.74,-181.716"/>
<polygon fill="#5bb19e" stroke="#5bb19e" points="1178.3,-253.882 1168.33,-249.308 1173.3,-253.845 1168.3,-253.808 1168.3,-253.808 1168.3,-253.808 1173.3,-253.845 1168.26,-258.308 1178.3,-253.882 1178.3,-253.882"/>
<polygon fill="#5bb19e" stroke="#5bb19e" points="1824.06,-181.597 1835,-182.349 1828.75,-179.863 1833.44,-178.128 1833.44,-178.128 1833.44,-178.128 1828.75,-179.863 1831.88,-173.908 1824.06,-181.597 1824.06,-181.597"/>
</g>
<!-- ProductionPay -->
<g id="node20" class="node"><title>ProductionPay</title>
<ellipse fill="none" stroke="black" cx="1665.82" cy="-166" rx="64.0172" ry="18"/>
<text text-anchor="middle" x="1665.82" y="-162.3" font-family="Times,serif" font-size="14.00">ProductionPay</text>
</g>
<!-- Employee&#45;&gt;ProductionPay -->
<g id="edge32" class="edge"><title>Employee&#45;&gt;ProductionPay</title>
<path fill="none" stroke="#c342ba" d="M1178.31,-253.43C1259.35,-252.853 1411.29,-247.42 1536.82,-218 1567.8,-210.74 1601.16,-197.389 1626.2,-186.169"/>
<polygon fill="#c342ba" stroke="#c342ba" points="1178.31,-253.43 1168.29,-248.979 1173.31,-253.454 1168.31,-253.479 1168.31,-253.479 1168.31,-253.479 1173.31,-253.454 1168.33,-257.979 1178.31,-253.43 1178.31,-253.43"/>
<polygon fill="#c342ba" stroke="#c342ba" points="1626.26,-186.139 1637.23,-186.084 1630.81,-184.064 1635.36,-181.99 1635.36,-181.99 1635.36,-181.99 1630.81,-184.064 1633.5,-177.895 1626.26,-186.139 1626.26,-186.139"/>
</g>
<!-- Version -->
<g id="node36" class="node"><title>Version</title>
<ellipse fill="none" stroke="black" cx="906.822" cy="-166" rx="39.4691" ry="18"/>
<text text-anchor="middle" x="906.822" y="-162.3" font-family="Times,serif" font-size="14.00">Version</text>
</g>
<!-- Employee&#45;&gt;Version -->
<g id="edge33" class="edge"><title>Employee&#45;&gt;Version</title>
<path fill="none" stroke="#805c05" d="M1081.65,-237.256C1042.68,-221.596 983.293,-197.731 944.765,-182.248"/>
<ellipse fill="none" stroke="#805c05" cx="1085.53" cy="-238.819" rx="4.00001" ry="4.00001"/>
<polygon fill="#805c05" stroke="#805c05" points="944.723,-182.231 937.122,-174.327 940.083,-180.367 935.444,-178.502 935.444,-178.502 935.444,-178.502 940.083,-180.367 933.766,-182.678 944.723,-182.231 944.723,-182.231"/>
</g>
<!-- FedexContract -->
<g id="node14" class="node"><title>FedexContract</title>
<ellipse fill="none" stroke="black" cx="621.822" cy="-457" rx="64.0172" ry="18"/>
<text text-anchor="middle" x="621.822" y="-453.3" font-family="Times,serif" font-size="14.00">FedexContract</text>
</g>
<!-- FedexContract&#45;&gt;Business -->
<g id="edge34" class="edge"><title>FedexContract&#45;&gt;Business</title>
<path fill="none" stroke="#8491bc" d="M621.822,-430.562C621.822,-418.078 621.822,-403.025 621.822,-390.299"/>
<ellipse fill="none" stroke="#8491bc" cx="621.822" cy="-434.942" rx="4" ry="4"/>
<polygon fill="#8491bc" stroke="#8491bc" points="621.822,-390.264 626.322,-380.264 621.822,-385.264 621.822,-380.264 621.822,-380.264 621.822,-380.264 621.822,-385.264 617.322,-380.264 621.822,-390.264 621.822,-390.264"/>
</g>
<!-- FedexContract&#45;&gt;Addendum -->
<g id="edge35" class="edge"><title>FedexContract&#45;&gt;Addendum</title>
<path fill="none" stroke="#e69748" d="M590.478,-436.085C577.992,-429.13 563.191,-422.055 548.822,-418 490.828,-401.635 48.912,-424.077 7.82218,-380 -3.08797,-368.297 -1.93458,-356.681 7.82218,-344 17.2802,-331.707 51.5509,-322.837 82.8005,-317.103"/>
<ellipse fill="none" stroke="#e69748" cx="594.073" cy="-438.15" rx="4.00002" ry="4.00002"/>
<polygon fill="#e69748" stroke="#e69748" points="82.955,-317.076 93.5814,-319.783 87.88,-316.213 92.8051,-315.351 92.8051,-315.351 92.8051,-315.351 87.88,-316.213 92.0287,-310.918 82.955,-317.076 82.955,-317.076"/>
</g>
<!-- FedexContract&#45;&gt;Note -->
<g id="edge36" class="edge"><title>FedexContract&#45;&gt;Note</title>
<path fill="none" stroke="#e8dc67" d="M693.933,-455.623C1005.18,-453.532 2217.82,-440.419 2217.82,-363 2217.82,-363 2217.82,-363 2217.82,-91 2217.82,25.7198 2074.14,-63.6737 1957.82,-54 1677.76,-30.7084 772.126,-21.1768 573.545,-19.34"/>
<ellipse fill="none" stroke="#e8dc67" cx="689.867" cy="-455.65" rx="4" ry="4"/>
<polygon fill="#e8dc67" stroke="#e8dc67" points="573.31,-19.3379 563.352,-14.7465 568.31,-19.2921 563.311,-19.2464 563.311,-19.2464 563.311,-19.2464 568.31,-19.2921 563.269,-23.7462 573.31,-19.3379 573.31,-19.3379"/>
</g>
<!-- FlatPay&#45;&gt;PayProfile -->
<g id="edge37" class="edge"><title>FlatPay&#45;&gt;PayProfile</title>
<path fill="none" stroke="#b244a6" d="M1841.55,-142.884C1833.91,-134.555 1825.21,-125.055 1817.45,-116.596"/>
<ellipse fill="none" stroke="#b244a6" cx="1844.47" cy="-146.072" rx="4.00002" ry="4.00002"/>
<polygon fill="#b244a6" stroke="#b244a6" points="1817.41,-116.555 1813.97,-106.143 1814.04,-112.869 1810.66,-109.183 1810.66,-109.183 1810.66,-109.183 1814.04,-112.869 1807.34,-112.224 1817.41,-116.555 1817.41,-116.555"/>
</g>
<!-- Frequency -->
<g id="node16" class="node"><title>Frequency</title>
<ellipse fill="none" stroke="black" cx="1850.82" cy="-254" rx="49.0941" ry="18"/>
<text text-anchor="middle" x="1850.82" y="-250.3" font-family="Times,serif" font-size="14.00">Frequency</text>
</g>
<!-- Frequency&#45;&gt;FlatPay -->
<g id="edge38" class="edge"><title>Frequency&#45;&gt;FlatPay</title>
<path fill="none" stroke="#670e37" d="M1854.05,-227.756C1855.39,-217.259 1856.96,-205.049 1858.33,-194.34"/>
<ellipse fill="none" stroke="#670e37" cx="1853.5" cy="-232.041" rx="4.00001" ry="4.00001"/>
<polygon fill="#670e37" stroke="#670e37" points="1858.35,-194.169 1864.08,-184.821 1858.98,-189.209 1859.62,-184.25 1859.62,-184.25 1859.62,-184.25 1858.98,-189.209 1855.15,-183.679 1858.35,-194.169 1858.35,-194.169"/>
</g>
<!-- Pay&#45;&gt;EmployeePay -->
<g id="edge39" class="edge"><title>Pay&#45;&gt;EmployeePay</title>
<path fill="none" stroke="#4c6d02" d="M1458.02,-141.817C1462.18,-134.526 1466.79,-126.428 1471.04,-118.957"/>
<ellipse fill="none" stroke="#4c6d02" cx="1455.9" cy="-145.545" rx="4.00002" ry="4.00002"/>
<polygon fill="#4c6d02" stroke="#4c6d02" points="1471.23,-118.628 1480.09,-112.164 1473.7,-114.283 1476.18,-109.938 1476.18,-109.938 1476.18,-109.938 1473.7,-114.283 1472.27,-107.711 1471.23,-118.628 1471.23,-118.628"/>
</g>
<!-- ProductionPay&#45;&gt;PayProfile -->
<g id="edge40" class="edge"><title>ProductionPay&#45;&gt;PayProfile</title>
<path fill="none" stroke="#c6cdcf" d="M1700.56,-145.76C1719.35,-135.355 1742.48,-122.546 1761.24,-112.154"/>
<ellipse fill="none" stroke="#c6cdcf" cx="1696.89" cy="-147.793" rx="4.00002" ry="4.00002"/>
<polygon fill="#c6cdcf" stroke="#c6cdcf" points="1761.31,-112.113 1772.24,-111.204 1765.69,-109.69 1770.06,-107.268 1770.06,-107.268 1770.06,-107.268 1765.69,-109.69 1767.88,-103.331 1761.31,-112.113 1761.31,-112.113"/>
</g>
<!-- Psa&#45;&gt;Note -->
<g id="edge41" class="edge"><title>Psa&#45;&gt;Note</title>
<path fill="none" stroke="#4b2c08" d="M265.335,-140.068C272.42,-114.238 287.358,-74.7977 315.822,-54 343.933,-33.46 441.617,-24.4737 496.548,-20.9676"/>
<ellipse fill="none" stroke="#4b2c08" cx="264.303" cy="-144.063" rx="4.00001" ry="4.00001"/>
<polygon fill="#4b2c08" stroke="#4b2c08" points="496.625,-20.9631 506.88,-24.8481 501.616,-20.6597 506.607,-20.3564 506.607,-20.3564 506.607,-20.3564 501.616,-20.6597 506.334,-15.8647 496.625,-20.9631 496.625,-20.9631"/>
</g>
<!-- Psazip -->
<g id="node23" class="node"><title>Psazip</title>
<ellipse fill="none" stroke="black" cx="87.8222" cy="-18" rx="34.1708" ry="18"/>
<text text-anchor="middle" x="87.8222" y="-14.3" font-family="Times,serif" font-size="14.00">Psazip</text>
</g>
<!-- Psa&#45;&gt;Psazip -->
<g id="edge42" class="edge"><title>Psa&#45;&gt;Psazip</title>
<path fill="none" stroke="#c09290" d="M224.597,-165.168C183.847,-163.23 118.328,-153.075 86.8222,-110 73.4605,-91.7314 75.366,-65.4131 79.6361,-45.7747"/>
<ellipse fill="none" stroke="#c09290" cx="228.65" cy="-165.315" rx="4" ry="4"/>
<polygon fill="#c09290" stroke="#c09290" points="79.674,-45.6221 86.459,-37.0074 80.8833,-40.7706 82.0926,-35.919 82.0926,-35.919 82.0926,-35.919 80.8833,-40.7706 77.7262,-34.8306 79.674,-45.6221 79.674,-45.6221"/>
</g>
<!-- Zip -->
<g id="node35" class="node"><title>Zip</title>
<ellipse fill="none" stroke="black" cx="122.822" cy="-92" rx="27" ry="18"/>
<text text-anchor="middle" x="122.822" y="-88.3" font-family="Times,serif" font-size="14.00">Zip</text>
</g>
<!-- Psa&#45;&gt;Zip -->
<g id="edge43" class="edge"><title>Psa&#45;&gt;Zip</title>
<path fill="none" stroke="#46019a" d="M225.265,-155.932C206.323,-150.112 182.889,-141.478 163.822,-130 156.932,-125.852 150.156,-120.451 144.159,-115.062"/>
<polygon fill="#46019a" stroke="#46019a" points="225.398,-155.972 233.719,-163.115 230.195,-157.385 234.991,-158.798 234.991,-158.798 234.991,-158.798 230.195,-157.385 236.263,-154.482 225.398,-155.972 225.398,-155.972"/>
<polygon fill="#46019a" stroke="#46019a" points="143.79,-114.713 139.618,-104.572 140.157,-111.277 136.525,-107.841 136.525,-107.841 136.525,-107.841 140.157,-111.277 133.433,-111.11 143.79,-114.713 143.79,-114.713"/>
</g>
<!-- PsaState -->
<g id="node22" class="node"><title>PsaState</title>
<ellipse fill="none" stroke="black" cx="195.822" cy="-18" rx="41.394" ry="18"/>
<text text-anchor="middle" x="195.822" y="-14.3" font-family="Times,serif" font-size="14.00">PsaState</text>
</g>
<!-- Psa&#45;&gt;PsaState -->
<g id="edge44" class="edge"><title>Psa&#45;&gt;PsaState</title>
<path fill="none" stroke="#e72157" d="M232.688,-149.131C219.251,-139.651 204.329,-126.28 196.822,-110 187.599,-89.9972 188.125,-64.7926 190.517,-45.9842"/>
<ellipse fill="none" stroke="#e72157" cx="236.212" cy="-151.499" rx="4.00002" ry="4.00002"/>
<polygon fill="#e72157" stroke="#e72157" points="190.531,-45.8888 196.483,-36.6786 191.283,-40.9456 192.034,-36.0023 192.034,-36.0023 192.034,-36.0023 191.283,-40.9456 187.585,-35.326 190.531,-45.8888 190.531,-45.8888"/>
</g>
<!-- State -->
<g id="node27" class="node"><title>State</title>
<ellipse fill="none" stroke="black" cx="234.822" cy="-92" rx="28.3955" ry="18"/>
<text text-anchor="middle" x="234.822" y="-88.3" font-family="Times,serif" font-size="14.00">State</text>
</g>
<!-- Psa&#45;&gt;State -->
<g id="edge45" class="edge"><title>Psa&#45;&gt;State</title>
<path fill="none" stroke="#5e0399" d="M250.732,-138.819C248.603,-132.69 246.333,-126.15 244.192,-119.986"/>
<polygon fill="#5e0399" stroke="#5e0399" points="250.744,-138.854 249.773,-149.777 252.384,-143.577 254.024,-148.301 254.024,-148.301 254.024,-148.301 252.384,-143.577 258.275,-146.825 250.744,-138.854 250.744,-138.854"/>
<polygon fill="#5e0399" stroke="#5e0399" points="244.043,-119.555 245.014,-108.633 242.403,-114.832 240.763,-110.109 240.763,-110.109 240.763,-110.109 242.403,-114.832 236.512,-111.585 244.043,-119.555 244.043,-119.555"/>
</g>
<!-- Psa&#45;&gt;EmployeePsa -->
<g id="edge46" class="edge"><title>Psa&#45;&gt;EmployeePsa</title>
<path fill="none" stroke="#245e33" d="M292.536,-156.435C339.14,-144.233 425.19,-121.704 481.197,-107.04"/>
<ellipse fill="none" stroke="#245e33" cx="288.581" cy="-157.47" rx="4.00001" ry="4.00001"/>
<polygon fill="#245e33" stroke="#245e33" points="481.271,-107.021 492.085,-108.841 486.108,-105.754 490.945,-104.488 490.945,-104.488 490.945,-104.488 486.108,-105.754 489.805,-100.135 481.271,-107.021 481.271,-107.021"/>
</g>
<!-- Region -->
<g id="node24" class="node"><title>Region</title>
<ellipse fill="none" stroke="black" cx="528.822" cy="-254" rx="37.0701" ry="18"/>
<text text-anchor="middle" x="528.822" y="-250.3" font-family="Times,serif" font-size="14.00">Region</text>
</g>
<!-- Region&#45;&gt;Psa -->
<g id="edge47" class="edge"><title>Region&#45;&gt;Psa</title>
<path fill="none" stroke="#c5665c" d="M490.8,-240.844C438.14,-224.009 343.823,-193.855 293.547,-177.782"/>
<ellipse fill="none" stroke="#c5665c" cx="494.937" cy="-242.167" rx="4.00001" ry="4.00001"/>
<polygon fill="#c5665c" stroke="#c5665c" points="293.336,-177.715 285.181,-170.383 288.574,-176.192 283.811,-174.669 283.811,-174.669 283.811,-174.669 288.574,-176.192 282.441,-178.956 293.336,-177.715 293.336,-177.715"/>
</g>
<!-- Region&#45;&gt;Terminal -->
<g id="edge48" class="edge"><title>Region&#45;&gt;Terminal</title>
<path fill="none" stroke="#2233f1" d="M565.231,-239.844C608.416,-224.239 680.233,-198.288 725.474,-181.941"/>
<ellipse fill="none" stroke="#2233f1" cx="561.292" cy="-241.267" rx="4.00001" ry="4.00001"/>
<polygon fill="#2233f1" stroke="#2233f1" points="725.576,-181.904 736.51,-182.738 730.279,-180.205 734.981,-178.506 734.981,-178.506 734.981,-178.506 730.279,-180.205 733.452,-174.273 725.576,-181.904 725.576,-181.904"/>
</g>
<!-- Region&#45;&gt;Note -->
<g id="edge49" class="edge"><title>Region&#45;&gt;Note</title>
<path fill="none" stroke="#59391a" d="M503.065,-233.119C489.165,-220.701 473.35,-203.41 465.822,-184 448.144,-138.419 444.605,-118.045 465.822,-74 473.86,-57.3133 489.697,-44.1204 504.173,-34.8431"/>
<ellipse fill="none" stroke="#59391a" cx="506.249" cy="-235.861" rx="4.00002" ry="4.00002"/>
<polygon fill="#59391a" stroke="#59391a" points="504.359,-34.7311 515.248,-33.4327 508.643,-32.1538 512.928,-29.5765 512.928,-29.5765 512.928,-29.5765 508.643,-32.1538 510.608,-25.7204 504.359,-34.7311 504.359,-34.7311"/>
</g>
<!-- Role -->
<g id="node25" class="node"><title>Role</title>
<ellipse fill="none" stroke="black" cx="1731.82" cy="-254" rx="27.4223" ry="18"/>
<text text-anchor="middle" x="1731.82" y="-250.3" font-family="Times,serif" font-size="14.00">Role</text>
</g>
<!-- UserRole -->
<g id="node30" class="node"><title>UserRole</title>
<ellipse fill="none" stroke="black" cx="1626.82" cy="-92" rx="44.271" ry="18"/>
<text text-anchor="middle" x="1626.82" y="-88.3" font-family="Times,serif" font-size="14.00">UserRole</text>
</g>
<!-- Role&#45;&gt;UserRole -->
<g id="edge50" class="edge"><title>Role&#45;&gt;UserRole</title>
<path fill="none" stroke="#f152db" d="M1741.11,-228.464C1748.01,-205.828 1753.88,-172.168 1738.82,-148 1724.89,-125.638 1698.92,-112.109 1675.49,-104.069"/>
<ellipse fill="none" stroke="#f152db" cx="1739.8" cy="-232.465" rx="4.00001" ry="4.00001"/>
<polygon fill="#f152db" stroke="#f152db" points="1675.18,-103.971 1667,-96.6593 1670.41,-102.46 1665.64,-100.949 1665.64,-100.949 1665.64,-100.949 1670.41,-102.46 1664.28,-105.239 1675.18,-103.971 1675.18,-103.971"/>
</g>
<!-- Role&#45;&gt;User -->
<g id="edge51" class="edge"><title>Role&#45;&gt;User</title>
<path fill="none" stroke="#821bbf" d="M1700.85,-237.867C1668.71,-222.162 1618.74,-197.743 1586.65,-182.063"/>
<polygon fill="#821bbf" stroke="#821bbf" points="1701.26,-238.064 1708.27,-246.498 1705.75,-240.26 1710.24,-242.455 1710.24,-242.455 1710.24,-242.455 1705.75,-240.26 1712.22,-238.412 1701.26,-238.064 1701.26,-238.064"/>
<polygon fill="#821bbf" stroke="#821bbf" points="1586.29,-181.887 1579.28,-173.454 1581.8,-179.692 1577.3,-177.497 1577.3,-177.497 1577.3,-177.497 1581.8,-179.692 1575.33,-181.54 1586.29,-181.887 1586.29,-181.887"/>
</g>
<!-- ServiceType -->
<g id="node26" class="node"><title>ServiceType</title>
<ellipse fill="none" stroke="black" cx="73.8222" cy="-362" rx="56.3173" ry="18"/>
<text text-anchor="middle" x="73.8222" y="-358.3" font-family="Times,serif" font-size="14.00">ServiceType</text>
</g>
<!-- ServiceType&#45;&gt;Vehicle -->
<g id="edge52" class="edge"><title>ServiceType&#45;&gt;Vehicle</title>
<path fill="none" stroke="#1e292d" d="M123.185,-347.587C149.593,-340.168 179.213,-331.387 191.822,-326 221.478,-313.33 225.401,-303.205 254.822,-290 260.956,-287.247 291.948,-276.888 318.518,-268.148"/>
<ellipse fill="none" stroke="#1e292d" cx="119.331" cy="-348.664" rx="4.00001" ry="4.00001"/>
<polygon fill="#1e292d" stroke="#1e292d" points="318.552,-268.137 329.457,-269.294 323.303,-266.578 328.053,-265.018 328.053,-265.018 328.053,-265.018 323.303,-266.578 326.65,-260.743 318.552,-268.137 318.552,-268.137"/>
</g>
<!-- ServiceType&#45;&gt;Psa -->
<g id="edge53" class="edge"><title>ServiceType&#45;&gt;Psa</title>
<path fill="none" stroke="#ae8473" d="M74.2673,-335.886C75.5724,-321.473 79.0624,-303.596 87.8222,-290 122.19,-236.657 188.561,-199.273 228.051,-180.616"/>
<ellipse fill="none" stroke="#ae8473" cx="73.9961" cy="-339.923" rx="4" ry="4"/>
<polygon fill="#ae8473" stroke="#ae8473" points="228.392,-180.459 239.357,-180.366 232.934,-178.369 237.475,-176.278 237.475,-176.278 237.475,-176.278 232.934,-178.369 235.594,-172.19 228.392,-180.459 228.392,-180.459"/>
</g>
<!-- State&#45;&gt;PsaState -->
<g id="edge54" class="edge"><title>State&#45;&gt;PsaState</title>
<path fill="none" stroke="#36bfd6" d="M222.072,-67.4621C218.131,-60.1862 213.771,-52.1355 209.754,-44.72"/>
<ellipse fill="none" stroke="#36bfd6" cx="224.067" cy="-71.1449" rx="4.00002" ry="4.00002"/>
<polygon fill="#36bfd6" stroke="#36bfd6" points="209.67,-44.5658 208.864,-33.6296 207.289,-40.1694 204.908,-35.7729 204.908,-35.7729 204.908,-35.7729 207.289,-40.1694 200.951,-37.9162 209.67,-44.5658 209.67,-44.5658"/>
</g>
<!-- State&#45;&gt;Note -->
<g id="edge55" class="edge"><title>State&#45;&gt;Note</title>
<path fill="none" stroke="#3f3089" d="M254.533,-70.351C261.605,-64.1202 270.021,-57.9044 278.822,-54 317.003,-37.0625 435.105,-26.246 496.646,-21.608"/>
<ellipse fill="none" stroke="#3f3089" cx="251.374" cy="-73.288" rx="4.00002" ry="4.00002"/>
<polygon fill="#3f3089" stroke="#3f3089" points="496.76,-21.5998 507.063,-25.353 501.746,-21.2325 506.733,-20.8652 506.733,-20.8652 506.733,-20.8652 501.746,-21.2325 506.402,-16.3773 496.76,-21.5998 496.76,-21.5998"/>
</g>
<!-- Terminal&#45;&gt;Note -->
<g id="edge56" class="edge"><title>Terminal&#45;&gt;Note</title>
<path fill="none" stroke="#dcd3f8" d="M760.56,-139.846C752.818,-114.181 737.066,-75.2004 708.822,-54 687.776,-38.2023 617.354,-27.9044 572.814,-22.7999"/>
<ellipse fill="none" stroke="#dcd3f8" cx="761.698" cy="-143.826" rx="4.00001" ry="4.00001"/>
<polygon fill="#dcd3f8" stroke="#dcd3f8" points="572.579,-22.7739 563.135,-17.1996 567.609,-22.2231 562.64,-21.6722 562.64,-21.6722 562.64,-21.6722 567.609,-22.2231 562.144,-26.1449 572.579,-22.7739 572.579,-22.7739"/>
</g>
<!-- Terminal&#45;&gt;EmployeeTerminal -->
<g id="edge57" class="edge"><title>Terminal&#45;&gt;EmployeeTerminal</title>
<path fill="none" stroke="#d10c5f" d="M789.454,-143.273C798.138,-134.937 808.091,-125.382 816.972,-116.856"/>
<ellipse fill="none" stroke="#d10c5f" cx="786.353" cy="-146.251" rx="4.00002" ry="4.00002"/>
<polygon fill="#d10c5f" stroke="#d10c5f" points="817.228,-116.61 827.558,-112.931 820.835,-113.148 824.442,-109.685 824.442,-109.685 824.442,-109.685 820.835,-113.148 821.325,-106.439 817.228,-116.61 817.228,-116.61"/>
</g>
<!-- User&#45;&gt;UserRole -->
<g id="edge58" class="edge"><title>User&#45;&gt;UserRole</title>
<path fill="none" stroke="#0b0205" d="M1576.06,-144.476C1584.72,-135.693 1594.88,-125.391 1603.83,-116.321"/>
<ellipse fill="none" stroke="#0b0205" cx="1573" cy="-147.582" rx="4.00002" ry="4.00002"/>
<polygon fill="#0b0205" stroke="#0b0205" points="1603.97,-116.172 1614.2,-112.211 1607.48,-112.612 1610.99,-109.052 1610.99,-109.052 1610.99,-109.052 1607.48,-112.612 1607.79,-105.892 1603.97,-116.172 1603.97,-116.172"/>
</g>
<!-- Vehicle&#45;&gt;Note -->
<g id="edge59" class="edge"><title>Vehicle&#45;&gt;Note</title>
<path fill="none" stroke="#cd98c8" d="M355.487,-227.942C351.428,-186.12 349.928,-101.959 394.822,-54 408.574,-39.3088 460.195,-29.2735 496.743,-23.8357"/>
<ellipse fill="none" stroke="#cd98c8" cx="355.921" cy="-231.981" rx="4.00001" ry="4.00001"/>
<polygon fill="#cd98c8" stroke="#cd98c8" points="497.175,-23.774 507.711,-26.8145 502.125,-23.0669 507.075,-22.3597 507.075,-22.3597 507.075,-22.3597 502.125,-23.0669 506.438,-17.9049 497.175,-23.774 497.175,-23.774"/>
</g>
<!-- Vehicle&#45;&gt;DailyDataVehicle -->
<g id="edge60" class="edge"><title>Vehicle&#45;&gt;DailyDataVehicle</title>
<path fill="none" stroke="#a4922f" d="M393.294,-237.64C425.442,-223.314 473.53,-201.887 508.309,-186.389"/>
<ellipse fill="none" stroke="#a4922f" cx="389.312" cy="-239.414" rx="4.00002" ry="4.00002"/>
<polygon fill="#a4922f" stroke="#a4922f" points="508.607,-186.257 519.573,-186.297 513.174,-184.221 517.741,-182.186 517.741,-182.186 517.741,-182.186 513.174,-184.221 515.91,-178.076 508.607,-186.257 508.607,-186.257"/>
</g>
<!-- VehicleFuel -->
<g id="node32" class="node"><title>VehicleFuel</title>
<ellipse fill="none" stroke="black" cx="336.822" cy="-362" rx="55.3682" ry="18"/>
<text text-anchor="middle" x="336.822" y="-358.3" font-family="Times,serif" font-size="14.00">VehicleFuel</text>
</g>
<!-- VehicleFuel&#45;&gt;Vehicle -->
<g id="edge61" class="edge"><title>VehicleFuel&#45;&gt;Vehicle</title>
<path fill="none" stroke="#fa7560" d="M341.602,-335.789C344.226,-322.204 347.595,-305.163 350.822,-290 351.387,-287.348 351.99,-284.587 352.603,-281.83"/>
<ellipse fill="none" stroke="#fa7560" cx="340.827" cy="-339.826" rx="4.00001" ry="4.00001"/>
<polygon fill="#fa7560" stroke="#fa7560" points="352.605,-281.82 359.202,-273.061 353.709,-276.944 354.813,-272.067 354.813,-272.067 354.813,-272.067 353.709,-276.944 350.424,-271.074 352.605,-281.82 352.605,-281.82"/>
</g>
<!-- VehicleOdometer -->
<g id="node33" class="node"><title>VehicleOdometer</title>
<ellipse fill="none" stroke="black" cx="485.822" cy="-362" rx="75.0904" ry="18"/>
<text text-anchor="middle" x="485.822" y="-358.3" font-family="Times,serif" font-size="14.00">VehicleOdometer</text>
</g>
<!-- VehicleOdometer&#45;&gt;Vehicle -->
<g id="edge62" class="edge"><title>VehicleOdometer&#45;&gt;Vehicle</title>
<path fill="none" stroke="#1f1e82" d="M424.486,-347.118C403.319,-341.177 383.083,-333.811 375.822,-326 364.92,-314.271 360.638,-296.827 359.098,-282.166"/>
<ellipse fill="none" stroke="#1f1e82" cx="428.445" cy="-348.192" rx="4.00001" ry="4.00001"/>
<polygon fill="#1f1e82" stroke="#1f1e82" points="359.092,-282.079 362.894,-271.793 358.748,-277.091 358.405,-272.103 358.405,-272.103 358.405,-272.103 358.748,-277.091 353.915,-272.412 359.092,-282.079 359.092,-282.079"/>
</g>
<!-- VehicleType -->
<g id="node34" class="node"><title>VehicleType</title>
<ellipse fill="none" stroke="black" cx="205.822" cy="-362" rx="57.2688" ry="18"/>
<text text-anchor="middle" x="205.822" y="-358.3" font-family="Times,serif" font-size="14.00">VehicleType</text>
</g>
<!-- VehicleType&#45;&gt;Vehicle -->
<g id="edge63" class="edge"><title>VehicleType&#45;&gt;Vehicle</title>
<path fill="none" stroke="#86b1b2" d="M235.33,-340.556C262.561,-321.691 302.758,-293.842 329.825,-275.09"/>
<ellipse fill="none" stroke="#86b1b2" cx="231.686" cy="-343.081" rx="4.00002" ry="4.00002"/>
<polygon fill="#86b1b2" stroke="#86b1b2" points="329.898,-275.039 340.681,-273.043 334.008,-272.191 338.118,-269.344 338.118,-269.344 338.118,-269.344 334.008,-272.191 335.556,-265.645 329.898,-275.039 329.898,-275.039"/>
</g>
<!-- Zip&#45;&gt;Psazip -->
<g id="edge64" class="edge"><title>Zip&#45;&gt;Psazip</title>
<path fill="none" stroke="#33dfb5" d="M111.38,-67.4621C107.922,-60.3479 104.103,-52.4929 100.566,-45.2153"/>
<ellipse fill="none" stroke="#33dfb5" cx="113.131" cy="-71.0646" rx="4.00002" ry="4.00002"/>
<polygon fill="#33dfb5" stroke="#33dfb5" points="100.348,-44.7666 100.023,-33.8055 98.1617,-40.2698 95.9757,-35.7729 95.9757,-35.7729 95.9757,-35.7729 98.1617,-40.2698 91.9285,-37.7403 100.348,-44.7666 100.348,-44.7666"/>
</g>
<!-- Zip&#45;&gt;Note -->
<g id="edge65" class="edge"><title>Zip&#45;&gt;Note</title>
<path fill="none" stroke="#2c177c" d="M155.186,-81.8588C185.214,-73.6414 231.253,-61.7118 271.822,-54 351.413,-38.8705 445.782,-28.0093 497.054,-22.6929"/>
<ellipse fill="none" stroke="#2c177c" cx="151.015" cy="-83.0085" rx="4.00001" ry="4.00001"/>
<polygon fill="#2c177c" stroke="#2c177c" points="497.071,-22.6913 507.477,-26.1501 502.045,-22.1824 507.019,-21.6734 507.019,-21.6734 507.019,-21.6734 502.045,-22.1824 506.561,-17.1968 497.071,-22.6913 497.071,-22.6913"/>
</g>
</g>
</svg>
