<?xml version="1.0" encoding="UTF-8" standalone="no"?>
<!-- Created with Inkscape (http://www.inkscape.org/) -->
<svg
   xmlns:svg="http://www.w3.org/2000/svg"
   xmlns="http://www.w3.org/2000/svg"
   version="1.0"
   width="646.5"
   height="602"
   id="svg2423">
  <defs
     id="defs2425">
    <marker
       refX="0"
       refY="0"
       orient="auto"
       id="Arrow1Lend"
       style="overflow:visible">
      <path
         d="M 0,0 L 5,-5 L -12.5,0 L 5,5 L 0,0 z"
         transform="matrix(-0.8,0,0,-0.8,-10,0)"
         id="path3754"
         style="fill-rule:evenodd;stroke:#000000;stroke-width:1pt;marker-start:none" />
    </marker>
    <marker
       refX="0"
       refY="0"
       orient="auto"
       id="Arrow1Lstart"
       style="overflow:visible">
      <path
         d="M 0,0 L 5,-5 L -12.5,0 L 5,5 L 0,0 z"
         transform="matrix(0.8,0,0,0.8,10,0)"
         id="path3751"
         style="fill-rule:evenodd;stroke:#000000;stroke-width:1pt;marker-start:none" />
    </marker>
  </defs>
  <g
     transform="translate(-44,-181.36218)"
     id="layer1">
    <path
       d="M 150,677.36218 L 150,377.36218"
       id="path13998"
       style="fill:none;fill-rule:evenodd;stroke:#000000;stroke-width:1;stroke-linecap:butt;stroke-linejoin:miter;stroke-miterlimit:4;stroke-dasharray:2, 2;stroke-dashoffset:0;stroke-opacity:1" />
    <path
       d="M 225,752.36218 L 150,677.36218"
       id="path13996"
       style="fill:none;fill-rule:evenodd;stroke:#000000;stroke-width:1;stroke-linecap:butt;stroke-linejoin:miter;stroke-miterlimit:4;stroke-dasharray:2, 2;stroke-dashoffset:0;stroke-opacity:1" />
    <path
       d="M 225,602.36218 L 225,302.36218"
       id="path14000"
       style="fill:none;fill-rule:evenodd;stroke:#000000;stroke-width:1;stroke-linecap:butt;stroke-linejoin:miter;stroke-miterlimit:4;stroke-dasharray:2, 2;stroke-dashoffset:0;stroke-opacity:1" />
    <path
       d="M 450,527.36218 L 225,602.36218 L 225,602.36218"
       id="path13994"
       style="fill:none;fill-rule:evenodd;stroke:#000000;stroke-width:1;stroke-linecap:butt;stroke-linejoin:miter;stroke-miterlimit:4;stroke-dasharray:2, 2;stroke-dashoffset:0;stroke-opacity:1" />
    <path
       d="M 600,516.88599 C 600,539.02889 600,539.02889 600,539.02889"
       id="path13866"
       style="fill:none;fill-rule:evenodd;stroke:#000000;stroke-width:2.42997384;stroke-linecap:butt;stroke-linejoin:miter;stroke-miterlimit:4;stroke-dasharray:none;stroke-opacity:1" />
    <g
       transform="translate(-75,2.6171874e-6)"
       id="g2439"
       style="fill:none;fill-opacity:0.54901961;stroke:#000000;stroke-width:2;stroke-miterlimit:4;stroke-dasharray:none;stroke-opacity:1">
      <path
         d="M 375,182.36218 L 375,527.36218"
         id="path2435"
         style="fill:none;fill-opacity:0.54901961;fill-rule:evenodd;stroke:#000000;stroke-width:2;stroke-linecap:butt;stroke-linejoin:miter;marker-start:url(#Arrow1Lstart);marker-mid:none;marker-end:none;stroke-miterlimit:4;stroke-dasharray:none;stroke-opacity:1" />
      <path
         d="M 120,782.36218 L 375,527.36218 L 750,527.36218"
         id="path2437"
         style="fill:none;fill-opacity:0.54901961;fill-rule:evenodd;stroke:#000000;stroke-width:2;stroke-linecap:butt;stroke-linejoin:miter;marker-start:url(#Arrow1Lstart);marker-mid:none;marker-end:url(#Arrow1Lend);stroke-miterlimit:4;stroke-dasharray:none;stroke-opacity:1" />
    </g>
    <path
       d="M 450,527.36218 L 600,527.36218 L 600,527.36218"
       id="path3746"
       style="fill:none;fill-rule:evenodd;stroke:#0000a0;stroke-width:4;stroke-linecap:butt;stroke-linejoin:miter;stroke-miterlimit:4;stroke-dasharray:4, 4;stroke-dashoffset:0;stroke-opacity:1" />
    <path
       d="M 225,302.36218 L 450,527.36218 L 450,527.36218"
       id="path2447"
       style="fill:none;fill-rule:evenodd;stroke:#0000a0;stroke-width:4;stroke-linecap:butt;stroke-linejoin:miter;stroke-miterlimit:4;stroke-dasharray:4, 4;stroke-dashoffset:0;stroke-opacity:1" />
    <path
       d="M 225,752.36218 L 450,527.36218"
       id="path2449"
       style="fill:none;fill-rule:evenodd;stroke:#0000a0;stroke-width:4;stroke-linecap:butt;stroke-linejoin:miter;stroke-miterlimit:4;stroke-dasharray:4, 4;stroke-dashoffset:0;stroke-opacity:1" />
    <path
       d="M 90,137.36218 A 5,5 0 1 1 80,137.36218 A 5,5 0 1 1 90,137.36218 z"
       transform="matrix(1.5,0,0,1.5,322.50757,321.46892)"
       id="path14532"
       style="fill:#ff0000;fill-opacity:1;stroke:none;stroke-width:2;stroke-miterlimit:4;stroke-dasharray:none;stroke-opacity:1" />
    <path
       d="M 150,377.36218 L 375,752.36218 L 375,752.36218 L 375,752.36218 L 375,752.36218"
       id="path2445"
       style="fill:none;fill-rule:evenodd;stroke:#0000a0;stroke-width:4;stroke-linecap:butt;stroke-linejoin:miter;stroke-miterlimit:4;stroke-dasharray:none;stroke-opacity:1" />
    <path
       d="M 690,752.36218 L 690,752.36218 z"
       id="path2451"
       style="fill:none;fill-rule:evenodd;stroke:#000000;stroke-width:1px;stroke-linecap:butt;stroke-linejoin:miter;stroke-opacity:1" />
    <path
       d="M 225,452.36218 L 225,452.36218 z"
       id="path2453"
       style="fill:none;fill-rule:evenodd;stroke:#000000;stroke-width:1px;stroke-linecap:butt;stroke-linejoin:miter;stroke-opacity:1" />
    <path
       d="M 600,527.36218 L 375,752.36218 L 225,752.36218 L 150,377.36218 L 225,302.36218 L 600,527.36218 L 600,527.36218"
       id="path2443"
       style="fill:#0000a0;fill-opacity:0.54901961;fill-rule:evenodd;stroke:#0000a0;stroke-width:4;stroke-linecap:butt;stroke-linejoin:miter;stroke-miterlimit:4;stroke-dasharray:none;stroke-opacity:1" />
    <path
       d="M 90,137.36218 A 5,5 0 1 1 80,137.36218 A 5,5 0 1 1 90,137.36218 z"
       transform="matrix(1.5,0,0,1.5,472.375,321.31891)"
       id="path14534"
       style="fill:#ff0000;fill-opacity:1;stroke:none;stroke-width:2;stroke-miterlimit:4;stroke-dasharray:none;stroke-opacity:1" />
    <path
       d="M 288.60068,227.36218 C 311.45787,227.36218 311.45787,227.36218 311.45787,227.36218"
       id="path13864"
       style="fill:none;fill-rule:evenodd;stroke:#000000;stroke-width:2.4688561;stroke-linecap:butt;stroke-linejoin:miter;stroke-miterlimit:4;stroke-dasharray:none;stroke-opacity:1" />
    <path
       d="M 67.142854,745.21928 L 82.142854,760.21928"
       id="path13868"
       style="fill:none;fill-rule:evenodd;stroke:#000000;stroke-width:2;stroke-linecap:butt;stroke-linejoin:miter;stroke-miterlimit:4;stroke-dasharray:none;stroke-opacity:1" />
    <text
       x="292.01581"
       y="223.26949"
       transform="scale(0.9404288,1.0633447)"
       id="text13978"
       xml:space="preserve"
       style="font-size:24.88924217px;font-style:normal;font-weight:normal;fill:#000000;fill-opacity:1;stroke:none;stroke-width:1px;stroke-linecap:butt;stroke-linejoin:miter;stroke-opacity:1;font-family:Bitstream Vera Sans"><tspan
         x="292.01581"
         y="223.26949"
         id="tspan13980">3</tspan></text>
    <text
       x="645.40784"
       y="513.91467"
       transform="scale(0.9208797,1.0859181)"
       id="text13982"
       xml:space="preserve"
       style="font-size:25.96364212px;font-style:normal;font-weight:normal;fill:#000000;fill-opacity:1;stroke:none;stroke-width:1px;stroke-linecap:butt;stroke-linejoin:miter;stroke-opacity:1;font-family:Bitstream Vera Sans"><tspan
         x="645.40784"
         y="513.91467"
         id="tspan13984">1</tspan></text>
    <text
       x="56.544884"
       y="688.78876"
       transform="scale(0.9208797,1.0859181)"
       id="text13990"
       xml:space="preserve"
       style="font-size:25.96364212px;font-style:normal;font-weight:normal;fill:#000000;fill-opacity:1;stroke:none;stroke-width:1px;stroke-linecap:butt;stroke-linejoin:miter;stroke-opacity:1;font-family:Bitstream Vera Sans"><tspan
         x="56.544884"
         y="688.78876"
         id="tspan13992">1</tspan></text>
    <text
       x="246.96262"
       y="439.60873"
       transform="scale(0.971807,1.0290109)"
       id="text14523"
       xml:space="preserve"
       style="font-size:81.11128998px;font-style:normal;font-weight:normal;fill:#0000a0;fill-opacity:1;stroke:none;stroke-width:1px;stroke-linecap:butt;stroke-linejoin:miter;stroke-opacity:1;font-family:Bitstream Vera Sans"><tspan
         x="246.96262"
         y="439.60873"
         id="tspan14525">P</tspan></text>
    <path
       d="M 90,137.36218 A 5,5 0 1 1 80,137.36218 A 5,5 0 1 1 90,137.36218 z"
       transform="matrix(1.5,0,0,1.5,22.5,171.39415)"
       id="path4797"
       style="fill:#ff0000;fill-opacity:1;stroke:none;stroke-width:2;stroke-miterlimit:4;stroke-dasharray:none;stroke-opacity:1" />
    <path
       d="M 90,137.36218 A 5,5 0 1 1 80,137.36218 A 5,5 0 1 1 90,137.36218 z"
       transform="matrix(1.5,0,0,1.5,97.676777,546.24367)"
       id="path14528"
       style="fill:#ff0000;fill-opacity:1;stroke:none;stroke-width:2;stroke-miterlimit:4;stroke-dasharray:none;stroke-opacity:1" />
    <path
       d="M 90,137.36218 A 5,5 0 1 1 80,137.36218 A 5,5 0 1 1 90,137.36218 z"
       transform="matrix(1.5,0,0,1.5,247.5,546.42045)"
       id="path14530"
       style="fill:#ff0000;fill-opacity:1;stroke:none;stroke-width:2;stroke-miterlimit:4;stroke-dasharray:none;stroke-opacity:1" />
    <path
       d="M 90,137.36218 A 5,5 0 1 1 80,137.36218 A 5,5 0 1 1 90,137.36218 z"
       transform="matrix(1.5,0,0,1.5,97.5,96.243543)"
       id="path14536"
       style="fill:#ff0000;fill-opacity:1;stroke:none;stroke-width:2;stroke-miterlimit:4;stroke-dasharray:none;stroke-opacity:1" />
  </g>
</svg>
