<svg version="1.1" xmlns="http://www.w3.org/2000/svg" viewBox="0 0 834.72265625 490.3699480099963" width="834.72265625" height="490.3699480099963">
  <!-- svg-source:excalidraw -->
  
  <defs>
    <style class="style-fonts">
      @font-face {
        font-family: "Virgil";
        src: url("https://excalidraw.com/Virgil.woff2");
      }
      @font-face {
        font-family: "Cascadia";
        src: url("https://excalidraw.com/Cascadia.woff2");
      }
    </style>
    
  </defs>
  <rect x="0" y="0" width="834.72265625" height="490.3699480099963" fill="#ffffff"></rect><g stroke-linecap="round"><g transform="translate(101 421.3699480099963) rotate(0 -6.403071567867698 -205.2063774575659)"><path d="M0.59 0.96 C-1.43 -67.52, -10.14 -342.95, -12.37 -411.37 M-0.57 0.41 C-2.73 -67.87, -11.17 -341.56, -13.39 -410.18" stroke="#1e1e1e" stroke-width="1" fill="none"></path></g><g transform="translate(101 421.3699480099963) rotate(0 -6.403071567867698 -205.2063774575659)"><path d="M-0.65 -382.54 C-6.33 -390.96, -6.4 -399.34, -12.5 -409.43 M-2.3 -382.96 C-7.28 -393.06, -10.95 -403.94, -12.94 -409.76" stroke="#1e1e1e" stroke-width="1" fill="none"></path></g><g transform="translate(101 421.3699480099963) rotate(0 -6.403071567867698 -205.2063774575659)"><path d="M-21.16 -381.9 C-21.13 -390.6, -15.5 -399.16, -12.5 -409.43 M-22.82 -382.31 C-19.89 -392.69, -15.66 -403.82, -12.94 -409.76" stroke="#1e1e1e" stroke-width="1" fill="none"></path></g></g><mask></mask><g stroke-linecap="round"><g transform="translate(101.84730201876562 424.72042446531225) rotate(0 262.1238784130663 -2.203751251939707)"><path d="M-0.55 0 C86.78 -0.54, 437.13 -2.18, 524.8 -2.53 M1.36 -1.04 C88.45 -2.01, 436.47 -3.92, 523.75 -4.41" stroke="#1e1e1e" stroke-width="1" fill="none"></path></g><g transform="translate(101.84730201876562 424.72042446531225) rotate(0 262.1238784130663 -2.203751251939707)"><path d="M495.62 5.68 C506.59 3.18, 517.57 -2.73, 522.52 -3.94 M496.42 6.09 C507.26 1.17, 517.39 -3.22, 524.63 -3.81" stroke="#1e1e1e" stroke-width="1" fill="none"></path></g><g transform="translate(101.84730201876562 424.72042446531225) rotate(0 262.1238784130663 -2.203751251939707)"><path d="M495.51 -14.84 C506.63 -9.86, 517.66 -8.3, 522.52 -3.94 M496.31 -14.43 C507.09 -11.16, 517.27 -7.36, 524.63 -3.81" stroke="#1e1e1e" stroke-width="1" fill="none"></path></g></g><mask></mask><g stroke-linecap="round"><g transform="translate(48 119.36994800999628) rotate(0 209.43868208490312 93.42292035855354)"><path d="M0.9 -0.15 C70.56 31.21, 348.33 155.78, 417.98 186.99" stroke="#1e1e1e" stroke-width="1.5" fill="none" stroke-dasharray="8 9"></path></g></g><mask></mask><g stroke-linecap="round"><g transform="translate(52.56131791509688 132.9470276514428) rotate(0 246.61862147413194 31.477177822962403)"><path d="M-0.98 0.86 C81.37 11.23, 411.51 52.1, 494.22 62.09" stroke="#1e1e1e" stroke-width="1.5" fill="none" stroke-dasharray="8 9"></path></g></g><mask></mask><g transform="translate(97 140.36994800999628) rotate(0 212 72.5)" stroke="none"><path fill="#2f9e44" d="M 1.32,-1.06 Q 1.32,-1.06 2.48,0.36 3.64,1.79 4.96,3.60 6.28,5.41 7.65,7.00 9.02,8.59 10.74,10.43 12.46,12.26 13.80,13.59 15.14,14.92 16.55,16.36 17.97,17.80 19.39,18.91 20.81,20.02 22.33,21.42 23.85,22.83 25.62,24.60 27.40,26.37 29.05,28.32 30.69,30.27 31.97,31.60 33.25,32.93 34.43,34.41 35.62,35.88 36.71,37.37 37.80,38.85 39.05,40.28 40.29,41.71 41.67,43.21 43.05,44.70 44.06,45.94 45.08,47.17 46.08,48.55 47.07,49.92 48.23,50.91 49.38,51.91 50.59,53.35 51.80,54.80 52.85,55.89 53.90,56.98 55.00,58.77 56.09,60.57 56.88,61.85 57.66,63.13 58.32,64.24 58.99,65.34 59.75,66.21 60.51,67.08 61.26,68.17 62.01,69.26 62.64,70.30 63.27,71.34 63.84,72.35 64.41,73.36 64.98,74.77 65.55,76.17 66.06,77.62 66.57,79.08 67.25,80.39 67.93,81.70 68.77,83.15 69.61,84.60 70.72,86.40 71.83,88.20 72.50,89.71 73.18,91.23 73.90,92.14 74.62,93.05 75.35,94.55 76.09,96.05 76.84,97.00 77.59,97.95 78.33,99.07 79.06,100.20 79.68,101.25 80.31,102.30 81.26,103.83 82.22,105.37 83.21,107.33 84.21,109.30 85.18,111.63 86.15,113.96 87.09,116.06 88.03,118.17 88.98,119.88 89.94,121.59 91.13,123.11 92.33,124.63 93.48,126.19 94.64,127.76 95.94,129.59 97.24,131.41 98.65,133.35 100.06,135.28 102.07,137.81 104.08,140.34 105.81,142.59 107.54,144.84 109.13,146.95 110.72,149.06 112.01,151.16 113.30,153.27 114.64,154.93 115.98,156.59 117.19,158.20 118.40,159.80 120.05,162.23 121.70,164.66 122.73,165.89 123.77,167.13 124.79,168.16 125.81,169.19 127.36,171.17 128.91,173.14 130.38,174.81 131.86,176.49 133.31,177.71 134.75,178.93 136.08,180.40 137.40,181.87 138.55,183.36 139.70,184.84 140.94,185.90 142.18,186.96 143.37,188.01 144.57,189.07 145.57,189.67 146.57,190.28 147.88,191.14 149.20,192.00 150.61,192.95 152.03,193.90 153.75,195.27 155.48,196.63 157.27,197.76 159.05,198.89 160.74,199.96 162.42,201.03 164.00,202.05 165.59,203.07 167.26,203.72 168.92,204.38 170.66,205.29 172.39,206.20 174.34,207.86 176.28,209.51 177.62,210.36 178.96,211.20 180.21,212.17 181.47,213.14 182.68,213.69 183.89,214.24 185.26,214.75 186.63,215.27 187.87,215.76 189.11,216.26 191.19,216.73 193.28,217.21 195.67,217.66 198.07,218.10 199.18,218.19 200.29,218.29 201.88,218.67 203.47,219.06 204.77,219.19 206.07,219.32 207.48,219.38 208.90,219.45 210.08,219.45 211.27,219.45 212.62,219.45 213.96,219.46 215.70,219.00 217.44,218.55 219.08,218.18 220.73,217.81 221.99,217.41 223.24,217.01 225.34,215.96 227.44,214.90 229.66,213.86 231.87,212.83 233.98,211.85 236.10,210.88 237.90,210.13 239.71,209.38 240.97,208.73 242.23,208.09 243.32,207.49 244.41,206.90 245.43,206.33 246.45,205.76 247.45,205.21 248.44,204.66 249.94,203.60 251.44,202.53 252.63,201.79 253.82,201.04 255.61,200.17 257.41,199.30 258.88,198.24 260.35,197.18 261.95,196.08 263.54,194.99 265.09,193.95 266.64,192.91 268.54,191.91 270.44,190.91 271.77,190.13 273.10,189.36 274.08,188.52 275.06,187.69 276.44,186.70 277.82,185.72 279.66,184.74 281.49,183.76 283.07,182.81 284.64,181.86 286.47,180.66 288.30,179.47 289.58,178.38 290.86,177.28 291.94,176.22 293.02,175.16 294.43,174.06 295.84,172.97 297.23,171.75 298.63,170.53 300.12,169.18 301.60,167.82 302.77,166.62 303.94,165.43 305.37,164.28 306.80,163.13 307.82,161.73 308.83,160.32 310.59,158.46 312.34,156.59 314.34,155.17 316.34,153.74 317.91,152.12 319.48,150.51 321.02,148.68 322.57,146.86 324.10,144.93 325.63,143.01 327.18,141.29 328.73,139.57 330.26,137.98 331.78,136.39 333.26,134.61 334.73,132.83 336.50,130.37 338.26,127.91 339.89,125.69 341.52,123.48 343.08,121.39 344.63,119.29 345.84,117.31 347.04,115.32 348.12,113.33 349.21,111.34 350.25,109.35 351.28,107.35 352.30,105.36 353.32,103.36 354.32,101.36 355.33,99.36 356.62,96.79 357.91,94.21 358.73,92.29 359.55,90.37 360.49,88.37 361.43,86.37 362.40,84.37 363.38,82.37 364.05,80.44 364.72,78.51 365.93,76.40 367.14,74.29 367.88,72.38 368.62,70.47 369.84,68.12 371.06,65.77 371.79,64.19 372.51,62.61 373.40,61.02 374.29,59.43 374.90,57.76 375.50,56.09 376.41,54.14 377.32,52.19 378.28,50.45 379.23,48.70 379.84,47.18 380.44,45.66 380.62,44.29 380.80,42.92 381.22,41.09 381.63,39.25 382.78,36.64 383.92,34.04 384.99,31.82 386.07,29.60 387.11,27.52 388.15,25.43 388.81,23.93 389.46,22.44 390.00,20.76 390.53,19.08 391.07,17.22 391.61,15.35 392.45,13.55 393.29,11.74 393.89,9.98 394.49,8.22 394.73,6.43 394.97,4.64 395.72,2.00 396.47,-0.63 397.07,-2.59 397.66,-4.56 398.16,-6.27 398.65,-7.99 399.12,-9.59 399.59,-11.20 400.04,-12.53 400.49,-13.86 400.96,-15.46 401.42,-17.06 401.91,-18.66 402.39,-20.26 402.91,-22.03 403.42,-23.81 403.99,-25.96 404.56,-28.11 405.06,-29.95 405.57,-31.80 406.09,-33.69 406.61,-35.59 406.73,-36.91 406.85,-38.23 407.18,-39.56 407.52,-40.89 407.91,-43.26 408.31,-45.63 408.75,-47.09 409.18,-48.56 409.29,-49.93 409.40,-51.31 409.73,-52.65 410.06,-53.99 410.50,-55.38 410.94,-56.76 411.83,-58.58 412.72,-60.39 412.95,-61.51 413.19,-62.63 413.87,-64.40 414.56,-66.17 415.59,-67.68 416.63,-69.18 417.15,-70.21 417.67,-71.25 418.38,-73.24 419.08,-75.24 419.70,-75.76 420.33,-76.28 420.28,-76.72 420.24,-77.16 420.34,-77.60 420.44,-78.04 420.67,-78.42 420.90,-78.80 421.25,-79.09 421.59,-79.37 422.00,-79.53 422.42,-79.70 422.87,-79.72 423.31,-79.74 423.74,-79.62 424.17,-79.49 424.54,-79.24 424.91,-78.99 425.18,-78.63 425.44,-78.27 425.58,-77.85 425.72,-77.42 425.72,-76.98 425.72,-76.53 425.57,-76.11 425.43,-75.68 425.15,-75.33 424.88,-74.98 424.51,-74.73 424.14,-74.48 423.70,-74.36 423.27,-74.25 422.83,-74.27 422.38,-74.30 421.97,-74.47 421.55,-74.64 421.22,-74.93 420.88,-75.22 420.65,-75.61 420.42,-75.99 420.33,-76.43 420.24,-76.87 420.29,-77.31 420.34,-77.75 420.53,-78.16 420.72,-78.56 421.03,-78.88 421.34,-79.21 421.74,-79.41 422.13,-79.62 422.57,-79.69 423.02,-79.76 423.46,-79.68 423.90,-79.61 424.29,-79.39 424.68,-79.18 424.99,-78.85 425.29,-78.53 425.48,-78.12 425.66,-77.71 425.66,-77.71 425.66,-77.71 424.39,-74.68 423.12,-71.65 422.71,-70.26 422.30,-68.87 420.79,-66.65 419.27,-64.43 418.56,-62.96 417.85,-61.49 417.45,-60.00 417.04,-58.51 416.42,-56.87 415.79,-55.24 415.07,-52.97 414.36,-50.71 413.93,-48.97 413.51,-47.23 413.07,-45.84 412.63,-44.46 412.26,-43.28 411.89,-42.09 411.62,-40.87 411.35,-39.66 410.93,-38.66 410.52,-37.66 410.21,-36.20 409.90,-34.73 409.42,-32.80 408.94,-30.86 408.45,-29.10 407.96,-27.34 407.52,-25.07 407.09,-22.80 406.60,-20.94 406.12,-19.07 405.60,-17.52 405.08,-15.96 404.54,-14.20 404.00,-12.44 403.44,-11.28 402.88,-10.12 402.32,-8.56 401.76,-7.01 401.18,-5.34 400.61,-3.68 400.04,-1.75 399.48,0.17 398.86,2.63 398.23,5.09 397.94,7.18 397.64,9.27 396.98,11.23 396.32,13.19 395.55,14.73 394.78,16.26 394.25,18.20 393.71,20.14 393.06,22.01 392.42,23.88 391.64,25.31 390.86,26.73 389.89,28.83 388.92,30.92 387.96,33.12 387.00,35.32 386.07,37.69 385.14,40.06 384.73,41.83 384.33,43.60 383.92,45.29 383.51,46.98 382.74,48.61 381.97,50.24 381.05,51.85 380.12,53.46 379.31,55.33 378.50,57.21 377.75,59.13 377.00,61.05 376.06,62.50 375.13,63.95 374.26,65.47 373.40,66.98 372.23,69.21 371.07,71.43 370.24,73.52 369.42,75.61 368.31,77.50 367.20,79.39 366.47,81.45 365.74,83.51 364.78,85.50 363.81,87.48 362.89,89.44 361.97,91.40 361.12,93.40 360.26,95.39 358.97,97.97 357.68,100.55 356.67,102.55 355.66,104.55 354.64,106.56 353.62,108.57 352.58,110.59 351.53,112.61 350.42,114.65 349.30,116.69 348.03,118.78 346.77,120.88 345.22,122.96 343.67,125.05 342.06,127.26 340.44,129.47 338.63,132.01 336.82,134.55 335.29,136.41 333.76,138.27 332.28,139.84 330.79,141.42 329.32,143.08 327.85,144.75 326.32,146.72 324.80,148.70 323.22,150.64 321.64,152.58 319.92,154.42 318.19,156.26 316.49,157.54 314.80,158.82 313.26,160.62 311.73,162.42 310.43,164.22 309.13,166.03 307.81,167.04 306.50,168.04 305.26,169.19 304.03,170.35 302.57,171.82 301.12,173.29 299.64,174.67 298.16,176.04 296.86,176.99 295.57,177.94 294.35,178.98 293.14,180.03 291.71,181.17 290.29,182.31 288.46,183.69 286.63,185.06 285.02,186.09 283.40,187.12 281.79,188.10 280.18,189.08 278.87,190.00 277.55,190.91 276.24,191.84 274.94,192.76 273.59,193.43 272.25,194.09 270.56,195.13 268.88,196.17 267.40,197.22 265.92,198.27 264.45,199.39 262.98,200.50 261.31,201.94 259.63,203.38 258.07,204.33 256.51,205.28 255.23,206.11 253.94,206.94 252.23,207.89 250.52,208.83 249.47,209.30 248.41,209.76 247.32,210.23 246.23,210.70 245.05,211.19 243.88,211.68 242.52,212.24 241.16,212.79 239.50,213.52 237.84,214.24 235.85,215.39 233.87,216.53 231.86,217.77 229.85,219.02 227.42,220.62 224.99,222.22 223.71,222.65 222.43,223.09 221.13,223.44 219.83,223.79 218.36,223.85 216.89,223.91 215.42,224.20 213.96,224.49 212.56,224.48 211.15,224.46 209.92,224.41 208.69,224.35 207.13,224.29 205.57,224.23 203.93,224.06 202.29,223.89 201.01,223.57 199.73,223.26 197.25,222.70 194.76,222.15 192.35,221.50 189.93,220.86 188.65,220.50 187.38,220.15 186.24,219.57 185.11,218.99 183.61,218.34 182.10,217.68 180.61,216.83 179.11,215.97 178.06,215.00 177.02,214.02 175.63,213.00 174.25,211.97 172.51,210.58 170.77,209.18 169.23,208.33 167.69,207.48 165.72,206.69 163.76,205.91 162.20,204.88 160.64,203.86 158.99,202.83 157.33,201.81 155.33,200.71 153.33,199.61 151.54,198.44 149.76,197.27 148.34,196.31 146.91,195.35 145.60,194.43 144.29,193.50 143.17,192.61 142.06,191.72 140.97,190.61 139.89,189.50 138.48,188.16 137.06,186.83 136.03,185.39 134.99,183.95 133.88,182.60 132.76,181.26 131.18,179.90 129.61,178.54 128.02,176.86 126.43,175.18 124.83,173.31 123.24,171.45 122.27,170.22 121.30,168.99 120.36,167.61 119.42,166.22 117.78,163.84 116.14,161.46 115.01,159.87 113.88,158.28 112.43,156.49 110.99,154.69 109.76,152.71 108.54,150.73 106.94,148.64 105.33,146.56 103.59,144.35 101.86,142.14 99.78,139.59 97.70,137.04 96.24,135.14 94.78,133.24 93.41,131.45 92.03,129.66 90.94,128.14 89.85,126.61 88.47,124.92 87.09,123.23 86.03,121.43 84.98,119.64 83.90,117.56 82.83,115.49 81.76,113.40 80.70,111.30 79.61,109.62 78.51,107.93 77.27,106.29 76.02,104.65 75.52,103.65 75.02,102.65 74.46,101.65 73.91,100.65 72.98,99.30 72.04,97.96 71.53,96.76 71.01,95.57 70.12,94.20 69.24,92.82 68.86,91.67 68.47,90.52 67.08,88.77 65.69,87.01 64.71,85.49 63.72,83.97 62.83,82.36 61.93,80.75 61.43,79.38 60.93,78.01 60.47,76.83 60.02,75.66 59.55,74.66 59.07,73.67 58.58,72.69 58.09,71.71 57.56,70.76 57.04,69.81 56.14,68.58 55.25,67.35 54.72,66.22 54.19,65.10 53.54,63.83 52.88,62.57 51.94,61.09 50.99,59.61 49.94,58.40 48.89,57.19 47.88,55.92 46.86,54.65 45.48,53.33 44.10,52.00 43.19,50.62 42.28,49.24 41.51,48.05 40.75,46.87 39.29,45.37 37.83,43.87 36.46,42.32 35.09,40.77 34.09,39.30 33.09,37.83 32.05,36.41 31.01,34.99 29.76,33.57 28.51,32.15 26.92,30.33 25.32,28.50 23.53,26.81 21.74,25.12 20.29,23.79 18.84,22.47 17.32,21.20 15.81,19.94 14.37,18.50 12.94,17.06 11.64,15.68 10.33,14.30 8.53,12.47 6.73,10.63 5.22,9.00 3.72,7.38 2.33,5.66 0.95,3.95 -0.18,2.50 -1.32,1.06 -1.43,0.88 -1.54,0.71 -1.60,0.51 -1.67,0.32 -1.68,0.11 -1.69,-0.08 -1.66,-0.28 -1.62,-0.48 -1.54,-0.67 -1.46,-0.86 -1.33,-1.02 -1.21,-1.19 -1.05,-1.31 -0.89,-1.44 -0.70,-1.53 -0.52,-1.61 -0.32,-1.65 -0.11,-1.69 0.08,-1.68 0.28,-1.67 0.48,-1.61 0.68,-1.55 0.85,-1.45 1.03,-1.34 1.18,-1.20 1.32,-1.06 1.32,-1.06 L 1.32,-1.06 Z"></path></g><g transform="translate(550 73.36994800999628) rotate(0 82.03125 12)"><text x="0" y="0" font-family="Cascadia, Segoe UI Emoji" font-size="20px" fill="#2f9e44" text-anchor="start" style="white-space: pre;" direction="ltr" dominant-baseline="text-before-edge">f(x_k + t d_k)</text></g><g transform="translate(576.96875 192.36994800999628) rotate(0 123.876953125 12)"><text x="0" y="0" font-family="Cascadia, Segoe UI Emoji" font-size="20px" fill="#2f9e44" text-anchor="start" style="white-space: pre;" direction="ltr" dominant-baseline="text-before-edge">f(x_k) + α t ∇f^T d_k</text></g><g transform="translate(484.123046875 303.3699480099963) rotate(0 112.158203125 12)"><text x="0" y="0" font-family="Cascadia, Segoe UI Emoji" font-size="20px" fill="#2f9e44" text-anchor="start" style="white-space: pre;" direction="ltr" dominant-baseline="text-before-edge">f(x_k) + t ∇f^T d_k</text></g><g transform="translate(561 424.3699480099963) rotate(0 27.34375 28)"><text x="0" y="0" font-family="Cascadia, Segoe UI Emoji" font-size="46.666666666666714px" fill="#2f9e44" text-anchor="start" style="white-space: pre;" direction="ltr" dominant-baseline="text-before-edge">α </text></g><g transform="translate(37.28125 20.36994800999628) rotate(0 20.99609375 21.5)"><text x="0" y="0" font-family="Cascadia, Segoe UI Emoji" font-size="35.83333333333335px" fill="#2f9e44" text-anchor="start" style="white-space: pre;" direction="ltr" dominant-baseline="text-before-edge">f </text></g><g transform="translate(10 148.36994800999628) rotate(0 35.15625 12)"><text x="0" y="0" font-family="Cascadia, Segoe UI Emoji" font-size="20px" fill="#2f9e44" text-anchor="start" style="white-space: pre;" direction="ltr" dominant-baseline="text-before-edge">f(x_k)</text></g><g transform="translate(416 152.36994800999628) rotate(0 11.71875 12)"><text x="0" y="0" font-family="Cascadia, Segoe UI Emoji" font-size="20px" fill="#2f9e44" text-anchor="start" style="white-space: pre;" direction="ltr" dominant-baseline="text-before-edge">l2</text></g><g transform="translate(369.28125 231.36994800999628) rotate(0 11.71875 12)"><text x="0" y="0" font-family="Cascadia, Segoe UI Emoji" font-size="20px" fill="#2f9e44" text-anchor="start" style="white-space: pre;" direction="ltr" dominant-baseline="text-before-edge">l1</text></g></svg>