<svg width="800" height="600" xmlns="http://www.w3.org/2000/svg">

 <g>
  <title>Layer 1</title>
  <line stroke-linecap="undefined" stroke-linejoin="undefined" id="svg_2" y2="322" x2="500" y1="334" x1="247" stroke="#000" fill="none"/>
  <path d="m246,334c0,-1 1,-1 2,-2c2,-2 3.69255,-4.186 5,-6c0.8269,-1.14728 1.32367,-0.52017 3,-2c2.703,-2.38617 5.7265,-7.29361 10,-11c3.77728,-3.276 7,-7 11,-11c7,-7 12.21704,-10.65225 22,-17c10.23984,-6.64423 14.19028,-10.88153 16,-14c1.12234,-1.93399 1.03552,-3.50424 4,-8c1.55704,-2.3613 4,-6 5,-8c1,-2 2.3851,-5.37201 5,-9c4.13452,-5.73634 9.4505,-7.45049 12,-10c2.5495,-2.54951 4.9183,-7.11214 9,-10c2.94336,-2.08247 5.79489,-5.22021 9,-8c3.77728,-3.27602 7,-6 10,-8c3,-2 4.85272,-4.1731 6,-5c1.814,-1.30745 4,-3 6,-5c3,-3 4.71411,-5.21167 7,-8c0.89661,-1.09367 3.61383,-2.297 6,-5c1.47983,-1.67633 3.69254,-4.186 5,-6c2.48071,-3.4418 5,-5 7,-7c2,-2 3,-4 5,-5c2,-1 4.9183,-3.11214 9,-6c2.94336,-2.08247 4.81265,-4.2068 7,-6c2.78833,-2.28587 3.52017,-3.32367 5,-5c2.38617,-2.703 4.69345,-4.4588 6,-5c0.92389,-0.38269 2,-1 4,-2l3,-3l0,-1" id="svg_4" stroke="#000" fill="none"/>
  <path d="m270,309c0,1 -0.12234,3.06601 1,5c1.80972,3.11847 2.69254,5.186 4,7c0.8269,1.14728 1.61731,2.07611 2,3c0.5412,1.30655 1,2 1,2c1,0 1.29291,0.29291 2,1c0.70709,0.70709 1,3 2,5l0,2l1,0" id="svg_5" stroke="#000" fill="none"/>
  <path d="m292,289c0,0 -0.21014,2.07843 1,5c1.71143,4.13171 3.3851,8.37201 6,12c1.65381,2.29453 3.34619,3.70547 5,6c1.30746,1.814 2.61066,4.15927 4,7c1.58411,3.23892 2.33749,5.31 4,8c0.7435,1.203 2,2 2,3l1,0" id="svg_6" stroke="#000" fill="none"/>
  <path d="m322,259c0,1 1.36755,3.10263 2,5c1.58115,4.74341 6.7464,10.16119 10,15c2.78995,4.14923 6,9 9,13c3,4 5.67261,7.70847 8,14c1.43048,3.867 2,8 4,12c2,4 3,6 4,7c1,1 2,2 3,3c1,1 0.29291,2.29291 1,3c0.70709,0.70709 2,0 3,0l-1,-2" id="svg_7" stroke="#000" fill="none"/>
  <path d="m350,223c1,1 1.54135,1.70267 3,5c1.66803,3.77065 3.16797,6.92033 5,11c2.20605,4.91257 2.84796,9.0797 5,13c2.80591,5.11145 4.69254,6.186 6,8c0.8269,1.14728 2.3851,3.37201 5,7c1.65381,2.29453 6,7 8,10c2,3 3.33749,7.31 5,10c1.487,2.40601 3.29291,2.29291 4,3c0.70709,0.70709 2.07611,1.61731 3,2c1.30655,0.5412 1.2565,1.797 2,3c1.66251,2.69 1.31073,6.08026 2,9c0.51373,2.17624 2.4588,2.69345 3,4c0.76538,1.84775 0.29291,3.29291 1,4c0.70709,0.70709 0.29291,1.29291 1,2c0.70709,0.70709 1,0 1,1c0,0 1,0 1,0c1,0 1.10339,0.90634 2,2c2.28589,2.78833 2.07611,2.61731 3,3c1.30655,0.5412 1,2 1,4c0,2 1,3 2,3l0,0l1,0" id="svg_8" stroke="#000" fill="none"/>
  <path d="m391,192c0,0 4,4 7,8c3,4 6.724,8.22273 10,12c3.70639,4.2735 7.72961,8.22885 12,13c2.8295,3.16132 6.37134,5.74675 9,10c2.35114,3.80423 4.11588,8.96384 5,12c1.15277,3.95868 2.44839,6.80565 4,11c1.43048,3.867 1.71411,7.21167 4,10c0.89661,1.09366 3.513,3.59399 5,6c1.66251,2.69 2.41589,4.76108 4,8c1.38934,2.84073 1.78986,6.07843 3,9c1.71143,4.13171 2.07611,4.61731 3,5c1.30655,0.5412 1.77023,2.02676 2,3c0.51373,2.17624 1.49347,3.87857 2,7c0.16019,0.98709 0.07611,1.61731 1,2c1.30655,0.5412 2.48627,3.82376 3,6c0.4595,1.9465 -0.70709,4.29291 0,5c0.70709,0.70709 2,0 2,0l1,0l0,0" id="svg_9" stroke="#000" fill="none"/>
  <path d="m435,152c0,1 0.16797,2.92033 2,7c2.20605,4.91257 3.13901,11.26601 6,19c3.87897,10.48587 7.19409,14.88855 10,20c2.15204,3.9203 4.9725,7.64749 6,12c0.68927,2.91975 1.75531,6.132 4,10c1.80972,3.11848 5,9 7,13c2,4 4.513,7.59399 6,10c1.66251,2.68999 2.71411,5.21167 5,8c0.89661,1.09367 1.41885,2.41885 3,4c1.58115,1.58115 1.78986,4.07843 3,7c0.85571,2.06586 2,6 3,10c1,4 1.31073,6.08026 2,9c0.51373,2.17624 1.48627,2.82376 2,5c0.22977,0.97324 0.5405,3.0535 1,5c0.51373,2.17624 2,4 2,7c0,1 0,2 0,2c1,0 1.4588,0.69345 2,2c1.14804,2.77164 0,4 0,7c0,1 1.29291,0.29291 2,1c0.70709,0.70709 0.18875,0.41528 1,1c2.56537,1.84903 1,4 1,4l1,0l0,0" id="svg_10" stroke="#000" fill="none"/>
  <line stroke-linecap="undefined" stroke-linejoin="undefined" id="svg_11" y2="441" x2="394" y1="74" x1="391" stroke="#000" fill="none"/>
  <path d="m373,338c-1,1 -1.49347,0.87857 -2,4c-0.64072,3.94836 -1.49622,7.90778 -2,12c-0.48874,3.97003 0,7 0,8c0,2 0,5 0,7c0,4 0.48056,7.03873 0,10c-0.50653,3.12143 -1,6 -1,7l0,1l0,-1" id="svg_12" stroke="#000" fill="none"/>
  <path d="m374,342c0,0 1,0 1,0c1,0 1,0 2,0c0,0 3.07843,0.78986 6,2c2.06586,0.85571 2.29291,1.29291 3,2c0.70709,0.70709 2,1 2,2c0,1 1,1 1,3c0,0 0,1 -1,1c-1,0 -1,1 -2,1c-1,0 -2,0 -3,0c0,0 0,1 -1,1c-1,0 -2,0 -2,0c-2,0 -4,1 -5,1l-2,1l-2,1l-1,0" id="svg_13" stroke="#000" fill="none"/>
  <path d="m376,376c-1,0 -1.29291,-0.70709 -2,0c-2.12131,2.12131 -1,5 -1,8c0,2 0,3 0,4l0,1l0,2" id="svg_14" stroke="#000" fill="none"/>
  <path d="m362,161c-1,0 -1.5405,1.0535 -2,3c-0.51373,2.17625 -2.49622,5.90779 -3,10c-0.48874,3.97003 0,10 0,14c0,4 0,8 0,10c0,3 0,5 0,6l0,1l0,-1l0,-2" id="svg_15" stroke="#000" fill="none"/>
  <path d="m363,165c1,0 1,0 2,0c0,0 1.186,-0.30745 3,1c4.58908,3.30762 6,5 7,6c1,1 0.71411,2.21167 3,5c0.89661,1.09367 3.5412,3.69344 3,5c-0.38269,0.92387 -2,0 -3,0c-1,0 -4.87857,-0.49345 -8,-1c-0.98709,-0.16019 -2.30447,-1.53073 -6,0c-1.30655,0.5412 -3,2 -5,3l-2,2l-2,1l-1,1" id="svg_16" stroke="#000" fill="none"/>
  <path d="m361,203c0,0 1,0 1,0c2,0 3.29291,-0.70711 4,0c0.70709,0.70711 0.82443,1.09789 2,3c0.52573,0.85065 0,2 0,2c0,2 -0.48627,3.82375 -1,6c-0.22977,0.97325 -1.0979,2.82443 -3,4c-0.85065,0.52573 -1,0 0,0c2,0 5.82376,-1.48625 8,-2c0.97324,-0.22975 2,0 3,0l0,0l0,0" id="svg_17" stroke="#000" fill="none"/>
 </g>
</svg>