<svg version="1.1" xmlns="http://www.w3.org/2000/svg" viewBox="0 0 737.7777777777776 555.5555555555557" width="737.7777777777776" height="555.5555555555557">
  <!-- svg-source:excalidraw -->
  
  <defs>
    <style class="style-fonts">
      @font-face {
        font-family: "Virgil";
        src: url("https://excalidraw.com/Virgil.woff2");
      }
      @font-face {
        font-family: "Cascadia";
        src: url("https://excalidraw.com/Cascadia.woff2");
      }
    </style>
  </defs>
  <rect x="0" y="0" width="737.7777777777776" height="555.5555555555557" fill="#ffffff"></rect><g transform="translate(431.11111111111086 17.77777777777783) rotate(0 23.888888888889028 260)" stroke="none"><path fill="#e67700" d="M 0,5.13 Q 0,5.13 -3.19,5.06 -6.38,4.99 -9.85,5.15 -13.31,5.32 -16.16,6.15 -19.01,6.98 -23.23,8.06 -27.45,9.14 -29.70,9.69 -31.96,10.23 -34.19,10.78 -36.43,11.34 -40.40,12.26 -44.37,13.19 -48.33,14.66 -52.29,16.13 -54.41,16.70 -56.53,17.26 -60.87,18.95 -65.21,20.63 -68.25,21.86 -71.29,23.10 -73.75,24.22 -76.21,25.35 -78.35,26.27 -80.49,27.19 -83.60,29.10 -86.71,31.02 -89.42,33.17 -92.12,35.33 -94.13,36.39 -96.14,37.46 -99.37,39.58 -102.60,41.70 -105.00,43.39 -107.40,45.08 -110.25,46.84 -113.10,48.60 -115.17,49.99 -117.24,51.37 -119.34,52.85 -121.43,54.33 -123.11,55.80 -124.79,57.28 -126.66,58.74 -128.53,60.20 -131.87,63.04 -135.21,65.89 -138.52,68.70 -141.84,71.52 -145.68,74.44 -149.52,77.36 -152.71,79.89 -155.89,82.41 -157.50,83.85 -159.10,85.29 -161.58,87.76 -164.06,90.24 -167.48,93.26 -170.91,96.29 -173.82,99.46 -176.74,102.63 -179.03,105.50 -181.32,108.37 -184.22,111.55 -187.11,114.74 -189.74,117.46 -192.37,120.18 -195.26,122.96 -198.15,125.74 -201.35,128.94 -204.56,132.15 -207.97,135.44 -211.39,138.73 -214.47,141.67 -217.56,144.62 -220.78,148.01 -223.99,151.40 -225.78,154.31 -227.57,157.23 -228.49,159.44 -229.41,161.66 -230.41,163.96 -231.40,166.25 -231.99,168.78 -232.58,171.32 -233.15,174.06 -233.71,176.81 -234.25,179.58 -234.78,182.35 -235.28,184.87 -235.77,187.40 -236.26,189.76 -236.75,192.13 -237.23,194.42 -237.72,196.71 -238.21,200.42 -238.69,204.13 -239.19,208.72 -239.69,213.30 -240.17,217.09 -240.64,220.87 -240.77,223.09 -240.90,225.31 -241.35,228.25 -241.79,231.18 -241.93,233.42 -242.07,235.66 -242.47,238.24 -242.87,240.82 -242.96,243.91 -243.05,247.00 -243.05,250.59 -243.06,254.18 -243.11,256.81 -243.15,259.43 -242.91,261.82 -242.66,264.21 -242.27,266.84 -241.88,269.47 -241.66,272.15 -241.44,274.83 -240.96,277.87 -240.49,280.91 -239.67,284.44 -238.85,287.97 -238.20,290.93 -237.55,293.89 -236.73,295.99 -235.91,298.09 -234.82,300.74 -233.73,303.40 -232.93,305.58 -232.14,307.76 -230.42,311.28 -228.70,314.80 -227.74,316.96 -226.78,319.11 -224.31,322.94 -221.84,326.76 -220.62,329.45 -219.41,332.14 -216.85,335.60 -214.30,339.06 -212.83,341.94 -211.35,344.83 -209.77,348.18 -208.19,351.52 -206.59,354.54 -204.98,357.55 -203.57,360.17 -202.16,362.79 -200.94,364.70 -199.72,366.62 -198.47,368.83 -197.22,371.05 -194.50,374.85 -191.79,378.65 -190.75,380.72 -189.71,382.78 -187.55,386.10 -185.39,389.42 -184.23,392.36 -183.07,395.31 -181.86,398.22 -180.64,401.14 -179.25,404.36 -177.86,407.57 -176.17,410.76 -174.48,413.94 -172.78,416.52 -171.08,419.09 -169.62,421.14 -168.16,423.18 -166.70,424.78 -165.25,426.37 -163.66,427.98 -162.07,429.59 -160.42,431.21 -158.77,432.83 -155.72,435.46 -152.66,438.09 -149.34,440.36 -146.02,442.62 -142.29,445.21 -138.55,447.79 -135.80,450.22 -133.05,452.66 -130.31,454.51 -127.57,456.37 -124.09,459.07 -120.61,461.78 -117.60,463.79 -114.59,465.80 -111.38,468.02 -108.18,470.24 -104.37,472.87 -100.56,475.50 -96.95,477.19 -93.33,478.88 -90.07,480.17 -86.81,481.46 -83.20,483.04 -79.58,484.61 -75.56,486.30 -71.55,487.99 -67.75,490.07 -63.95,492.16 -60.70,493.14 -57.44,494.12 -53.91,495.58 -50.37,497.03 -45.51,498.99 -40.65,500.94 -34.71,503.42 -28.77,505.89 -23.88,507.22 -18.99,508.55 -14.98,509.44 -10.97,510.33 -7.49,511.26 -4.01,512.18 -1.49,512.38 1.01,512.57 3.55,512.92 6.08,513.27 9.28,513.74 12.47,514.22 16.77,515.27 21.07,516.32 24.03,516.56 26.99,516.80 31.57,517.77 36.16,518.73 39.98,519.41 43.80,520.10 48.03,521.13 52.27,522.17 58.98,522.93 65.68,523.69 69.83,524.04 73.99,524.38 79.85,524.55 85.72,524.72 90.47,524.81 95.21,524.90 99.78,524.94 104.35,524.99 109.81,525.02 115.26,525.04 121.60,524.43 127.94,523.81 131.90,523.20 135.86,522.58 140.05,521.72 144.24,520.87 148.84,519.57 153.44,518.27 159.51,516.14 165.58,514.00 171.01,511.83 176.45,509.66 182.85,506.54 189.24,503.41 193.85,500.82 198.46,498.24 204.91,494.57 211.37,490.90 217.59,487.13 223.82,483.35 228.63,479.88 233.44,476.41 237.40,473.34 241.36,470.27 244.54,467.14 247.72,464.01 251.28,459.84 254.84,455.68 257.62,452.02 260.39,448.35 263.81,443.60 267.23,438.85 270.64,434.54 274.05,430.23 276.01,426.68 277.96,423.12 279.38,419.44 280.80,415.76 281.55,413.37 282.30,410.98 283.70,406.97 285.09,402.97 286.34,399.01 287.59,395.05 288.38,391.24 289.18,387.42 289.42,383.98 289.66,380.55 290.05,377.03 290.43,373.52 291.00,369.52 291.56,365.52 292.12,361.57 292.68,357.61 292.97,353.52 293.27,349.42 293.42,344.80 293.58,340.18 293.66,335.33 293.75,330.49 293.79,325.88 293.84,321.26 293.87,314.51 293.90,307.76 293.92,301.69 293.94,295.63 293.96,290.81 293.97,286.00 293.98,281.72 293.99,277.44 293.52,274.16 293.05,270.88 292.65,266.56 292.24,262.25 291.73,258.20 291.22,254.16 290.67,250.21 290.11,246.25 289.39,243.39 288.67,240.53 288.24,237.87 287.80,235.20 286.99,232.88 286.18,230.55 285.66,228.25 285.15,225.95 284.40,223.02 283.65,220.09 283.16,217.98 282.66,215.88 281.89,213.79 281.12,211.69 280.16,209.60 279.20,207.50 278.35,205.51 277.50,203.52 276.19,201.04 274.88,198.57 273.33,195.20 271.77,191.83 269.92,188.33 268.06,184.83 267.13,182.92 266.21,181.00 264.20,177.77 262.19,174.55 261.01,172.38 259.83,170.21 258.91,168.19 258.00,166.16 255.68,162.73 253.36,159.29 252.18,157.04 250.99,154.80 249.72,152.82 248.45,150.84 246.91,148.20 245.37,145.56 243.61,142.51 241.85,139.47 240.17,136.96 238.48,134.45 237.04,132.41 235.60,130.36 234.01,127.80 232.43,125.24 229.80,122.30 227.17,119.36 225.46,117.27 223.76,115.17 221.95,113.16 220.14,111.14 218.23,109.45 216.33,107.76 214.27,105.48 212.21,103.19 210.07,101.16 207.93,99.14 204.90,96.46 201.87,93.78 199.50,91.56 197.13,89.33 195.32,87.74 193.50,86.15 190.76,84.13 188.01,82.12 184.81,78.42 181.61,74.73 179.41,71.87 177.22,69.02 175.39,66.75 173.57,64.47 171.38,62.41 169.19,60.34 165.19,57.61 161.18,54.88 157.98,52.92 154.77,50.96 152.37,49.05 149.96,47.14 146.20,45.09 142.44,43.03 139.14,40.88 135.84,38.73 132.39,36.65 128.94,34.56 126.12,32.60 123.31,30.63 121.00,29.28 118.70,27.93 116.72,26.56 114.75,25.19 112.07,23.68 109.38,22.16 107.36,21.02 105.35,19.88 103.39,18.84 101.44,17.81 97.66,16.14 93.88,14.47 89.60,12.41 85.31,10.36 82.93,9.08 80.55,7.79 78.17,7.04 75.78,6.29 73.73,5.73 71.68,5.17 68.42,4.17 65.16,3.18 62.18,2.71 59.20,2.24 56.99,1.70 54.78,1.16 50.75,0.60 46.73,0.05 43.77,-0.07 40.80,-0.21 37.79,-0.16 34.78,-0.11 32.64,-0.06 30.49,-0.01 27.70,-0.45 24.90,-0.89 22.33,-0.91 19.75,-0.92 16.30,-0.98 12.85,-1.03 10.45,-1.01 8.05,-0.98 5.67,-0.93 3.28,-0.87 0.54,-0.83 -2.20,-0.79 -2.76,-1.55 -3.32,-2.32 -4.16,-1.54 -5.00,-0.77 -6.04,-0.30 -7.08,0.15 -8.22,0.26 -9.36,0.37 -10.47,0.11 -11.58,-0.14 -12.55,-0.74 -13.52,-1.34 -14.25,-2.22 -14.98,-3.10 -15.39,-4.17 -15.80,-5.23 -15.84,-6.37 -15.89,-7.52 -15.57,-8.61 -15.25,-9.71 -14.60,-10.64 -13.94,-11.58 -13.03,-12.26 -12.11,-12.94 -11.02,-13.29 -9.93,-13.64 -8.79,-13.63 -7.65,-13.61 -6.57,-13.23 -5.50,-12.85 -4.60,-12.15 -3.70,-11.45 -3.07,-10.49 -2.44,-9.54 -2.15,-8.44 -1.86,-7.33 -1.94,-6.19 -2.01,-5.05 -2.45,-4.00 -2.89,-2.94 -3.64,-2.08 -4.39,-1.22 -5.37,-0.65 -6.36,-0.07 -7.48,0.15 -8.59,0.38 -9.73,0.24 -10.86,0.10 -11.89,-0.38 -12.92,-0.87 -13.74,-1.67 -14.56,-2.47 -15.08,-3.48 -15.60,-4.50 -15.77,-5.63 -15.94,-6.75 -15.74,-7.88 -15.54,-9.00 -14.99,-10.00 -14.45,-11.01 -14.45,-11.01 -14.45,-11.00 -8.32,-12.88 -2.20,-14.76 0.54,-14.72 3.28,-14.67 5.67,-14.62 8.06,-14.56 10.47,-14.53 12.88,-14.50 16.43,-14.53 19.99,-14.55 22.87,-14.42 25.75,-14.29 29.22,-13.77 32.69,-13.26 35.69,-13.15 38.68,-13.04 41.60,-12.89 44.53,-12.73 46.94,-12.53 49.35,-12.33 51.76,-11.87 54.17,-11.41 57.72,-10.67 61.27,-9.92 65.47,-9.15 69.67,-8.37 71.84,-7.54 74.02,-6.71 76.87,-5.71 79.72,-4.72 82.80,-3.40 85.89,-2.09 87.87,-1.01 89.86,0.05 94.36,2.00 98.85,3.95 100.81,4.88 102.77,5.80 104.80,6.72 106.84,7.63 110.63,9.76 114.41,11.88 116.97,13.23 119.54,14.57 121.82,16.47 124.10,18.37 126.69,19.78 129.29,21.20 131.99,22.73 134.70,24.27 136.88,25.49 139.07,26.72 142.37,28.98 145.67,31.23 148.48,33.26 151.30,35.29 154.06,36.63 156.81,37.97 159.00,39.51 161.19,41.06 164.49,43.23 167.80,45.40 170.03,46.87 172.25,48.34 175.98,51.27 179.72,54.19 182.35,56.95 184.98,59.70 186.81,62.34 188.65,64.98 190.61,68.13 192.58,71.29 194.71,73.41 196.85,75.54 198.67,77.03 200.49,78.53 202.13,80.11 203.77,81.69 206.53,83.92 209.29,86.15 211.98,88.91 214.67,91.67 217.30,93.96 219.93,96.25 221.58,98.10 223.23,99.95 225.55,101.98 227.86,104.01 229.97,106.25 232.07,108.48 233.57,110.36 235.07,112.24 236.67,114.11 238.28,115.97 239.66,117.89 241.04,119.81 242.56,122.18 244.08,124.55 245.43,126.59 246.78,128.63 248.67,131.22 250.56,133.81 252.69,136.74 254.82,139.67 256.43,142.09 258.03,144.50 259.65,146.89 261.27,149.28 263.40,153.04 265.52,156.80 267.14,159.11 268.76,161.41 270.44,164.87 272.11,168.33 273.23,170.16 274.35,171.99 275.48,174.01 276.62,176.03 278.18,179.58 279.74,183.14 280.84,185.14 281.93,187.15 282.85,189.25 283.77,191.35 284.74,194.06 285.70,196.77 286.90,200.27 288.10,203.77 289.08,206.30 290.06,208.83 291.01,213.43 291.96,218.04 292.86,223.25 293.77,228.46 294.44,231.49 295.10,234.51 295.13,236.92 295.16,239.33 295.54,242.40 295.92,245.47 296.43,249.45 296.95,253.44 297.47,257.54 297.98,261.65 298.49,265.98 298.99,270.32 299.16,273.88 299.33,277.44 299.34,281.72 299.35,286.00 299.36,290.82 299.37,295.63 299.38,301.70 299.40,307.76 299.41,314.52 299.43,321.28 299.44,325.91 299.45,330.54 299.46,335.42 299.46,340.30 299.42,345.02 299.38,349.75 299.21,354.12 299.05,358.48 298.52,362.42 298.00,366.35 297.53,370.39 297.06,374.43 296.50,377.80 295.94,381.17 295.47,384.91 295.00,388.65 294.12,392.71 293.24,396.77 292.05,400.82 290.85,404.87 289.51,409.17 288.17,413.48 286.98,415.61 285.80,417.75 284.18,421.71 282.56,425.67 280.37,429.58 278.18,433.48 274.84,437.70 271.49,441.92 268.04,446.73 264.58,451.53 261.71,455.31 258.84,459.10 255.12,463.43 251.41,467.76 248.00,471.10 244.59,474.43 240.55,477.56 236.52,480.68 231.54,484.27 226.56,487.86 220.27,491.68 213.98,495.50 207.51,499.17 201.05,502.85 196.31,505.51 191.57,508.18 185.00,511.39 178.43,514.61 172.89,516.83 167.36,519.05 161.13,521.25 154.91,523.45 150.13,524.82 145.35,526.20 141.01,527.12 136.66,528.04 132.56,528.60 128.47,529.17 121.86,529.82 115.25,530.47 109.79,530.48 104.32,530.49 99.74,530.49 95.15,530.49 90.37,530.47 85.60,530.44 79.58,530.36 73.57,530.27 69.31,530.01 65.05,529.76 57.98,529.10 50.90,528.44 46.77,527.64 42.64,526.84 38.80,526.21 34.95,525.57 30.52,524.95 26.09,524.32 22.87,523.83 19.65,523.34 15.42,522.66 11.20,521.97 7.86,521.38 4.52,520.79 2.21,520.13 -0.09,519.47 -2.95,518.80 -5.82,518.14 -9.00,517.03 -12.19,515.92 -16.32,515.03 -20.46,514.14 -25.73,512.79 -31.00,511.44 -36.94,509.11 -42.88,506.78 -47.93,504.95 -52.98,503.12 -56.23,501.68 -59.48,500.23 -63.16,498.91 -66.85,497.59 -70.37,495.75 -73.88,493.90 -78.05,492.37 -82.23,490.84 -85.85,489.34 -89.48,487.83 -92.73,486.40 -95.99,484.97 -100.19,483.26 -104.39,481.55 -108.44,479.18 -112.49,476.82 -115.76,474.80 -119.03,472.78 -122.23,470.83 -125.43,468.88 -129.05,466.78 -132.67,464.68 -136.11,462.74 -139.55,460.80 -142.33,458.81 -145.10,456.82 -148.71,454.23 -152.32,451.63 -154.05,450.36 -155.79,449.09 -157.62,447.67 -159.45,446.25 -162.77,443.08 -166.08,439.91 -167.72,438.13 -169.37,436.36 -171.01,434.48 -172.66,432.60 -174.31,430.50 -175.96,428.40 -177.29,426.26 -178.62,424.12 -180.48,421.36 -182.34,418.59 -184.53,415.23 -186.71,411.87 -188.42,408.69 -190.12,405.52 -191.68,402.43 -193.25,399.34 -194.88,395.72 -196.51,392.10 -198.65,388.10 -200.80,384.10 -201.86,382.26 -202.92,380.42 -204.56,378.17 -206.20,375.93 -207.27,373.85 -208.33,371.78 -209.56,369.61 -210.79,367.44 -212.13,364.95 -213.47,362.47 -215.33,359.49 -217.20,356.52 -219.27,353.28 -221.35,350.04 -222.46,347.96 -223.57,345.89 -225.16,343.81 -226.75,341.73 -229.14,337.61 -231.53,333.49 -233.17,331.24 -234.82,329.00 -237.12,324.85 -239.43,320.70 -241.59,316.49 -243.76,312.29 -244.70,310.01 -245.64,307.72 -246.69,304.86 -247.74,302.00 -248.68,298.73 -249.62,295.47 -250.12,292.44 -250.62,289.41 -251.14,286.49 -251.66,283.57 -252.06,279.63 -252.46,275.70 -252.62,273.48 -252.78,271.27 -253.30,268.39 -253.83,265.52 -254.21,262.47 -254.60,259.42 -254.64,256.77 -254.67,254.12 -254.68,251.61 -254.69,249.10 -254.46,246.21 -254.23,243.32 -253.61,239.11 -252.99,234.91 -252.79,232.27 -252.60,229.64 -252.27,227.13 -251.93,224.62 -251.73,221.53 -251.53,218.44 -250.88,215.12 -250.24,211.80 -249.89,209.16 -249.54,206.52 -248.79,202.63 -248.04,198.75 -247.66,196.55 -247.28,194.36 -246.65,192.12 -246.02,189.88 -245.38,187.59 -244.74,185.31 -244.09,182.90 -243.44,180.49 -242.77,177.67 -242.10,174.85 -241.35,171.96 -240.60,169.08 -239.59,165.87 -238.58,162.66 -237.30,160.47 -236.02,158.28 -234.61,155.94 -233.21,153.61 -231.02,150.33 -228.84,147.05 -225.70,143.40 -222.56,139.74 -219.73,136.62 -216.90,133.49 -213.90,130.03 -210.90,126.56 -208.03,122.88 -205.16,119.21 -202.79,116.32 -200.41,113.43 -198.16,110.34 -195.91,107.25 -193.02,103.84 -190.13,100.42 -187.65,97.51 -185.17,94.60 -183.63,92.98 -182.09,91.36 -180.27,89.36 -178.46,87.37 -175.38,84.57 -172.29,81.77 -169.53,79.24 -166.77,76.70 -164.83,74.98 -162.90,73.26 -161.05,71.82 -159.19,70.38 -155.82,68.06 -152.46,65.74 -149.10,62.99 -145.74,60.24 -142.34,57.48 -138.94,54.72 -135.41,51.88 -131.87,49.05 -129.80,47.29 -127.73,45.53 -125.50,43.92 -123.27,42.31 -121.19,40.93 -119.11,39.55 -116.69,37.82 -114.27,36.08 -111.80,34.05 -109.32,32.01 -107.18,30.51 -105.04,29.00 -101.95,27.42 -98.86,25.85 -95.73,23.62 -92.61,21.40 -90.73,20.30 -88.86,19.20 -84.84,17.39 -80.83,15.58 -78.29,14.34 -75.74,13.11 -73.03,11.78 -70.32,10.44 -64.98,8.00 -59.65,5.56 -56.15,4.62 -52.65,3.68 -49.29,2.67 -45.93,1.66 -42.53,1.01 -39.12,0.35 -36.85,-0.19 -34.58,-0.74 -32.25,-1.29 -29.92,-1.84 -25.62,-2.86 -21.33,-3.88 -17.36,-4.60 -13.39,-5.32 -9.89,-5.15 -6.38,-4.99 -3.19,-5.06 0,-5.13 0.61,-5.05 1.22,-4.98 1.80,-4.76 2.38,-4.54 2.89,-4.19 3.40,-3.84 3.81,-3.37 4.22,-2.91 4.51,-2.36 4.79,-1.81 4.94,-1.21 5.09,-0.61 5.09,0.00 5.09,0.61 4.94,1.21 4.79,1.81 4.51,2.36 4.22,2.91 3.81,3.37 3.40,3.84 2.89,4.19 2.38,4.54 1.80,4.76 1.22,4.98 0.61,5.05 -0.00,5.13 -0.00,5.13 L 0,5.13 Z"></path></g><g stroke-linecap="round"><g transform="translate(231.1111111111111 56.66666666666697) rotate(0 -44.32057956386774 146.14831698598937)"><path d="M0.07 -0.16 C-14.9 48.61, -73.83 243.56, -88.71 292.46" stroke="#e67700" stroke-width="2.5" fill="none" stroke-dasharray="8 10"></path></g></g><mask></mask><g stroke-linecap="round"><g transform="translate(186.66666666666652 191.1111111111113) rotate(0 -60.448416936438946 -19.000605510961805)"><path d="M-1.14 0.37 C-21.18 -6, -100.2 -32.02, -119.76 -38.38" stroke="#e67700" stroke-width="2.5" fill="none" stroke-dasharray="8 10"></path></g><g transform="translate(186.66666666666652 191.1111111111113) rotate(0 -60.448416936438946 -19.000605510961805)"><path d="M-89.15 -40.81 C-99.19 -38.69, -108.45 -38.11, -121.7 -40.22" stroke="#e67700" stroke-width="2.5" fill="none"></path></g><g transform="translate(186.66666666666652 191.1111111111113) rotate(0 -60.448416936438946 -19.000605510961805)"><path d="M-95.54 -21.31 C-103.36 -25.8, -110.44 -31.9, -121.7 -40.22" stroke="#e67700" stroke-width="2.5" fill="none"></path></g></g><mask></mask><g transform="translate(201.02085452609572 182.22222222222217) rotate(0 7.868034362792969 17.5)"><text x="7.868034362792969" y="0" font-family="Virgil, Segoe UI Emoji" font-size="28px" fill="#e67700" text-anchor="middle" style="white-space: pre;" direction="ltr" dominant-baseline="text-before-edge">x</text></g><g stroke-opacity="0.9" fill-opacity="0.9" transform="translate(43.33333333333326 103.33333333333348) rotate(0 8.888888888888914 8.888888888888687)" stroke="none"><path fill="#2b8a3e" d="M -0.45,-2.25 Q -0.45,-2.25 1.14,-2.56 2.73,-2.86 4.13,-3.51 5.53,-4.15 7.26,-4.80 9.00,-5.46 10.97,-6.25 12.93,-7.04 14.39,-7.77 15.85,-8.49 16.90,-8.92 17.94,-9.34 19.82,-9.99 21.70,-10.64 22.67,-10.13 23.65,-9.63 24.12,-8.33 24.59,-7.03 24.66,-5.61 24.74,-4.20 24.78,-2.99 24.82,-1.78 24.85,-0.63 24.88,0.51 24.50,2.57 24.13,4.63 23.67,6.88 23.22,9.13 22.69,10.58 22.17,12.03 21.60,13.37 21.03,14.71 20.39,16.81 19.75,18.91 19.17,20.32 18.59,21.72 17.89,23.25 17.18,24.78 15.16,26.77 13.14,28.75 11.08,26.91 9.02,25.07 7.42,22.72 5.82,20.37 5.29,19.28 4.75,18.19 3.57,16.94 2.40,15.69 1.59,14.33 0.78,12.98 -0.21,12.46 -1.21,11.94 -2.06,10.77 -2.92,9.61 -3.90,8.52 -4.89,7.42 -5.42,6.40 -5.95,5.38 -6.54,4.26 -7.12,3.14 -7.14,2.75 -7.16,2.36 -7.09,1.97 -7.02,1.58 -6.85,1.22 -6.69,0.87 -6.45,0.56 -6.20,0.25 -5.89,0.01 -5.58,-0.22 -5.22,-0.38 -4.86,-0.54 -4.47,-0.61 -4.08,-0.68 -3.69,-0.65 -3.30,-0.63 -2.92,-0.51 -2.55,-0.39 -2.21,-0.18 -1.87,0.01 -1.60,0.29 -1.32,0.57 -1.12,0.91 -0.92,1.25 -0.80,1.63 -0.69,2.00 -1.11,-0.15 -1.53,-2.32 -1.12,-2.50 -0.70,-2.69 -0.26,-2.73 0.18,-2.77 0.62,-2.67 1.06,-2.57 1.44,-2.33 1.82,-2.09 2.11,-1.75 2.40,-1.40 2.56,-0.98 2.72,-0.56 2.74,-0.11 2.76,0.33 2.63,0.76 2.51,1.20 2.25,1.57 1.99,1.94 1.63,2.20 1.27,2.47 0.84,2.61 0.41,2.75 -0.03,2.74 -0.48,2.74 -0.91,2.59 -1.33,2.44 -1.69,2.16 -2.04,1.88 -2.29,1.51 -2.54,1.13 -2.65,0.69 -2.77,0.26 -2.74,-0.18 -2.70,-0.63 -2.53,-1.05 -2.36,-1.46 -2.06,-1.80 -1.77,-2.14 -1.38,-2.37 -0.99,-2.59 -0.55,-2.68 -0.11,-2.78 0.33,-2.72 0.78,-2.67 1.18,-2.47 1.59,-2.28 1.91,-1.96 2.23,-1.65 2.44,-1.25 2.64,-0.85 2.71,-0.40 2.78,0.03 2.70,0.48 2.62,0.92 2.40,1.31 2.19,1.71 1.86,2.01 1.53,2.32 1.53,2.32 1.53,2.32 -2.79,2.73 -7.12,3.14 -7.14,2.75 -7.16,2.36 -7.09,1.97 -7.02,1.58 -6.85,1.22 -6.69,0.87 -6.45,0.56 -6.20,0.25 -5.89,0.01 -5.58,-0.22 -5.22,-0.38 -4.86,-0.54 -4.47,-0.61 -4.08,-0.68 -3.69,-0.65 -3.30,-0.63 -2.92,-0.51 -2.55,-0.39 -2.21,-0.18 -1.87,0.01 -1.60,0.29 -1.32,0.57 -1.12,0.91 -0.92,1.25 -0.80,1.62 -0.69,2.00 -0.56,1.91 -0.43,1.82 0.29,3.17 1.02,4.53 2.11,6.04 3.21,7.55 4.19,8.23 5.17,8.91 5.77,10.09 6.38,11.26 6.97,12.31 7.57,13.36 9.01,15.24 10.45,17.12 11.48,18.39 12.51,19.67 13.26,21.32 14.00,22.97 12.70,22.98 11.40,22.99 12.23,22.08 13.06,21.18 13.63,19.71 14.20,18.24 14.82,16.87 15.45,15.51 15.75,14.09 16.06,12.67 16.54,11.50 17.02,10.33 17.77,7.98 18.52,5.63 19.03,3.09 19.53,0.55 19.54,-0.57 19.56,-1.69 19.56,-2.85 19.56,-4.00 20.38,-5.15 21.21,-6.29 19.37,-5.62 17.54,-4.96 16.03,-4.27 14.53,-3.58 12.54,-2.54 10.55,-1.51 8.97,-0.86 7.40,-0.21 5.52,0.68 3.65,1.58 2.05,1.92 0.45,2.25 0.17,2.28 -0.10,2.30 -0.37,2.25 -0.64,2.21 -0.90,2.10 -1.15,1.99 -1.38,1.82 -1.60,1.65 -1.77,1.43 -1.95,1.22 -2.06,0.97 -2.18,0.72 -2.24,0.44 -2.29,0.17 -2.28,-0.10 -2.27,-0.37 -2.19,-0.64 -2.11,-0.91 -1.97,-1.15 -1.83,-1.39 -1.64,-1.59 -1.44,-1.79 -1.21,-1.93 -0.97,-2.08 -0.71,-2.17 -0.45,-2.25 -0.45,-2.25 L -0.45,-2.25 Z"></path></g><g stroke-opacity="0.9" fill-opacity="0.9" transform="translate(82.22222222222217 78.88888888888914) rotate(0 -5.555555555555543 31.111111111111086)" stroke="none"><path fill="#2b8a3e" d="M 1.61,1.61 Q 1.61,1.61 1.02,2.29 0.42,2.96 -0.04,4.16 -0.52,5.37 -0.59,7.14 -0.66,8.90 -0.84,11.13 -1.03,13.35 -1.11,15.26 -1.19,17.17 -1.16,18.62 -1.13,20.07 -1.09,21.33 -1.04,22.58 -1.00,23.76 -0.95,24.93 -0.87,26.48 -0.78,28.04 -1.18,29.17 -1.59,30.31 -1.58,31.71 -1.58,33.11 -1.97,34.52 -2.37,35.93 -2.50,37.78 -2.62,39.63 -2.60,41.02 -2.58,42.41 -2.57,44.33 -2.55,46.26 -2.56,47.33 -2.56,48.41 -2.54,50.20 -2.53,52.00 -2.95,53.29 -3.37,54.58 -3.96,56.02 -4.55,57.46 -5.17,59.80 -5.79,62.14 -7.78,63.69 -9.77,65.23 -10.29,65.36 -10.80,65.50 -11.33,65.46 -11.87,65.42 -12.36,65.22 -12.85,65.01 -13.25,64.66 -13.65,64.31 -13.92,63.85 -14.19,63.39 -14.29,62.87 -14.40,62.34 -14.33,61.81 -14.27,61.28 -14.03,60.80 -13.80,60.32 -13.43,59.94 -13.06,59.56 -12.58,59.32 -12.11,59.08 -11.58,59.00 -11.05,58.92 -10.53,59.02 -10.00,59.11 -9.54,59.37 -9.07,59.63 -8.71,60.02 -8.35,60.41 -8.13,60.90 -7.92,61.39 -7.87,61.92 -7.82,62.45 -7.94,62.97 -8.07,63.49 -8.35,63.94 -8.63,64.39 -9.04,64.73 -9.45,65.07 -9.95,65.26 -10.45,65.45 -10.98,65.47 -11.52,65.49 -12.03,65.34 -12.54,65.18 -12.97,64.88 -13.41,64.57 -13.73,64.14 -14.04,63.71 -14.20,63.21 -14.37,62.70 -14.36,62.16 -14.35,61.63 -14.17,61.13 -13.99,60.63 -13.66,60.21 -13.33,59.79 -12.89,59.50 -12.44,59.20 -12.44,59.21 -12.44,59.21 -11.68,59.02 -10.92,58.83 -10.76,57.45 -10.60,56.07 -10.04,54.99 -9.48,53.90 -9.03,52.85 -8.57,51.79 -8.56,50.10 -8.54,48.40 -8.54,47.32 -8.54,46.25 -8.51,44.28 -8.49,42.31 -8.39,40.81 -8.30,39.31 -8.22,38.10 -8.14,36.89 -7.63,34.82 -7.13,32.75 -7.04,31.62 -6.95,30.48 -6.41,29.12 -5.88,27.76 -5.79,26.34 -5.70,24.93 -5.66,23.75 -5.61,22.58 -5.56,21.32 -5.51,20.06 -5.48,18.61 -5.45,17.15 -5.51,15.23 -5.57,13.31 -5.72,11.03 -5.86,8.75 -5.83,7.02 -5.81,5.30 -5.18,3.52 -4.55,1.75 -3.76,0.67 -2.98,-0.41 -2.29,-1.01 -1.61,-1.61 -1.39,-1.78 -1.18,-1.95 -0.92,-2.06 -0.67,-2.17 -0.40,-2.22 -0.13,-2.27 0.13,-2.26 0.41,-2.24 0.67,-2.16 0.93,-2.08 1.17,-1.93 1.40,-1.79 1.60,-1.60 1.79,-1.40 1.93,-1.17 2.08,-0.93 2.16,-0.67 2.24,-0.41 2.26,-0.13 2.27,0.13 2.22,0.40 2.17,0.67 2.06,0.93 1.95,1.18 1.78,1.39 1.61,1.61 1.61,1.61 L 1.61,1.61 Z"></path></g><g stroke-opacity="0.9" fill-opacity="0.9" transform="translate(64.44444444444434 105.55555555555566) rotate(0 9.444444444444457 -1.6666666666667425)" stroke="none"><path fill="#2b8a3e" d="M 0,-2.66 Q 0,-2.66 1.27,-2.66 2.55,-2.66 4.02,-2.72 5.50,-2.77 7.07,-3.58 8.64,-4.39 10.70,-4.75 12.76,-5.12 13.89,-5.62 15.03,-6.13 16.88,-6.30 18.74,-6.47 19.24,-6.41 19.75,-6.35 20.21,-6.13 20.67,-5.92 21.03,-5.56 21.40,-5.21 21.63,-4.76 21.87,-4.31 21.95,-3.81 22.03,-3.31 21.94,-2.80 21.85,-2.30 21.61,-1.86 21.37,-1.41 21.00,-1.06 20.63,-0.72 20.17,-0.51 19.70,-0.29 19.20,-0.24 18.69,-0.19 18.20,-0.31 17.70,-0.42 17.27,-0.68 16.83,-0.95 16.51,-1.34 16.18,-1.73 16.00,-2.20 15.81,-2.68 15.79,-3.18 15.76,-3.69 15.90,-4.18 16.04,-4.67 16.33,-5.09 16.62,-5.51 17.03,-5.81 17.43,-6.11 17.92,-6.27 18.40,-6.43 18.91,-6.43 19.41,-6.43 19.90,-6.26 20.38,-6.09 20.78,-5.78 21.18,-5.47 21.46,-5.05 21.75,-4.63 21.88,-4.14 22.01,-3.65 21.98,-3.14 21.95,-2.63 21.76,-2.16 21.56,-1.69 21.23,-1.30 20.90,-0.92 20.46,-0.66 20.03,-0.40 19.53,-0.30 19.03,-0.19 19.03,-0.19 19.03,-0.19 17.42,-0.12 15.81,-0.05 14.59,0.40 13.36,0.87 12.15,0.96 10.95,1.06 9.57,1.48 8.18,1.91 6.99,2.34 5.80,2.77 4.17,2.72 2.55,2.66 1.27,2.66 0,2.66 -0.31,2.62 -0.63,2.58 -0.93,2.46 -1.23,2.35 -1.50,2.17 -1.76,1.99 -1.97,1.75 -2.18,1.51 -2.33,1.22 -2.48,0.94 -2.56,0.63 -2.64,0.32 -2.64,-0.00 -2.64,-0.32 -2.56,-0.63 -2.48,-0.94 -2.33,-1.22 -2.18,-1.51 -1.97,-1.75 -1.76,-1.99 -1.49,-2.17 -1.23,-2.35 -0.93,-2.46 -0.63,-2.58 -0.31,-2.62 0.00,-2.66 0.00,-2.66 L 0,-2.66 Z"></path></g><g stroke-opacity="0.9" fill-opacity="0.9" transform="translate(96.66666666666652 96.66666666666697) rotate(0 -5.555555555555543 11.666666666666515)" stroke="none"><path fill="#2b8a3e" d="M 0.63,2.55 Q 0.63,2.55 -0.63,2.86 -1.90,3.18 -3.44,4.07 -4.99,4.96 -5.85,6.37 -6.72,7.77 -7.36,8.64 -8.01,9.50 -8.60,10.71 -9.19,11.91 -9.15,13.14 -9.11,14.37 -9.11,16.08 -9.11,17.80 -7.72,18.20 -6.34,18.61 -4.55,19.32 -2.77,20.03 -0.79,20.07 1.18,20.11 1.70,20.20 2.21,20.30 2.66,20.56 3.12,20.81 3.47,21.20 3.82,21.58 4.02,22.06 4.23,22.54 4.27,23.06 4.32,23.58 4.19,24.09 4.07,24.59 3.79,25.03 3.51,25.47 3.11,25.80 2.70,26.13 2.21,26.31 1.72,26.49 1.20,26.51 0.68,26.52 0.18,26.37 -0.31,26.22 -0.73,25.92 -1.16,25.61 -1.46,25.19 -1.77,24.77 -1.92,24.27 -2.08,23.77 -2.06,23.25 -2.05,22.73 -1.87,22.24 -1.69,21.75 -1.37,21.34 -1.04,20.94 -0.60,20.65 -0.17,20.37 0.33,20.24 0.84,20.12 1.35,20.16 1.87,20.20 2.35,20.40 2.83,20.61 3.22,20.96 3.61,21.30 3.87,21.76 4.13,22.21 4.23,22.72 4.33,23.23 4.26,23.75 4.19,24.27 3.96,24.73 3.73,25.20 3.36,25.57 2.99,25.94 2.53,26.17 2.06,26.41 1.54,26.48 1.03,26.55 1.03,26.55 1.03,26.55 -1.47,26.33 -3.98,26.10 -5.24,25.50 -6.50,24.89 -7.54,24.61 -8.57,24.34 -10.08,23.79 -11.58,23.24 -12.60,22.63 -13.62,22.02 -14.29,20.95 -14.96,19.89 -15.13,18.82 -15.31,17.75 -15.27,15.95 -15.23,14.14 -15.02,12.31 -14.80,10.48 -14.10,9.23 -13.41,7.98 -12.40,6.39 -11.39,4.81 -10.63,3.64 -9.86,2.48 -8.72,1.33 -7.59,0.18 -6.56,-0.32 -5.53,-0.83 -4.37,-1.37 -3.21,-1.90 -1.92,-2.22 -0.63,-2.55 -0.32,-2.58 -0.00,-2.62 0.30,-2.59 0.62,-2.55 0.91,-2.44 1.21,-2.33 1.47,-2.15 1.73,-1.97 1.94,-1.73 2.15,-1.50 2.30,-1.22 2.45,-0.94 2.53,-0.63 2.60,-0.32 2.60,-0.00 2.61,0.30 2.53,0.61 2.46,0.92 2.31,1.20 2.16,1.48 1.95,1.72 1.74,1.96 1.48,2.14 1.22,2.32 0.93,2.43 0.63,2.55 0.63,2.55 L 0.63,2.55 Z"></path></g><g stroke-opacity="0.9" fill-opacity="0.9" transform="translate(103.33333333333326 95.55555555555566) rotate(0 9.444444444444457 15.555555555555657)" stroke="none"><path fill="#2b8a3e" d="M 0.89,-2.22 Q 0.89,-2.22 2.47,-1.54 4.05,-0.87 6.02,-0.15 8.00,0.55 9.00,1.65 10.00,2.75 11.29,4.42 12.58,6.09 13.19,7.20 13.80,8.30 14.19,9.72 14.57,11.14 14.54,13.43 14.51,15.73 14.54,17.26 14.58,18.80 14.70,20.51 14.82,22.22 15.40,23.13 15.98,24.04 17.05,25.50 18.11,26.96 19.68,28.12 21.24,29.29 21.47,29.71 21.70,30.14 21.78,30.61 21.86,31.09 21.78,31.56 21.71,32.04 21.49,32.46 21.26,32.89 20.92,33.22 20.57,33.56 20.13,33.76 19.70,33.97 19.22,34.02 18.74,34.08 18.27,33.98 17.80,33.88 17.39,33.63 16.97,33.39 16.66,33.02 16.35,32.66 16.16,32.21 15.98,31.77 15.95,31.29 15.92,30.80 16.05,30.34 16.18,29.88 16.44,29.48 16.71,29.08 17.09,28.78 17.47,28.49 17.93,28.33 18.38,28.17 18.86,28.17 19.35,28.17 19.80,28.32 20.26,28.47 20.64,28.76 21.03,29.05 21.30,29.44 21.57,29.84 21.71,30.30 21.84,30.76 21.82,31.25 21.79,31.73 21.62,32.17 21.44,32.62 21.13,32.99 20.82,33.36 20.41,33.61 20.00,33.86 19.53,33.97 19.06,34.08 18.59,34.03 18.11,33.98 17.67,33.78 17.23,33.58 16.88,33.25 16.53,32.92 16.53,32.92 16.53,32.92 14.59,30.91 12.64,28.89 11.53,27.46 10.42,26.02 10.01,24.15 9.59,22.28 9.66,20.61 9.73,18.94 9.68,17.45 9.63,15.97 9.30,13.41 8.97,10.86 8.46,9.90 7.95,8.95 6.92,7.43 5.89,5.92 5.21,5.03 4.53,4.14 3.43,3.78 2.33,3.42 0.72,2.82 -0.89,2.22 -1.14,2.08 -1.39,1.94 -1.61,1.75 -1.82,1.55 -1.98,1.31 -2.14,1.07 -2.24,0.80 -2.33,0.53 -2.36,0.24 -2.39,-0.04 -2.35,-0.32 -2.31,-0.61 -2.20,-0.88 -2.10,-1.15 -1.93,-1.38 -1.76,-1.62 -1.54,-1.80 -1.32,-1.99 -1.06,-2.12 -0.80,-2.25 -0.52,-2.32 -0.24,-2.38 0.04,-2.37 0.33,-2.37 0.61,-2.30 0.89,-2.22 0.89,-2.22 L 0.89,-2.22 Z"></path></g><g stroke-opacity="0.9" fill-opacity="0.9" transform="translate(123.33333333333326 98.88888888888914) rotate(0 -11.111111111111086 7.222222222222172)" stroke="none"><path fill="#2b8a3e" d="M 0.62,2.50 Q 0.62,2.50 -0.65,2.82 -1.92,3.15 -3.26,3.33 -4.60,3.51 -6.01,4.24 -7.41,4.96 -8.69,5.74 -9.97,6.52 -11.36,7.74 -12.75,8.96 -13.70,9.47 -14.64,9.98 -15.67,11.28 -16.70,12.58 -18.35,14.52 -20.00,16.47 -20.38,16.77 -20.76,17.07 -21.22,17.23 -21.68,17.40 -22.16,17.40 -22.65,17.41 -23.11,17.27 -23.58,17.12 -23.97,16.83 -24.36,16.55 -24.64,16.15 -24.92,15.75 -25.06,15.28 -25.20,14.82 -25.18,14.33 -25.16,13.85 -24.99,13.39 -24.82,12.94 -24.51,12.56 -24.20,12.18 -23.79,11.93 -23.38,11.67 -22.91,11.55 -22.43,11.44 -21.95,11.49 -21.47,11.53 -21.02,11.73 -20.58,11.92 -20.22,12.25 -19.86,12.58 -19.62,13.00 -19.39,13.43 -19.30,13.91 -19.21,14.39 -19.28,14.87 -19.35,15.35 -19.57,15.78 -19.79,16.22 -20.14,16.56 -20.49,16.90 -20.92,17.11 -21.36,17.32 -21.84,17.38 -22.33,17.44 -22.80,17.35 -23.28,17.25 -23.70,17.01 -24.12,16.76 -24.44,16.40 -24.76,16.03 -24.95,15.59 -25.14,15.14 -25.18,14.65 -25.21,14.17 -25.09,13.70 -24.97,13.23 -24.70,12.82 -24.44,12.41 -24.44,12.41 -24.44,12.41 -23.04,10.87 -21.63,9.33 -20.82,8.21 -20.01,7.08 -18.44,5.94 -16.87,4.80 -15.83,4.17 -14.80,3.54 -13.82,2.81 -12.84,2.09 -11.52,1.18 -10.20,0.28 -9.12,-0.28 -8.04,-0.85 -5.61,-1.36 -3.18,-1.87 -1.90,-2.18 -0.62,-2.50 -0.31,-2.54 -0.00,-2.57 0.30,-2.54 0.60,-2.50 0.90,-2.39 1.19,-2.28 1.44,-2.11 1.70,-1.93 1.91,-1.70 2.11,-1.47 2.26,-1.19 2.40,-0.92 2.48,-0.62 2.55,-0.31 2.56,-0.00 2.56,0.30 2.48,0.60 2.41,0.90 2.27,1.18 2.12,1.45 1.92,1.69 1.71,1.92 1.46,2.10 1.20,2.28 0.91,2.39 0.62,2.50 0.62,2.50 L 0.62,2.50 Z"></path></g><g stroke-opacity="0.9" fill-opacity="0.9" transform="translate(130 98.88888888888914) rotate(0 5.555555555555543 7.777777777777601)" stroke="none"><path fill="#2b8a3e" d="M 1.10,-2.21 Q 1.10,-2.21 2.95,-1.11 4.80,-0.02 6.38,1.13 7.96,2.29 9.56,3.33 11.16,4.37 12.13,5.20 13.09,6.04 13.18,8.08 13.26,10.12 12.37,11.35 11.49,12.59 10.01,13.63 8.53,14.67 6.99,15.20 5.46,15.73 2.99,17.21 0.51,18.69 0.00,18.69 -0.51,18.69 -1.00,18.53 -1.49,18.36 -1.90,18.05 -2.31,17.74 -2.59,17.31 -2.88,16.89 -3.02,16.39 -3.16,15.90 -3.13,15.38 -3.10,14.87 -2.91,14.39 -2.72,13.91 -2.39,13.52 -2.06,13.13 -1.61,12.86 -1.17,12.59 -0.67,12.48 -0.17,12.37 0.33,12.43 0.85,12.48 1.31,12.70 1.78,12.92 2.15,13.27 2.53,13.62 2.77,14.08 3.01,14.53 3.09,15.04 3.18,15.55 3.09,16.06 3.01,16.57 2.77,17.02 2.53,17.48 2.16,17.83 1.78,18.18 1.31,18.40 0.85,18.62 0.33,18.67 -0.17,18.73 -0.67,18.62 -1.17,18.51 -1.61,18.24 -2.06,17.98 -2.39,17.58 -2.72,17.19 -2.91,16.71 -3.10,16.23 -3.13,15.72 -3.16,15.21 -3.02,14.71 -2.88,14.21 -2.59,13.79 -2.31,13.36 -1.90,13.05 -1.49,12.74 -1.00,12.57 -0.51,12.41 -0.51,12.41 -0.51,12.41 0.24,12.32 1.00,12.22 2.31,11.22 3.63,10.21 5.10,9.78 6.57,9.35 7.84,8.85 9.11,8.34 8.34,7.60 7.56,6.85 6.54,6.29 5.51,5.72 4.18,4.79 2.85,3.85 0.87,3.03 -1.10,2.21 -1.35,2.04 -1.60,1.88 -1.80,1.66 -2.00,1.44 -2.14,1.18 -2.29,0.92 -2.37,0.63 -2.44,0.34 -2.45,0.04 -2.45,-0.24 -2.39,-0.54 -2.32,-0.83 -2.19,-1.09 -2.06,-1.36 -1.86,-1.59 -1.67,-1.81 -1.43,-1.99 -1.19,-2.16 -0.91,-2.27 -0.63,-2.38 -0.34,-2.42 -0.04,-2.47 0.24,-2.44 0.54,-2.41 0.82,-2.31 1.10,-2.21 1.10,-2.21 L 1.10,-2.21 Z"></path></g><g stroke-opacity="0.9" fill-opacity="0.9" transform="translate(10 127.77777777777783) rotate(0 10.555555555555543 -5.555555555555429)" stroke="none"><path fill="#2b8a3e" d="M -0.36,-2.21 Q -0.36,-2.21 1.55,-2.45 3.47,-2.70 5.02,-3.35 6.58,-4.00 8.22,-4.88 9.87,-5.76 11.63,-6.52 13.40,-7.28 14.15,-8.12 14.90,-8.95 16.06,-9.82 17.22,-10.68 18.46,-11.77 19.69,-12.86 20.01,-13.04 20.33,-13.22 20.68,-13.29 21.04,-13.36 21.40,-13.31 21.77,-13.26 22.09,-13.10 22.42,-12.94 22.68,-12.68 22.94,-12.42 23.10,-12.10 23.26,-11.77 23.31,-11.41 23.36,-11.05 23.29,-10.69 23.22,-10.33 23.05,-10.01 22.87,-9.69 22.59,-9.45 22.32,-9.21 21.99,-9.06 21.65,-8.92 21.29,-8.89 20.92,-8.86 20.57,-8.95 20.22,-9.03 19.91,-9.23 19.60,-9.43 19.37,-9.71 19.14,-9.99 19.02,-10.34 18.89,-10.68 18.88,-11.04 18.87,-11.41 18.98,-11.76 19.08,-12.11 19.30,-12.40 19.51,-12.70 19.81,-12.91 20.10,-13.13 20.45,-13.23 20.80,-13.34 21.16,-13.33 21.53,-13.32 21.87,-13.20 22.21,-13.07 22.50,-12.84 22.78,-12.61 22.98,-12.31 23.18,-12.00 23.27,-11.64 23.35,-11.29 23.33,-10.93 23.30,-10.56 23.15,-10.23 23.01,-9.89 22.76,-9.62 22.52,-9.35 22.52,-9.35 22.52,-9.35 21.05,-8.26 19.58,-7.17 18.58,-6.59 17.59,-6.01 16.26,-4.95 14.94,-3.88 13.33,-3.18 11.73,-2.48 9.95,-1.42 8.17,-0.36 6.18,0.52 4.19,1.42 2.28,1.81 0.36,2.21 0.09,2.22 -0.17,2.23 -0.43,2.18 -0.70,2.13 -0.94,2.01 -1.19,1.90 -1.40,1.73 -1.61,1.56 -1.77,1.34 -1.93,1.12 -2.04,0.88 -2.15,0.63 -2.19,0.36 -2.24,0.09 -2.22,-0.17 -2.20,-0.44 -2.11,-0.69 -2.03,-0.95 -1.88,-1.18 -1.74,-1.41 -1.54,-1.60 -1.35,-1.78 -1.12,-1.92 -0.88,-2.06 -0.62,-2.13 -0.36,-2.21 -0.36,-2.21 L -0.36,-2.21 Z"></path></g></svg>