<svg version="1.1" xmlns="http://www.w3.org/2000/svg" viewBox="0 0 1001.7121211984698 364.1984756475931" width="1001.7121211984698" height="364.1984756475931">
  <!-- svg-source:excalidraw -->
  
  <defs>
    <style class="style-fonts">
      @font-face {
        font-family: "Virgil";
        src: url("https://excalidraw.com/Virgil.woff2");
      }
      @font-face {
        font-family: "Cascadia";
        src: url("https://excalidraw.com/Cascadia.woff2");
      }
    </style>
  </defs>
  <rect x="0" y="0" width="1001.7121211984698" height="364.1984756475931" fill="#ffffff"></rect><g stroke-opacity="0.9" fill-opacity="0.9" stroke-linecap="round" transform="translate(499.2390445166367 30.089409640864687) rotate(0 150.43970299288446 162.0545330033642)"><path d="M25.25 135.9 C25.25 135.9, 25.25 135.9, 25.25 135.9 M25.25 135.9 C25.25 135.9, 25.25 135.9, 25.25 135.9 M9.9 159.66 C35.52 130.16, 59.48 103.69, 112.91 41.17 M9.9 159.66 C39.86 123.3, 71.11 87.44, 112.91 41.17 M10.95 164.55 C61.57 105.26, 114.66 46.86, 140.85 15.12 M10.95 164.55 C57.3 113.38, 101.18 61.96, 140.85 15.12 M11.35 170.19 C40.86 138.38, 68.77 106.4, 148.47 12.46 M11.35 170.19 C46.82 128.24, 83.4 85.57, 148.47 12.46 M13.71 173.57 C65.36 114.9, 115.2 57.66, 153.45 12.82 M13.71 173.57 C61.36 117.79, 109.92 62.67, 153.45 12.82 M16.73 176.2 C52.64 130.93, 91.82 88.77, 159.1 12.42 M16.73 176.2 C59.8 127.15, 103.11 78.02, 159.1 12.42 M19.09 179.57 C50.87 145.01, 82.83 108.57, 162.11 15.05 M19.09 179.57 C67.91 124.73, 115.24 68.89, 162.11 15.05 M21.46 182.95 C68.35 130.57, 113.6 77.07, 165.13 17.67 M21.46 182.95 C64.23 132.46, 109.3 80.73, 165.13 17.67 M23.82 186.33 C60.07 147.85, 93.87 108.37, 168.15 20.3 M23.82 186.33 C55.7 150.47, 87.04 114.31, 168.15 20.3 M25.53 190.47 C67.68 145.33, 105.82 97.13, 171.17 22.92 M25.53 190.47 C73.23 133.57, 122.89 77.39, 171.17 22.92 M28.54 193.09 C87.62 127.47, 144.54 60.15, 174.19 25.54 M28.54 193.09 C70.88 144.49, 113.91 93.79, 174.19 25.54 M30.91 196.47 C73.69 150.32, 114.54 101.53, 177.21 28.17 M30.91 196.47 C68.96 151.99, 108.2 109.59, 177.21 28.17 M33.93 199.09 C83.32 145.22, 129.67 89.13, 179.57 31.55 M33.93 199.09 C87.27 137.24, 140.53 76.23, 179.57 31.55 M36.29 202.47 C80.97 148.48, 125.54 96.74, 182.59 34.17 M36.29 202.47 C80.31 149.91, 126.3 98.47, 182.59 34.17 M39.31 205.1 C96.04 138.93, 152.98 74.59, 185.61 36.8 M39.31 205.1 C70.99 168.29, 104.06 132.62, 185.61 36.8 M42.33 207.72 C96.47 144.06, 150.84 78.5, 187.97 40.18 M42.33 207.72 C97.67 144.98, 153.25 81.85, 187.97 40.18 M44.69 211.1 C96.24 149.7, 147.82 89.83, 190.99 42.8 M44.69 211.1 C93.78 153.49, 143.13 95.75, 190.99 42.8 M47.71 213.72 C92.59 160.31, 135.64 108.86, 194.01 45.42 M47.71 213.72 C88.28 166.26, 126.55 121.96, 194.01 45.42 M50.07 217.1 C99.84 156.31, 151.35 97.42, 196.37 48.8 M50.07 217.1 C81.44 181.54, 113.3 145.98, 196.37 48.8 M53.09 219.73 C108.64 155.11, 163.28 92.56, 199.39 51.43 M53.09 219.73 C91.38 175.48, 130.17 129.76, 199.39 51.43 M56.11 222.35 C100.23 170.61, 145.09 119.57, 201.75 54.81 M56.11 222.35 C89.5 184.68, 122.24 147.86, 201.75 54.81 M58.47 225.73 C96.34 179.42, 138.94 131.53, 204.77 57.43 M58.47 225.73 C110.94 164.93, 164.86 101.79, 204.77 57.43 M61.49 228.35 C105.07 178.06, 147.01 126.97, 207.14 60.81 M61.49 228.35 C111.25 170.69, 158.7 115.67, 207.14 60.81 M64.51 230.98 C111.98 174.24, 160.1 118.55, 210.15 63.43 M64.51 230.98 C99.9 191.04, 135.37 149.89, 210.15 63.43 M66.87 234.36 C102.45 195.85, 136.05 155.69, 212.52 66.81 M66.87 234.36 C98.64 197.66, 129.26 161.56, 212.52 66.81 M69.89 236.98 C109.95 190.22, 152.13 143.3, 215.54 69.44 M69.89 236.98 C112.87 187.35, 156.37 138.34, 215.54 69.44 M72.25 240.36 C122.91 182.83, 170.62 128.8, 217.9 72.82 M72.25 240.36 C120.34 184.04, 170.19 127.63, 217.9 72.82 M75.27 242.99 C124.38 185.18, 174.85 127.07, 220.92 75.44 M75.27 242.99 C128.87 181.23, 182.27 120.36, 220.92 75.44 M78.29 245.61 C121.22 198.46, 159.65 152.82, 223.28 78.82 M78.29 245.61 C114.03 204.64, 150.06 161.99, 223.28 78.82 M80.65 248.99 C123.66 199.27, 163.9 148.02, 226.3 81.44 M80.65 248.99 C119.12 206.21, 155.87 163.82, 226.3 81.44 M83.67 251.61 C119.49 208.75, 152.93 169.35, 229.32 84.07 M83.67 251.61 C129.27 198.88, 174.89 146.3, 229.32 84.07 M86.04 254.99 C116.59 219.39, 145.57 185.1, 231.68 87.45 M86.04 254.99 C116.15 221.74, 144.86 187.46, 231.68 87.45 M89.05 257.62 C126.18 216.03, 163.3 173.14, 234.7 90.07 M89.05 257.62 C143.37 193.37, 199.24 127.84, 234.7 90.07 M92.07 260.24 C140.34 203.79, 189.22 149.22, 237.06 93.45 M92.07 260.24 C147.85 194.22, 204.47 129.45, 237.06 93.45 M94.44 263.62 C133.89 220.62, 170.45 175.67, 240.08 96.07 M94.44 263.62 C136.1 214.2, 178.75 166.75, 240.08 96.07 M97.46 266.24 C126.15 232.4, 156.75 197.11, 242.44 99.45 M97.46 266.24 C132.16 225.07, 167.92 182.8, 242.44 99.45 M99.82 269.62 C137.51 226.24, 173.48 184.45, 245.46 102.08 M99.82 269.62 C158.32 204.37, 214.33 139.56, 245.46 102.08 M102.84 272.25 C150.12 218.37, 195.71 166.99, 247.83 105.46 M102.84 272.25 C155.85 212.57, 206.83 153.29, 247.83 105.46 M105.86 274.87 C150.8 222.67, 197.8 168.98, 250.84 108.08 M105.86 274.87 C135.22 241.5, 164.31 207.54, 250.84 108.08 M108.22 278.25 C144.84 235.47, 182.9 191.13, 253.21 111.46 M108.22 278.25 C155.72 223.11, 203.28 166.5, 253.21 111.46 M111.24 280.87 C144.85 245.6, 175.48 210.21, 256.23 114.08 M111.24 280.87 C166.3 219.45, 219.84 157.01, 256.23 114.08 M113.6 284.25 C144.82 248.88, 176.77 214.71, 258.59 117.46 M113.6 284.25 C161.48 227.66, 210.03 171.62, 258.59 117.46 M116.62 286.88 C144.94 251.79, 178.64 216.34, 261.61 120.09 M116.62 286.88 C163.32 234, 209.3 181.07, 261.61 120.09 M119.64 289.5 C151.77 255.12, 181.07 218.02, 263.97 123.47 M119.64 289.5 C176.16 222.31, 232.6 158.22, 263.97 123.47 M122 292.88 C150.86 260.62, 178.76 224.08, 266.99 126.09 M122 292.88 C174.11 233.95, 227.59 174.12, 266.99 126.09 M125.02 295.5 C166.87 250.63, 205.94 202.41, 269.35 129.47 M125.02 295.5 C161.29 255.33, 197.7 212.56, 269.35 129.47 M128.04 298.13 C157.62 263.11, 191.44 224.63, 272.37 132.09 M128.04 298.13 C158.41 259.84, 190.7 222.85, 272.37 132.09 M130.4 301.51 C176.61 243.71, 224.99 188.3, 275.39 134.72 M130.4 301.51 C176.43 248.76, 221.42 196.31, 275.39 134.72 M133.42 304.13 C179.48 254.37, 224.23 201.88, 277.75 138.1 M133.42 304.13 C179.47 252.52, 224.97 200.89, 277.75 138.1 M136.44 306.76 C171.26 262.36, 207.6 220.85, 280.77 140.72 M136.44 306.76 C184.33 252.71, 231.87 197.72, 280.77 140.72 M139.46 309.38 C178.88 264.34, 220.08 217.47, 283.13 144.1 M139.46 309.38 C172.6 269.2, 206.94 230.7, 283.13 144.1 M142.48 312 C171.7 276.03, 201.23 243.4, 285.5 147.48 M142.48 312 C182.1 263.9, 222.96 218.23, 285.5 147.48 M146.15 313.87 C192.09 260.4, 239.58 203.46, 287.86 150.86 M146.15 313.87 C188.57 264.97, 231.25 216.68, 287.86 150.86 M149.83 315.74 C195.53 262.05, 241.7 209.22, 290.22 154.24 M149.83 315.74 C196.04 262.78, 240.39 212.2, 290.22 154.24 M158.09 312.33 C187.21 277.8, 217 242.07, 292.59 157.61 M158.09 312.33 C186.11 280.61, 213.88 248.6, 292.59 157.61 M176.86 296.84 C207.77 258.6, 239.74 223.94, 292.98 163.26 M176.86 296.84 C205.12 266.06, 231.87 234.04, 292.98 163.26 M255.32 212.67 C268.26 200.79, 276.15 187.76, 288.13 174.94 M255.32 212.67 C265.71 200.41, 277.8 186.18, 288.13 174.94 M140.11 309.82 C140.11 309.82, 140.11 309.82, 140.11 309.82 M140.11 309.82 C140.11 309.82, 140.11 309.82, 140.11 309.82 M148.77 312.05 C141.4 304.04, 132.73 299.34, 128.39 294.33 M148.77 312.05 C142.03 306.66, 136.38 300.66, 128.39 294.33 M153.66 311 C140.41 297.86, 128.15 290.35, 100.07 264.42 M153.66 311 C131.89 293.25, 111.65 273.66, 100.07 264.42 M159.3 310.6 C139.88 294.49, 119.34 274.82, 72.51 235.16 M159.3 310.6 C128.83 285.18, 99.19 259.51, 72.51 235.16 M162.68 308.24 C132.94 283.17, 101.05 256.99, 26.08 189.49 M162.68 308.24 C113.4 267.64, 64.67 224.32, 26.08 189.49 M165.3 305.22 C130.59 275.57, 90.89 242.98, 15.12 174.66 M165.3 305.22 C107 254.09, 47.66 204.95, 15.12 174.66 M168.68 302.86 C123.44 261.85, 76.28 223, 13.97 168.37 M168.68 302.86 C113.15 252.68, 56.32 204.64, 13.97 168.37 M172.06 300.5 C128.95 261.81, 88.86 227.18, 12.82 162.07 M172.06 300.5 C110.44 247.34, 48.08 193.99, 12.82 162.07 M174.69 297.48 C140.39 269.48, 107.19 239.35, 12.42 156.42 M174.69 297.48 C120.5 251.4, 65.15 204.46, 12.42 156.42 M178.07 295.11 C121.29 249.18, 69.04 201.73, 14.29 152.75 M178.07 295.11 C127.35 251.61, 75.16 207.08, 14.29 152.75 M180.69 292.09 C126.81 244.23, 70.7 196.52, 15.41 148.42 M180.69 292.09 C142.1 258.13, 106.39 227.07, 15.41 148.42 M183.31 289.08 C134.04 248, 85.56 205.1, 18.03 145.4 M183.31 289.08 C143.85 255.37, 106.25 222.07, 18.03 145.4 M185.94 286.06 C140.68 245.9, 97.39 208.75, 20.66 142.38 M185.94 286.06 C131.66 239.87, 77.89 191.98, 20.66 142.38 M188.56 283.04 C132.82 233.11, 72.62 179.85, 23.28 139.36 M188.56 283.04 C155.16 253.67, 121.31 223.26, 23.28 139.36 M191.19 280.02 C143.16 242.01, 97.86 201.8, 25.15 135.69 M191.19 280.02 C156.99 250.22, 123.36 221.63, 25.15 135.69 M193.81 277 C142.93 234.09, 94.25 190.73, 27.78 132.67 M193.81 277 C130.51 219.33, 66.08 163.92, 27.78 132.67 M197.19 274.64 C131.31 215.93, 65.46 160.85, 30.4 129.65 M197.19 274.64 C142.24 226.34, 88.14 178.14, 30.4 129.65 M199.81 271.62 C148.14 229.14, 97.71 184.62, 33.02 126.63 M199.81 271.62 C144.91 224.08, 90.17 175.04, 33.02 126.63 M202.44 268.6 C145.34 219.21, 89.56 169.64, 36.4 124.27 M202.44 268.6 C161.37 234.51, 121.32 198.86, 36.4 124.27 M205.06 265.58 C151.28 221.35, 101.11 176.14, 39.03 121.25 M205.06 265.58 C158.29 222.86, 111.88 182.61, 39.03 121.25 M207.69 262.56 C170.21 229.71, 131.95 196.72, 41.65 118.23 M207.69 262.56 C168.65 229.17, 129.44 195.04, 41.65 118.23 M210.31 259.54 C167.26 223.47, 123.54 185.77, 44.28 115.21 M210.31 259.54 C163.68 218.29, 115.69 176.13, 44.28 115.21 M212.94 256.52 C174.67 223.7, 135.63 189.11, 46.9 112.19 M212.94 256.52 C174.88 225.41, 137.65 193.68, 46.9 112.19 M216.31 254.16 C173.54 220.25, 132.59 184.74, 49.52 109.17 M216.31 254.16 C171.63 213.24, 125.7 174.57, 49.52 109.17 M218.94 251.14 C163.9 206.11, 111.76 161.57, 52.15 106.15 M218.94 251.14 C172 208.43, 124.6 166.6, 52.15 106.15 M221.56 248.12 C160.52 194.14, 102.58 142.8, 54.77 103.14 M221.56 248.12 C157.46 192.28, 93.84 138.09, 54.77 103.14 M224.19 245.11 C172.76 200.17, 121.25 155.85, 58.15 100.77 M224.19 245.11 C168.6 196.67, 110.86 146.68, 58.15 100.77 M226.81 242.09 C179.14 201.34, 132.38 161.2, 60.78 97.75 M226.81 242.09 C188.56 207.2, 148.28 173.38, 60.78 97.75 M229.44 239.07 C187.85 201.09, 148.08 166.27, 63.4 94.73 M229.44 239.07 C187.94 204.06, 148.52 168.69, 63.4 94.73 M232.06 236.05 C191.21 201.37, 152.43 164.71, 66.02 91.72 M232.06 236.05 C190.07 199.42, 145.87 160.68, 66.02 91.72 M235.44 233.69 C198.79 202.27, 162.48 171.97, 68.65 88.7 M235.44 233.69 C184.49 187.22, 132.41 142.41, 68.65 88.7 M238.06 230.67 C192.98 188.73, 145.31 149.49, 71.27 85.68 M238.06 230.67 C174.4 176.35, 110.42 121, 71.27 85.68 M240.69 227.65 C188.21 184.51, 137.31 136.48, 73.9 82.66 M240.69 227.65 C174.94 172.01, 109.84 114.15, 73.9 82.66 M243.31 224.63 C175.4 167.75, 109.81 112.03, 76.52 79.64 M243.31 224.63 C192.78 182.24, 144.82 138.34, 76.52 79.64 M245.94 221.61 C201.12 180.55, 153.16 139.67, 79.9 77.28 M245.94 221.61 C182.4 164.56, 116.8 108.57, 79.9 77.28 M248.56 218.59 C184.07 165.11, 119.73 106.91, 82.52 74.26 M248.56 218.59 C211.93 187.08, 174.41 155.04, 82.52 74.26 M251.18 215.57 C206.25 178.63, 163.5 138.08, 85.15 71.24 M251.18 215.57 C193.77 167.13, 137.18 115.62, 85.15 71.24 M254.56 213.21 C187.06 156.16, 121.48 96.56, 87.77 68.22 M254.56 213.21 C194.37 158.87, 131.48 104.32, 87.77 68.22 M257.19 210.19 C210.03 168.61, 161.9 129.34, 90.4 65.2 M257.19 210.19 C197.71 160.6, 139.87 109.63, 90.4 65.2 M259.81 207.17 C227.5 175.79, 192.2 148.57, 93.02 62.18 M259.81 207.17 C219.22 171.93, 180.44 138.73, 93.02 62.18 M262.44 204.15 C208.62 156.08, 151.82 110.17, 95.65 59.16 M262.44 204.15 C223.8 170.96, 183.17 136.49, 95.65 59.16 M265.06 201.13 C215.8 154.83, 162.98 113.66, 98.27 56.15 M265.06 201.13 C214.63 155.93, 163.25 112.21, 98.27 56.15 M267.68 198.12 C220.2 154.57, 170.66 113.6, 101.65 53.78 M267.68 198.12 C219.97 158.89, 172.77 116.51, 101.65 53.78 M270.31 195.1 C233.3 163.91, 197.26 131.18, 104.27 50.76 M270.31 195.1 C208.54 140.77, 145.32 84.53, 104.27 50.76 M273.69 192.73 C237.88 162, 202.7 127.83, 106.9 47.75 M273.69 192.73 C220.85 144.74, 166.42 98.07, 106.9 47.75 M276.31 189.72 C239.89 156.03, 199.97 124.3, 109.52 44.73 M276.31 189.72 C235.01 153.85, 194.76 117.37, 109.52 44.73 M278.94 186.7 C237.11 149.88, 194.79 111.99, 112.15 41.71 M278.94 186.7 C242.47 154.72, 206.04 122.67, 112.15 41.71 M280.81 183.02 C213.27 122.91, 146.91 67.73, 114.77 38.69 M280.81 183.02 C220.68 130.13, 158.73 77.01, 114.77 38.69 M283.43 180 C232.12 133.4, 181.66 90.82, 117.39 35.67 M283.43 180 C219.08 123.02, 152.04 66.67, 117.39 35.67 M286.05 176.98 C224.91 124.57, 166.62 72.39, 120.77 33.31 M286.05 176.98 C246.35 139.88, 204.64 105.2, 120.77 33.31 M288.68 173.97 C224.32 120.12, 160.5 63.6, 123.4 30.29 M288.68 173.97 C236.62 129.5, 186.06 84.46, 123.4 30.29 M289.79 169.63 C230.09 116.71, 166.38 62.15, 126.02 27.27 M289.79 169.63 C250.46 136.83, 211.63 103.07, 126.02 27.27 M291.66 165.96 C251.59 130.84, 208.03 96.77, 129.4 24.91 M291.66 165.96 C232.82 116.68, 175.5 65.66, 129.4 24.91 M291.27 160.32 C258.55 134.42, 225.54 105.12, 132.02 21.89 M291.27 160.32 C241.05 117.37, 191.68 75, 132.02 21.89 M290.12 154.02 C230.16 101.74, 170.82 52.01, 134.65 18.87 M290.12 154.02 C258.67 124.73, 224.67 95.54, 134.65 18.87 M280.67 140.5 C242.23 107.45, 203.8 74.54, 138.03 16.51 M280.67 140.5 C235.5 101.13, 187.29 59.37, 138.03 16.51 M257.63 115.18 C213.66 78.48, 164.94 36.5, 140.65 13.49 M257.63 115.18 C229.95 89.6, 198.8 63.57, 140.65 13.49 M234.6 89.85 C207.66 66.36, 182.94 44.47, 144.79 11.78 M234.6 89.85 C202.27 62.35, 170.73 35.57, 144.79 11.78 M211.56 64.53 C198.61 53.5, 186.31 42.78, 148.92 10.07 M211.56 64.53 C190.94 46.03, 170.62 27.85, 148.92 10.07 M189.28 39.86 C179.82 31.46, 172.76 25.82, 153.05 8.37 M189.28 39.86 C177.94 29.98, 166.33 20.08, 153.05 8.37" stroke="#b2f2bb" stroke-width="0.5" fill="none"></path><path d="M188.75 40.75 M188.75 40.75 C212.62 67.91, 235.83 90.35, 263.13 122.25 M263.13 122.25 C299.59 163.43, 298.9 161.49, 263.13 203.75 M263.13 203.75 C231.92 234.32, 203.22 269.57, 188.75 283.36 M188.75 283.36 C149.13 322.56, 151.1 322.24, 113.25 283.36 M113.25 283.36 C85.84 255.3, 62.54 229.84, 37.75 203.75 M37.75 203.75 C-0.12 163.66, -0.95 163.76, 37.75 122.25 M37.75 122.25 C57.21 101.86, 76.8 78.31, 113.25 40.75 M113.25 40.75 C151.69 -1, 152.78 -1.43, 188.75 40.75" stroke="#2b8a3e" stroke-width="1.5" fill="none" stroke-dasharray="8 9"></path></g><g stroke-opacity="0.9" fill-opacity="0.9" stroke-linecap="round" transform="translate(9.999999999999943 10) rotate(0 118.3333333333334 152.77777777777783)"><path d="M37.78 40.8 C37.78 40.8, 37.78 40.8, 37.78 40.8 M37.78 40.8 C37.78 40.8, 37.78 40.8, 37.78 40.8 M28.17 60.63 C37.35 48.21, 44.93 37.22, 62.25 21.37 M27.71 58.78 C38.11 45.01, 50.83 33.23, 62.14 20.43 M16.85 75.61 C34.85 56.31, 57.73 33.02, 69.69 16.86 M17.38 77.86 C31.36 59.79, 45.8 43.44, 71.39 14.71 M17.41 82.17 C32.39 63.1, 48.42 43.83, 80.01 14.11 M15.88 83.78 C33.56 63.86, 49.27 45.7, 78.18 11.79 M13.65 90.6 C36.43 65.3, 60.83 35.25, 86.71 9.53 M13.64 92.89 C41.78 59.54, 69.31 28, 86.51 9.18 M12.91 99.19 C31.85 77.22, 55.5 54.2, 94.63 7.09 M12.36 101.12 C29.41 79.31, 49.33 56.09, 93.6 7.88 M11.42 108.3 C28.6 86.28, 47.62 65.04, 101.04 6.04 M10.22 108.65 C41.25 72.08, 74.81 34.88, 101.84 3.65 M7.28 116.09 C46.55 73.27, 83.27 30.26, 108.66 0.82 M7.79 117.17 C35.28 87.69, 60.88 55.16, 109.73 1.55 M2.96 129.39 C41.39 84.67, 80.9 37.39, 114.1 2.02 M2.41 129.44 C31.24 96.8, 60.88 64.37, 113.27 2.48 M0.77 135.36 C31.65 102.87, 58.01 70.14, 116.17 4.01 M2.6 136.47 C43.57 88.49, 84.65 42.4, 118.1 3.41 M2.31 142.32 C32.32 110.19, 59.05 77.8, 121.67 4.91 M1.39 142.96 C46.76 91.4, 92.69 39.97, 122.24 2.97 M4.59 150.03 C41.16 104.25, 79.8 63.06, 129.13 4.08 M3.33 147.21 C39.21 107.76, 73.86 67.54, 127.74 3.45 M1.86 153.99 C33.01 118.26, 61.32 87.08, 133.87 5.73 M2.28 153.95 C31.36 120.86, 59.78 86.53, 132.63 6.11 M0.76 162.59 C38.12 117.88, 74.69 78.3, 138.84 4.73 M1.37 161.32 C46.84 107.27, 93.48 54.38, 137.8 5.42 M1.95 168.9 C55.73 106.55, 108.18 45.04, 142.59 4.75 M2.74 166.7 C46.34 115.09, 92.9 61.09, 143.16 5.18 M2.2 173.99 C43.32 127.1, 84.06 80.64, 145.63 7.19 M2.42 173.73 C43.04 127.36, 82.18 80.98, 147.31 5.77 M2.85 178.63 C45.09 130.7, 88.73 82.27, 151.54 8.65 M2.48 179.73 C38.95 135.34, 78.24 92.18, 150.92 8.3 M3.78 185.89 C61.29 118.67, 117.46 53.9, 154.53 10.19 M3.96 185.07 C51.04 128.87, 99.87 71.89, 154.48 10.61 M5.33 187.44 C38.72 150.6, 70.94 112.49, 158.84 13.02 M5.39 188.31 C59.83 128.03, 112.89 65.81, 157.88 11.31 M6 193.54 C40.89 154.55, 74.27 117.28, 163.08 14.42 M6.35 193.71 C61.74 127.5, 117.44 62.17, 161.8 14.56 M6.7 198.66 C62.75 128.5, 121.48 62.18, 165.56 16.47 M8.19 197.83 C44.05 155.88, 79.24 114.66, 165.33 16.49 M8.03 202.8 C62.1 142.96, 113.55 80.21, 167.98 17.07 M8.78 201.9 C68.39 132.75, 129.3 62.1, 169.49 18.68 M9.08 206.04 C44.4 165.44, 79.2 126.29, 173.74 18.58 M9.6 206.94 C56.86 154.66, 102.69 101.9, 173.19 19.63 M11.33 212.3 C58.93 155.38, 105.78 101.21, 175.14 21.82 M12.01 210.66 C76.32 137.61, 139.31 66.06, 176.69 22.66 M11.03 215.27 C74.5 145.77, 137.67 71.52, 178.87 24.46 M12.86 216.76 C75.81 144.81, 137.36 73.22, 179.92 23.94 M12.75 220.8 C72.45 154.24, 128.9 89.49, 183.2 25.03 M13.96 221.1 C65.51 161.33, 116.38 103.01, 182.61 26.83 M15.24 226.83 C67.81 163.84, 122.04 101.04, 185.89 28.63 M15.94 224.7 C68.37 164.36, 121.79 103.32, 186.22 29.42 M16.65 228.02 C78.36 157.22, 140.15 87.64, 188.79 33.71 M17.72 228.11 C67.5 172.39, 116.64 114.96, 188.88 32.87 M18.45 232.73 C66.93 180.28, 111.33 126.79, 190.7 36.41 M20.36 231.38 C54.58 190.84, 90.84 149.5, 191.91 35.63 M22.17 237.67 C74.04 176.53, 125.61 116.63, 193.28 38.97 M21.34 235.56 C58.64 191.7, 97.03 148.67, 194.31 39.16 M25.19 239.17 C80.33 175.34, 134.3 109.41, 195.94 41.97 M24.65 240.04 C82.94 173.98, 141.54 107.52, 196.49 41.49 M24.99 243.14 C86.79 174.17, 148.69 103.95, 198.5 43.24 M25.04 244.23 C91.22 167.82, 156.41 93.87, 199.52 42.98 M28.39 246.25 C84.04 182.24, 139.74 119.7, 202.34 46.67 M28.28 246.75 C66.09 203.5, 105.55 160.18, 202.41 46.82 M30.36 249.13 C98.35 171.22, 168.29 93.36, 203.81 50.39 M30.77 250.34 C95 176.75, 159.56 103.4, 204.78 49.25 M32.64 254.06 C92.78 184.27, 151.96 116.02, 207.78 53.56 M31.69 255.23 C97.6 177, 163.6 99.99, 207.01 52.41 M35.53 257.88 C85.24 199.63, 135.74 141.65, 211.65 56.61 M35 258.13 C75.78 210.6, 117.9 164.59, 209.96 55.58 M37.9 262.81 C80.43 213.31, 123.38 161.94, 212.04 59.37 M36.78 261.88 C104.06 183.06, 172.94 103.94, 212.81 59.2 M38.48 266.28 C79.66 216.01, 122.02 167.94, 215.74 62.77 M38.2 264.96 C94.44 201.27, 152.21 137.17, 214.62 62.43 M41.73 267.99 C97.24 202.48, 155.52 137.45, 216.4 67.97 M40.39 269.08 C108.83 187.1, 177.64 108.21, 216.82 66.6 M44.46 272.15 C85.91 222.13, 126.6 172.5, 219.81 70.76 M44.27 271.56 C77.9 230.36, 113.56 190.01, 218.58 70.15 M46.71 273.99 C89.09 225.68, 131.7 178.4, 219.18 74.83 M47.26 274.46 C85.78 229.2, 123.63 185.64, 219.52 75.22 M49.85 274.85 C116.46 201.99, 183.24 124.87, 222 77.69 M49.92 275.59 C114.8 202.12, 178.98 127.71, 221.32 78.78 M54.19 279.6 C107.58 217.9, 160.83 154, 224.57 81.59 M53.51 279.13 C97.33 228.04, 141.92 176.17, 223.42 83.25 M55.69 280.88 C119.51 206.41, 180.89 136.24, 226.07 86.36 M57.48 281.08 C114.38 214.12, 172.25 147.62, 226.07 86.59 M60.29 284.42 C128.46 205.63, 194.76 130.76, 227.94 90.93 M59.21 283.96 C123.15 213.39, 185.37 141.78, 227.08 91.53 M61.24 287.44 C97.17 247.12, 133.7 205.78, 228.25 96.49 M62.72 286.03 C119.53 220.83, 176.74 154.6, 229.04 94.74 M65.81 288.21 C101.68 245.66, 138.76 204.06, 230.67 98.35 M66.53 289.76 C129.48 216.37, 191.39 143.61, 231.25 99.4 M68.64 290.88 C122.2 232.33, 172.75 172.8, 233.01 104.63 M68.45 291.77 C108.14 245.86, 147.06 202.51, 232.74 103.47 M72.03 295.73 C115.98 246.85, 158.04 197.34, 232.22 109.85 M71.3 294.59 C133.92 222.13, 196.2 148.94, 233.2 108.77 M76.79 295.87 C139.52 223.09, 201.97 153.17, 233.89 114.34 M76.01 295.03 C136.09 225.91, 198.14 155.29, 234.18 113.19 M79.06 298.18 C117.7 255.49, 153.41 212.32, 235.72 120.14 M80.14 297.35 C122.82 247.11, 165.58 198.17, 234.74 119.28 M83.52 297.22 C141.68 235.04, 196.85 167.8, 234.09 124.01 M85.07 298.35 C141.88 229.8, 200.94 160.83, 234.85 124.55 M89.67 300.16 C128.39 255.28, 163.4 213.36, 234.93 128.1 M88.79 299.39 C145.7 235.43, 201.17 171.89, 236.83 130.07 M94.17 301.33 C133.57 255.72, 172.7 209.39, 235.74 135.49 M92.69 299.22 C144.72 239.47, 197.13 180.82, 237.32 134.64 M98.65 302.58 C128.3 262.42, 160.98 225.2, 236.06 139.51 M97.25 301.33 C128.28 268.86, 155.49 236.02, 236.97 139.44 M101.43 301.93 C148.08 249.65, 191.23 198.35, 236.73 147.1 M101.37 302.18 C133.14 265.78, 166.04 228.06, 237.9 145.94 M104.51 304.61 C142.67 260.07, 178.16 222.08, 235.94 151.49 M105.79 304.3 C151.82 253.46, 196.32 201.23, 237.01 152.58 M108.75 304.39 C144.57 264.01, 178.64 224.02, 235.91 158.26 M111 304.54 C146.69 267.03, 180.54 227.7, 236.08 158.45 M116.45 303.5 C153.82 258.75, 195.3 214.27, 235.93 165.5 M116.98 303.72 C157.58 257.58, 197.99 210.83, 235.6 166.18 M121.92 304.33 C151.67 270.06, 181.36 236.93, 235.38 174.74 M121.89 303.31 C160.26 259.71, 198.24 216.73, 236.24 173.44 M129.08 303.9 C158.54 267.71, 190.58 229.9, 235.64 179.73 M126.94 302.64 C151.76 274.97, 176.36 247.91, 235.26 180.62 M134.49 304.33 C164.4 269.26, 191.12 232.78, 233.55 185.03 M132.39 303 C156.39 277.23, 181.28 250.23, 234 186.02 M137.02 304.08 C170.6 263.1, 205.63 222.6, 235.22 193.96 M139.21 301.4 C174.79 260.66, 210.99 220.14, 232.56 193.52 M144.98 303.87 C166.95 277.78, 191.02 251.02, 233.71 199.3 M145.01 302.12 C178.18 265.06, 210.53 227.59, 233.4 201.75 M148.44 303.36 C179.98 265.7, 211.82 229.27, 229.49 212.72 M150.39 301.98 C171.97 276.25, 193.89 252.89, 226.74 213.2 M162.27 294.03 C177.66 276.66, 196.88 253.27, 224.02 222.39 M160.75 296.85 C178.21 275.75, 196.3 254.95, 221.96 224.43 M171.4 289.79 C189 269.04, 208.84 246.76, 218.27 237.3 M171.59 288.76 C187.6 270.25, 204.8 252.13, 217.18 235.9 M37.99 265.72 C37.99 265.72, 37.99 265.72, 37.99 265.72 M37.99 265.72 C37.99 265.72, 37.99 265.72, 37.99 265.72 M73.01 289.9 C64.31 281.62, 51.69 273.09, 33.71 254.57 M74.63 291.17 C59.69 279.61, 46.67 268.69, 31.73 255.51 M82.86 293.95 C64.63 277.07, 47.71 260.88, 27.6 243.03 M82.33 293.95 C69.24 284.13, 57.39 273.27, 25.8 244.73 M92.61 296.93 C76.42 281.46, 63.01 269.66, 21.27 232.67 M90.18 296.97 C75.68 283.19, 60.87 268.5, 18.72 234.3 M100 299.35 C80.6 279.38, 58.18 260.73, 16.82 227.57 M99.95 297.76 C83.51 284.24, 67.15 268.37, 15.96 226.35 M112.77 302.05 C77.59 276.82, 48.18 245.61, 13.36 218.39 M111.8 302.48 C88.14 283.93, 66.24 265.51, 13.55 219.31 M116.57 302.98 C84.51 273.89, 53.89 249.25, 12.1 212.8 M117.16 302.39 C85.93 273.77, 52.13 246.32, 13.09 210.88 M123.27 300.8 C97.59 278.27, 70.33 255.98, 9.39 204.17 M122.88 301.96 C95.38 276.33, 67.91 253.19, 9.74 204.35 M128.83 302.4 C95.27 270.65, 62.8 244.01, 7.31 196.79 M128.06 302.07 C83 260.9, 36.26 219.22, 8.64 196.41 M131.68 299.5 C97.74 269.05, 65.93 241.86, 6.95 189.83 M134.28 301.1 C98.35 270.07, 64.91 239.23, 5.17 190.69 M138.79 301.12 C106.3 273.77, 74.74 245.58, 5 181.28 M138.61 301.09 C88.14 256.24, 34.12 211.21, 3.38 182.33 M146.19 301.66 C112.36 275.74, 82.99 248.44, 4.55 177.21 M144.07 300.36 C109.19 271.29, 75.66 239.88, 1.75 176.77 M148.33 300.79 C111.02 264.67, 70.29 233.17, 2.65 170.4 M149.8 298.99 C105.31 261.39, 63.54 225.07, 2.63 171.03 M151.87 295.98 C122.62 266.74, 88.72 238.65, 3.11 168.26 M152.86 298 C95.04 245.32, 34.34 193.35, 3.96 167.21 M157.88 295.78 C101.76 245.96, 43.73 198.13, 4.43 159.63 M157.34 294.32 C96.48 243.24, 36.36 190.53, 3.22 161.62 M160.22 292.81 C116.6 253.45, 67.71 212.65, 4.98 156.99 M160.34 293.47 C107.67 246.44, 55.81 202, 3.08 155.95 M162.16 291.4 C109.45 243.6, 57.66 196.39, 2.98 150.85 M163.92 291.01 C130.13 260.81, 95.22 229.59, 3.42 151.12 M167.2 290.11 C132.73 258.51, 101.17 230.01, 4.78 146.42 M168.17 288.95 C118.73 244.78, 69.07 202.39, 3.95 145.63 M171.95 284.66 C126.74 248.12, 79.8 208.29, 3.45 140.59 M171.78 285.53 C136.55 254.84, 103.89 226.43, 3.73 139.71 M175.25 285.49 C112.46 233.09, 51.11 178.16, 4.25 136.58 M173.9 283.08 C113.16 229.47, 52.13 176.44, 2.89 135.53 M178.42 283.02 C129.74 242.24, 85.62 201.7, 2.23 127.03 M178.79 282.2 C143.11 249.79, 106.62 219.8, 2.7 127.79 M180.5 280.06 C123.09 226.66, 63.73 174.37, 3.65 124.37 M182.31 280.3 C145.49 247.96, 108.13 215.15, 3.7 123.51 M186.02 277.45 C122.73 223.21, 59.12 169.99, 4.84 119.53 M185.81 277.51 C150.02 246.41, 112.6 213.17, 5.03 119.87 M188.38 274.2 C124.95 219.48, 59.63 163.88, 5.83 117.21 M187.6 273.88 C132.31 226.52, 74.81 177.34, 5.19 115.51 M189.69 271.71 C133.97 222.95, 73.36 169.61, 5.56 110.38 M190.21 271.46 C151.98 238.54, 114.61 205.43, 7.25 110.7 M195.03 268.43 C123.4 206.83, 52.25 144.78, 7.75 108.52 M192.99 267.92 C149.62 231.2, 105.9 192.76, 7.21 106.91 M196.47 265.47 C137.62 217.64, 83.54 166.64, 8.56 101.13 M196.64 265.08 C136.01 213.07, 75.06 159.57, 8.05 102.26 M199.52 262.52 C149.53 217.91, 95.23 171.45, 9.02 98.87 M198.35 262.05 C145.7 213.61, 92.57 167.52, 9.77 97.8 M202.62 259.52 C158.16 221.86, 115.17 185.39, 12.55 94.15 M201.55 259.79 C143.72 209.27, 84.71 157.88, 11.87 94.57 M204.6 256.53 C165.35 221.71, 126.29 188.24, 11.2 88.87 M203.68 256.67 C153.19 213.06, 103.71 170.13, 11.71 90.04 M206.41 251.46 C147.27 203.04, 88.4 150.3, 12.54 84.57 M205.14 252.27 C164.09 217.56, 124.95 182.28, 13.4 85 M208.48 249.1 C166.52 214.89, 122.6 174.49, 12.91 80.77 M208.27 248.86 C149.08 198.83, 88.56 146.65, 14.77 81.57 M211.94 245.8 C136.63 183, 60.94 118.94, 15.96 79.46 M211.11 247.01 C150.67 195.45, 90.12 141.64, 17.83 78.48 M212.8 244.96 C151.41 189.31, 88.19 132.59, 20.21 75.65 M212.89 243.89 C162.31 196.75, 110.17 152.47, 18.54 74.14 M215.78 241.22 C138.87 174.01, 61.31 107.38, 20.21 69.63 M215.7 239.58 C172.41 203.33, 128.04 164.5, 20.88 69.8 M217.39 234.52 C147.98 172.3, 78.21 113.27, 21.34 68.48 M217.07 235.6 C151.87 179.35, 87.06 122.06, 23.39 67.45 M218.77 232.37 C163.1 182.11, 106.48 135.27, 25.35 64.16 M218.81 231.98 C147.77 170.76, 77.83 110.37, 23.88 62.88 M219.59 227.17 C153.98 171.47, 89.2 115.17, 27.1 61.46 M220.75 227.65 C148.54 165.22, 76.69 102.05, 26.64 60.46 M222.76 222.32 C161.72 172.95, 105.6 120.92, 28.52 55.99 M221.41 223.57 C170.17 179.81, 117.9 134.11, 28.91 56.42 M224.65 221.22 C158.35 164.43, 94.74 111.8, 29.49 52.61 M222.61 220.36 C179.47 182.37, 134.29 141.89, 30.25 52.1 M225.94 215.22 C170.58 168.4, 114.09 122.25, 32.14 49.83 M224.97 217.19 C166.48 165.32, 107.38 113.87, 33.45 48.53 M225.05 211.37 C161.3 156.15, 97.65 103.09, 35.13 45.89 M226.06 212.54 C185.21 175.64, 143.21 138.44, 34.82 45.72 M229.39 206.86 C190.74 175.57, 148.88 140.91, 37.97 42.62 M227.52 209.06 C159.85 149.65, 90.14 89.04, 38.01 42.11 M228.97 204.49 C183.33 167.29, 140.59 128.72, 38.28 37.89 M229.69 205.18 C188.57 168.02, 147 131.44, 39.18 38.13 M230.33 199.93 C189.75 165.08, 145.89 130.5, 40.9 37.34 M230.6 199.95 C168.42 144.5, 104.94 89.73, 42.43 36.92 M234.51 197.34 C184.85 158.23, 139.35 114.84, 46.15 32.41 M233.04 197.73 C163.34 137.35, 93.59 76.26, 45.52 33.52 M233.65 193.31 C161.46 130.86, 89.39 66.25, 48.35 29.71 M233.84 191.76 C188.74 151.09, 141.22 110.12, 48.22 31.64 M233.76 187.22 C185.01 142.62, 136.06 101.69, 51.23 27.13 M235.1 188.23 C196.41 154.71, 157.57 122.14, 50.33 27.55 M235.88 182.28 C164.04 119.28, 91.12 57.25, 55.13 25.53 M234.2 182.17 C170.88 128.07, 107.74 73.54, 53.72 25.67 M236.56 178.2 C176.82 128.33, 118.82 78.42, 56.75 21.78 M235.9 178.75 C182.22 129.46, 126.35 80.76, 57.8 22.97 M237.4 173.43 C165.2 113.75, 94.84 50.04, 59.44 20.66 M236.05 173.62 C201.5 143.25, 166.58 114.01, 59.74 19.65 M237.09 169.08 C183.57 121.46, 132.57 76.71, 63.05 17.85 M236.86 169 C192.38 130.11, 148.52 90.98, 63.44 16.86 M237.72 164.55 C171.63 104.73, 104.14 45.73, 67.47 15.13 M237.19 163.92 C172.43 104.82, 105.56 47.72, 66.29 15.72 M236.23 158.09 C192.46 123.25, 153.18 85.95, 69.87 14.2 M237.51 158.72 C192.21 119.12, 149.56 82.39, 70.66 12.17 M237.3 151.94 C196.87 116.82, 156.85 83.22, 72.85 9.47 M238.14 152.96 C204.5 122.06, 168.7 92.46, 73.21 11.1 M237.83 149.55 C193.88 113.2, 150.75 74.43, 77.25 7.91 M239.14 148.23 C185.28 102.98, 130.98 54.8, 77.33 9.51 M238.93 142.79 C198.95 108.46, 156.98 74.12, 81.81 6.7 M237.46 142.13 C205.77 115.67, 174.28 87.55, 82.43 7.6 M239.32 138.03 C207.15 111.42, 174.86 84.42, 85.64 5.16 M237.71 137.22 C184.94 90.77, 132.84 46.18, 87.31 6.63 M237.1 130.48 C200.76 100.98, 169.18 72.41, 90.42 6.53 M235.98 131.38 C206.42 103.47, 175.99 77.29, 91.48 4.93 M236.42 126.31 C181.47 79.39, 130.17 34.98, 95.91 3.55 M235.88 124.7 C184.66 83.11, 135.53 40.4, 96.33 3.33 M235.69 119.3 C188.64 75.98, 142.85 34.83, 98.88 0.79 M234.71 117.95 C197.12 85.07, 158.26 50.93, 99.61 1.69 M234.8 112.04 C200.36 83.82, 170.36 58.73, 105.87 -1.56 M234.41 112.32 C201.92 85.83, 167.94 56.82, 105.14 0.5 M232.14 108.63 C194.29 72.63, 153.17 37.98, 106.75 0.25 M233.52 107.73 C206.2 82.52, 177.61 58.12, 108.32 -0.72 M229.44 97.89 C191.14 66.73, 156.26 32.42, 113.07 -1.21 M229.86 98.57 C191.91 66.6, 153.87 33.22, 115.36 -0.47 M227.6 91.96 C199.45 66.2, 173.23 43.32, 121.82 -1.21 M227.32 89.96 C202.48 68.55, 177.52 47.79, 122.93 0.64 M222.22 80.94 C194.43 58.23, 166.17 32.29, 131.01 -1 M223.29 82.94 C190.85 52.9, 156.53 23.33, 128.7 1.34 M221.19 73.48 C189.4 48.36, 161.66 21.93, 136.76 0.16 M219.13 74.66 C198.95 55.78, 179.51 39.27, 136.25 2.26 M217.47 64 C196.13 47.01, 178.46 29.79, 145.82 4.24 M216.88 66.25 C199.79 52.73, 183.11 38, 146.62 4.76 M210.18 57.44 C199.19 43.92, 186.38 35.61, 161.45 15.01 M211.25 55.05 C192.37 38.78, 172.51 22.16, 161.97 14.1" stroke="#b2f2bb" stroke-width="0.5" fill="none"></path><path d="M145.86 4.83 C157.99 6.12, 170.26 15.88, 181.07 24.55 C191.89 33.23, 202.65 44.23, 210.75 56.91 C218.84 69.59, 225.43 84.86, 229.64 100.63 C233.86 116.39, 235.75 134.94, 236.05 151.53 C236.35 168.11, 235.29 184.67, 231.43 200.14 C227.57 215.62, 220.71 231.21, 212.91 244.39 C205.1 257.57, 195.45 269.75, 184.6 279.24 C173.74 288.73, 160.22 297.12, 147.8 301.33 C135.38 305.54, 122.84 305.71, 110.08 304.5 C97.33 303.29, 83.22 300.48, 71.26 294.07 C59.31 287.66, 47.64 277.21, 38.36 266.04 C29.07 254.86, 21.74 241.52, 15.54 227.02 C9.35 212.52, 3.46 195.34, 1.19 179.02 C-1.07 162.7, -0.18 145.28, 1.97 129.08 C4.12 112.87, 8.14 96.49, 14.11 81.78 C20.07 67.07, 28.68 52.2, 37.78 40.8 C46.87 29.41, 57.2 20.19, 68.68 13.4 C80.17 6.61, 91.49 0.81, 106.7 0.07 C121.91 -0.68, 148.85 5.61, 159.94 8.94 C171.02 12.28, 173.98 17.47, 173.19 20.09" stroke="#2b8a3e" stroke-width="1.5" fill="none" stroke-dasharray="8 9"></path></g><g stroke-linecap="round"><g stroke-opacity="0.9" fill-opacity="0.9" transform="translate(254.44444444444446 27.777777777778283) rotate(0 -9.138220300980777 139.41229580313802)"><path d="M-1.16 0.24 C-4.04 46.66, -14.43 232.38, -17.11 278.58" stroke="#1e1e1e" stroke-width="1.5" fill="none" stroke-dasharray="8 9"></path></g></g><mask></mask><g stroke-opacity="0.9" fill-opacity="0.9" transform="translate(216.5764100816516 155.55555555555566) rotate(0 7.868034362792969 17.5)"><text x="7.868034362792969" y="0" font-family="Virgil, Segoe UI Emoji" font-size="28px" fill="#1e1e1e" text-anchor="middle" style="white-space: pre;" direction="ltr" dominant-baseline="text-before-edge">x</text></g><g stroke-opacity="0.9" fill-opacity="0.9" stroke-linecap="round" transform="translate(235.27323156721866 169.30328245027658) rotate(0 8.756819315838186 8.615657321670142)"><path d="M1.21 3.7 C1.21 3.7, 1.21 3.7, 1.21 3.7 M1.21 3.7 C1.21 3.7, 1.21 3.7, 1.21 3.7 M1.31 9.43 C4.15 7.21, 7.74 2.91, 9.17 0.49 M1.4 9.51 C3.76 6.16, 6.26 3.42, 9.02 1.36 M3.89 13.17 C5.52 9.41, 10.7 6.21, 14.02 0.39 M3.24 14.09 C6.87 9.67, 10.26 5.5, 14.32 1.99 M6.44 16.42 C10.06 13.69, 14.53 7.02, 15.69 4.09 M6.48 17.42 C9.32 12.89, 14.48 7.83, 16.86 3.83 M8.59 18.97 C11.25 16.37, 12.93 12.39, 19.03 5.55 M9.8 18.01 C11.66 14.99, 14.94 13.31, 20.08 6.11 M2.97 14.88 C2.97 14.88, 2.97 14.88, 2.97 14.88 M2.97 14.88 C2.97 14.88, 2.97 14.88, 2.97 14.88 M9.87 14.42 C5.44 12.71, 2.01 10.12, 0.22 8.18 M9.9 15.56 C6.43 12.89, 3.27 10.14, -0.06 7.44 M13 13.17 C9.67 9.69, 2.87 6.96, 0.16 2.6 M14.74 14.85 C9.36 10.61, 4.56 4.65, 1.91 2.7 M17.32 10.33 C14.92 8.01, 11 6.51, 4.86 1.05 M15.81 10.74 C12.81 8.04, 9.53 4.44, 5.79 0.91 M17.64 5.2 C15.38 4.98, 13.35 1.9, 9.96 0.32 M17.71 6.31 C14.95 3.85, 13.01 1.93, 9.76 -0.36" stroke="#f08c00" stroke-width="0.5" fill="none"></path><path d="M8.12 0.67 C9.99 0.2, 11.93 -0.07, 13.46 0.66 C14.98 1.39, 16.84 3.29, 17.26 5.04 C17.69 6.8, 16.69 9.41, 16.01 11.21 C15.33 13, 14.58 14.98, 13.21 15.82 C11.84 16.66, 9.55 16.45, 7.8 16.26 C6.06 16.07, 4.03 16.01, 2.74 14.68 C1.45 13.35, 0.31 10.1, 0.05 8.28 C-0.22 6.47, -0.08 5.13, 1.14 3.78 C2.36 2.44, 6.18 0.82, 7.37 0.21 C8.55 -0.4, 8.24 0.05, 8.26 0.12" stroke="transparent" stroke-width="1.5" fill="none" stroke-dasharray="8 9"></path></g><g stroke-linecap="round"><g stroke-opacity="0.9" fill-opacity="0.9" transform="translate(255.582015368307 175.9721114290778) rotate(0 81.59027249562365 4.611724527071601)"><path d="M0.46 0.17 C27.68 1.71, 135.67 7.4, 162.72 9.05" stroke="#1e1e1e" stroke-width="1.5" fill="none" stroke-dasharray="8 9"></path></g><g stroke-opacity="0.9" fill-opacity="0.9" transform="translate(255.582015368307 175.9721114290778) rotate(0 81.59027249562365 4.611724527071601)"><path d="M134.28 18.58 C140.3 16.36, 149.15 15.25, 164.38 9.64" stroke="#1e1e1e" stroke-width="1.5" fill="none"></path></g><g stroke-opacity="0.9" fill-opacity="0.9" transform="translate(255.582015368307 175.9721114290778) rotate(0 81.59027249562365 4.611724527071601)"><path d="M135.43 -1.91 C141.14 1, 149.7 5.01, 164.38 9.64" stroke="#1e1e1e" stroke-width="1.5" fill="none"></path></g></g><mask></mask><g stroke-linecap="round"><g stroke-opacity="0.9" fill-opacity="0.9" transform="translate(713.203737815534 99.73165268265757) rotate(0 107.68449424356288 118.17081500170548)"><path d="M0.85 0.87 C36.8 40.16, 179.09 196.38, 214.52 235.47" stroke="#1e1e1e" stroke-width="1.5" fill="none" stroke-dasharray="8 9"></path></g></g><mask></mask><g stroke-opacity="0.9" fill-opacity="0.9" transform="translate(762.7234721030198 176.6254132716649) rotate(0 7.868034362792969 17.5)"><text x="7.868034362792969" y="0" font-family="Virgil, Segoe UI Emoji" font-size="28px" fill="#1e1e1e" text-anchor="middle" style="white-space: pre;" direction="ltr" dominant-baseline="text-before-edge">x</text></g><g stroke-opacity="0.9" fill-opacity="0.9" stroke-linecap="round" transform="translate(779.2079450151615 184.84226873282387) rotate(0 8.756819315838243 8.615657321670142)"><path d="M1.23 5.04 C1.23 5.04, 1.23 5.04, 1.23 5.04 M1.23 5.04 C1.23 5.04, 1.23 5.04, 1.23 5.04 M1.14 11.87 C3.14 9.99, 4.76 6.68, 10.89 1.4 M1.37 11.02 C4.71 7.33, 6.92 3.89, 10.48 0.5 M3.24 15.69 C4.57 11.92, 7.55 9.76, 14.47 1.79 M3.09 14.62 C6.94 9.44, 11.5 5.84, 14.32 2.05 M4.92 18.26 C9.87 14.06, 12.22 7.81, 17.46 4.3 M6.36 17.82 C9.76 13.25, 14.6 9.32, 16.56 5.96 M9.88 18.94 C12.64 16.3, 13.13 14.58, 16.68 11.43 M10.81 19.03 C12.88 16.58, 14.46 14.44, 17.64 10.81 M4.57 16.08 C4.57 16.08, 4.57 16.08, 4.57 16.08 M4.57 16.08 C4.57 16.08, 4.57 16.08, 4.57 16.08 M12.62 16.39 C9.39 13.22, 6.48 11.05, 2.34 8.77 M11.84 16.76 C8.12 14, 4.47 10.83, 2.16 9.19 M14.43 15.18 C10.74 12.23, 7.29 7.4, 1.57 5.04 M16.64 14.51 C11.59 10.96, 5.33 6.21, 2 4.27 M17.93 10.41 C14.04 9.16, 11.45 5.72, 6.3 1.85 M17.27 10.38 C13.87 7.82, 9.21 4.05, 6.38 1.18 M19.78 7.65 C16.95 3.91, 13.74 1.47, 9.86 -1.48 M18.77 7.23 C17.05 5.98, 15.15 3.99, 9.76 -0.61" stroke="#f08c00" stroke-width="0.5" fill="none"></path><path d="M5.95 1.77 C7.45 0.8, 8.28 -0.71, 10 -0.3 C11.72 0.12, 15.17 2.53, 16.29 4.27 C17.4 6.02, 16.82 8.33, 16.69 10.17 C16.55 12.01, 16.57 13.97, 15.49 15.29 C14.4 16.61, 12.04 18, 10.16 18.08 C8.29 18.16, 5.85 16.94, 4.24 15.79 C2.63 14.63, 1.02 12.93, 0.51 11.15 C-0.01 9.37, 0.05 7.08, 1.16 5.12 C2.28 3.15, 5.92 0.05, 7.19 -0.65 C8.46 -1.35, 8.81 0.59, 8.79 0.93" stroke="transparent" stroke-width="1.5" fill="none" stroke-dasharray="8 9"></path></g><g stroke-linecap="round"><g stroke-opacity="0.9" fill-opacity="0.9" transform="translate(799.572114064429 191.86482004618028) rotate(0 95.5316854319899 -23.9075769048668)"><path d="M-1.08 -0.71 C30.94 -8.69, 159.78 -38.99, 192.14 -47.11" stroke="#1e1e1e" stroke-width="1.5" fill="none" stroke-dasharray="8 9"></path></g><g stroke-opacity="0.9" fill-opacity="0.9" transform="translate(799.572114064429 191.86482004618028) rotate(0 95.5316854319899 -23.9075769048668)"><path d="M165.97 -30.28 C176.57 -33.45, 180.3 -41.44, 192.98 -45.74" stroke="#1e1e1e" stroke-width="1.5" fill="none"></path></g><g stroke-opacity="0.9" fill-opacity="0.9" transform="translate(799.572114064429 191.86482004618028) rotate(0 95.5316854319899 -23.9075769048668)"><path d="M161.14 -50.23 C173.33 -47.33, 178.52 -49.29, 192.98 -45.74" stroke="#1e1e1e" stroke-width="1.5" fill="none"></path></g></g><mask></mask><g stroke-linecap="round"><g stroke-opacity="0.9" fill-opacity="0.9" transform="translate(919.1996850348816 55.72125191177065) rotate(0 -110.48437959855505 125.18659915684998)"><path d="M0.65 -0.27 C-36.25 41.42, -184.61 208.92, -221.62 250.64" stroke="#1e1e1e" stroke-width="1.5" fill="none" stroke-dasharray="8 9"></path></g></g><mask></mask><g stroke-opacity="0.5" fill-opacity="0.5" transform="translate(873.1259534254228 111.94630685758148) rotate(0 2.2123485734248334 71.34824149294877)" stroke="none"><path fill="#2b8a3e" d="M 1.48,-1.77 Q 1.48,-1.77 3.30,-0.08 5.12,1.60 6.57,2.98 8.01,4.36 9.29,5.57 10.56,6.77 11.56,8.01 12.56,9.25 13.57,10.72 14.57,12.19 15.33,13.03 16.08,13.86 16.84,14.98 17.59,16.10 18.24,18.23 18.88,20.36 19.49,21.98 20.09,23.61 20.73,25.40 21.38,27.20 21.49,28.28 21.60,29.37 22.11,30.47 22.63,31.58 22.79,33.34 22.95,35.10 22.99,36.76 23.03,38.43 23.01,40.40 23.00,42.38 22.97,44.55 22.94,46.72 22.96,48.61 22.97,50.49 22.99,52.19 23.01,53.89 23.03,55.56 23.05,57.23 23.05,59.02 23.06,60.82 23.09,62.05 23.12,63.28 23.13,64.86 23.15,66.44 23.17,67.64 23.20,68.83 23.16,70.03 23.13,71.23 23.12,73.04 23.12,74.86 23.13,76.55 23.13,78.24 23.15,79.58 23.17,80.93 23.17,82.56 23.18,84.19 22.77,85.61 22.36,87.04 21.81,89.14 21.26,91.25 21.12,92.32 20.97,93.40 20.50,94.90 20.03,96.40 19.40,98.56 18.78,100.72 18.22,102.51 17.65,104.30 17.08,106.19 16.50,108.08 16.10,110.02 15.70,111.96 15.10,113.11 14.50,114.27 13.57,115.77 12.64,117.28 11.48,119.14 10.32,121.01 9.55,122.46 8.78,123.91 8.16,125.17 7.53,126.44 6.90,127.46 6.26,128.48 4.81,129.83 3.36,131.19 2.59,132.00 1.81,132.81 1.00,133.57 0.20,134.34 -0.91,135.36 -2.04,136.37 -3.55,137.68 -5.06,138.98 -6.44,140.00 -7.82,141.02 -8.69,142.11 -9.56,143.19 -12.40,144.25 -15.25,145.31 -15.67,145.28 -16.10,145.25 -16.49,145.08 -16.88,144.92 -17.20,144.63 -17.52,144.35 -17.73,143.98 -17.94,143.61 -18.03,143.20 -18.11,142.78 -18.05,142.36 -18.00,141.94 -17.81,141.55 -17.63,141.17 -17.33,140.87 -17.03,140.57 -16.65,140.37 -16.27,140.18 -15.85,140.12 -15.43,140.06 -15.01,140.14 -14.59,140.22 -14.22,140.42 -13.85,140.63 -13.56,140.95 -13.28,141.26 -13.10,141.65 -12.93,142.04 -12.90,142.46 -12.86,142.89 -12.96,143.30 -13.06,143.71 -13.29,144.07 -13.51,144.43 -13.84,144.70 -14.17,144.97 -14.57,145.12 -14.97,145.27 -15.39,145.28 -15.82,145.30 -16.23,145.18 -16.63,145.05 -16.98,144.81 -17.33,144.56 -17.58,144.22 -17.83,143.88 -17.96,143.47 -18.08,143.06 -18.08,142.64 -18.07,142.21 -17.92,141.81 -17.78,141.41 -17.51,141.08 -17.25,140.75 -16.89,140.51 -16.54,140.28 -16.12,140.18 -15.71,140.07 -15.71,140.07 -15.71,140.07 -14.11,139.38 -12.52,138.70 -11.57,137.96 -10.62,137.22 -9.51,136.41 -8.40,135.59 -7.06,134.07 -5.71,132.55 -4.60,131.42 -3.49,130.29 -2.10,129.30 -0.70,128.31 0.19,127.50 1.10,126.69 2.14,125.47 3.18,124.25 3.82,122.99 4.46,121.73 5.16,120.24 5.87,118.76 6.69,116.70 7.51,114.64 8.58,112.40 9.64,110.17 10.02,108.46 10.39,106.76 11.01,105.07 11.63,103.37 12.19,102.12 12.76,100.87 13.32,99.12 13.89,97.38 14.39,95.03 14.88,92.69 15.34,90.16 15.80,87.64 16.22,85.86 16.64,84.08 16.64,82.50 16.64,80.93 16.66,79.58 16.68,78.24 16.69,76.55 16.69,74.86 16.69,73.04 16.68,71.23 16.65,70.03 16.62,68.83 16.64,67.64 16.67,66.44 16.68,64.86 16.69,63.28 16.72,62.05 16.75,60.82 16.76,59.02 16.77,57.23 16.78,55.56 16.80,53.89 16.82,52.19 16.84,50.49 16.85,48.61 16.87,46.72 16.84,44.55 16.81,42.39 16.79,40.42 16.77,38.46 16.78,36.87 16.78,35.29 16.76,33.82 16.73,32.35 16.27,30.21 15.82,28.07 15.35,26.95 14.89,25.82 14.86,24.56 14.83,23.29 14.39,22.17 13.96,21.05 13.83,19.75 13.71,18.45 13.20,17.51 12.69,16.56 11.96,15.54 11.23,14.51 10.24,13.11 9.26,11.70 8.55,10.65 7.85,9.60 6.63,8.42 5.40,7.24 3.95,6.00 2.50,4.75 0.51,3.26 -1.48,1.77 -1.67,1.57 -1.86,1.37 -2.00,1.12 -2.13,0.88 -2.21,0.61 -2.28,0.34 -2.29,0.06 -2.30,-0.20 -2.24,-0.48 -2.18,-0.75 -2.06,-1.00 -1.94,-1.25 -1.76,-1.47 -1.58,-1.68 -1.36,-1.85 -1.13,-2.01 -0.87,-2.12 -0.62,-2.22 -0.34,-2.27 -0.06,-2.31 0.20,-2.28 0.48,-2.26 0.74,-2.17 1.01,-2.08 1.24,-1.92 1.48,-1.77 1.48,-1.77 L 1.48,-1.77 Z"></path></g><g stroke-opacity="0.5" fill-opacity="0.5" transform="translate(801.2246247891179 188.27233264073584) rotate(0 38.163012891577296 -34.291402888083894)" stroke="none"><path fill="#2b8a3e" d="M 0,-2.35 Q 0,-2.35 1.27,-2.38 2.54,-2.41 3.80,-2.39 5.05,-2.37 6.76,-4.34 8.47,-6.31 9.71,-7.50 10.94,-8.69 12.11,-9.83 13.27,-10.97 13.93,-11.97 14.60,-12.97 15.28,-13.86 15.95,-14.75 17.36,-16.59 18.77,-18.43 19.54,-19.96 20.30,-21.48 21.17,-23.65 22.03,-25.81 22.71,-26.82 23.38,-27.83 24.17,-29.48 24.96,-31.12 25.85,-33.07 26.74,-35.01 27.90,-36.37 29.06,-37.73 30.51,-39.19 31.96,-40.66 33.25,-41.98 34.55,-43.30 35.67,-44.06 36.80,-44.81 38.69,-46.56 40.59,-48.31 42.66,-49.33 44.73,-50.35 47.16,-51.63 49.59,-52.90 52.60,-54.37 55.61,-55.85 57.53,-56.76 59.45,-57.66 60.44,-58.41 61.43,-59.16 62.67,-60.41 63.90,-61.65 65.97,-62.86 68.05,-64.06 69.41,-65.13 70.77,-66.20 71.62,-67.03 72.47,-67.87 74.53,-68.75 76.59,-69.62 76.92,-69.53 77.26,-69.43 77.55,-69.23 77.84,-69.02 78.04,-68.74 78.25,-68.46 78.36,-68.13 78.47,-67.79 78.46,-67.44 78.46,-67.09 78.34,-66.76 78.22,-66.43 78.01,-66.15 77.79,-65.87 77.50,-65.68 77.20,-65.49 76.86,-65.40 76.52,-65.31 76.17,-65.34 75.82,-65.36 75.50,-65.49 75.18,-65.63 74.91,-65.86 74.65,-66.09 74.47,-66.39 74.29,-66.70 74.22,-67.04 74.15,-67.39 74.20,-67.73 74.24,-68.08 74.39,-68.40 74.54,-68.72 74.79,-68.97 75.03,-69.22 75.35,-69.38 75.66,-69.54 76.01,-69.59 76.35,-69.64 76.70,-69.58 77.04,-69.52 77.35,-69.35 77.66,-69.18 77.90,-68.92 78.13,-68.66 78.28,-68.34 78.42,-68.02 78.45,-67.67 78.49,-67.32 78.40,-66.98 78.32,-66.64 78.14,-66.34 77.95,-66.04 77.68,-65.82 77.41,-65.60 77.08,-65.47 76.76,-65.35 76.41,-65.33 76.05,-65.32 76.05,-65.32 76.06,-65.32 75.64,-65.01 75.23,-64.70 74.22,-63.92 73.22,-63.14 71.72,-61.91 70.22,-60.69 67.81,-58.92 65.40,-57.15 64.49,-56.53 63.58,-55.91 62.34,-55.20 61.11,-54.48 59.28,-53.43 57.46,-52.38 54.65,-50.75 51.84,-49.12 49.56,-47.58 47.27,-46.04 45.74,-44.93 44.20,-43.83 43.23,-42.99 42.26,-42.15 40.56,-40.55 38.86,-38.95 37.56,-37.67 36.26,-36.39 34.87,-34.98 33.49,-33.57 32.52,-32.56 31.55,-31.56 30.82,-30.40 30.09,-29.24 29.40,-28.37 28.71,-27.50 27.71,-25.40 26.71,-23.29 26.15,-22.27 25.58,-21.24 24.75,-19.42 23.91,-17.59 23.37,-16.56 22.83,-15.52 21.86,-14.16 20.90,-12.80 19.65,-11.52 18.40,-10.24 17.45,-8.99 16.51,-7.74 15.37,-6.58 14.23,-5.41 13.05,-4.17 11.88,-2.93 10.61,-1.51 9.35,-0.08 7.77,1.14 6.19,2.37 4.37,2.39 2.54,2.41 1.27,2.38 0,2.35 -0.28,2.32 -0.56,2.28 -0.82,2.18 -1.09,2.08 -1.32,1.92 -1.56,1.76 -1.74,1.54 -1.93,1.33 -2.06,1.08 -2.20,0.83 -2.26,0.55 -2.33,0.28 -2.33,-0.00 -2.33,-0.28 -2.26,-0.55 -2.20,-0.83 -2.06,-1.08 -1.93,-1.33 -1.74,-1.55 -1.56,-1.76 -1.32,-1.92 -1.09,-2.08 -0.82,-2.18 -0.56,-2.28 -0.28,-2.32 0.00,-2.35 0.00,-2.35 L 0,-2.35 Z"></path></g><g stroke-opacity="0.5" fill-opacity="0.5" transform="translate(806.7554962226799 190.4846812141609) rotate(0 40.92844860835828 -23.229660020960182)" stroke="none"><path fill="#2b8a3e" d="M -0.99,-1.59 Q -0.99,-1.59 1.58,-3.11 4.17,-4.64 6.82,-6.51 9.48,-8.38 11.96,-9.84 14.45,-11.31 16.12,-12.28 17.79,-13.25 18.87,-13.80 19.95,-14.34 21.20,-15.13 22.44,-15.91 25.60,-18.08 28.75,-20.25 30.73,-21.49 32.71,-22.73 34.31,-23.42 35.91,-24.12 37.49,-24.70 39.06,-25.28 40.48,-26.31 41.89,-27.34 44.25,-28.77 46.61,-30.21 48.92,-31.45 51.22,-32.69 52.81,-33.58 54.40,-34.47 55.45,-34.97 56.50,-35.48 57.29,-36.20 58.08,-36.93 59.51,-37.92 60.94,-38.92 62.93,-39.94 64.93,-40.96 66.68,-41.98 68.43,-43.00 70.33,-43.59 72.24,-44.17 73.49,-44.71 74.75,-45.26 75.89,-45.84 77.02,-46.42 77.91,-47.40 78.79,-48.37 79.03,-48.45 79.27,-48.52 79.53,-48.54 79.78,-48.55 80.03,-48.50 80.28,-48.45 80.51,-48.35 80.74,-48.24 80.94,-48.09 81.13,-47.93 81.29,-47.73 81.44,-47.53 81.55,-47.30 81.65,-47.07 81.69,-46.82 81.74,-46.57 81.72,-46.31 81.70,-46.06 81.63,-45.82 81.55,-45.58 81.42,-45.36 81.28,-45.15 81.10,-44.97 80.92,-44.79 80.71,-44.66 80.49,-44.53 79.04,-45.25 77.60,-45.96 77.57,-46.30 77.55,-46.64 77.63,-46.96 77.71,-47.29 77.90,-47.58 78.08,-47.86 78.35,-48.08 78.62,-48.29 78.93,-48.40 79.25,-48.52 79.59,-48.53 79.93,-48.53 80.26,-48.43 80.58,-48.33 80.86,-48.13 81.13,-47.93 81.33,-47.65 81.53,-47.38 81.62,-47.05 81.72,-46.73 81.71,-46.39 81.70,-46.05 81.58,-45.73 81.46,-45.41 81.25,-45.15 81.03,-44.88 80.75,-44.70 80.46,-44.52 80.13,-44.44 79.80,-44.36 79.46,-44.39 79.12,-44.42 78.81,-44.56 78.50,-44.69 78.25,-44.92 78.00,-45.15 77.83,-45.44 77.66,-45.74 77.60,-46.07 77.54,-46.41 77.59,-46.74 77.64,-47.08 77.79,-47.38 77.94,-47.69 78.18,-47.93 78.42,-48.17 78.73,-48.32 79.03,-48.46 79.37,-48.51 79.71,-48.55 80.04,-48.49 80.37,-48.42 80.67,-48.25 80.96,-48.08 81.19,-47.83 81.41,-47.58 80.10,-47.98 78.79,-48.37 79.03,-48.45 79.27,-48.52 79.53,-48.54 79.78,-48.55 80.03,-48.50 80.28,-48.45 80.51,-48.35 80.74,-48.24 80.94,-48.09 81.13,-47.93 81.29,-47.73 81.44,-47.53 81.55,-47.30 81.65,-47.07 81.69,-46.82 81.74,-46.57 81.72,-46.31 81.70,-46.06 81.63,-45.82 81.55,-45.58 81.42,-45.36 81.28,-45.15 81.10,-44.97 80.92,-44.79 80.71,-44.66 80.49,-44.53 79.58,-43.61 78.67,-42.69 77.38,-42.20 76.09,-41.70 74.63,-41.23 73.17,-40.75 71.68,-40.41 70.20,-40.07 68.45,-38.93 66.70,-37.79 64.96,-36.71 63.22,-35.63 61.84,-34.68 60.46,-33.74 58.20,-32.66 55.94,-31.58 54.35,-30.77 52.76,-29.96 50.58,-28.68 48.40,-27.41 46.21,-25.93 44.01,-24.45 42.18,-23.10 40.35,-21.75 38.78,-21.23 37.20,-20.70 35.90,-20.30 34.59,-19.89 32.71,-18.54 30.82,-17.19 28.61,-15.57 26.40,-13.96 25.36,-13.31 24.33,-12.67 21.83,-11.59 19.33,-10.51 17.69,-9.60 16.04,-8.69 13.71,-7.23 11.38,-5.77 8.69,-3.74 6.00,-1.71 3.49,-0.06 0.99,1.59 0.79,1.68 0.58,1.78 0.36,1.82 0.14,1.87 -0.08,1.86 -0.31,1.85 -0.52,1.78 -0.74,1.72 -0.94,1.60 -1.13,1.49 -1.29,1.33 -1.46,1.17 -1.58,0.98 -1.70,0.79 -1.77,0.58 -1.84,0.36 -1.85,0.14 -1.87,-0.08 -1.83,-0.30 -1.80,-0.53 -1.71,-0.73 -1.62,-0.94 -1.48,-1.12 -1.34,-1.30 -1.17,-1.45 -0.99,-1.59 -0.99,-1.59 L -0.99,-1.59 Z"></path></g><g stroke-opacity="0.5" fill-opacity="0.5" transform="translate(811.1801933695295 194.90937836101057) rotate(0 39.822274321645864 -2.2123485734248334)" stroke="none"><path fill="#2b8a3e" d="M -0.31,-1.86 Q -0.31,-1.86 1.60,-2.15 3.51,-2.44 5.91,-2.82 8.30,-3.20 11.33,-3.35 14.37,-3.51 17.48,-3.87 20.59,-4.22 22.59,-4.40 24.59,-4.58 25.92,-5.03 27.25,-5.48 29.29,-5.67 31.33,-5.86 32.80,-6.01 34.28,-6.16 36.19,-6.17 38.11,-6.19 39.55,-6.27 40.99,-6.34 42.64,-6.50 44.29,-6.67 45.49,-6.78 46.70,-6.90 48.22,-6.88 49.74,-6.87 51.34,-6.85 52.94,-6.82 54.89,-6.73 56.84,-6.63 58.31,-6.65 59.77,-6.67 61.03,-6.71 62.29,-6.75 63.83,-6.86 65.36,-6.97 66.54,-7.06 67.73,-7.14 68.85,-7.21 69.97,-7.28 71.48,-7.24 72.98,-7.19 75.76,-7.22 78.53,-7.25 78.87,-7.21 79.21,-7.17 79.53,-7.05 79.85,-6.92 80.13,-6.73 80.41,-6.54 80.64,-6.28 80.86,-6.03 81.02,-5.72 81.18,-5.42 81.26,-5.09 81.34,-4.76 81.34,-4.42 81.34,-4.08 81.26,-3.75 81.18,-3.42 81.02,-3.11 80.86,-2.81 80.64,-2.56 80.41,-2.30 80.13,-2.11 79.85,-1.91 79.53,-1.79 79.21,-1.67 78.87,-1.63 78.53,-1.59 78.08,-1.67 77.63,-1.74 77.23,-1.95 76.82,-2.17 76.51,-2.50 76.19,-2.83 76.00,-3.25 75.81,-3.66 75.76,-4.12 75.71,-4.57 75.81,-5.02 75.91,-5.47 76.14,-5.86 76.38,-6.25 76.73,-6.55 77.08,-6.84 77.50,-7.01 77.93,-7.18 78.38,-7.21 78.84,-7.23 79.28,-7.11 79.72,-6.99 80.10,-6.73 80.48,-6.47 80.76,-6.11 81.03,-5.74 81.18,-5.31 81.32,-4.88 81.32,-4.42 81.32,-3.96 81.18,-3.53 81.03,-3.09 80.76,-2.73 80.48,-2.37 80.10,-2.11 79.72,-1.85 79.28,-1.73 78.84,-1.61 78.38,-1.63 77.92,-1.66 77.50,-1.83 77.07,-2.00 76.73,-2.29 76.38,-2.59 76.14,-2.98 75.91,-3.37 75.81,-3.82 75.71,-4.27 75.76,-4.72 75.81,-5.18 76.00,-5.59 76.19,-6.01 76.51,-6.34 76.82,-6.67 77.23,-6.89 77.63,-7.10 78.08,-7.17 78.53,-7.25 78.53,-7.25 78.53,-7.25 78.87,-7.21 79.21,-7.17 79.53,-7.05 79.85,-6.92 80.13,-6.73 80.41,-6.54 80.64,-6.28 80.86,-6.03 81.02,-5.72 81.18,-5.42 81.26,-5.09 81.34,-4.76 81.34,-4.42 81.34,-4.08 81.26,-3.75 81.18,-3.42 81.02,-3.11 80.86,-2.81 80.64,-2.56 80.41,-2.30 80.13,-2.11 79.85,-1.92 79.53,-1.79 79.21,-1.67 78.87,-1.63 78.53,-1.59 75.76,-1.62 72.98,-1.65 71.48,-1.60 69.97,-1.56 68.85,-1.63 67.73,-1.70 66.54,-1.78 65.36,-1.87 63.83,-1.98 62.29,-2.08 61.03,-2.13 59.77,-2.17 58.31,-2.19 56.84,-2.21 54.89,-2.11 52.94,-2.02 51.34,-1.99 49.74,-1.97 48.22,-1.95 46.70,-1.94 45.50,-2.05 44.30,-2.17 42.66,-2.31 41.03,-2.46 39.60,-2.51 38.17,-2.56 36.31,-2.52 34.46,-2.48 33.04,-2.48 31.63,-2.49 29.87,-2.35 28.11,-2.21 26.49,-1.87 24.86,-1.54 22.91,-1.38 20.97,-1.22 17.77,-0.78 14.58,-0.34 11.75,-0.11 8.93,0.11 6.52,0.64 4.11,1.16 2.21,1.51 0.31,1.86 0.08,1.87 -0.14,1.88 -0.36,1.84 -0.59,1.79 -0.79,1.69 -1.00,1.60 -1.18,1.45 -1.35,1.31 -1.49,1.13 -1.63,0.95 -1.72,0.74 -1.81,0.53 -1.85,0.30 -1.88,0.08 -1.87,-0.14 -1.85,-0.37 -1.78,-0.58 -1.71,-0.80 -1.59,-0.99 -1.46,-1.18 -1.30,-1.34 -1.14,-1.50 -0.94,-1.62 -0.74,-1.73 -0.52,-1.80 -0.31,-1.86 -0.31,-1.86 L -0.31,-1.86 Z"></path></g><g stroke-opacity="0.5" fill-opacity="0.5" transform="translate(816.7110648030913 193.8032040742978) rotate(0 39.26918717828971 11.06174286712394)" stroke="none"><path fill="#2b8a3e" d="M 0.43,-1.72 Q 0.43,-1.72 2.95,-1.02 5.48,-0.32 8.42,0.29 11.36,0.92 14.89,1.84 18.42,2.77 21.78,3.48 25.13,4.19 28.77,4.82 32.41,5.44 35.57,6.04 38.73,6.63 40.67,6.85 42.61,7.07 44.48,7.46 46.36,7.85 47.70,7.92 49.03,7.99 50.44,8.34 51.85,8.68 53.34,9.13 54.84,9.58 55.97,9.68 57.10,9.79 58.46,10.19 59.82,10.58 61.05,11.06 62.28,11.54 63.45,12.05 64.62,12.55 65.76,13.07 66.90,13.59 68.03,14.12 69.15,14.65 70.27,15.18 71.39,15.71 72.51,16.25 73.62,16.78 74.73,17.32 75.84,17.86 77.85,19.49 79.85,21.12 79.43,22.40 79.01,23.68 76.20,24.21 73.39,24.74 70.19,24.20 67.00,23.65 66.59,23.51 66.18,23.36 65.84,23.09 65.50,22.83 65.26,22.46 65.02,22.10 64.91,21.68 64.80,21.26 64.83,20.83 64.86,20.39 65.03,19.99 65.20,19.59 65.48,19.27 65.77,18.94 66.14,18.72 66.52,18.51 66.94,18.42 67.37,18.33 67.80,18.39 68.23,18.44 68.62,18.63 69.01,18.82 69.32,19.12 69.63,19.42 69.83,19.81 70.03,20.20 70.09,20.63 70.15,21.05 70.08,21.48 70.00,21.91 69.79,22.29 69.58,22.67 69.26,22.96 68.94,23.25 68.54,23.43 68.15,23.61 67.72,23.65 67.28,23.69 66.86,23.59 66.44,23.49 66.07,23.26 65.70,23.03 65.43,22.69 65.15,22.36 65.00,21.95 64.84,21.55 64.83,21.11 64.81,20.68 64.93,20.26 65.06,19.85 65.31,19.49 65.55,19.14 65.90,18.88 66.25,18.62 66.67,18.49 67.08,18.36 67.51,18.37 67.95,18.37 67.95,18.37 67.95,18.37 70.63,18.89 73.31,19.40 74.64,19.72 75.96,20.03 74.74,21.28 73.53,22.53 72.42,21.96 71.32,21.39 70.23,20.83 69.13,20.26 68.03,19.69 66.94,19.12 65.85,18.55 64.76,17.98 63.68,17.42 62.59,16.85 61.53,16.31 60.46,15.76 59.42,15.26 58.38,14.75 57.40,14.34 56.41,13.92 55.01,13.62 53.62,13.31 52.16,12.79 50.70,12.27 49.64,11.82 48.59,11.38 47.13,11.09 45.67,10.80 43.96,10.35 42.25,9.90 40.24,9.62 38.23,9.35 35.09,8.78 31.95,8.22 28.25,7.62 24.55,7.02 21.12,6.34 17.69,5.66 14.23,4.82 10.76,3.97 7.72,3.42 4.68,2.87 2.12,2.29 -0.43,1.72 -0.62,1.64 -0.82,1.56 -1.00,1.44 -1.18,1.32 -1.32,1.16 -1.46,1.00 -1.56,0.81 -1.66,0.62 -1.71,0.41 -1.76,0.20 -1.76,-0.00 -1.75,-0.21 -1.70,-0.42 -1.65,-0.63 -1.55,-0.82 -1.45,-1.01 -1.31,-1.17 -1.17,-1.33 -0.99,-1.45 -0.81,-1.57 -0.61,-1.64 -0.41,-1.72 -0.20,-1.74 0.00,-1.77 0.21,-1.74 0.43,-1.72 0.43,-1.72 L 0.43,-1.72 Z"></path></g><g stroke-opacity="0.5" fill-opacity="0.5" transform="translate(808.9678447961047 197.12172693443517) rotate(0 33.18522860137159 21.5703985908915)" stroke="none"><path fill="#2b8a3e" d="M 0.88,-1.42 Q 0.88,-1.42 3.40,0.21 5.92,1.84 8.57,3.49 11.21,5.15 13.64,6.84 16.06,8.53 18.02,9.88 19.99,11.23 21.77,12.44 23.56,13.66 24.97,14.39 26.38,15.13 28.34,16.86 30.29,18.59 32.26,19.87 34.23,21.16 35.81,22.38 37.40,23.60 38.67,24.31 39.94,25.03 41.46,26.00 42.97,26.97 44.56,28.02 46.15,29.08 48.18,30.38 50.21,31.68 51.54,32.24 52.88,32.80 53.91,33.23 54.94,33.65 55.87,34.22 56.80,34.79 57.78,35.32 58.76,35.86 59.83,36.36 60.90,36.86 62.18,37.33 63.47,37.80 65.85,39.29 68.23,40.78 68.56,41.14 68.88,41.50 69.08,41.94 69.27,42.39 69.32,42.87 69.36,43.36 69.25,43.83 69.13,44.30 68.87,44.71 68.62,45.12 68.24,45.43 67.86,45.74 67.41,45.91 66.95,46.08 66.47,46.10 65.98,46.11 65.52,45.98 65.05,45.84 64.65,45.56 64.26,45.28 63.97,44.88 63.69,44.49 63.54,44.03 63.39,43.56 63.40,43.08 63.41,42.59 63.58,42.13 63.74,41.68 64.04,41.30 64.34,40.92 64.75,40.65 65.16,40.39 65.63,40.27 66.10,40.14 66.58,40.18 67.07,40.22 67.52,40.40 67.96,40.59 68.33,40.92 68.69,41.24 68.93,41.66 69.18,42.08 69.27,42.56 69.37,43.03 69.30,43.51 69.24,44.00 69.03,44.43 68.82,44.87 68.48,45.22 68.14,45.56 67.70,45.78 67.27,46.00 66.79,46.07 66.31,46.14 65.83,46.05 65.35,45.96 64.93,45.73 64.50,45.49 64.50,45.49 64.50,45.49 63.38,44.52 62.26,43.56 60.90,43.16 59.54,42.76 58.42,42.12 57.29,41.47 56.11,40.71 54.93,39.95 53.90,39.00 52.88,38.05 51.10,37.13 49.33,36.21 47.84,34.66 46.36,33.11 45.31,32.53 44.26,31.94 42.67,30.89 41.08,29.84 39.60,28.83 38.13,27.83 36.84,26.88 35.54,25.94 34.11,24.76 32.67,23.58 30.50,22.21 28.34,20.84 26.56,19.32 24.78,17.80 23.40,16.88 22.01,15.96 20.21,14.77 18.40,13.57 16.41,12.25 14.42,10.93 12.03,9.32 9.64,7.72 6.94,6.12 4.25,4.51 1.68,2.97 -0.88,1.42 -1.04,1.29 -1.20,1.16 -1.32,1.00 -1.44,0.84 -1.52,0.66 -1.60,0.47 -1.64,0.27 -1.67,0.07 -1.65,-0.12 -1.64,-0.32 -1.58,-0.51 -1.51,-0.71 -1.41,-0.88 -1.30,-1.05 -1.15,-1.19 -1.01,-1.33 -0.83,-1.43 -0.66,-1.53 -0.47,-1.59 -0.27,-1.65 -0.07,-1.66 0.12,-1.67 0.32,-1.63 0.52,-1.59 0.70,-1.50 0.88,-1.42 0.88,-1.42 L 0.88,-1.42 Z"></path></g><g stroke-opacity="0.5" fill-opacity="0.5" transform="translate(813.3925419429542 186.05998406731123) rotate(0 36.50375146150873 -7.743220006986576)" stroke="none"><path fill="#2b8a3e" d="M -0.17,-1.60 Q -0.17,-1.60 2.68,-1.88 5.55,-2.16 8.92,-2.88 12.28,-3.61 15.75,-3.93 19.21,-4.25 22.52,-4.69 25.84,-5.13 28.57,-5.32 31.31,-5.50 33.92,-6.19 36.54,-6.88 38.63,-7.50 40.73,-8.11 42.92,-8.69 45.11,-9.27 47.07,-9.59 49.02,-9.90 50.09,-10.10 51.15,-10.30 52.12,-11.21 53.08,-12.13 54.89,-12.73 56.71,-13.33 57.95,-13.88 59.19,-14.43 60.99,-14.96 62.80,-15.48 63.85,-16.08 64.91,-16.68 66.58,-16.89 68.25,-17.10 70.03,-17.70 71.81,-18.29 72.15,-18.25 72.48,-18.22 72.80,-18.11 73.12,-18.00 73.41,-17.82 73.69,-17.64 73.92,-17.39 74.16,-17.14 74.32,-16.85 74.49,-16.56 74.58,-16.23 74.67,-15.90 74.68,-15.57 74.69,-15.23 74.62,-14.90 74.55,-14.57 74.40,-14.26 74.25,-13.96 74.04,-13.70 73.82,-13.44 73.55,-13.24 73.27,-13.04 72.96,-12.91 72.65,-12.78 72.32,-12.73 71.98,-12.68 71.08,-12.97 70.18,-13.26 69.87,-13.59 69.56,-13.92 69.38,-14.34 69.19,-14.75 69.14,-15.20 69.10,-15.65 69.20,-16.09 69.30,-16.54 69.53,-16.92 69.77,-17.31 70.12,-17.60 70.47,-17.89 70.89,-18.06 71.31,-18.23 71.77,-18.25 72.22,-18.27 72.66,-18.14 73.09,-18.02 73.47,-17.76 73.84,-17.50 74.11,-17.14 74.38,-16.78 74.53,-16.35 74.67,-15.92 74.66,-15.46 74.66,-15.01 74.51,-14.58 74.37,-14.15 74.09,-13.79 73.81,-13.43 73.43,-13.18 73.06,-12.93 72.62,-12.81 72.18,-12.69 71.73,-12.72 71.27,-12.75 70.85,-12.92 70.43,-13.09 70.09,-13.38 69.75,-13.68 69.51,-14.07 69.28,-14.46 69.19,-14.91 69.09,-15.35 69.15,-15.80 69.20,-16.25 69.39,-16.66 69.59,-17.07 69.90,-17.40 70.21,-17.73 70.62,-17.94 71.02,-18.15 71.47,-18.22 71.92,-18.29 72.36,-18.21 72.81,-18.13 72.31,-18.21 71.81,-18.29 72.15,-18.25 72.48,-18.22 72.80,-18.11 73.12,-18.00 73.41,-17.82 73.69,-17.64 73.92,-17.39 74.16,-17.14 74.32,-16.85 74.49,-16.56 74.58,-16.23 74.67,-15.90 74.68,-15.57 74.69,-15.23 74.62,-14.90 74.55,-14.57 74.40,-14.26 74.25,-13.96 74.04,-13.70 73.82,-13.44 73.55,-13.24 73.27,-13.04 72.96,-12.91 72.65,-12.78 72.32,-12.73 71.98,-12.68 69.34,-12.42 66.70,-12.16 65.08,-11.46 63.46,-10.77 62.11,-10.64 60.77,-10.51 59.35,-9.99 57.94,-9.46 56.50,-9.03 55.05,-8.59 53.39,-7.83 51.73,-7.08 50.56,-7.07 49.40,-7.06 47.60,-6.87 45.80,-6.69 43.65,-6.11 41.49,-5.53 39.36,-4.89 37.23,-4.26 34.37,-3.51 31.52,-2.76 28.87,-2.56 26.22,-2.36 22.85,-1.88 19.49,-1.41 16.21,-1.07 12.93,-0.74 9.41,0.07 5.89,0.88 3.03,1.24 0.17,1.60 -0.01,1.60 -0.21,1.60 -0.39,1.55 -0.58,1.50 -0.75,1.41 -0.93,1.32 -1.07,1.18 -1.22,1.05 -1.32,0.89 -1.43,0.73 -1.50,0.55 -1.57,0.37 -1.59,0.17 -1.61,-0.01 -1.59,-0.20 -1.56,-0.40 -1.49,-0.58 -1.42,-0.76 -1.31,-0.92 -1.19,-1.08 -1.05,-1.21 -0.90,-1.33 -0.73,-1.42 -0.55,-1.51 -0.36,-1.56 -0.17,-1.60 -0.17,-1.60 L -0.17,-1.60 Z"></path></g><g stroke-opacity="0.5" fill-opacity="0.5" transform="translate(827.7728076702152 170.57354405333808) rotate(0 23.22966002096007 -18.804962874110743)" stroke="none"><path fill="#2b8a3e" d="M -1.16,-1.16 Q -1.16,-1.16 0.45,-2.72 2.07,-4.28 2.95,-5.55 3.82,-6.82 5.66,-8.41 7.50,-10.00 9.18,-11.56 10.86,-13.11 12.85,-15.03 14.85,-16.96 17.02,-18.76 19.18,-20.57 21.02,-22.25 22.86,-23.93 24.60,-25.59 26.34,-27.25 27.68,-28.63 29.03,-30.00 30.21,-31.26 31.39,-32.52 32.99,-33.52 34.60,-34.52 35.42,-35.23 36.23,-35.93 37.73,-36.67 39.22,-37.41 40.84,-38.40 42.46,-39.39 44.37,-39.68 46.27,-39.97 46.66,-39.94 47.04,-39.90 47.39,-39.75 47.74,-39.60 48.03,-39.34 48.31,-39.08 48.50,-38.75 48.69,-38.41 48.76,-38.03 48.83,-37.66 48.77,-37.28 48.72,-36.90 48.55,-36.55 48.37,-36.21 48.10,-35.94 47.83,-35.67 47.48,-35.50 47.14,-35.33 46.76,-35.28 46.38,-35.23 46.00,-35.31 45.62,-35.38 45.29,-35.57 44.96,-35.76 44.70,-36.05 44.45,-36.34 44.30,-36.69 44.15,-37.04 44.12,-37.43 44.09,-37.81 44.19,-38.18 44.28,-38.55 44.49,-38.88 44.70,-39.20 45.00,-39.44 45.30,-39.68 45.66,-39.81 46.02,-39.94 46.40,-39.95 46.79,-39.95 47.15,-39.84 47.52,-39.72 47.83,-39.50 48.14,-39.27 48.36,-38.96 48.59,-38.65 48.70,-38.28 48.81,-37.91 48.79,-37.53 48.78,-37.15 48.65,-36.79 48.51,-36.43 48.27,-36.13 48.03,-35.83 47.70,-35.63 47.38,-35.42 47.01,-35.33 46.63,-35.24 46.63,-35.24 46.63,-35.24 44.79,-35.10 42.96,-34.96 41.89,-34.38 40.83,-33.80 39.62,-33.33 38.40,-32.87 37.33,-32.23 36.26,-31.59 34.92,-30.93 33.58,-30.27 32.31,-29.10 31.05,-27.94 29.64,-26.61 28.24,-25.29 26.49,-23.59 24.75,-21.89 22.88,-20.14 21.01,-18.40 18.95,-16.64 16.89,-14.88 14.92,-12.90 12.94,-10.92 11.27,-9.28 9.61,-7.64 8.05,-6.21 6.50,-4.78 5.39,-3.43 4.28,-2.07 2.72,-0.45 1.16,1.16 1.00,1.28 0.85,1.41 0.67,1.49 0.49,1.57 0.29,1.61 0.09,1.64 -0.09,1.63 -0.29,1.62 -0.48,1.56 -0.67,1.50 -0.84,1.40 -1.01,1.29 -1.15,1.15 -1.29,1.01 -1.40,0.84 -1.50,0.67 -1.56,0.48 -1.62,0.29 -1.63,0.09 -1.64,-0.09 -1.61,-0.29 -1.57,-0.49 -1.49,-0.67 -1.41,-0.85 -1.28,-1.01 -1.16,-1.16 -1.16,-1.16 L -1.16,-1.16 Z"></path></g><g stroke-opacity="0.5" fill-opacity="0.5" transform="translate(829.9851562436401 187.16615835402354) rotate(0 30.972880027946758 -18.251875730754364)" stroke="none"><path fill="#2b8a3e" d="M -0.72,-1.92 Q -0.72,-1.92 1.85,-2.78 4.43,-3.64 7.04,-4.89 9.65,-6.15 12.08,-7.31 14.52,-8.48 17.41,-10.20 20.31,-11.93 21.83,-13.00 23.34,-14.07 24.64,-14.95 25.94,-15.82 26.99,-16.76 28.05,-17.70 29.23,-18.55 30.42,-19.40 31.99,-20.91 33.55,-22.43 35.45,-23.51 37.36,-24.60 39.35,-25.86 41.34,-27.13 43.19,-28.30 45.04,-29.47 47.16,-30.62 49.29,-31.76 51.46,-32.87 53.64,-33.97 55.17,-34.82 56.69,-35.66 59.00,-36.93 61.30,-38.19 61.58,-38.25 61.87,-38.31 62.16,-38.27 62.45,-38.23 62.71,-38.11 62.98,-37.98 63.19,-37.78 63.40,-37.57 63.53,-37.31 63.66,-37.05 63.71,-36.76 63.75,-36.47 63.70,-36.18 63.65,-35.90 63.51,-35.64 63.36,-35.38 63.15,-35.18 62.93,-34.99 62.67,-34.87 62.40,-34.75 62.11,-34.72 61.82,-34.69 61.53,-34.76 61.25,-34.83 61.00,-34.98 60.75,-35.14 60.56,-35.36 60.38,-35.59 60.27,-35.86 60.17,-36.14 60.16,-36.43 60.15,-36.72 60.23,-37.00 60.31,-37.28 60.48,-37.52 60.65,-37.76 60.88,-37.94 61.12,-38.11 61.40,-38.20 61.67,-38.29 61.97,-38.28 62.26,-38.28 62.54,-38.18 62.81,-38.08 63.04,-37.90 63.27,-37.72 63.43,-37.48 63.59,-37.23 63.67,-36.95 63.74,-36.67 63.72,-36.38 63.70,-36.08 63.59,-35.81 63.48,-35.54 63.28,-35.32 63.09,-35.10 62.84,-34.95 62.58,-34.81 62.59,-34.81 62.59,-34.81 60.39,-33.79 58.20,-32.76 56.63,-32.02 55.07,-31.27 52.97,-30.12 50.88,-28.96 48.92,-27.80 46.97,-26.63 45.23,-25.35 43.48,-24.07 41.49,-22.56 39.50,-21.05 38.03,-20.10 36.56,-19.14 35.49,-18.22 34.42,-17.29 33.49,-16.67 32.56,-16.05 31.47,-15.44 30.38,-14.83 29.05,-13.84 27.72,-12.85 26.42,-12.17 25.12,-11.49 23.51,-10.41 21.90,-9.32 18.93,-7.47 15.96,-5.62 13.58,-4.36 11.20,-3.10 8.47,-1.63 5.74,-0.16 3.23,0.87 0.72,1.92 0.48,1.98 0.24,2.04 -0.00,2.04 -0.25,2.03 -0.49,1.97 -0.73,1.91 -0.95,1.80 -1.17,1.68 -1.35,1.52 -1.54,1.35 -1.68,1.15 -1.82,0.94 -1.91,0.71 -1.99,0.48 -2.02,0.23 -2.05,-0.00 -2.02,-0.25 -1.99,-0.49 -1.90,-0.73 -1.81,-0.96 -1.67,-1.16 -1.53,-1.36 -1.34,-1.53 -1.16,-1.69 -0.94,-1.81 -0.72,-1.92 -0.72,-1.92 L -0.72,-1.92 Z"></path></g><g stroke-opacity="0.5" fill-opacity="0.5" transform="translate(823.3481105233658 199.33407550785978) rotate(0 30.972880027946758 13.827178583904924)" stroke="none"><path fill="#2b8a3e" d="M 0.33,-1.99 Q 0.33,-1.99 2.23,-1.63 4.13,-1.27 6.24,-0.72 8.36,-0.18 10.62,0.74 12.88,1.66 15.74,3.03 18.59,4.40 20.71,5.29 22.82,6.18 24.50,7.21 26.19,8.25 27.35,8.51 28.50,8.76 29.58,9.25 30.65,9.74 31.66,10.18 32.67,10.63 34.02,11.38 35.38,12.13 36.68,12.42 37.99,12.71 38.95,13.21 39.91,13.71 40.90,14.13 41.89,14.56 43.95,15.14 46.00,15.73 47.23,16.27 48.46,16.81 50.05,17.82 51.63,18.84 53.14,19.37 54.65,19.89 56.31,20.44 57.97,21.00 58.97,21.56 59.96,22.13 60.90,22.72 61.83,23.30 62.28,24.16 62.72,25.01 63.01,25.28 63.30,25.54 63.52,25.87 63.73,26.19 63.87,26.56 64.00,26.93 64.04,27.32 64.08,27.71 64.02,28.09 63.97,28.48 63.82,28.85 63.68,29.21 63.45,29.53 63.22,29.84 62.93,30.10 62.63,30.35 62.28,30.53 61.93,30.70 61.55,30.79 61.17,30.88 60.78,30.87 60.39,30.86 60.01,30.76 59.63,30.66 59.29,30.47 58.94,30.29 60.41,30.50 61.88,30.72 61.36,30.81 60.85,30.89 60.33,30.81 59.81,30.73 59.34,30.48 58.88,30.24 58.52,29.86 58.16,29.48 57.93,29.00 57.71,28.53 57.65,28.01 57.59,27.48 57.71,26.97 57.82,26.46 58.09,26.01 58.35,25.56 58.75,25.22 59.15,24.88 59.64,24.68 60.13,24.48 60.65,24.45 61.17,24.42 61.68,24.56 62.19,24.70 62.62,24.99 63.06,25.29 63.38,25.70 63.70,26.12 63.86,26.62 64.03,27.11 64.04,27.64 64.04,28.16 63.87,28.66 63.71,29.16 63.39,29.58 63.07,30.00 62.64,30.29 62.21,30.59 61.70,30.73 61.20,30.87 60.67,30.85 60.15,30.82 59.66,30.63 59.17,30.43 58.77,30.10 58.37,29.76 58.10,29.31 57.82,28.86 57.71,28.35 57.60,27.84 57.65,27.31 57.71,26.79 57.92,26.31 58.14,25.84 58.50,25.46 58.86,25.07 60.79,25.04 62.72,25.01 63.01,25.28 63.30,25.54 63.52,25.87 63.73,26.19 63.87,26.56 64.00,26.93 64.04,27.32 64.08,27.71 64.02,28.09 63.97,28.48 63.82,28.84 63.68,29.21 63.45,29.53 63.22,29.84 62.93,30.10 62.63,30.35 62.28,30.53 61.93,30.70 61.55,30.79 61.17,30.88 60.78,30.87 60.39,30.86 60.01,30.76 59.63,30.66 59.29,30.47 58.94,30.29 58.36,29.21 57.77,28.13 56.09,27.08 54.40,26.02 52.68,25.40 50.96,24.79 48.98,23.89 47.00,22.99 45.90,22.23 44.80,21.48 43.11,20.85 41.43,20.21 39.73,19.54 38.04,18.86 36.41,17.68 34.77,16.51 32.75,15.43 30.72,14.34 29.06,13.21 27.39,12.09 25.95,11.49 24.52,10.88 23.10,9.91 21.69,8.93 19.49,8.07 17.29,7.22 14.50,5.97 11.70,4.73 9.65,4.00 7.60,3.26 5.55,2.90 3.49,2.54 1.58,2.27 -0.33,1.99 -0.56,1.93 -0.80,1.86 -1.01,1.73 -1.22,1.61 -1.39,1.44 -1.57,1.27 -1.70,1.06 -1.83,0.86 -1.91,0.62 -1.98,0.39 -2.00,0.15 -2.02,-0.08 -1.98,-0.33 -1.94,-0.57 -1.84,-0.79 -1.75,-1.02 -1.60,-1.21 -1.45,-1.40 -1.26,-1.56 -1.07,-1.71 -0.85,-1.82 -0.63,-1.92 -0.39,-1.97 -0.15,-2.02 0.08,-2.00 0.33,-1.99 0.33,-1.99 L 0.33,-1.99 Z"></path></g><g stroke-opacity="0.5" fill-opacity="0.5" transform="translate(852.1086419778877 192.6970297875855) rotate(0 18.251875730754364 2.765435716780985)" stroke="none"><path fill="#2b8a3e" d="M -0.59,-2.39 Q -0.59,-2.39 0.68,-2.72 1.97,-3.06 5.09,-2.76 8.22,-2.45 10.00,-2.34 11.79,-2.22 12.86,-2.26 13.94,-2.29 15.35,-2.39 16.76,-2.49 18.23,-2.57 19.70,-2.66 21.65,-2.26 23.59,-1.86 24.89,-1.33 26.19,-0.80 27.81,-0.81 29.44,-0.82 31.03,0.07 32.63,0.97 35.12,2.35 37.61,3.72 38.04,3.98 38.48,4.23 38.81,4.61 39.14,4.99 39.34,5.45 39.53,5.92 39.56,6.42 39.60,6.92 39.47,7.41 39.34,7.90 39.07,8.32 38.79,8.74 38.40,9.05 38.00,9.36 37.52,9.53 37.05,9.70 36.55,9.70 36.04,9.71 35.56,9.56 35.08,9.40 34.68,9.11 34.27,8.81 33.98,8.39 33.69,7.98 33.55,7.50 33.41,7.02 33.43,6.51 33.45,6.01 33.63,5.54 33.81,5.07 34.13,4.68 34.45,4.29 34.88,4.02 35.30,3.76 35.79,3.64 36.28,3.53 36.78,3.57 37.29,3.62 37.75,3.82 38.21,4.03 38.58,4.37 38.95,4.71 39.19,5.15 39.43,5.59 39.52,6.09 39.61,6.59 39.54,7.08 39.46,7.58 39.23,8.03 39.01,8.48 38.65,8.83 38.28,9.18 37.83,9.40 37.38,9.62 36.88,9.68 36.38,9.74 35.88,9.64 35.39,9.54 35.39,9.54 35.39,9.54 33.32,8.42 31.24,7.30 29.51,6.27 27.78,5.25 26.34,5.05 24.90,4.85 23.83,4.26 22.76,3.68 21.23,3.17 19.70,2.65 18.20,2.56 16.71,2.47 15.26,2.33 13.80,2.19 12.71,2.09 11.61,1.99 9.77,1.95 7.93,1.91 5.52,1.85 3.11,1.79 1.85,2.09 0.59,2.39 0.30,2.43 0.00,2.46 -0.28,2.43 -0.58,2.39 -0.86,2.29 -1.13,2.18 -1.38,2.02 -1.63,1.85 -1.82,1.63 -2.02,1.40 -2.16,1.14 -2.30,0.88 -2.37,0.59 -2.44,0.30 -2.45,0.00 -2.45,-0.28 -2.38,-0.57 -2.31,-0.86 -2.17,-1.13 -2.03,-1.39 -1.83,-1.61 -1.64,-1.84 -1.39,-2.01 -1.15,-2.18 -0.87,-2.28 -0.59,-2.39 -0.59,-2.39 L -0.59,-2.39 Z"></path></g></svg>