<?xml version="1.0" standalone="no"?>
<!DOCTYPE svg PUBLIC "-//W3C//DTD SVG 1.1//EN"
"http://www.w3.org/Graphics/SVG/1.1/DTD/svg11.dtd">
<svg width="1000" height="1000" version="1.1"
xmlns="http://www.w3.org/2000/svg"
xmlns:xlink="http://www.w3.org/1999/xlink">
<g fill-rule="evenodd"><path d="M 0,1000 L 0,0 L 1000,0 L 1000,1000 L 0,1000 z " style="fill-opacity:1.0;fill:rgb(255,255,255);stroke:rgb(0,0,0);stroke-width:2"/></g>
<circle cx="450" cy="125" r="10" style="fill-opacity:1.0;fill:rgb(255,0,0);"/>
<circle cx="500" cy="125" r="10" style="fill-opacity:1.0;fill:rgb(255,0,0);"/>
<circle cx="500" cy="250" r="10" style="fill-opacity:1.0;fill:rgb(255,0,0);"/>
<circle cx="750" cy="500" r="10" style="fill-opacity:1.0;fill:rgb(255,0,0);"/>
<circle cx="950" cy="500" r="10" style="fill-opacity:1.0;fill:rgb(255,0,0);"/>
<circle cx="700" cy="750" r="10" style="fill-opacity:1.0;fill:rgb(255,0,0);"/>
<circle cx="375" cy="625" r="10" style="fill-opacity:1.0;fill:rgb(255,0,0);"/>
<circle cx="312.5" cy="625" r="10" style="fill-opacity:1.0;fill:rgb(255,0,0);"/>
<circle cx="250" cy="625" r="10" style="fill-opacity:1.0;fill:rgb(255,0,0);"/>
<circle cx="250" cy="300" r="10" style="fill-opacity:1.0;fill:rgb(255,0,0);"/>
<polyline points="466.48,480.158 464.811,457.769 458.973,436.001 449.109,415.389 435.461,396.441 418.365,379.623 398.243,365.35 375.59,353.972 350.964,345.77 324.971,340.946 298.251,339.619 271.463,341.821 245.265,347.498 220.303,356.511 197.191,368.637 176.499,383.579 158.736,400.967 144.34,420.374 133.664,441.321 126.973,463.294 124.43,485.751 126.098,508.14 131.936,529.908 141.8,550.52 155.448,569.468 172.544,586.286 192.666,600.56 215.319,611.937 239.945,620.139 265.938,624.963 292.658,626.29 319.446,624.088 345.644,618.411 370.606,609.398 393.718,597.272 414.41,582.331 432.173,564.942 446.569,545.536 457.245,524.588 463.936,502.615 466.48,480.158" style="opacity:0.4;fill:none;stroke:rgb(118,215,234);stroke-width:5;fill:none"/>
<polyline points="739.316,452.273 737.629,430.834 732.609,409.924 724.38,390.056 713.143,371.72 699.177,355.368 682.825,341.402 664.489,330.166 644.622,321.936 623.711,316.916 602.273,315.229 580.834,316.916 559.924,321.936 540.056,330.166 521.72,341.402 505.368,355.368 491.402,371.72 480.166,390.056 471.936,409.924 466.916,430.834 465.229,452.273 466.916,473.711 471.936,494.622 480.166,514.489 491.402,532.825 505.368,549.177 521.72,563.143 540.056,574.38 559.924,582.609 580.834,587.629 602.273,589.316 623.711,587.629 644.622,582.609 664.489,574.38 682.825,563.143 699.177,549.177 713.143,532.825 724.38,514.489 732.609,494.622 737.629,473.711 739.316,452.273" style="opacity:0.4;fill:none;stroke:rgb(118,215,234);stroke-width:5;fill:none"/>
<polyline points="875.34,431.818 874.496,421.099 871.986,410.644 867.872,400.71 862.254,391.542 855.27,383.366 847.094,376.383 837.926,370.765 827.993,366.65 817.537,364.14 806.818,363.296 796.099,364.14 785.644,366.65 775.71,370.765 766.542,376.383 758.366,383.366 751.383,391.542 745.765,400.71 741.65,410.644 739.14,421.099 738.296,431.818 739.14,442.537 741.65,452.993 745.765,462.926 751.383,472.094 758.366,480.27 766.542,487.254 775.71,492.872 785.644,496.986 796.099,499.496 806.818,500.34 817.537,499.496 827.993,496.986 837.926,492.872 847.094,487.254 855.27,480.27 862.254,472.094 867.872,462.926 871.986,452.993 874.496,442.537 875.34,431.818" style="opacity:0.4;fill:none;stroke:rgb(118,215,234);stroke-width:5;fill:none"/>
<g fill-rule="evenodd"><path d="M 0,575.841 L 272.929,629.509 L 742.705,575.983 L 759.015,406.101 L 499.048,249.427 L 0,350.767 z " style="fill-opacity:0.2;fill:rgb(51,51,153);stroke:rgb(51,51,153);stroke-width:2"/></g>
<g fill-rule="evenodd"><path d="M 609.801,933.949 L 895.351,50.1033 L 203.815,399.757 z " style="fill-opacity:0.2;fill:rgb(51,51,153);stroke:rgb(51,51,153);stroke-width:2"/></g>
<g fill-rule="evenodd"><path d="M 483.471,277.892 L 893.182,619.318 L 1000,395 L 1000,0 L 648.148,0 z " style="fill-opacity:0.2;fill:rgb(51,51,153);stroke:rgb(51,51,153);stroke-width:2"/></g>
<polyline points="125,500 875,425" style="opacity:0.8;fill:none;stroke:rgb(255,0,0);stroke-width:5;fill:none"/>
<text style="fill-opacity:1.0;fill:rgb(10,10,250);" x="750" y="950">test_iterative_decomp</text>
</svg>
