<?xml version="1.0" standalone="no"?>
<!DOCTYPE svg PUBLIC "-//W3C//DTD SVG 1.1//EN"
"http://www.w3.org/Graphics/SVG/1.1/DTD/svg11.dtd">
<svg width="1000" height="1000" version="1.1"
xmlns="http://www.w3.org/2000/svg"
xmlns:xlink="http://www.w3.org/1999/xlink">
<g fill-rule="evenodd"><path d="M 0,1000 L 0,0 L 1000,0 L 1000,1000 L 0,1000 z " style="fill-opacity:1.0;fill:rgb(255,255,255);stroke:rgb(0,0,0);stroke-width:2"/></g>
<circle cx="450" cy="125" r="10" style="fill-opacity:1.0;fill:rgb(255,0,0);"/>
<circle cx="500" cy="125" r="10" style="fill-opacity:1.0;fill:rgb(255,0,0);"/>
<circle cx="500" cy="250" r="10" style="fill-opacity:1.0;fill:rgb(255,0,0);"/>
<circle cx="750" cy="500" r="10" style="fill-opacity:1.0;fill:rgb(255,0,0);"/>
<circle cx="950" cy="500" r="10" style="fill-opacity:1.0;fill:rgb(255,0,0);"/>
<circle cx="700" cy="750" r="10" style="fill-opacity:1.0;fill:rgb(255,0,0);"/>
<circle cx="375" cy="625" r="10" style="fill-opacity:1.0;fill:rgb(255,0,0);"/>
<circle cx="312.5" cy="625" r="10" style="fill-opacity:1.0;fill:rgb(255,0,0);"/>
<circle cx="250" cy="625" r="10" style="fill-opacity:1.0;fill:rgb(255,0,0);"/>
<circle cx="250" cy="300" r="10" style="fill-opacity:1.0;fill:rgb(255,0,0);"/>
<polyline points="801.777,375 799.6,347.346 793.125,320.373 782.509,294.745 768.015,271.093 750,250 728.907,231.985 705.255,217.491 679.627,206.875 652.654,200.4 625,198.223 597.346,200.4 570.373,206.875 544.745,217.491 521.093,231.985 500,250 481.985,271.093 467.491,294.745 456.875,320.373 450.4,347.346 448.223,375 450.4,402.654 456.875,429.627 467.491,455.255 481.985,478.907 500,500 521.093,518.015 544.745,532.509 570.373,543.125 597.346,549.6 625,551.777 652.654,549.6 679.627,543.125 705.255,532.509 728.907,518.015 750,500 768.015,478.907 782.509,455.255 793.125,429.627 799.6,402.654 801.777,375" style="opacity:0.4;fill:none;stroke:rgb(118,215,234);stroke-width:5;fill:none"/>
<polyline points="492.851,433.926 482.182,414.764 468.874,394.624 453.254,374 435.708,353.401 416.667,333.333 396.599,314.292 376,296.746 355.376,281.126 335.236,267.818 316.074,257.149 298.364,249.382 282.54,244.708 268.994,243.242 258.057,245.021 250,250 245.021,258.057 243.242,268.994 244.708,282.54 249.382,298.364 257.149,316.074 267.818,335.236 281.126,355.376 296.746,376 314.292,396.599 333.333,416.667 353.401,435.708 374,453.254 394.624,468.874 414.764,482.182 433.926,492.851 451.636,500.618 467.46,505.292 481.006,506.758 491.943,504.979 500,500 504.979,491.943 506.758,481.006 505.292,467.46 500.618,451.636 492.851,433.926" style="opacity:0.4;fill:none;stroke:rgb(118,215,234);stroke-width:5;fill:none"/>
<g fill-rule="evenodd"><path d="M 250,500 L 500,750 L 1000,250 L 1000,0 L 750,0 z " style="fill-opacity:0.2;fill:rgb(51,51,153);stroke:rgb(51,51,153);stroke-width:2"/></g>
<g fill-rule="evenodd"><path d="M 444.445,805.555 L 946.428,696.428 L 250,0 L 134.615,0 z " style="fill-opacity:0.2;fill:rgb(51,51,153);stroke:rgb(51,51,153);stroke-width:2"/></g>
<polyline points="750,250 500,500 250,250" style="opacity:0.8;fill:none;stroke:rgb(255,0,0);stroke-width:5;fill:none"/>
<text style="fill-opacity:1.0;fill:rgb(10,10,250);" x="750" y="950">test_ellipsoid_decomp</text>
</svg>
